G04 #@! TF.GenerationSoftware,KiCad,Pcbnew,(5.1.10)-1*
G04 #@! TF.CreationDate,2021-11-01T20:38:17+03:00*
G04 #@! TF.ProjectId,cmd_module_booster,636d645f-6d6f-4647-956c-655f626f6f73,rev?*
G04 #@! TF.SameCoordinates,Original*
G04 #@! TF.FileFunction,Copper,L2,Bot*
G04 #@! TF.FilePolarity,Positive*
%FSLAX46Y46*%
G04 Gerber Fmt 4.6, Leading zero omitted, Abs format (unit mm)*
G04 Created by KiCad (PCBNEW (5.1.10)-1) date 2021-11-01 20:38:17*
%MOMM*%
%LPD*%
G01*
G04 APERTURE LIST*
G04 #@! TA.AperFunction,ComponentPad*
%ADD10O,1.700000X1.700000*%
G04 #@! TD*
G04 #@! TA.AperFunction,ComponentPad*
%ADD11R,1.700000X1.700000*%
G04 #@! TD*
G04 #@! TA.AperFunction,ComponentPad*
%ADD12C,2.600000*%
G04 #@! TD*
G04 #@! TA.AperFunction,ComponentPad*
%ADD13R,2.600000X2.600000*%
G04 #@! TD*
G04 #@! TA.AperFunction,ComponentPad*
%ADD14C,4.000000*%
G04 #@! TD*
G04 #@! TA.AperFunction,ComponentPad*
%ADD15R,4.000000X4.000000*%
G04 #@! TD*
G04 #@! TA.AperFunction,ComponentPad*
%ADD16O,1.800000X1.800000*%
G04 #@! TD*
G04 #@! TA.AperFunction,ComponentPad*
%ADD17R,1.800000X1.800000*%
G04 #@! TD*
G04 #@! TA.AperFunction,ComponentPad*
%ADD18O,1.400000X1.400000*%
G04 #@! TD*
G04 #@! TA.AperFunction,ComponentPad*
%ADD19C,1.400000*%
G04 #@! TD*
G04 #@! TA.AperFunction,ComponentPad*
%ADD20C,1.600000*%
G04 #@! TD*
G04 #@! TA.AperFunction,Conductor*
%ADD21C,0.250000*%
G04 #@! TD*
G04 #@! TA.AperFunction,Conductor*
%ADD22C,0.254000*%
G04 #@! TD*
G04 #@! TA.AperFunction,Conductor*
%ADD23C,0.150000*%
G04 #@! TD*
G04 APERTURE END LIST*
D10*
X119380000Y-156972000D03*
X116840000Y-156972000D03*
X114300000Y-156972000D03*
X111760000Y-156972000D03*
D11*
X109220000Y-156972000D03*
D12*
X135128000Y-136478000D03*
D13*
X135128000Y-141478000D03*
D14*
X97696000Y-116840000D03*
D15*
X107696000Y-116840000D03*
D14*
X134968000Y-116840000D03*
D15*
X124968000Y-116840000D03*
D16*
X125204000Y-149098000D03*
X123504000Y-144018000D03*
X121804000Y-149098000D03*
X120104000Y-144018000D03*
X118404000Y-149098000D03*
X116704000Y-144018000D03*
X115004000Y-149098000D03*
X113304000Y-144018000D03*
X111604000Y-149098000D03*
X109904000Y-144018000D03*
D17*
X108204000Y-149098000D03*
D18*
X109606000Y-152146000D03*
D19*
X111506000Y-152146000D03*
D18*
X126106000Y-152146000D03*
D19*
X124206000Y-152146000D03*
D12*
X97790000Y-141652000D03*
D13*
X97790000Y-136652000D03*
D20*
X129286000Y-146598000D03*
X129286000Y-149098000D03*
X104140000Y-149058000D03*
X104140000Y-146558000D03*
X119340000Y-152146000D03*
X116840000Y-152146000D03*
D21*
X104180000Y-149098000D02*
X104140000Y-149058000D01*
X108204000Y-149098000D02*
X104180000Y-149098000D01*
X106680000Y-144018000D02*
X104140000Y-146558000D01*
X109904000Y-144018000D02*
X106680000Y-144018000D01*
X102696000Y-146558000D02*
X97790000Y-141652000D01*
X104140000Y-146558000D02*
X102696000Y-146558000D01*
X122278999Y-142792999D02*
X122278999Y-142090999D01*
X123504000Y-144018000D02*
X122278999Y-142792999D01*
X116840000Y-136652000D02*
X97790000Y-136652000D01*
X122278999Y-142090999D02*
X116840000Y-136652000D01*
X126084000Y-146598000D02*
X123504000Y-144018000D01*
X129286000Y-146598000D02*
X126084000Y-146598000D01*
X125204000Y-149098000D02*
X129286000Y-149098000D01*
X123506001Y-151446001D02*
X123506001Y-147890001D01*
X124206000Y-152146000D02*
X123506001Y-151446001D01*
X123506001Y-147890001D02*
X122428000Y-146812000D01*
X122428000Y-146812000D02*
X121158000Y-146812000D01*
X120104000Y-145758000D02*
X120104000Y-144018000D01*
X121158000Y-146812000D02*
X120104000Y-145758000D01*
X109220000Y-152532000D02*
X109606000Y-152146000D01*
X109220000Y-156972000D02*
X109220000Y-152532000D01*
X109606000Y-147716000D02*
X113304000Y-144018000D01*
X109606000Y-152146000D02*
X109606000Y-147716000D01*
X111760000Y-152400000D02*
X111506000Y-152146000D01*
X111760000Y-156972000D02*
X111760000Y-152400000D01*
X115004000Y-155136000D02*
X116840000Y-156972000D01*
X115004000Y-149098000D02*
X115004000Y-155136000D01*
X114300000Y-151794000D02*
X114300000Y-156972000D01*
X111604000Y-149098000D02*
X114300000Y-151794000D01*
D22*
X96999310Y-139875667D02*
X96752317Y-140007688D01*
X96620381Y-140302776D01*
X97790000Y-141472395D01*
X98959619Y-140302776D01*
X98827683Y-140007688D01*
X98486955Y-139836841D01*
X98451178Y-139827000D01*
X111379000Y-139827000D01*
X111379000Y-143600391D01*
X111346394Y-143492893D01*
X111216236Y-143221586D01*
X111035649Y-142980884D01*
X110811573Y-142780038D01*
X110552620Y-142626766D01*
X110268741Y-142526959D01*
X110031000Y-142647008D01*
X110031000Y-143891000D01*
X110051000Y-143891000D01*
X110051000Y-144145000D01*
X110031000Y-144145000D01*
X110031000Y-144165000D01*
X109777000Y-144165000D01*
X109777000Y-144145000D01*
X108533622Y-144145000D01*
X108412964Y-144382740D01*
X108461606Y-144543107D01*
X108591764Y-144814414D01*
X108772351Y-145055116D01*
X108996427Y-145255962D01*
X109255380Y-145409234D01*
X109539259Y-145509041D01*
X109776998Y-145388993D01*
X109776998Y-145502511D01*
X105380020Y-147701000D01*
X104908998Y-147701000D01*
X104953097Y-147550702D01*
X104140000Y-146737605D01*
X103326903Y-147550702D01*
X103371002Y-147701000D01*
X95631000Y-147701000D01*
X95631000Y-146628512D01*
X102699783Y-146628512D01*
X102741213Y-146908130D01*
X102836397Y-147174292D01*
X102903329Y-147299514D01*
X103147298Y-147371097D01*
X103960395Y-146558000D01*
X104319605Y-146558000D01*
X105132702Y-147371097D01*
X105376671Y-147299514D01*
X105497571Y-147044004D01*
X105566300Y-146769816D01*
X105580217Y-146487488D01*
X105538787Y-146207870D01*
X105443603Y-145941708D01*
X105376671Y-145816486D01*
X105132702Y-145744903D01*
X104319605Y-146558000D01*
X103960395Y-146558000D01*
X103147298Y-145744903D01*
X102903329Y-145816486D01*
X102782429Y-146071996D01*
X102713700Y-146346184D01*
X102699783Y-146628512D01*
X95631000Y-146628512D01*
X95631000Y-145565298D01*
X103326903Y-145565298D01*
X104140000Y-146378395D01*
X104953097Y-145565298D01*
X104881514Y-145321329D01*
X104626004Y-145200429D01*
X104351816Y-145131700D01*
X104069488Y-145117783D01*
X103789870Y-145159213D01*
X103523708Y-145254397D01*
X103398486Y-145321329D01*
X103326903Y-145565298D01*
X95631000Y-145565298D01*
X95631000Y-143653260D01*
X108412964Y-143653260D01*
X108533622Y-143891000D01*
X109777000Y-143891000D01*
X109777000Y-142647008D01*
X109539259Y-142526959D01*
X109255380Y-142626766D01*
X108996427Y-142780038D01*
X108772351Y-142980884D01*
X108591764Y-143221586D01*
X108461606Y-143492893D01*
X108412964Y-143653260D01*
X95631000Y-143653260D01*
X95631000Y-143001224D01*
X96620381Y-143001224D01*
X96752317Y-143296312D01*
X97093045Y-143467159D01*
X97460557Y-143568250D01*
X97840729Y-143595701D01*
X98218951Y-143548457D01*
X98580690Y-143428333D01*
X98827683Y-143296312D01*
X98959619Y-143001224D01*
X97790000Y-141831605D01*
X96620381Y-143001224D01*
X95631000Y-143001224D01*
X95631000Y-141702729D01*
X95846299Y-141702729D01*
X95893543Y-142080951D01*
X96013667Y-142442690D01*
X96145688Y-142689683D01*
X96440776Y-142821619D01*
X97610395Y-141652000D01*
X97969605Y-141652000D01*
X99139224Y-142821619D01*
X99434312Y-142689683D01*
X99605159Y-142348955D01*
X99706250Y-141981443D01*
X99733701Y-141601271D01*
X99686457Y-141223049D01*
X99566333Y-140861310D01*
X99434312Y-140614317D01*
X99139224Y-140482381D01*
X97969605Y-141652000D01*
X97610395Y-141652000D01*
X96440776Y-140482381D01*
X96145688Y-140614317D01*
X95974841Y-140955045D01*
X95873750Y-141322557D01*
X95846299Y-141702729D01*
X95631000Y-141702729D01*
X95631000Y-139827000D01*
X97145865Y-139827000D01*
X96999310Y-139875667D01*
G04 #@! TA.AperFunction,Conductor*
D23*
G36*
X96999310Y-139875667D02*
G01*
X96752317Y-140007688D01*
X96620381Y-140302776D01*
X97790000Y-141472395D01*
X98959619Y-140302776D01*
X98827683Y-140007688D01*
X98486955Y-139836841D01*
X98451178Y-139827000D01*
X111379000Y-139827000D01*
X111379000Y-143600391D01*
X111346394Y-143492893D01*
X111216236Y-143221586D01*
X111035649Y-142980884D01*
X110811573Y-142780038D01*
X110552620Y-142626766D01*
X110268741Y-142526959D01*
X110031000Y-142647008D01*
X110031000Y-143891000D01*
X110051000Y-143891000D01*
X110051000Y-144145000D01*
X110031000Y-144145000D01*
X110031000Y-144165000D01*
X109777000Y-144165000D01*
X109777000Y-144145000D01*
X108533622Y-144145000D01*
X108412964Y-144382740D01*
X108461606Y-144543107D01*
X108591764Y-144814414D01*
X108772351Y-145055116D01*
X108996427Y-145255962D01*
X109255380Y-145409234D01*
X109539259Y-145509041D01*
X109776998Y-145388993D01*
X109776998Y-145502511D01*
X105380020Y-147701000D01*
X104908998Y-147701000D01*
X104953097Y-147550702D01*
X104140000Y-146737605D01*
X103326903Y-147550702D01*
X103371002Y-147701000D01*
X95631000Y-147701000D01*
X95631000Y-146628512D01*
X102699783Y-146628512D01*
X102741213Y-146908130D01*
X102836397Y-147174292D01*
X102903329Y-147299514D01*
X103147298Y-147371097D01*
X103960395Y-146558000D01*
X104319605Y-146558000D01*
X105132702Y-147371097D01*
X105376671Y-147299514D01*
X105497571Y-147044004D01*
X105566300Y-146769816D01*
X105580217Y-146487488D01*
X105538787Y-146207870D01*
X105443603Y-145941708D01*
X105376671Y-145816486D01*
X105132702Y-145744903D01*
X104319605Y-146558000D01*
X103960395Y-146558000D01*
X103147298Y-145744903D01*
X102903329Y-145816486D01*
X102782429Y-146071996D01*
X102713700Y-146346184D01*
X102699783Y-146628512D01*
X95631000Y-146628512D01*
X95631000Y-145565298D01*
X103326903Y-145565298D01*
X104140000Y-146378395D01*
X104953097Y-145565298D01*
X104881514Y-145321329D01*
X104626004Y-145200429D01*
X104351816Y-145131700D01*
X104069488Y-145117783D01*
X103789870Y-145159213D01*
X103523708Y-145254397D01*
X103398486Y-145321329D01*
X103326903Y-145565298D01*
X95631000Y-145565298D01*
X95631000Y-143653260D01*
X108412964Y-143653260D01*
X108533622Y-143891000D01*
X109777000Y-143891000D01*
X109777000Y-142647008D01*
X109539259Y-142526959D01*
X109255380Y-142626766D01*
X108996427Y-142780038D01*
X108772351Y-142980884D01*
X108591764Y-143221586D01*
X108461606Y-143492893D01*
X108412964Y-143653260D01*
X95631000Y-143653260D01*
X95631000Y-143001224D01*
X96620381Y-143001224D01*
X96752317Y-143296312D01*
X97093045Y-143467159D01*
X97460557Y-143568250D01*
X97840729Y-143595701D01*
X98218951Y-143548457D01*
X98580690Y-143428333D01*
X98827683Y-143296312D01*
X98959619Y-143001224D01*
X97790000Y-141831605D01*
X96620381Y-143001224D01*
X95631000Y-143001224D01*
X95631000Y-141702729D01*
X95846299Y-141702729D01*
X95893543Y-142080951D01*
X96013667Y-142442690D01*
X96145688Y-142689683D01*
X96440776Y-142821619D01*
X97610395Y-141652000D01*
X97969605Y-141652000D01*
X99139224Y-142821619D01*
X99434312Y-142689683D01*
X99605159Y-142348955D01*
X99706250Y-141981443D01*
X99733701Y-141601271D01*
X99686457Y-141223049D01*
X99566333Y-140861310D01*
X99434312Y-140614317D01*
X99139224Y-140482381D01*
X97969605Y-141652000D01*
X97610395Y-141652000D01*
X96440776Y-140482381D01*
X96145688Y-140614317D01*
X95974841Y-140955045D01*
X95873750Y-141322557D01*
X95846299Y-141702729D01*
X95631000Y-141702729D01*
X95631000Y-139827000D01*
X97145865Y-139827000D01*
X96999310Y-139875667D01*
G37*
G04 #@! TD.AperFunction*
D22*
X111379000Y-144701510D02*
X111236131Y-144772945D01*
X111346394Y-144543107D01*
X111379000Y-144435609D01*
X111379000Y-144701510D01*
G04 #@! TA.AperFunction,Conductor*
D23*
G36*
X111379000Y-144701510D02*
G01*
X111236131Y-144772945D01*
X111346394Y-144543107D01*
X111379000Y-144435609D01*
X111379000Y-144701510D01*
G37*
G04 #@! TD.AperFunction*
D22*
X111379000Y-144351143D02*
X111274379Y-144145002D01*
X111379000Y-144145002D01*
X111379000Y-144351143D01*
G04 #@! TA.AperFunction,Conductor*
D23*
G36*
X111379000Y-144351143D02*
G01*
X111274379Y-144145002D01*
X111379000Y-144145002D01*
X111379000Y-144351143D01*
G37*
G04 #@! TD.AperFunction*
D22*
X111379000Y-143890998D02*
X111274379Y-143890998D01*
X111379000Y-143684857D01*
X111379000Y-143890998D01*
G04 #@! TA.AperFunction,Conductor*
D23*
G36*
X111379000Y-143890998D02*
G01*
X111274379Y-143890998D01*
X111379000Y-143684857D01*
X111379000Y-143890998D01*
G37*
G04 #@! TD.AperFunction*
D22*
X126111000Y-145669000D02*
X122047000Y-145669000D01*
X122047000Y-144494953D01*
X122061606Y-144543107D01*
X122191764Y-144814414D01*
X122372351Y-145055116D01*
X122596427Y-145255962D01*
X122855380Y-145409234D01*
X123139259Y-145509041D01*
X123377000Y-145388992D01*
X123377000Y-144145000D01*
X123631000Y-144145000D01*
X123631000Y-145388992D01*
X123868741Y-145509041D01*
X124152620Y-145409234D01*
X124411573Y-145255962D01*
X124635649Y-145055116D01*
X124816236Y-144814414D01*
X124946394Y-144543107D01*
X124995036Y-144382740D01*
X124874378Y-144145000D01*
X123631000Y-144145000D01*
X123377000Y-144145000D01*
X123357000Y-144145000D01*
X123357000Y-143891000D01*
X123377000Y-143891000D01*
X123377000Y-142647008D01*
X123631000Y-142647008D01*
X123631000Y-143891000D01*
X124874378Y-143891000D01*
X124995036Y-143653260D01*
X124946394Y-143492893D01*
X124816236Y-143221586D01*
X124635649Y-142980884D01*
X124411573Y-142780038D01*
X124152620Y-142626766D01*
X123868741Y-142526959D01*
X123631000Y-142647008D01*
X123377000Y-142647008D01*
X123139259Y-142526959D01*
X122855380Y-142626766D01*
X122596427Y-142780038D01*
X122372351Y-142980884D01*
X122191764Y-143221586D01*
X122061606Y-143492893D01*
X122047000Y-143541047D01*
X122047000Y-142494000D01*
X122044560Y-142469224D01*
X122037333Y-142445399D01*
X122025597Y-142423443D01*
X122009803Y-142404197D01*
X121990557Y-142388403D01*
X121968601Y-142376667D01*
X121944776Y-142369440D01*
X121920000Y-142367000D01*
X112395000Y-142367000D01*
X112395000Y-138938000D01*
X112392560Y-138913224D01*
X112385333Y-138889399D01*
X112373597Y-138867443D01*
X112357803Y-138848197D01*
X112338557Y-138832403D01*
X112316601Y-138820667D01*
X112292776Y-138813440D01*
X112269954Y-138811015D01*
X97507352Y-138583898D01*
X97663000Y-138428250D01*
X97663000Y-136779000D01*
X97917000Y-136779000D01*
X97917000Y-138428250D01*
X98075750Y-138587000D01*
X99090000Y-138590072D01*
X99214482Y-138577812D01*
X99334180Y-138541502D01*
X99444494Y-138482537D01*
X99541185Y-138403185D01*
X99620537Y-138306494D01*
X99679502Y-138196180D01*
X99715812Y-138076482D01*
X99728072Y-137952000D01*
X99725000Y-136937750D01*
X99566250Y-136779000D01*
X97917000Y-136779000D01*
X97663000Y-136779000D01*
X97643000Y-136779000D01*
X97643000Y-136525000D01*
X97663000Y-136525000D01*
X97663000Y-136505000D01*
X97917000Y-136505000D01*
X97917000Y-136525000D01*
X99566250Y-136525000D01*
X99725000Y-136366250D01*
X99728072Y-135352000D01*
X99715812Y-135227518D01*
X99679502Y-135107820D01*
X99620537Y-134997506D01*
X99541185Y-134900815D01*
X99444494Y-134821463D01*
X99334180Y-134762498D01*
X99283090Y-134747000D01*
X126111000Y-134747000D01*
X126111000Y-145669000D01*
G04 #@! TA.AperFunction,Conductor*
D23*
G36*
X126111000Y-145669000D02*
G01*
X122047000Y-145669000D01*
X122047000Y-144494953D01*
X122061606Y-144543107D01*
X122191764Y-144814414D01*
X122372351Y-145055116D01*
X122596427Y-145255962D01*
X122855380Y-145409234D01*
X123139259Y-145509041D01*
X123377000Y-145388992D01*
X123377000Y-144145000D01*
X123631000Y-144145000D01*
X123631000Y-145388992D01*
X123868741Y-145509041D01*
X124152620Y-145409234D01*
X124411573Y-145255962D01*
X124635649Y-145055116D01*
X124816236Y-144814414D01*
X124946394Y-144543107D01*
X124995036Y-144382740D01*
X124874378Y-144145000D01*
X123631000Y-144145000D01*
X123377000Y-144145000D01*
X123357000Y-144145000D01*
X123357000Y-143891000D01*
X123377000Y-143891000D01*
X123377000Y-142647008D01*
X123631000Y-142647008D01*
X123631000Y-143891000D01*
X124874378Y-143891000D01*
X124995036Y-143653260D01*
X124946394Y-143492893D01*
X124816236Y-143221586D01*
X124635649Y-142980884D01*
X124411573Y-142780038D01*
X124152620Y-142626766D01*
X123868741Y-142526959D01*
X123631000Y-142647008D01*
X123377000Y-142647008D01*
X123139259Y-142526959D01*
X122855380Y-142626766D01*
X122596427Y-142780038D01*
X122372351Y-142980884D01*
X122191764Y-143221586D01*
X122061606Y-143492893D01*
X122047000Y-143541047D01*
X122047000Y-142494000D01*
X122044560Y-142469224D01*
X122037333Y-142445399D01*
X122025597Y-142423443D01*
X122009803Y-142404197D01*
X121990557Y-142388403D01*
X121968601Y-142376667D01*
X121944776Y-142369440D01*
X121920000Y-142367000D01*
X112395000Y-142367000D01*
X112395000Y-138938000D01*
X112392560Y-138913224D01*
X112385333Y-138889399D01*
X112373597Y-138867443D01*
X112357803Y-138848197D01*
X112338557Y-138832403D01*
X112316601Y-138820667D01*
X112292776Y-138813440D01*
X112269954Y-138811015D01*
X97507352Y-138583898D01*
X97663000Y-138428250D01*
X97663000Y-136779000D01*
X97917000Y-136779000D01*
X97917000Y-138428250D01*
X98075750Y-138587000D01*
X99090000Y-138590072D01*
X99214482Y-138577812D01*
X99334180Y-138541502D01*
X99444494Y-138482537D01*
X99541185Y-138403185D01*
X99620537Y-138306494D01*
X99679502Y-138196180D01*
X99715812Y-138076482D01*
X99728072Y-137952000D01*
X99725000Y-136937750D01*
X99566250Y-136779000D01*
X97917000Y-136779000D01*
X97663000Y-136779000D01*
X97643000Y-136779000D01*
X97643000Y-136525000D01*
X97663000Y-136525000D01*
X97663000Y-136505000D01*
X97917000Y-136505000D01*
X97917000Y-136525000D01*
X99566250Y-136525000D01*
X99725000Y-136366250D01*
X99728072Y-135352000D01*
X99715812Y-135227518D01*
X99679502Y-135107820D01*
X99620537Y-134997506D01*
X99541185Y-134900815D01*
X99444494Y-134821463D01*
X99334180Y-134762498D01*
X99283090Y-134747000D01*
X126111000Y-134747000D01*
X126111000Y-145669000D01*
G37*
G04 #@! TD.AperFunction*
D22*
X122047000Y-144315677D02*
X122047000Y-144145002D01*
X122133621Y-144145002D01*
X122047000Y-144315677D01*
G04 #@! TA.AperFunction,Conductor*
D23*
G36*
X122047000Y-144315677D02*
G01*
X122047000Y-144145002D01*
X122133621Y-144145002D01*
X122047000Y-144315677D01*
G37*
G04 #@! TD.AperFunction*
D22*
X122133621Y-143890998D02*
X122047000Y-143890998D01*
X122047000Y-143720323D01*
X122133621Y-143890998D01*
G04 #@! TA.AperFunction,Conductor*
D23*
G36*
X122133621Y-143890998D02*
G01*
X122047000Y-143890998D01*
X122047000Y-143720323D01*
X122133621Y-143890998D01*
G37*
G04 #@! TD.AperFunction*
D22*
X95900498Y-138196180D02*
X95959463Y-138306494D01*
X96038815Y-138403185D01*
X96135506Y-138482537D01*
X96245820Y-138541502D01*
X96325650Y-138565718D01*
X95885000Y-138558939D01*
X95885000Y-138145090D01*
X95900498Y-138196180D01*
G04 #@! TA.AperFunction,Conductor*
D23*
G36*
X95900498Y-138196180D02*
G01*
X95959463Y-138306494D01*
X96038815Y-138403185D01*
X96135506Y-138482537D01*
X96245820Y-138541502D01*
X96325650Y-138565718D01*
X95885000Y-138558939D01*
X95885000Y-138145090D01*
X95900498Y-138196180D01*
G37*
G04 #@! TD.AperFunction*
D22*
X95885000Y-136907750D02*
X95885000Y-136779002D01*
X96013748Y-136779002D01*
X95885000Y-136907750D01*
G04 #@! TA.AperFunction,Conductor*
D23*
G36*
X95885000Y-136907750D02*
G01*
X95885000Y-136779002D01*
X96013748Y-136779002D01*
X95885000Y-136907750D01*
G37*
G04 #@! TD.AperFunction*
D22*
X96013748Y-136524998D02*
X95885000Y-136524998D01*
X95885000Y-136396250D01*
X96013748Y-136524998D01*
G04 #@! TA.AperFunction,Conductor*
D23*
G36*
X96013748Y-136524998D02*
G01*
X95885000Y-136524998D01*
X95885000Y-136396250D01*
X96013748Y-136524998D01*
G37*
G04 #@! TD.AperFunction*
D22*
X96245820Y-134762498D02*
X96135506Y-134821463D01*
X96038815Y-134900815D01*
X95959463Y-134997506D01*
X95900498Y-135107820D01*
X95885000Y-135158910D01*
X95885000Y-134747000D01*
X96296910Y-134747000D01*
X96245820Y-134762498D01*
G04 #@! TA.AperFunction,Conductor*
D23*
G36*
X96245820Y-134762498D02*
G01*
X96135506Y-134821463D01*
X96038815Y-134900815D01*
X95959463Y-134997506D01*
X95900498Y-135107820D01*
X95885000Y-135158910D01*
X95885000Y-134747000D01*
X96296910Y-134747000D01*
X96245820Y-134762498D01*
G37*
G04 #@! TD.AperFunction*
D22*
X97662998Y-134875748D02*
X97534250Y-134747000D01*
X97662998Y-134747000D01*
X97662998Y-134875748D01*
G04 #@! TA.AperFunction,Conductor*
D23*
G36*
X97662998Y-134875748D02*
G01*
X97534250Y-134747000D01*
X97662998Y-134747000D01*
X97662998Y-134875748D01*
G37*
G04 #@! TD.AperFunction*
D22*
X97917002Y-134875748D02*
X97917002Y-134747000D01*
X98045750Y-134747000D01*
X97917002Y-134875748D01*
G04 #@! TA.AperFunction,Conductor*
D23*
G36*
X97917002Y-134875748D02*
G01*
X97917002Y-134747000D01*
X98045750Y-134747000D01*
X97917002Y-134875748D01*
G37*
G04 #@! TD.AperFunction*
D22*
X122180348Y-143245381D02*
X122061606Y-143492893D01*
X122012964Y-143653260D01*
X122133622Y-143891000D01*
X122527989Y-143891000D01*
X122664758Y-144145000D01*
X122133622Y-144145000D01*
X122012964Y-144382740D01*
X122061606Y-144543107D01*
X122191764Y-144814414D01*
X122372351Y-145055116D01*
X122596427Y-145255962D01*
X122855380Y-145409234D01*
X123139259Y-145509041D01*
X123343664Y-145405825D01*
X123376998Y-145467731D01*
X123376998Y-145553000D01*
X123422912Y-145553000D01*
X123485374Y-145669000D01*
X121539000Y-145669000D01*
X121539000Y-144564752D01*
X121580011Y-144465743D01*
X121639000Y-144169184D01*
X121639000Y-143866816D01*
X121580011Y-143570257D01*
X121539000Y-143471248D01*
X121539000Y-142621000D01*
X121844143Y-142621000D01*
X122180348Y-143245381D01*
G04 #@! TA.AperFunction,Conductor*
D23*
G36*
X122180348Y-143245381D02*
G01*
X122061606Y-143492893D01*
X122012964Y-143653260D01*
X122133622Y-143891000D01*
X122527989Y-143891000D01*
X122664758Y-144145000D01*
X122133622Y-144145000D01*
X122012964Y-144382740D01*
X122061606Y-144543107D01*
X122191764Y-144814414D01*
X122372351Y-145055116D01*
X122596427Y-145255962D01*
X122855380Y-145409234D01*
X123139259Y-145509041D01*
X123343664Y-145405825D01*
X123376998Y-145467731D01*
X123376998Y-145553000D01*
X123422912Y-145553000D01*
X123485374Y-145669000D01*
X121539000Y-145669000D01*
X121539000Y-144564752D01*
X121580011Y-144465743D01*
X121639000Y-144169184D01*
X121639000Y-143866816D01*
X121580011Y-143570257D01*
X121539000Y-143471248D01*
X121539000Y-142621000D01*
X121844143Y-142621000D01*
X122180348Y-143245381D01*
G37*
G04 #@! TD.AperFunction*
D22*
X98969916Y-134714292D02*
X98075750Y-134717000D01*
X97917000Y-134875750D01*
X97917000Y-136525000D01*
X99566250Y-136525000D01*
X99725000Y-136366250D01*
X99728072Y-135352000D01*
X99715812Y-135227518D01*
X99679502Y-135107820D01*
X99620537Y-134997506D01*
X99541185Y-134900815D01*
X99516668Y-134880695D01*
X112430529Y-138811000D01*
X95123000Y-138811000D01*
X95123000Y-137952000D01*
X95851928Y-137952000D01*
X95864188Y-138076482D01*
X95900498Y-138196180D01*
X95959463Y-138306494D01*
X96038815Y-138403185D01*
X96135506Y-138482537D01*
X96245820Y-138541502D01*
X96365518Y-138577812D01*
X96490000Y-138590072D01*
X97504250Y-138587000D01*
X97663000Y-138428250D01*
X97663000Y-136779000D01*
X97917000Y-136779000D01*
X97917000Y-138428250D01*
X98075750Y-138587000D01*
X99090000Y-138590072D01*
X99214482Y-138577812D01*
X99334180Y-138541502D01*
X99444494Y-138482537D01*
X99541185Y-138403185D01*
X99620537Y-138306494D01*
X99679502Y-138196180D01*
X99715812Y-138076482D01*
X99728072Y-137952000D01*
X99725000Y-136937750D01*
X99566250Y-136779000D01*
X97917000Y-136779000D01*
X97663000Y-136779000D01*
X96013750Y-136779000D01*
X95855000Y-136937750D01*
X95851928Y-137952000D01*
X95123000Y-137952000D01*
X95123000Y-135352000D01*
X95851928Y-135352000D01*
X95855000Y-136366250D01*
X96013750Y-136525000D01*
X97663000Y-136525000D01*
X97663000Y-134875750D01*
X97504250Y-134717000D01*
X96490000Y-134713928D01*
X96365518Y-134726188D01*
X96245820Y-134762498D01*
X96135506Y-134821463D01*
X96038815Y-134900815D01*
X95959463Y-134997506D01*
X95900498Y-135107820D01*
X95864188Y-135227518D01*
X95851928Y-135352000D01*
X95123000Y-135352000D01*
X95123000Y-133731000D01*
X95739100Y-133731000D01*
X98969916Y-134714292D01*
G04 #@! TA.AperFunction,Conductor*
D23*
G36*
X98969916Y-134714292D02*
G01*
X98075750Y-134717000D01*
X97917000Y-134875750D01*
X97917000Y-136525000D01*
X99566250Y-136525000D01*
X99725000Y-136366250D01*
X99728072Y-135352000D01*
X99715812Y-135227518D01*
X99679502Y-135107820D01*
X99620537Y-134997506D01*
X99541185Y-134900815D01*
X99516668Y-134880695D01*
X112430529Y-138811000D01*
X95123000Y-138811000D01*
X95123000Y-137952000D01*
X95851928Y-137952000D01*
X95864188Y-138076482D01*
X95900498Y-138196180D01*
X95959463Y-138306494D01*
X96038815Y-138403185D01*
X96135506Y-138482537D01*
X96245820Y-138541502D01*
X96365518Y-138577812D01*
X96490000Y-138590072D01*
X97504250Y-138587000D01*
X97663000Y-138428250D01*
X97663000Y-136779000D01*
X97917000Y-136779000D01*
X97917000Y-138428250D01*
X98075750Y-138587000D01*
X99090000Y-138590072D01*
X99214482Y-138577812D01*
X99334180Y-138541502D01*
X99444494Y-138482537D01*
X99541185Y-138403185D01*
X99620537Y-138306494D01*
X99679502Y-138196180D01*
X99715812Y-138076482D01*
X99728072Y-137952000D01*
X99725000Y-136937750D01*
X99566250Y-136779000D01*
X97917000Y-136779000D01*
X97663000Y-136779000D01*
X96013750Y-136779000D01*
X95855000Y-136937750D01*
X95851928Y-137952000D01*
X95123000Y-137952000D01*
X95123000Y-135352000D01*
X95851928Y-135352000D01*
X95855000Y-136366250D01*
X96013750Y-136525000D01*
X97663000Y-136525000D01*
X97663000Y-134875750D01*
X97504250Y-134717000D01*
X96490000Y-134713928D01*
X96365518Y-134726188D01*
X96245820Y-134762498D01*
X96135506Y-134821463D01*
X96038815Y-134900815D01*
X95959463Y-134997506D01*
X95900498Y-135107820D01*
X95864188Y-135227518D01*
X95851928Y-135352000D01*
X95123000Y-135352000D01*
X95123000Y-133731000D01*
X95739100Y-133731000D01*
X98969916Y-134714292D01*
G37*
G04 #@! TD.AperFunction*
D22*
X126111000Y-134749065D02*
X99702004Y-135182000D01*
X99679502Y-135107820D01*
X99620537Y-134997506D01*
X99541185Y-134900815D01*
X99444494Y-134821463D01*
X99334180Y-134762498D01*
X99214482Y-134726188D01*
X99090000Y-134713928D01*
X98075750Y-134717000D01*
X97917000Y-134875750D01*
X97917000Y-135211262D01*
X97663000Y-135215426D01*
X97663000Y-134875750D01*
X97504250Y-134717000D01*
X96490000Y-134713928D01*
X96365518Y-134726188D01*
X96245820Y-134762498D01*
X96135506Y-134821463D01*
X96038815Y-134900815D01*
X95959463Y-134997506D01*
X95900498Y-135107820D01*
X95864188Y-135227518D01*
X95862472Y-135244943D01*
X95419166Y-135252210D01*
X95853797Y-133731000D01*
X126111000Y-133731000D01*
X126111000Y-134749065D01*
G04 #@! TA.AperFunction,Conductor*
D23*
G36*
X126111000Y-134749065D02*
G01*
X99702004Y-135182000D01*
X99679502Y-135107820D01*
X99620537Y-134997506D01*
X99541185Y-134900815D01*
X99444494Y-134821463D01*
X99334180Y-134762498D01*
X99214482Y-134726188D01*
X99090000Y-134713928D01*
X98075750Y-134717000D01*
X97917000Y-134875750D01*
X97917000Y-135211262D01*
X97663000Y-135215426D01*
X97663000Y-134875750D01*
X97504250Y-134717000D01*
X96490000Y-134713928D01*
X96365518Y-134726188D01*
X96245820Y-134762498D01*
X96135506Y-134821463D01*
X96038815Y-134900815D01*
X95959463Y-134997506D01*
X95900498Y-135107820D01*
X95864188Y-135227518D01*
X95862472Y-135244943D01*
X95419166Y-135252210D01*
X95853797Y-133731000D01*
X126111000Y-133731000D01*
X126111000Y-134749065D01*
G37*
G04 #@! TD.AperFunction*
D22*
X111633000Y-144614199D02*
X110679811Y-145567388D01*
X105387355Y-147602948D01*
X106729108Y-144382740D01*
X108412964Y-144382740D01*
X108461606Y-144543107D01*
X108591764Y-144814414D01*
X108772351Y-145055116D01*
X108996427Y-145255962D01*
X109255380Y-145409234D01*
X109539259Y-145509041D01*
X109777000Y-145388992D01*
X109777000Y-144145000D01*
X110031000Y-144145000D01*
X110031000Y-145388992D01*
X110268741Y-145509041D01*
X110552620Y-145409234D01*
X110811573Y-145255962D01*
X111035649Y-145055116D01*
X111216236Y-144814414D01*
X111346394Y-144543107D01*
X111395036Y-144382740D01*
X111274378Y-144145000D01*
X110031000Y-144145000D01*
X109777000Y-144145000D01*
X108533622Y-144145000D01*
X108412964Y-144382740D01*
X106729108Y-144382740D01*
X107033058Y-143653260D01*
X108412964Y-143653260D01*
X108533622Y-143891000D01*
X109777000Y-143891000D01*
X109777000Y-142647008D01*
X110031000Y-142647008D01*
X110031000Y-143891000D01*
X111274378Y-143891000D01*
X111395036Y-143653260D01*
X111346394Y-143492893D01*
X111216236Y-143221586D01*
X111035649Y-142980884D01*
X110811573Y-142780038D01*
X110552620Y-142626766D01*
X110268741Y-142526959D01*
X110031000Y-142647008D01*
X109777000Y-142647008D01*
X109539259Y-142526959D01*
X109255380Y-142626766D01*
X108996427Y-142780038D01*
X108772351Y-142980884D01*
X108591764Y-143221586D01*
X108461606Y-143492893D01*
X108412964Y-143653260D01*
X107033058Y-143653260D01*
X107780667Y-141859000D01*
X111633000Y-141859000D01*
X111633000Y-144614199D01*
G04 #@! TA.AperFunction,Conductor*
D23*
G36*
X111633000Y-144614199D02*
G01*
X110679811Y-145567388D01*
X105387355Y-147602948D01*
X106729108Y-144382740D01*
X108412964Y-144382740D01*
X108461606Y-144543107D01*
X108591764Y-144814414D01*
X108772351Y-145055116D01*
X108996427Y-145255962D01*
X109255380Y-145409234D01*
X109539259Y-145509041D01*
X109777000Y-145388992D01*
X109777000Y-144145000D01*
X110031000Y-144145000D01*
X110031000Y-145388992D01*
X110268741Y-145509041D01*
X110552620Y-145409234D01*
X110811573Y-145255962D01*
X111035649Y-145055116D01*
X111216236Y-144814414D01*
X111346394Y-144543107D01*
X111395036Y-144382740D01*
X111274378Y-144145000D01*
X110031000Y-144145000D01*
X109777000Y-144145000D01*
X108533622Y-144145000D01*
X108412964Y-144382740D01*
X106729108Y-144382740D01*
X107033058Y-143653260D01*
X108412964Y-143653260D01*
X108533622Y-143891000D01*
X109777000Y-143891000D01*
X109777000Y-142647008D01*
X110031000Y-142647008D01*
X110031000Y-143891000D01*
X111274378Y-143891000D01*
X111395036Y-143653260D01*
X111346394Y-143492893D01*
X111216236Y-143221586D01*
X111035649Y-142980884D01*
X110811573Y-142780038D01*
X110552620Y-142626766D01*
X110268741Y-142526959D01*
X110031000Y-142647008D01*
X109777000Y-142647008D01*
X109539259Y-142526959D01*
X109255380Y-142626766D01*
X108996427Y-142780038D01*
X108772351Y-142980884D01*
X108591764Y-143221586D01*
X108461606Y-143492893D01*
X108412964Y-143653260D01*
X107033058Y-143653260D01*
X107780667Y-141859000D01*
X111633000Y-141859000D01*
X111633000Y-144614199D01*
G37*
G04 #@! TD.AperFunction*
D22*
X111633000Y-142906402D02*
X111095795Y-143061052D01*
X111035649Y-142980884D01*
X110811573Y-142780038D01*
X110552620Y-142626766D01*
X110268741Y-142526959D01*
X110031000Y-142647008D01*
X110031000Y-143367584D01*
X109777000Y-143440705D01*
X109777000Y-142647008D01*
X109539259Y-142526959D01*
X109255380Y-142626766D01*
X108996427Y-142780038D01*
X108772351Y-142980884D01*
X108591764Y-143221586D01*
X108461606Y-143492893D01*
X108412964Y-143653260D01*
X108492726Y-143810420D01*
X103826086Y-145153847D01*
X103789870Y-145159213D01*
X103717315Y-145185160D01*
X95123000Y-147659281D01*
X95123000Y-143001224D01*
X96620381Y-143001224D01*
X96752317Y-143296312D01*
X97093045Y-143467159D01*
X97460557Y-143568250D01*
X97840729Y-143595701D01*
X98218951Y-143548457D01*
X98580690Y-143428333D01*
X98827683Y-143296312D01*
X98959619Y-143001224D01*
X97790000Y-141831605D01*
X96620381Y-143001224D01*
X95123000Y-143001224D01*
X95123000Y-141702729D01*
X95846299Y-141702729D01*
X95893543Y-142080951D01*
X96013667Y-142442690D01*
X96145688Y-142689683D01*
X96440776Y-142821619D01*
X97610395Y-141652000D01*
X97969605Y-141652000D01*
X99139224Y-142821619D01*
X99434312Y-142689683D01*
X99605159Y-142348955D01*
X99706250Y-141981443D01*
X99733701Y-141601271D01*
X99686457Y-141223049D01*
X99566333Y-140861310D01*
X99434312Y-140614317D01*
X99139224Y-140482381D01*
X97969605Y-141652000D01*
X97610395Y-141652000D01*
X96440776Y-140482381D01*
X96145688Y-140614317D01*
X95974841Y-140955045D01*
X95873750Y-141322557D01*
X95846299Y-141702729D01*
X95123000Y-141702729D01*
X95123000Y-140302776D01*
X96620381Y-140302776D01*
X97790000Y-141472395D01*
X98959619Y-140302776D01*
X98827683Y-140007688D01*
X98486955Y-139836841D01*
X98119443Y-139735750D01*
X97739271Y-139708299D01*
X97361049Y-139755543D01*
X96999310Y-139875667D01*
X96752317Y-140007688D01*
X96620381Y-140302776D01*
X95123000Y-140302776D01*
X95123000Y-139573000D01*
X111633000Y-139573000D01*
X111633000Y-142906402D01*
G04 #@! TA.AperFunction,Conductor*
D23*
G36*
X111633000Y-142906402D02*
G01*
X111095795Y-143061052D01*
X111035649Y-142980884D01*
X110811573Y-142780038D01*
X110552620Y-142626766D01*
X110268741Y-142526959D01*
X110031000Y-142647008D01*
X110031000Y-143367584D01*
X109777000Y-143440705D01*
X109777000Y-142647008D01*
X109539259Y-142526959D01*
X109255380Y-142626766D01*
X108996427Y-142780038D01*
X108772351Y-142980884D01*
X108591764Y-143221586D01*
X108461606Y-143492893D01*
X108412964Y-143653260D01*
X108492726Y-143810420D01*
X103826086Y-145153847D01*
X103789870Y-145159213D01*
X103717315Y-145185160D01*
X95123000Y-147659281D01*
X95123000Y-143001224D01*
X96620381Y-143001224D01*
X96752317Y-143296312D01*
X97093045Y-143467159D01*
X97460557Y-143568250D01*
X97840729Y-143595701D01*
X98218951Y-143548457D01*
X98580690Y-143428333D01*
X98827683Y-143296312D01*
X98959619Y-143001224D01*
X97790000Y-141831605D01*
X96620381Y-143001224D01*
X95123000Y-143001224D01*
X95123000Y-141702729D01*
X95846299Y-141702729D01*
X95893543Y-142080951D01*
X96013667Y-142442690D01*
X96145688Y-142689683D01*
X96440776Y-142821619D01*
X97610395Y-141652000D01*
X97969605Y-141652000D01*
X99139224Y-142821619D01*
X99434312Y-142689683D01*
X99605159Y-142348955D01*
X99706250Y-141981443D01*
X99733701Y-141601271D01*
X99686457Y-141223049D01*
X99566333Y-140861310D01*
X99434312Y-140614317D01*
X99139224Y-140482381D01*
X97969605Y-141652000D01*
X97610395Y-141652000D01*
X96440776Y-140482381D01*
X96145688Y-140614317D01*
X95974841Y-140955045D01*
X95873750Y-141322557D01*
X95846299Y-141702729D01*
X95123000Y-141702729D01*
X95123000Y-140302776D01*
X96620381Y-140302776D01*
X97790000Y-141472395D01*
X98959619Y-140302776D01*
X98827683Y-140007688D01*
X98486955Y-139836841D01*
X98119443Y-139735750D01*
X97739271Y-139708299D01*
X97361049Y-139755543D01*
X96999310Y-139875667D01*
X96752317Y-140007688D01*
X96620381Y-140302776D01*
X95123000Y-140302776D01*
X95123000Y-139573000D01*
X111633000Y-139573000D01*
X111633000Y-142906402D01*
G37*
G04 #@! TD.AperFunction*
D22*
X126111000Y-135504803D02*
X95123000Y-134497063D01*
X95123000Y-131953000D01*
X126111000Y-131953000D01*
X126111000Y-135504803D01*
G04 #@! TA.AperFunction,Conductor*
D23*
G36*
X126111000Y-135504803D02*
G01*
X95123000Y-134497063D01*
X95123000Y-131953000D01*
X126111000Y-131953000D01*
X126111000Y-135504803D01*
G37*
G04 #@! TD.AperFunction*
D22*
X119507000Y-148035205D02*
X119311573Y-147860038D01*
X119052620Y-147706766D01*
X118768741Y-147606959D01*
X118531000Y-147727008D01*
X118531000Y-148971000D01*
X118551000Y-148971000D01*
X118551000Y-149225000D01*
X118531000Y-149225000D01*
X118531000Y-150468992D01*
X118768741Y-150589041D01*
X119052620Y-150489234D01*
X119311573Y-150335962D01*
X119535649Y-150135116D01*
X119617034Y-150026640D01*
X128736452Y-159639000D01*
X118237000Y-159639000D01*
X118237000Y-157911242D01*
X118379731Y-158069588D01*
X118613080Y-158243641D01*
X118875901Y-158368825D01*
X119023110Y-158413476D01*
X119253000Y-158292155D01*
X119253000Y-157099000D01*
X119507000Y-157099000D01*
X119507000Y-158292155D01*
X119736890Y-158413476D01*
X119884099Y-158368825D01*
X120146920Y-158243641D01*
X120380269Y-158069588D01*
X120575178Y-157853355D01*
X120724157Y-157603252D01*
X120821481Y-157328891D01*
X120700814Y-157099000D01*
X119507000Y-157099000D01*
X119253000Y-157099000D01*
X119233000Y-157099000D01*
X119233000Y-156845000D01*
X119253000Y-156845000D01*
X119253000Y-155651845D01*
X119507000Y-155651845D01*
X119507000Y-156845000D01*
X120700814Y-156845000D01*
X120821481Y-156615109D01*
X120724157Y-156340748D01*
X120575178Y-156090645D01*
X120380269Y-155874412D01*
X120146920Y-155700359D01*
X119884099Y-155575175D01*
X119736890Y-155530524D01*
X119507000Y-155651845D01*
X119253000Y-155651845D01*
X119023110Y-155530524D01*
X118875901Y-155575175D01*
X118613080Y-155700359D01*
X118379731Y-155874412D01*
X118237000Y-156032758D01*
X118237000Y-153138702D01*
X118526903Y-153138702D01*
X118598486Y-153382671D01*
X118853996Y-153503571D01*
X119128184Y-153572300D01*
X119410512Y-153586217D01*
X119690130Y-153544787D01*
X119956292Y-153449603D01*
X120081514Y-153382671D01*
X120153097Y-153138702D01*
X119340000Y-152325605D01*
X118526903Y-153138702D01*
X118237000Y-153138702D01*
X118237000Y-152926734D01*
X118347298Y-152959097D01*
X119160395Y-152146000D01*
X119519605Y-152146000D01*
X120332702Y-152959097D01*
X120576671Y-152887514D01*
X120697571Y-152632004D01*
X120766300Y-152357816D01*
X120780217Y-152075488D01*
X120738787Y-151795870D01*
X120643603Y-151529708D01*
X120576671Y-151404486D01*
X120332702Y-151332903D01*
X119519605Y-152146000D01*
X119160395Y-152146000D01*
X118347298Y-151332903D01*
X118235207Y-151365792D01*
X118234560Y-151359224D01*
X118227333Y-151335399D01*
X118215597Y-151313443D01*
X118199803Y-151294197D01*
X118058904Y-151153298D01*
X118526903Y-151153298D01*
X119340000Y-151966395D01*
X120153097Y-151153298D01*
X120081514Y-150909329D01*
X119826004Y-150788429D01*
X119551816Y-150719700D01*
X119269488Y-150705783D01*
X118989870Y-150747213D01*
X118723708Y-150842397D01*
X118598486Y-150909329D01*
X118526903Y-151153298D01*
X118058904Y-151153298D01*
X117475000Y-150569394D01*
X117475000Y-150316756D01*
X117496427Y-150335962D01*
X117755380Y-150489234D01*
X118039259Y-150589041D01*
X118277000Y-150468992D01*
X118277000Y-149225000D01*
X118257000Y-149225000D01*
X118257000Y-148971000D01*
X118277000Y-148971000D01*
X118277000Y-147727008D01*
X118039259Y-147606959D01*
X117755380Y-147706766D01*
X117496427Y-147860038D01*
X117475000Y-147879244D01*
X117475000Y-147193000D01*
X119507000Y-147193000D01*
X119507000Y-148035205D01*
G04 #@! TA.AperFunction,Conductor*
D23*
G36*
X119507000Y-148035205D02*
G01*
X119311573Y-147860038D01*
X119052620Y-147706766D01*
X118768741Y-147606959D01*
X118531000Y-147727008D01*
X118531000Y-148971000D01*
X118551000Y-148971000D01*
X118551000Y-149225000D01*
X118531000Y-149225000D01*
X118531000Y-150468992D01*
X118768741Y-150589041D01*
X119052620Y-150489234D01*
X119311573Y-150335962D01*
X119535649Y-150135116D01*
X119617034Y-150026640D01*
X128736452Y-159639000D01*
X118237000Y-159639000D01*
X118237000Y-157911242D01*
X118379731Y-158069588D01*
X118613080Y-158243641D01*
X118875901Y-158368825D01*
X119023110Y-158413476D01*
X119253000Y-158292155D01*
X119253000Y-157099000D01*
X119507000Y-157099000D01*
X119507000Y-158292155D01*
X119736890Y-158413476D01*
X119884099Y-158368825D01*
X120146920Y-158243641D01*
X120380269Y-158069588D01*
X120575178Y-157853355D01*
X120724157Y-157603252D01*
X120821481Y-157328891D01*
X120700814Y-157099000D01*
X119507000Y-157099000D01*
X119253000Y-157099000D01*
X119233000Y-157099000D01*
X119233000Y-156845000D01*
X119253000Y-156845000D01*
X119253000Y-155651845D01*
X119507000Y-155651845D01*
X119507000Y-156845000D01*
X120700814Y-156845000D01*
X120821481Y-156615109D01*
X120724157Y-156340748D01*
X120575178Y-156090645D01*
X120380269Y-155874412D01*
X120146920Y-155700359D01*
X119884099Y-155575175D01*
X119736890Y-155530524D01*
X119507000Y-155651845D01*
X119253000Y-155651845D01*
X119023110Y-155530524D01*
X118875901Y-155575175D01*
X118613080Y-155700359D01*
X118379731Y-155874412D01*
X118237000Y-156032758D01*
X118237000Y-153138702D01*
X118526903Y-153138702D01*
X118598486Y-153382671D01*
X118853996Y-153503571D01*
X119128184Y-153572300D01*
X119410512Y-153586217D01*
X119690130Y-153544787D01*
X119956292Y-153449603D01*
X120081514Y-153382671D01*
X120153097Y-153138702D01*
X119340000Y-152325605D01*
X118526903Y-153138702D01*
X118237000Y-153138702D01*
X118237000Y-152926734D01*
X118347298Y-152959097D01*
X119160395Y-152146000D01*
X119519605Y-152146000D01*
X120332702Y-152959097D01*
X120576671Y-152887514D01*
X120697571Y-152632004D01*
X120766300Y-152357816D01*
X120780217Y-152075488D01*
X120738787Y-151795870D01*
X120643603Y-151529708D01*
X120576671Y-151404486D01*
X120332702Y-151332903D01*
X119519605Y-152146000D01*
X119160395Y-152146000D01*
X118347298Y-151332903D01*
X118235207Y-151365792D01*
X118234560Y-151359224D01*
X118227333Y-151335399D01*
X118215597Y-151313443D01*
X118199803Y-151294197D01*
X118058904Y-151153298D01*
X118526903Y-151153298D01*
X119340000Y-151966395D01*
X120153097Y-151153298D01*
X120081514Y-150909329D01*
X119826004Y-150788429D01*
X119551816Y-150719700D01*
X119269488Y-150705783D01*
X118989870Y-150747213D01*
X118723708Y-150842397D01*
X118598486Y-150909329D01*
X118526903Y-151153298D01*
X118058904Y-151153298D01*
X117475000Y-150569394D01*
X117475000Y-150316756D01*
X117496427Y-150335962D01*
X117755380Y-150489234D01*
X118039259Y-150589041D01*
X118277000Y-150468992D01*
X118277000Y-149225000D01*
X118257000Y-149225000D01*
X118257000Y-148971000D01*
X118277000Y-148971000D01*
X118277000Y-147727008D01*
X118039259Y-147606959D01*
X117755380Y-147706766D01*
X117496427Y-147860038D01*
X117475000Y-147879244D01*
X117475000Y-147193000D01*
X119507000Y-147193000D01*
X119507000Y-148035205D01*
G37*
G04 #@! TD.AperFunction*
D22*
X117272351Y-150135116D02*
X117475000Y-150316756D01*
X117475000Y-150495000D01*
X117221000Y-150495000D01*
X117221000Y-150066671D01*
X117272351Y-150135116D01*
G04 #@! TA.AperFunction,Conductor*
D23*
G36*
X117272351Y-150135116D02*
G01*
X117475000Y-150316756D01*
X117475000Y-150495000D01*
X117221000Y-150495000D01*
X117221000Y-150066671D01*
X117272351Y-150135116D01*
G37*
G04 #@! TD.AperFunction*
D22*
X117475000Y-147879244D02*
X117272351Y-148060884D01*
X117221000Y-148129329D01*
X117221000Y-147193000D01*
X117475000Y-147193000D01*
X117475000Y-147879244D01*
G04 #@! TA.AperFunction,Conductor*
D23*
G36*
X117475000Y-147879244D02*
G01*
X117272351Y-148060884D01*
X117221000Y-148129329D01*
X117221000Y-147193000D01*
X117475000Y-147193000D01*
X117475000Y-147879244D01*
G37*
G04 #@! TD.AperFunction*
D22*
X117221000Y-148129329D02*
X117091764Y-148301586D01*
X116961606Y-148572893D01*
X116912964Y-148733260D01*
X117033622Y-148971000D01*
X117221000Y-148971000D01*
X117221000Y-149225000D01*
X117033622Y-149225000D01*
X116912964Y-149462740D01*
X116961606Y-149623107D01*
X117091764Y-149894414D01*
X117221000Y-150066671D01*
X117221000Y-150495000D01*
X116713000Y-150495000D01*
X116713000Y-147193000D01*
X117221000Y-147193000D01*
X117221000Y-148129329D01*
G04 #@! TA.AperFunction,Conductor*
D23*
G36*
X117221000Y-148129329D02*
G01*
X117091764Y-148301586D01*
X116961606Y-148572893D01*
X116912964Y-148733260D01*
X117033622Y-148971000D01*
X117221000Y-148971000D01*
X117221000Y-149225000D01*
X117033622Y-149225000D01*
X116912964Y-149462740D01*
X116961606Y-149623107D01*
X117091764Y-149894414D01*
X117221000Y-150066671D01*
X117221000Y-150495000D01*
X116713000Y-150495000D01*
X116713000Y-147193000D01*
X117221000Y-147193000D01*
X117221000Y-148129329D01*
G37*
G04 #@! TD.AperFunction*
D22*
X119507000Y-148035205D02*
X119311573Y-147860038D01*
X119052620Y-147706766D01*
X118999000Y-147687914D01*
X118999000Y-147193000D01*
X119507000Y-147193000D01*
X119507000Y-148035205D01*
G04 #@! TA.AperFunction,Conductor*
D23*
G36*
X119507000Y-148035205D02*
G01*
X119311573Y-147860038D01*
X119052620Y-147706766D01*
X118999000Y-147687914D01*
X118999000Y-147193000D01*
X119507000Y-147193000D01*
X119507000Y-148035205D01*
G37*
G04 #@! TD.AperFunction*
D22*
X120015000Y-150495000D02*
X119253000Y-150495000D01*
X119253000Y-150370631D01*
X119311573Y-150335962D01*
X119535649Y-150135116D01*
X119716236Y-149894414D01*
X119846394Y-149623107D01*
X119895036Y-149462740D01*
X119774378Y-149225000D01*
X119253000Y-149225000D01*
X119253000Y-148971000D01*
X119774378Y-148971000D01*
X119895036Y-148733260D01*
X119846394Y-148572893D01*
X119716236Y-148301586D01*
X119535649Y-148060884D01*
X119311573Y-147860038D01*
X119253000Y-147825369D01*
X119253000Y-147193000D01*
X120015000Y-147193000D01*
X120015000Y-150495000D01*
G04 #@! TA.AperFunction,Conductor*
D23*
G36*
X120015000Y-150495000D02*
G01*
X119253000Y-150495000D01*
X119253000Y-150370631D01*
X119311573Y-150335962D01*
X119535649Y-150135116D01*
X119716236Y-149894414D01*
X119846394Y-149623107D01*
X119895036Y-149462740D01*
X119774378Y-149225000D01*
X119253000Y-149225000D01*
X119253000Y-148971000D01*
X119774378Y-148971000D01*
X119895036Y-148733260D01*
X119846394Y-148572893D01*
X119716236Y-148301586D01*
X119535649Y-148060884D01*
X119311573Y-147860038D01*
X119253000Y-147825369D01*
X119253000Y-147193000D01*
X120015000Y-147193000D01*
X120015000Y-150495000D01*
G37*
G04 #@! TD.AperFunction*
D22*
X137795000Y-145415000D02*
X130937000Y-145415000D01*
X130937000Y-145034000D01*
X130934560Y-145009224D01*
X130927333Y-144985399D01*
X130915597Y-144963443D01*
X130899803Y-144944197D01*
X130880557Y-144928403D01*
X130858601Y-144916667D01*
X130834776Y-144909440D01*
X130810000Y-144907000D01*
X126873000Y-144907000D01*
X126873000Y-142778000D01*
X133189928Y-142778000D01*
X133202188Y-142902482D01*
X133238498Y-143022180D01*
X133297463Y-143132494D01*
X133376815Y-143229185D01*
X133473506Y-143308537D01*
X133583820Y-143367502D01*
X133703518Y-143403812D01*
X133828000Y-143416072D01*
X134842250Y-143413000D01*
X135001000Y-143254250D01*
X135001000Y-141605000D01*
X135255000Y-141605000D01*
X135255000Y-143254250D01*
X135413750Y-143413000D01*
X136428000Y-143416072D01*
X136552482Y-143403812D01*
X136672180Y-143367502D01*
X136782494Y-143308537D01*
X136879185Y-143229185D01*
X136958537Y-143132494D01*
X137017502Y-143022180D01*
X137053812Y-142902482D01*
X137066072Y-142778000D01*
X137063000Y-141763750D01*
X136904250Y-141605000D01*
X135255000Y-141605000D01*
X135001000Y-141605000D01*
X133351750Y-141605000D01*
X133193000Y-141763750D01*
X133189928Y-142778000D01*
X126873000Y-142778000D01*
X126873000Y-140178000D01*
X133189928Y-140178000D01*
X133193000Y-141192250D01*
X133351750Y-141351000D01*
X135001000Y-141351000D01*
X135001000Y-139701750D01*
X135255000Y-139701750D01*
X135255000Y-141351000D01*
X136904250Y-141351000D01*
X137063000Y-141192250D01*
X137066072Y-140178000D01*
X137053812Y-140053518D01*
X137017502Y-139933820D01*
X136958537Y-139823506D01*
X136879185Y-139726815D01*
X136782494Y-139647463D01*
X136672180Y-139588498D01*
X136552482Y-139552188D01*
X136428000Y-139539928D01*
X135413750Y-139543000D01*
X135255000Y-139701750D01*
X135001000Y-139701750D01*
X134842250Y-139543000D01*
X133828000Y-139539928D01*
X133703518Y-139552188D01*
X133583820Y-139588498D01*
X133473506Y-139647463D01*
X133376815Y-139726815D01*
X133297463Y-139823506D01*
X133238498Y-139933820D01*
X133202188Y-140053518D01*
X133189928Y-140178000D01*
X126873000Y-140178000D01*
X126873000Y-139319000D01*
X137795000Y-139319000D01*
X137795000Y-145415000D01*
G04 #@! TA.AperFunction,Conductor*
D23*
G36*
X137795000Y-145415000D02*
G01*
X130937000Y-145415000D01*
X130937000Y-145034000D01*
X130934560Y-145009224D01*
X130927333Y-144985399D01*
X130915597Y-144963443D01*
X130899803Y-144944197D01*
X130880557Y-144928403D01*
X130858601Y-144916667D01*
X130834776Y-144909440D01*
X130810000Y-144907000D01*
X126873000Y-144907000D01*
X126873000Y-142778000D01*
X133189928Y-142778000D01*
X133202188Y-142902482D01*
X133238498Y-143022180D01*
X133297463Y-143132494D01*
X133376815Y-143229185D01*
X133473506Y-143308537D01*
X133583820Y-143367502D01*
X133703518Y-143403812D01*
X133828000Y-143416072D01*
X134842250Y-143413000D01*
X135001000Y-143254250D01*
X135001000Y-141605000D01*
X135255000Y-141605000D01*
X135255000Y-143254250D01*
X135413750Y-143413000D01*
X136428000Y-143416072D01*
X136552482Y-143403812D01*
X136672180Y-143367502D01*
X136782494Y-143308537D01*
X136879185Y-143229185D01*
X136958537Y-143132494D01*
X137017502Y-143022180D01*
X137053812Y-142902482D01*
X137066072Y-142778000D01*
X137063000Y-141763750D01*
X136904250Y-141605000D01*
X135255000Y-141605000D01*
X135001000Y-141605000D01*
X133351750Y-141605000D01*
X133193000Y-141763750D01*
X133189928Y-142778000D01*
X126873000Y-142778000D01*
X126873000Y-140178000D01*
X133189928Y-140178000D01*
X133193000Y-141192250D01*
X133351750Y-141351000D01*
X135001000Y-141351000D01*
X135001000Y-139701750D01*
X135255000Y-139701750D01*
X135255000Y-141351000D01*
X136904250Y-141351000D01*
X137063000Y-141192250D01*
X137066072Y-140178000D01*
X137053812Y-140053518D01*
X137017502Y-139933820D01*
X136958537Y-139823506D01*
X136879185Y-139726815D01*
X136782494Y-139647463D01*
X136672180Y-139588498D01*
X136552482Y-139552188D01*
X136428000Y-139539928D01*
X135413750Y-139543000D01*
X135255000Y-139701750D01*
X135001000Y-139701750D01*
X134842250Y-139543000D01*
X133828000Y-139539928D01*
X133703518Y-139552188D01*
X133583820Y-139588498D01*
X133473506Y-139647463D01*
X133376815Y-139726815D01*
X133297463Y-139823506D01*
X133238498Y-139933820D01*
X133202188Y-140053518D01*
X133189928Y-140178000D01*
X126873000Y-140178000D01*
X126873000Y-139319000D01*
X137795000Y-139319000D01*
X137795000Y-145415000D01*
G37*
G04 #@! TD.AperFunction*
D22*
X137465777Y-159639000D02*
X130937000Y-159639000D01*
X130937000Y-146097833D01*
X137465777Y-159639000D01*
G04 #@! TA.AperFunction,Conductor*
D23*
G36*
X137465777Y-159639000D02*
G01*
X130937000Y-159639000D01*
X130937000Y-146097833D01*
X137465777Y-159639000D01*
G37*
G04 #@! TD.AperFunction*
D22*
X138034231Y-158940092D02*
X137940915Y-159079750D01*
X137791282Y-159440997D01*
X137751897Y-159639000D01*
X128008785Y-159639000D01*
X137801884Y-145928661D01*
X138034231Y-158940092D01*
G04 #@! TA.AperFunction,Conductor*
D23*
G36*
X138034231Y-158940092D02*
G01*
X137940915Y-159079750D01*
X137791282Y-159440997D01*
X137751897Y-159639000D01*
X128008785Y-159639000D01*
X137801884Y-145928661D01*
X138034231Y-158940092D01*
G37*
G04 #@! TD.AperFunction*
D22*
X138046712Y-158877000D02*
X130937000Y-158877000D01*
X130937000Y-144907000D01*
X137797247Y-144907000D01*
X138046712Y-158877000D01*
G04 #@! TA.AperFunction,Conductor*
D23*
G36*
X138046712Y-158877000D02*
G01*
X130937000Y-158877000D01*
X130937000Y-144907000D01*
X137797247Y-144907000D01*
X138046712Y-158877000D01*
G37*
G04 #@! TD.AperFunction*
D22*
X131953000Y-159385000D02*
X122555000Y-159385000D01*
X122555000Y-154051000D01*
X131953000Y-154051000D01*
X131953000Y-159385000D01*
G04 #@! TA.AperFunction,Conductor*
D23*
G36*
X131953000Y-159385000D02*
G01*
X122555000Y-159385000D01*
X122555000Y-154051000D01*
X131953000Y-154051000D01*
X131953000Y-159385000D01*
G37*
G04 #@! TD.AperFunction*
D22*
X129144665Y-150533000D02*
X129427335Y-150533000D01*
X129618371Y-150495000D01*
X131182251Y-150495000D01*
X130945184Y-154051000D01*
X127537980Y-154051000D01*
X127564796Y-154037592D01*
X127585866Y-154024329D01*
X127603943Y-154007211D01*
X127618333Y-153986894D01*
X127628483Y-153964161D01*
X127634003Y-153939884D01*
X127635000Y-153924000D01*
X127635000Y-150495000D01*
X128953629Y-150495000D01*
X129144665Y-150533000D01*
G04 #@! TA.AperFunction,Conductor*
D23*
G36*
X129144665Y-150533000D02*
G01*
X129427335Y-150533000D01*
X129618371Y-150495000D01*
X131182251Y-150495000D01*
X130945184Y-154051000D01*
X127537980Y-154051000D01*
X127564796Y-154037592D01*
X127585866Y-154024329D01*
X127603943Y-154007211D01*
X127618333Y-153986894D01*
X127628483Y-153964161D01*
X127634003Y-153939884D01*
X127635000Y-153924000D01*
X127635000Y-150495000D01*
X128953629Y-150495000D01*
X129144665Y-150533000D01*
G37*
G04 #@! TD.AperFunction*
D22*
X137795000Y-130937000D02*
X95123000Y-130937000D01*
X95123000Y-118687499D01*
X96028106Y-118687499D01*
X96244228Y-119054258D01*
X96704105Y-119294938D01*
X97202098Y-119441275D01*
X97719071Y-119487648D01*
X98235159Y-119432273D01*
X98730526Y-119277279D01*
X99147772Y-119054258D01*
X99363894Y-118687499D01*
X97696000Y-117019605D01*
X96028106Y-118687499D01*
X95123000Y-118687499D01*
X95123000Y-117440756D01*
X95258721Y-117874526D01*
X95481742Y-118291772D01*
X95848501Y-118507894D01*
X97516395Y-116840000D01*
X97875605Y-116840000D01*
X99543499Y-118507894D01*
X99910258Y-118291772D01*
X100150938Y-117831895D01*
X100297275Y-117333902D01*
X100343648Y-116816929D01*
X100288273Y-116300841D01*
X100133279Y-115805474D01*
X99910258Y-115388228D01*
X99543499Y-115172106D01*
X97875605Y-116840000D01*
X97516395Y-116840000D01*
X95848501Y-115172106D01*
X95481742Y-115388228D01*
X95241062Y-115848105D01*
X95123000Y-116249877D01*
X95123000Y-114992501D01*
X96028106Y-114992501D01*
X97696000Y-116660395D01*
X99363894Y-114992501D01*
X99274029Y-114840000D01*
X105057928Y-114840000D01*
X105057928Y-118840000D01*
X105070188Y-118964482D01*
X105106498Y-119084180D01*
X105165463Y-119194494D01*
X105244815Y-119291185D01*
X105341506Y-119370537D01*
X105451820Y-119429502D01*
X105571518Y-119465812D01*
X105696000Y-119478072D01*
X109696000Y-119478072D01*
X109820482Y-119465812D01*
X109940180Y-119429502D01*
X110050494Y-119370537D01*
X110147185Y-119291185D01*
X110226537Y-119194494D01*
X110285502Y-119084180D01*
X110321812Y-118964482D01*
X110334072Y-118840000D01*
X110334072Y-114840000D01*
X122329928Y-114840000D01*
X122329928Y-118840000D01*
X122342188Y-118964482D01*
X122378498Y-119084180D01*
X122437463Y-119194494D01*
X122516815Y-119291185D01*
X122613506Y-119370537D01*
X122723820Y-119429502D01*
X122843518Y-119465812D01*
X122968000Y-119478072D01*
X126968000Y-119478072D01*
X127092482Y-119465812D01*
X127212180Y-119429502D01*
X127322494Y-119370537D01*
X127419185Y-119291185D01*
X127498537Y-119194494D01*
X127557502Y-119084180D01*
X127593812Y-118964482D01*
X127606072Y-118840000D01*
X127606072Y-118687499D01*
X133300106Y-118687499D01*
X133516228Y-119054258D01*
X133976105Y-119294938D01*
X134474098Y-119441275D01*
X134991071Y-119487648D01*
X135507159Y-119432273D01*
X136002526Y-119277279D01*
X136419772Y-119054258D01*
X136635894Y-118687499D01*
X134968000Y-117019605D01*
X133300106Y-118687499D01*
X127606072Y-118687499D01*
X127606072Y-116863071D01*
X132320352Y-116863071D01*
X132375727Y-117379159D01*
X132530721Y-117874526D01*
X132753742Y-118291772D01*
X133120501Y-118507894D01*
X134788395Y-116840000D01*
X135147605Y-116840000D01*
X136815499Y-118507894D01*
X137182258Y-118291772D01*
X137422938Y-117831895D01*
X137569275Y-117333902D01*
X137615648Y-116816929D01*
X137560273Y-116300841D01*
X137405279Y-115805474D01*
X137182258Y-115388228D01*
X136815499Y-115172106D01*
X135147605Y-116840000D01*
X134788395Y-116840000D01*
X133120501Y-115172106D01*
X132753742Y-115388228D01*
X132513062Y-115848105D01*
X132366725Y-116346098D01*
X132320352Y-116863071D01*
X127606072Y-116863071D01*
X127606072Y-114992501D01*
X133300106Y-114992501D01*
X134968000Y-116660395D01*
X136635894Y-114992501D01*
X136419772Y-114625742D01*
X135959895Y-114385062D01*
X135461902Y-114238725D01*
X134944929Y-114192352D01*
X134428841Y-114247727D01*
X133933474Y-114402721D01*
X133516228Y-114625742D01*
X133300106Y-114992501D01*
X127606072Y-114992501D01*
X127606072Y-114840000D01*
X127593812Y-114715518D01*
X127557502Y-114595820D01*
X127498537Y-114485506D01*
X127419185Y-114388815D01*
X127322494Y-114309463D01*
X127212180Y-114250498D01*
X127092482Y-114214188D01*
X126968000Y-114201928D01*
X122968000Y-114201928D01*
X122843518Y-114214188D01*
X122723820Y-114250498D01*
X122613506Y-114309463D01*
X122516815Y-114388815D01*
X122437463Y-114485506D01*
X122378498Y-114595820D01*
X122342188Y-114715518D01*
X122329928Y-114840000D01*
X110334072Y-114840000D01*
X110321812Y-114715518D01*
X110285502Y-114595820D01*
X110226537Y-114485506D01*
X110147185Y-114388815D01*
X110050494Y-114309463D01*
X109940180Y-114250498D01*
X109820482Y-114214188D01*
X109696000Y-114201928D01*
X105696000Y-114201928D01*
X105571518Y-114214188D01*
X105451820Y-114250498D01*
X105341506Y-114309463D01*
X105244815Y-114388815D01*
X105165463Y-114485506D01*
X105106498Y-114595820D01*
X105070188Y-114715518D01*
X105057928Y-114840000D01*
X99274029Y-114840000D01*
X99147772Y-114625742D01*
X98687895Y-114385062D01*
X98189902Y-114238725D01*
X97672929Y-114192352D01*
X97156841Y-114247727D01*
X96661474Y-114402721D01*
X96244228Y-114625742D01*
X96028106Y-114992501D01*
X95123000Y-114992501D01*
X95123000Y-105791000D01*
X137795000Y-105791000D01*
X137795000Y-130937000D01*
G04 #@! TA.AperFunction,Conductor*
D23*
G36*
X137795000Y-130937000D02*
G01*
X95123000Y-130937000D01*
X95123000Y-118687499D01*
X96028106Y-118687499D01*
X96244228Y-119054258D01*
X96704105Y-119294938D01*
X97202098Y-119441275D01*
X97719071Y-119487648D01*
X98235159Y-119432273D01*
X98730526Y-119277279D01*
X99147772Y-119054258D01*
X99363894Y-118687499D01*
X97696000Y-117019605D01*
X96028106Y-118687499D01*
X95123000Y-118687499D01*
X95123000Y-117440756D01*
X95258721Y-117874526D01*
X95481742Y-118291772D01*
X95848501Y-118507894D01*
X97516395Y-116840000D01*
X97875605Y-116840000D01*
X99543499Y-118507894D01*
X99910258Y-118291772D01*
X100150938Y-117831895D01*
X100297275Y-117333902D01*
X100343648Y-116816929D01*
X100288273Y-116300841D01*
X100133279Y-115805474D01*
X99910258Y-115388228D01*
X99543499Y-115172106D01*
X97875605Y-116840000D01*
X97516395Y-116840000D01*
X95848501Y-115172106D01*
X95481742Y-115388228D01*
X95241062Y-115848105D01*
X95123000Y-116249877D01*
X95123000Y-114992501D01*
X96028106Y-114992501D01*
X97696000Y-116660395D01*
X99363894Y-114992501D01*
X99274029Y-114840000D01*
X105057928Y-114840000D01*
X105057928Y-118840000D01*
X105070188Y-118964482D01*
X105106498Y-119084180D01*
X105165463Y-119194494D01*
X105244815Y-119291185D01*
X105341506Y-119370537D01*
X105451820Y-119429502D01*
X105571518Y-119465812D01*
X105696000Y-119478072D01*
X109696000Y-119478072D01*
X109820482Y-119465812D01*
X109940180Y-119429502D01*
X110050494Y-119370537D01*
X110147185Y-119291185D01*
X110226537Y-119194494D01*
X110285502Y-119084180D01*
X110321812Y-118964482D01*
X110334072Y-118840000D01*
X110334072Y-114840000D01*
X122329928Y-114840000D01*
X122329928Y-118840000D01*
X122342188Y-118964482D01*
X122378498Y-119084180D01*
X122437463Y-119194494D01*
X122516815Y-119291185D01*
X122613506Y-119370537D01*
X122723820Y-119429502D01*
X122843518Y-119465812D01*
X122968000Y-119478072D01*
X126968000Y-119478072D01*
X127092482Y-119465812D01*
X127212180Y-119429502D01*
X127322494Y-119370537D01*
X127419185Y-119291185D01*
X127498537Y-119194494D01*
X127557502Y-119084180D01*
X127593812Y-118964482D01*
X127606072Y-118840000D01*
X127606072Y-118687499D01*
X133300106Y-118687499D01*
X133516228Y-119054258D01*
X133976105Y-119294938D01*
X134474098Y-119441275D01*
X134991071Y-119487648D01*
X135507159Y-119432273D01*
X136002526Y-119277279D01*
X136419772Y-119054258D01*
X136635894Y-118687499D01*
X134968000Y-117019605D01*
X133300106Y-118687499D01*
X127606072Y-118687499D01*
X127606072Y-116863071D01*
X132320352Y-116863071D01*
X132375727Y-117379159D01*
X132530721Y-117874526D01*
X132753742Y-118291772D01*
X133120501Y-118507894D01*
X134788395Y-116840000D01*
X135147605Y-116840000D01*
X136815499Y-118507894D01*
X137182258Y-118291772D01*
X137422938Y-117831895D01*
X137569275Y-117333902D01*
X137615648Y-116816929D01*
X137560273Y-116300841D01*
X137405279Y-115805474D01*
X137182258Y-115388228D01*
X136815499Y-115172106D01*
X135147605Y-116840000D01*
X134788395Y-116840000D01*
X133120501Y-115172106D01*
X132753742Y-115388228D01*
X132513062Y-115848105D01*
X132366725Y-116346098D01*
X132320352Y-116863071D01*
X127606072Y-116863071D01*
X127606072Y-114992501D01*
X133300106Y-114992501D01*
X134968000Y-116660395D01*
X136635894Y-114992501D01*
X136419772Y-114625742D01*
X135959895Y-114385062D01*
X135461902Y-114238725D01*
X134944929Y-114192352D01*
X134428841Y-114247727D01*
X133933474Y-114402721D01*
X133516228Y-114625742D01*
X133300106Y-114992501D01*
X127606072Y-114992501D01*
X127606072Y-114840000D01*
X127593812Y-114715518D01*
X127557502Y-114595820D01*
X127498537Y-114485506D01*
X127419185Y-114388815D01*
X127322494Y-114309463D01*
X127212180Y-114250498D01*
X127092482Y-114214188D01*
X126968000Y-114201928D01*
X122968000Y-114201928D01*
X122843518Y-114214188D01*
X122723820Y-114250498D01*
X122613506Y-114309463D01*
X122516815Y-114388815D01*
X122437463Y-114485506D01*
X122378498Y-114595820D01*
X122342188Y-114715518D01*
X122329928Y-114840000D01*
X110334072Y-114840000D01*
X110321812Y-114715518D01*
X110285502Y-114595820D01*
X110226537Y-114485506D01*
X110147185Y-114388815D01*
X110050494Y-114309463D01*
X109940180Y-114250498D01*
X109820482Y-114214188D01*
X109696000Y-114201928D01*
X105696000Y-114201928D01*
X105571518Y-114214188D01*
X105451820Y-114250498D01*
X105341506Y-114309463D01*
X105244815Y-114388815D01*
X105165463Y-114485506D01*
X105106498Y-114595820D01*
X105070188Y-114715518D01*
X105057928Y-114840000D01*
X99274029Y-114840000D01*
X99147772Y-114625742D01*
X98687895Y-114385062D01*
X98189902Y-114238725D01*
X97672929Y-114192352D01*
X97156841Y-114247727D01*
X96661474Y-114402721D01*
X96244228Y-114625742D01*
X96028106Y-114992501D01*
X95123000Y-114992501D01*
X95123000Y-105791000D01*
X137795000Y-105791000D01*
X137795000Y-130937000D01*
G37*
G04 #@! TD.AperFunction*
D22*
X137795000Y-127886146D02*
X137795000Y-142869096D01*
X137060389Y-142835705D01*
X137066072Y-142778000D01*
X137063000Y-141763750D01*
X136904250Y-141605000D01*
X135255000Y-141605000D01*
X135255000Y-141625000D01*
X135001000Y-141625000D01*
X135001000Y-141605000D01*
X133351750Y-141605000D01*
X133193000Y-141763750D01*
X133190286Y-142659791D01*
X126873000Y-142372642D01*
X126873000Y-140178000D01*
X133189928Y-140178000D01*
X133193000Y-141192250D01*
X133351750Y-141351000D01*
X135001000Y-141351000D01*
X135001000Y-139701750D01*
X135255000Y-139701750D01*
X135255000Y-141351000D01*
X136904250Y-141351000D01*
X137063000Y-141192250D01*
X137066072Y-140178000D01*
X137053812Y-140053518D01*
X137017502Y-139933820D01*
X136958537Y-139823506D01*
X136879185Y-139726815D01*
X136782494Y-139647463D01*
X136672180Y-139588498D01*
X136552482Y-139552188D01*
X136428000Y-139539928D01*
X135413750Y-139543000D01*
X135255000Y-139701750D01*
X135001000Y-139701750D01*
X134842250Y-139543000D01*
X133828000Y-139539928D01*
X133703518Y-139552188D01*
X133583820Y-139588498D01*
X133473506Y-139647463D01*
X133376815Y-139726815D01*
X133297463Y-139823506D01*
X133238498Y-139933820D01*
X133202188Y-140053518D01*
X133189928Y-140178000D01*
X126873000Y-140178000D01*
X126873000Y-136287419D01*
X133193000Y-136287419D01*
X133193000Y-136668581D01*
X133267361Y-137042419D01*
X133413225Y-137394566D01*
X133624987Y-137711491D01*
X133894509Y-137981013D01*
X134211434Y-138192775D01*
X134563581Y-138338639D01*
X134937419Y-138413000D01*
X135318581Y-138413000D01*
X135692419Y-138338639D01*
X136044566Y-138192775D01*
X136361491Y-137981013D01*
X136631013Y-137711491D01*
X136842775Y-137394566D01*
X136988639Y-137042419D01*
X137063000Y-136668581D01*
X137063000Y-136287419D01*
X136988639Y-135913581D01*
X136842775Y-135561434D01*
X136631013Y-135244509D01*
X136361491Y-134974987D01*
X136044566Y-134763225D01*
X135692419Y-134617361D01*
X135318581Y-134543000D01*
X134937419Y-134543000D01*
X134563581Y-134617361D01*
X134211434Y-134763225D01*
X133894509Y-134974987D01*
X133624987Y-135244509D01*
X133413225Y-135561434D01*
X133267361Y-135913581D01*
X133193000Y-136287419D01*
X126873000Y-136287419D01*
X126873000Y-127637919D01*
X137795000Y-127886146D01*
G04 #@! TA.AperFunction,Conductor*
D23*
G36*
X137795000Y-127886146D02*
G01*
X137795000Y-142869096D01*
X137060389Y-142835705D01*
X137066072Y-142778000D01*
X137063000Y-141763750D01*
X136904250Y-141605000D01*
X135255000Y-141605000D01*
X135255000Y-141625000D01*
X135001000Y-141625000D01*
X135001000Y-141605000D01*
X133351750Y-141605000D01*
X133193000Y-141763750D01*
X133190286Y-142659791D01*
X126873000Y-142372642D01*
X126873000Y-140178000D01*
X133189928Y-140178000D01*
X133193000Y-141192250D01*
X133351750Y-141351000D01*
X135001000Y-141351000D01*
X135001000Y-139701750D01*
X135255000Y-139701750D01*
X135255000Y-141351000D01*
X136904250Y-141351000D01*
X137063000Y-141192250D01*
X137066072Y-140178000D01*
X137053812Y-140053518D01*
X137017502Y-139933820D01*
X136958537Y-139823506D01*
X136879185Y-139726815D01*
X136782494Y-139647463D01*
X136672180Y-139588498D01*
X136552482Y-139552188D01*
X136428000Y-139539928D01*
X135413750Y-139543000D01*
X135255000Y-139701750D01*
X135001000Y-139701750D01*
X134842250Y-139543000D01*
X133828000Y-139539928D01*
X133703518Y-139552188D01*
X133583820Y-139588498D01*
X133473506Y-139647463D01*
X133376815Y-139726815D01*
X133297463Y-139823506D01*
X133238498Y-139933820D01*
X133202188Y-140053518D01*
X133189928Y-140178000D01*
X126873000Y-140178000D01*
X126873000Y-136287419D01*
X133193000Y-136287419D01*
X133193000Y-136668581D01*
X133267361Y-137042419D01*
X133413225Y-137394566D01*
X133624987Y-137711491D01*
X133894509Y-137981013D01*
X134211434Y-138192775D01*
X134563581Y-138338639D01*
X134937419Y-138413000D01*
X135318581Y-138413000D01*
X135692419Y-138338639D01*
X136044566Y-138192775D01*
X136361491Y-137981013D01*
X136631013Y-137711491D01*
X136842775Y-137394566D01*
X136988639Y-137042419D01*
X137063000Y-136668581D01*
X137063000Y-136287419D01*
X136988639Y-135913581D01*
X136842775Y-135561434D01*
X136631013Y-135244509D01*
X136361491Y-134974987D01*
X136044566Y-134763225D01*
X135692419Y-134617361D01*
X135318581Y-134543000D01*
X134937419Y-134543000D01*
X134563581Y-134617361D01*
X134211434Y-134763225D01*
X133894509Y-134974987D01*
X133624987Y-135244509D01*
X133413225Y-135561434D01*
X133267361Y-135913581D01*
X133193000Y-136287419D01*
X126873000Y-136287419D01*
X126873000Y-127637919D01*
X137795000Y-127886146D01*
G37*
G04 #@! TD.AperFunction*
D22*
X128143000Y-154305000D02*
X126756511Y-154305000D01*
X125349000Y-154070415D01*
X125349000Y-153240558D01*
X125526877Y-153348853D01*
X125772670Y-153438722D01*
X125979000Y-153316201D01*
X125979000Y-152273000D01*
X126233000Y-152273000D01*
X126233000Y-153316201D01*
X126439330Y-153438722D01*
X126685123Y-153348853D01*
X126908660Y-153212759D01*
X127101351Y-153035670D01*
X127255792Y-152824392D01*
X127366047Y-152587044D01*
X127398716Y-152479329D01*
X127275374Y-152273000D01*
X126233000Y-152273000D01*
X125979000Y-152273000D01*
X125959000Y-152273000D01*
X125959000Y-152019000D01*
X125979000Y-152019000D01*
X125979000Y-151999000D01*
X126233000Y-151999000D01*
X126233000Y-152019000D01*
X127275374Y-152019000D01*
X127398716Y-151812671D01*
X127366047Y-151704956D01*
X127255792Y-151467608D01*
X127101841Y-151257000D01*
X128143000Y-151257000D01*
X128143000Y-154305000D01*
G04 #@! TA.AperFunction,Conductor*
D23*
G36*
X128143000Y-154305000D02*
G01*
X126756511Y-154305000D01*
X125349000Y-154070415D01*
X125349000Y-153240558D01*
X125526877Y-153348853D01*
X125772670Y-153438722D01*
X125979000Y-153316201D01*
X125979000Y-152273000D01*
X126233000Y-152273000D01*
X126233000Y-153316201D01*
X126439330Y-153438722D01*
X126685123Y-153348853D01*
X126908660Y-153212759D01*
X127101351Y-153035670D01*
X127255792Y-152824392D01*
X127366047Y-152587044D01*
X127398716Y-152479329D01*
X127275374Y-152273000D01*
X126233000Y-152273000D01*
X125979000Y-152273000D01*
X125959000Y-152273000D01*
X125959000Y-152019000D01*
X125979000Y-152019000D01*
X125979000Y-151999000D01*
X126233000Y-151999000D01*
X126233000Y-152019000D01*
X127275374Y-152019000D01*
X127398716Y-151812671D01*
X127366047Y-151704956D01*
X127255792Y-151467608D01*
X127101841Y-151257000D01*
X128143000Y-151257000D01*
X128143000Y-154305000D01*
G37*
G04 #@! TD.AperFunction*
D22*
X127635000Y-153555066D02*
X125349000Y-153783666D01*
X125349000Y-153240558D01*
X125526877Y-153348853D01*
X125772670Y-153438722D01*
X125979000Y-153316201D01*
X125979000Y-152273000D01*
X126233000Y-152273000D01*
X126233000Y-153316201D01*
X126439330Y-153438722D01*
X126685123Y-153348853D01*
X126908660Y-153212759D01*
X127101351Y-153035670D01*
X127255792Y-152824392D01*
X127366047Y-152587044D01*
X127398716Y-152479329D01*
X127275374Y-152273000D01*
X126233000Y-152273000D01*
X125979000Y-152273000D01*
X125959000Y-152273000D01*
X125959000Y-152019000D01*
X125979000Y-152019000D01*
X125979000Y-150975799D01*
X126233000Y-150975799D01*
X126233000Y-152019000D01*
X127275374Y-152019000D01*
X127398716Y-151812671D01*
X127366047Y-151704956D01*
X127255792Y-151467608D01*
X127101351Y-151256330D01*
X126908660Y-151079241D01*
X126685123Y-150943147D01*
X126439330Y-150853278D01*
X126233000Y-150975799D01*
X125979000Y-150975799D01*
X125772670Y-150853278D01*
X125526877Y-150943147D01*
X125349000Y-151051442D01*
X125349000Y-150749000D01*
X127635000Y-150749000D01*
X127635000Y-153555066D01*
G04 #@! TA.AperFunction,Conductor*
D23*
G36*
X127635000Y-153555066D02*
G01*
X125349000Y-153783666D01*
X125349000Y-153240558D01*
X125526877Y-153348853D01*
X125772670Y-153438722D01*
X125979000Y-153316201D01*
X125979000Y-152273000D01*
X126233000Y-152273000D01*
X126233000Y-153316201D01*
X126439330Y-153438722D01*
X126685123Y-153348853D01*
X126908660Y-153212759D01*
X127101351Y-153035670D01*
X127255792Y-152824392D01*
X127366047Y-152587044D01*
X127398716Y-152479329D01*
X127275374Y-152273000D01*
X126233000Y-152273000D01*
X125979000Y-152273000D01*
X125959000Y-152273000D01*
X125959000Y-152019000D01*
X125979000Y-152019000D01*
X125979000Y-150975799D01*
X126233000Y-150975799D01*
X126233000Y-152019000D01*
X127275374Y-152019000D01*
X127398716Y-151812671D01*
X127366047Y-151704956D01*
X127255792Y-151467608D01*
X127101351Y-151256330D01*
X126908660Y-151079241D01*
X126685123Y-150943147D01*
X126439330Y-150853278D01*
X126233000Y-150975799D01*
X125979000Y-150975799D01*
X125772670Y-150853278D01*
X125526877Y-150943147D01*
X125349000Y-151051442D01*
X125349000Y-150749000D01*
X127635000Y-150749000D01*
X127635000Y-153555066D01*
G37*
G04 #@! TD.AperFunction*
D22*
X129144665Y-150533000D02*
X129427335Y-150533000D01*
X129618371Y-150495000D01*
X131191000Y-150495000D01*
X131191000Y-155575000D01*
X125349000Y-155575000D01*
X125349000Y-153240558D01*
X125526877Y-153348853D01*
X125772670Y-153438722D01*
X125979000Y-153316201D01*
X125979000Y-152273000D01*
X126233000Y-152273000D01*
X126233000Y-153316201D01*
X126439330Y-153438722D01*
X126685123Y-153348853D01*
X126908660Y-153212759D01*
X127101351Y-153035670D01*
X127255792Y-152824392D01*
X127366047Y-152587044D01*
X127398716Y-152479329D01*
X127275374Y-152273000D01*
X126233000Y-152273000D01*
X125979000Y-152273000D01*
X125959000Y-152273000D01*
X125959000Y-152019000D01*
X125979000Y-152019000D01*
X125979000Y-150975799D01*
X126233000Y-150975799D01*
X126233000Y-152019000D01*
X127275374Y-152019000D01*
X127398716Y-151812671D01*
X127366047Y-151704956D01*
X127255792Y-151467608D01*
X127101351Y-151256330D01*
X126908660Y-151079241D01*
X126685123Y-150943147D01*
X126439330Y-150853278D01*
X126233000Y-150975799D01*
X125979000Y-150975799D01*
X125772670Y-150853278D01*
X125526877Y-150943147D01*
X125349000Y-151051442D01*
X125349000Y-150633000D01*
X125355184Y-150633000D01*
X125651743Y-150574011D01*
X125842491Y-150495000D01*
X128953629Y-150495000D01*
X129144665Y-150533000D01*
G04 #@! TA.AperFunction,Conductor*
D23*
G36*
X129144665Y-150533000D02*
G01*
X129427335Y-150533000D01*
X129618371Y-150495000D01*
X131191000Y-150495000D01*
X131191000Y-155575000D01*
X125349000Y-155575000D01*
X125349000Y-153240558D01*
X125526877Y-153348853D01*
X125772670Y-153438722D01*
X125979000Y-153316201D01*
X125979000Y-152273000D01*
X126233000Y-152273000D01*
X126233000Y-153316201D01*
X126439330Y-153438722D01*
X126685123Y-153348853D01*
X126908660Y-153212759D01*
X127101351Y-153035670D01*
X127255792Y-152824392D01*
X127366047Y-152587044D01*
X127398716Y-152479329D01*
X127275374Y-152273000D01*
X126233000Y-152273000D01*
X125979000Y-152273000D01*
X125959000Y-152273000D01*
X125959000Y-152019000D01*
X125979000Y-152019000D01*
X125979000Y-150975799D01*
X126233000Y-150975799D01*
X126233000Y-152019000D01*
X127275374Y-152019000D01*
X127398716Y-151812671D01*
X127366047Y-151704956D01*
X127255792Y-151467608D01*
X127101351Y-151256330D01*
X126908660Y-151079241D01*
X126685123Y-150943147D01*
X126439330Y-150853278D01*
X126233000Y-150975799D01*
X125979000Y-150975799D01*
X125772670Y-150853278D01*
X125526877Y-150943147D01*
X125349000Y-151051442D01*
X125349000Y-150633000D01*
X125355184Y-150633000D01*
X125651743Y-150574011D01*
X125842491Y-150495000D01*
X128953629Y-150495000D01*
X129144665Y-150533000D01*
G37*
G04 #@! TD.AperFunction*
M02*
