G04 #@! TF.GenerationSoftware,KiCad,Pcbnew,(5.1.10)-1*
G04 #@! TF.CreationDate,2021-11-01T20:38:17+03:00*
G04 #@! TF.ProjectId,cmd_module_booster,636d645f-6d6f-4647-956c-655f626f6f73,rev?*
G04 #@! TF.SameCoordinates,Original*
G04 #@! TF.FileFunction,Legend,Top*
G04 #@! TF.FilePolarity,Positive*
%FSLAX46Y46*%
G04 Gerber Fmt 4.6, Leading zero omitted, Abs format (unit mm)*
G04 Created by KiCad (PCBNEW (5.1.10)-1) date 2021-11-01 20:38:17*
%MOMM*%
%LPD*%
G01*
G04 APERTURE LIST*
%ADD10C,0.120000*%
%ADD11C,0.150000*%
%ADD12C,2.700000*%
%ADD13O,1.700000X1.700000*%
%ADD14R,1.700000X1.700000*%
%ADD15C,2.600000*%
%ADD16R,2.600000X2.600000*%
%ADD17C,4.000000*%
%ADD18R,4.000000X4.000000*%
%ADD19O,1.800000X1.800000*%
%ADD20R,1.800000X1.800000*%
%ADD21O,1.400000X1.400000*%
%ADD22C,1.400000*%
%ADD23C,1.600000*%
G04 APERTURE END LIST*
D10*
X107890000Y-158302000D02*
X107890000Y-156972000D01*
X109220000Y-158302000D02*
X107890000Y-158302000D01*
X110490000Y-158302000D02*
X110490000Y-155642000D01*
X110490000Y-155642000D02*
X120710000Y-155642000D01*
X110490000Y-158302000D02*
X120710000Y-158302000D01*
X120710000Y-158302000D02*
X120710000Y-155642000D01*
X140028000Y-144278000D02*
X140028000Y-143778000D01*
X139288000Y-144278000D02*
X140028000Y-144278000D01*
X136151000Y-137705000D02*
X136197000Y-137752000D01*
X133853000Y-135408000D02*
X133889000Y-135443000D01*
X136367000Y-137512000D02*
X136402000Y-137547000D01*
X134059000Y-135203000D02*
X134105000Y-135250000D01*
X129867000Y-133918000D02*
X139788000Y-133918000D01*
X129867000Y-144038000D02*
X139788000Y-144038000D01*
X139788000Y-144038000D02*
X139788000Y-133918000D01*
X129867000Y-144038000D02*
X129867000Y-133918000D01*
X132827000Y-144038000D02*
X132827000Y-133918000D01*
X137728000Y-144038000D02*
X137728000Y-133918000D01*
X139228000Y-144038000D02*
X139228000Y-133918000D01*
X136808000Y-136478000D02*
G75*
G03*
X136808000Y-136478000I-1680000J0D01*
G01*
X136808253Y-141449195D02*
G75*
G02*
X136663000Y-142162000I-1680253J-28805D01*
G01*
X135811042Y-143013426D02*
G75*
G02*
X134444000Y-143013000I-683042J1535426D01*
G01*
X133592574Y-142161042D02*
G75*
G02*
X133593000Y-140794000I1535426J683042D01*
G01*
X134444958Y-139942574D02*
G75*
G02*
X135812000Y-139943000I683042J-1535426D01*
G01*
X136662756Y-140794682D02*
G75*
G02*
X136808000Y-141478000I-1534756J-683318D01*
G01*
X113495337Y-124175000D02*
X113495337Y-121975000D01*
X114595337Y-123075000D02*
X112395337Y-123075000D01*
X91576000Y-116880000D02*
X91576000Y-116800000D01*
X91616000Y-117743000D02*
X91616000Y-115937000D01*
X91656000Y-118132000D02*
X91656000Y-115548000D01*
X91696000Y-118430000D02*
X91696000Y-115250000D01*
X91736000Y-118680000D02*
X91736000Y-115000000D01*
X91776000Y-118900000D02*
X91776000Y-114780000D01*
X91816000Y-119098000D02*
X91816000Y-114582000D01*
X91856000Y-119280000D02*
X91856000Y-114400000D01*
X91896000Y-119449000D02*
X91896000Y-114231000D01*
X91936000Y-119607000D02*
X91936000Y-114073000D01*
X91976000Y-119756000D02*
X91976000Y-113924000D01*
X92016000Y-119898000D02*
X92016000Y-113782000D01*
X92056000Y-120032000D02*
X92056000Y-113648000D01*
X92096000Y-120161000D02*
X92096000Y-113519000D01*
X92136000Y-120285000D02*
X92136000Y-113395000D01*
X92176000Y-120404000D02*
X92176000Y-113276000D01*
X92216000Y-120519000D02*
X92216000Y-113161000D01*
X92256000Y-120629000D02*
X92256000Y-113051000D01*
X92296000Y-120737000D02*
X92296000Y-112943000D01*
X92336000Y-120841000D02*
X92336000Y-112839000D01*
X92376000Y-120942000D02*
X92376000Y-112738000D01*
X92416000Y-121040000D02*
X92416000Y-112640000D01*
X92456000Y-121136000D02*
X92456000Y-112544000D01*
X92496000Y-121229000D02*
X92496000Y-112451000D01*
X92536000Y-121320000D02*
X92536000Y-112360000D01*
X92576000Y-121409000D02*
X92576000Y-112271000D01*
X92616000Y-121496000D02*
X92616000Y-112184000D01*
X92656000Y-121581000D02*
X92656000Y-112099000D01*
X92696000Y-121664000D02*
X92696000Y-112016000D01*
X92736000Y-121745000D02*
X92736000Y-111935000D01*
X92776000Y-121825000D02*
X92776000Y-111855000D01*
X92816000Y-121903000D02*
X92816000Y-111777000D01*
X92856000Y-121980000D02*
X92856000Y-111700000D01*
X92896000Y-122055000D02*
X92896000Y-111625000D01*
X92936000Y-122129000D02*
X92936000Y-111551000D01*
X92976000Y-122202000D02*
X92976000Y-111478000D01*
X93016000Y-122273000D02*
X93016000Y-111407000D01*
X93056000Y-122343000D02*
X93056000Y-111337000D01*
X93096000Y-122412000D02*
X93096000Y-111268000D01*
X93136000Y-122480000D02*
X93136000Y-111200000D01*
X93176000Y-122547000D02*
X93176000Y-111133000D01*
X93216000Y-122613000D02*
X93216000Y-111067000D01*
X93256000Y-122678000D02*
X93256000Y-111002000D01*
X93296000Y-122741000D02*
X93296000Y-110939000D01*
X93336000Y-122804000D02*
X93336000Y-110876000D01*
X93376000Y-122866000D02*
X93376000Y-110814000D01*
X93416000Y-122927000D02*
X93416000Y-110753000D01*
X93456000Y-122987000D02*
X93456000Y-110693000D01*
X93496000Y-123047000D02*
X93496000Y-110633000D01*
X93536000Y-123105000D02*
X93536000Y-110575000D01*
X93576000Y-123163000D02*
X93576000Y-110517000D01*
X93616000Y-123220000D02*
X93616000Y-110460000D01*
X93656000Y-123276000D02*
X93656000Y-110404000D01*
X93696000Y-123332000D02*
X93696000Y-110348000D01*
X93736000Y-123386000D02*
X93736000Y-110294000D01*
X93776000Y-123440000D02*
X93776000Y-110240000D01*
X93816000Y-123494000D02*
X93816000Y-110186000D01*
X93856000Y-123547000D02*
X93856000Y-110133000D01*
X93896000Y-123599000D02*
X93896000Y-110081000D01*
X93936000Y-123650000D02*
X93936000Y-110030000D01*
X93976000Y-123701000D02*
X93976000Y-109979000D01*
X94016000Y-123751000D02*
X94016000Y-109929000D01*
X94056000Y-123801000D02*
X94056000Y-109879000D01*
X94096000Y-123850000D02*
X94096000Y-109830000D01*
X94136000Y-123898000D02*
X94136000Y-109782000D01*
X94176000Y-123946000D02*
X94176000Y-109734000D01*
X94216000Y-123994000D02*
X94216000Y-109686000D01*
X94256000Y-124041000D02*
X94256000Y-109639000D01*
X94296000Y-124087000D02*
X94296000Y-109593000D01*
X94336000Y-124133000D02*
X94336000Y-109547000D01*
X94376000Y-124178000D02*
X94376000Y-109502000D01*
X94416000Y-124223000D02*
X94416000Y-109457000D01*
X94456000Y-124268000D02*
X94456000Y-109412000D01*
X94496000Y-124311000D02*
X94496000Y-109369000D01*
X94535000Y-124355000D02*
X94535000Y-109325000D01*
X94575000Y-124398000D02*
X94575000Y-109282000D01*
X94615000Y-124440000D02*
X94615000Y-109240000D01*
X94655000Y-124482000D02*
X94655000Y-109198000D01*
X94695000Y-124524000D02*
X94695000Y-109156000D01*
X94735000Y-124565000D02*
X94735000Y-109115000D01*
X94775000Y-124606000D02*
X94775000Y-109074000D01*
X94815000Y-124647000D02*
X94815000Y-109033000D01*
X94855000Y-124686000D02*
X94855000Y-108994000D01*
X94895000Y-124726000D02*
X94895000Y-108954000D01*
X94935000Y-124765000D02*
X94935000Y-108915000D01*
X94975000Y-124804000D02*
X94975000Y-108876000D01*
X95015000Y-124842000D02*
X95015000Y-108838000D01*
X95055000Y-124880000D02*
X95055000Y-108800000D01*
X95095000Y-124918000D02*
X95095000Y-108762000D01*
X95135000Y-124955000D02*
X95135000Y-108725000D01*
X95175000Y-124992000D02*
X95175000Y-108688000D01*
X95215000Y-125029000D02*
X95215000Y-108651000D01*
X95255000Y-125065000D02*
X95255000Y-108615000D01*
X95295000Y-125101000D02*
X95295000Y-108579000D01*
X95335000Y-125136000D02*
X95335000Y-108544000D01*
X95375000Y-125171000D02*
X95375000Y-108509000D01*
X95415000Y-125206000D02*
X95415000Y-108474000D01*
X95455000Y-125241000D02*
X95455000Y-108439000D01*
X95495000Y-114600000D02*
X95495000Y-108405000D01*
X95495000Y-125275000D02*
X95495000Y-119080000D01*
X95535000Y-114600000D02*
X95535000Y-108371000D01*
X95535000Y-125309000D02*
X95535000Y-119080000D01*
X95575000Y-114600000D02*
X95575000Y-108338000D01*
X95575000Y-125342000D02*
X95575000Y-119080000D01*
X95615000Y-114600000D02*
X95615000Y-108305000D01*
X95615000Y-125375000D02*
X95615000Y-119080000D01*
X95655000Y-114600000D02*
X95655000Y-108272000D01*
X95655000Y-125408000D02*
X95655000Y-119080000D01*
X95695000Y-114600000D02*
X95695000Y-108239000D01*
X95695000Y-125441000D02*
X95695000Y-119080000D01*
X95735000Y-114600000D02*
X95735000Y-108207000D01*
X95735000Y-125473000D02*
X95735000Y-119080000D01*
X95775000Y-114600000D02*
X95775000Y-108175000D01*
X95775000Y-125505000D02*
X95775000Y-119080000D01*
X95815000Y-114600000D02*
X95815000Y-108143000D01*
X95815000Y-125537000D02*
X95815000Y-119080000D01*
X95855000Y-114600000D02*
X95855000Y-108112000D01*
X95855000Y-125568000D02*
X95855000Y-119080000D01*
X95895000Y-114600000D02*
X95895000Y-108081000D01*
X95895000Y-125599000D02*
X95895000Y-119080000D01*
X95935000Y-114600000D02*
X95935000Y-108050000D01*
X95935000Y-125630000D02*
X95935000Y-119080000D01*
X95975000Y-114600000D02*
X95975000Y-108020000D01*
X95975000Y-125660000D02*
X95975000Y-119080000D01*
X96015000Y-114600000D02*
X96015000Y-107990000D01*
X96015000Y-125690000D02*
X96015000Y-119080000D01*
X96055000Y-114600000D02*
X96055000Y-107960000D01*
X96055000Y-125720000D02*
X96055000Y-119080000D01*
X96095000Y-114600000D02*
X96095000Y-107930000D01*
X96095000Y-125750000D02*
X96095000Y-119080000D01*
X96135000Y-114600000D02*
X96135000Y-107901000D01*
X96135000Y-125779000D02*
X96135000Y-119080000D01*
X96175000Y-114600000D02*
X96175000Y-107872000D01*
X96175000Y-125808000D02*
X96175000Y-119080000D01*
X96215000Y-114600000D02*
X96215000Y-107843000D01*
X96215000Y-125837000D02*
X96215000Y-119080000D01*
X96255000Y-114600000D02*
X96255000Y-107814000D01*
X96255000Y-125866000D02*
X96255000Y-119080000D01*
X96295000Y-114600000D02*
X96295000Y-107786000D01*
X96295000Y-125894000D02*
X96295000Y-119080000D01*
X96335000Y-114600000D02*
X96335000Y-107758000D01*
X96335000Y-125922000D02*
X96335000Y-119080000D01*
X96375000Y-114600000D02*
X96375000Y-107730000D01*
X96375000Y-125950000D02*
X96375000Y-119080000D01*
X96415000Y-114600000D02*
X96415000Y-107703000D01*
X96415000Y-125977000D02*
X96415000Y-119080000D01*
X96455000Y-114600000D02*
X96455000Y-107675000D01*
X96455000Y-126005000D02*
X96455000Y-119080000D01*
X96495000Y-114600000D02*
X96495000Y-107648000D01*
X96495000Y-126032000D02*
X96495000Y-119080000D01*
X96535000Y-114600000D02*
X96535000Y-107622000D01*
X96535000Y-126058000D02*
X96535000Y-119080000D01*
X96575000Y-114600000D02*
X96575000Y-107595000D01*
X96575000Y-126085000D02*
X96575000Y-119080000D01*
X96615000Y-114600000D02*
X96615000Y-107569000D01*
X96615000Y-126111000D02*
X96615000Y-119080000D01*
X96655000Y-114600000D02*
X96655000Y-107543000D01*
X96655000Y-126137000D02*
X96655000Y-119080000D01*
X96695000Y-114600000D02*
X96695000Y-107517000D01*
X96695000Y-126163000D02*
X96695000Y-119080000D01*
X96735000Y-114600000D02*
X96735000Y-107492000D01*
X96735000Y-126188000D02*
X96735000Y-119080000D01*
X96775000Y-114600000D02*
X96775000Y-107466000D01*
X96775000Y-126214000D02*
X96775000Y-119080000D01*
X96815000Y-114600000D02*
X96815000Y-107441000D01*
X96815000Y-126239000D02*
X96815000Y-119080000D01*
X96855000Y-114600000D02*
X96855000Y-107416000D01*
X96855000Y-126264000D02*
X96855000Y-119080000D01*
X96895000Y-114600000D02*
X96895000Y-107392000D01*
X96895000Y-126288000D02*
X96895000Y-119080000D01*
X96935000Y-114600000D02*
X96935000Y-107368000D01*
X96935000Y-126312000D02*
X96935000Y-119080000D01*
X96975000Y-114600000D02*
X96975000Y-107343000D01*
X96975000Y-126337000D02*
X96975000Y-119080000D01*
X97015000Y-114600000D02*
X97015000Y-107320000D01*
X97015000Y-126360000D02*
X97015000Y-119080000D01*
X97055000Y-114600000D02*
X97055000Y-107296000D01*
X97055000Y-126384000D02*
X97055000Y-119080000D01*
X97095000Y-114600000D02*
X97095000Y-107273000D01*
X97095000Y-126407000D02*
X97095000Y-119080000D01*
X97135000Y-114600000D02*
X97135000Y-107249000D01*
X97135000Y-126431000D02*
X97135000Y-119080000D01*
X97175000Y-114600000D02*
X97175000Y-107226000D01*
X97175000Y-126454000D02*
X97175000Y-119080000D01*
X97215000Y-114600000D02*
X97215000Y-107204000D01*
X97215000Y-126476000D02*
X97215000Y-119080000D01*
X97255000Y-114600000D02*
X97255000Y-107181000D01*
X97255000Y-126499000D02*
X97255000Y-119080000D01*
X97295000Y-114600000D02*
X97295000Y-107159000D01*
X97295000Y-126521000D02*
X97295000Y-119080000D01*
X97335000Y-114600000D02*
X97335000Y-107137000D01*
X97335000Y-126543000D02*
X97335000Y-119080000D01*
X97375000Y-114600000D02*
X97375000Y-107115000D01*
X97375000Y-126565000D02*
X97375000Y-119080000D01*
X97415000Y-114600000D02*
X97415000Y-107093000D01*
X97415000Y-126587000D02*
X97415000Y-119080000D01*
X97455000Y-114600000D02*
X97455000Y-107072000D01*
X97455000Y-126608000D02*
X97455000Y-119080000D01*
X97495000Y-114600000D02*
X97495000Y-107050000D01*
X97495000Y-126630000D02*
X97495000Y-119080000D01*
X97535000Y-114600000D02*
X97535000Y-107029000D01*
X97535000Y-126651000D02*
X97535000Y-119080000D01*
X97575000Y-114600000D02*
X97575000Y-107008000D01*
X97575000Y-126672000D02*
X97575000Y-119080000D01*
X97615000Y-114600000D02*
X97615000Y-106988000D01*
X97615000Y-126692000D02*
X97615000Y-119080000D01*
X97655000Y-114600000D02*
X97655000Y-106967000D01*
X97655000Y-126713000D02*
X97655000Y-119080000D01*
X97695000Y-114600000D02*
X97695000Y-106947000D01*
X97695000Y-126733000D02*
X97695000Y-119080000D01*
X97735000Y-114600000D02*
X97735000Y-106927000D01*
X97735000Y-126753000D02*
X97735000Y-119080000D01*
X97775000Y-114600000D02*
X97775000Y-106907000D01*
X97775000Y-126773000D02*
X97775000Y-119080000D01*
X97815000Y-114600000D02*
X97815000Y-106888000D01*
X97815000Y-126792000D02*
X97815000Y-119080000D01*
X97855000Y-114600000D02*
X97855000Y-106868000D01*
X97855000Y-126812000D02*
X97855000Y-119080000D01*
X97895000Y-114600000D02*
X97895000Y-106849000D01*
X97895000Y-126831000D02*
X97895000Y-119080000D01*
X97935000Y-114600000D02*
X97935000Y-106830000D01*
X97935000Y-126850000D02*
X97935000Y-119080000D01*
X97975000Y-114600000D02*
X97975000Y-106811000D01*
X97975000Y-126869000D02*
X97975000Y-119080000D01*
X98015000Y-114600000D02*
X98015000Y-106792000D01*
X98015000Y-126888000D02*
X98015000Y-119080000D01*
X98055000Y-114600000D02*
X98055000Y-106774000D01*
X98055000Y-126906000D02*
X98055000Y-119080000D01*
X98095000Y-114600000D02*
X98095000Y-106756000D01*
X98095000Y-126924000D02*
X98095000Y-119080000D01*
X98135000Y-114600000D02*
X98135000Y-106737000D01*
X98135000Y-126943000D02*
X98135000Y-119080000D01*
X98175000Y-114600000D02*
X98175000Y-106720000D01*
X98175000Y-126960000D02*
X98175000Y-119080000D01*
X98215000Y-114600000D02*
X98215000Y-106702000D01*
X98215000Y-126978000D02*
X98215000Y-119080000D01*
X98255000Y-114600000D02*
X98255000Y-106684000D01*
X98255000Y-126996000D02*
X98255000Y-119080000D01*
X98295000Y-114600000D02*
X98295000Y-106667000D01*
X98295000Y-127013000D02*
X98295000Y-119080000D01*
X98335000Y-114600000D02*
X98335000Y-106650000D01*
X98335000Y-127030000D02*
X98335000Y-119080000D01*
X98375000Y-114600000D02*
X98375000Y-106633000D01*
X98375000Y-127047000D02*
X98375000Y-119080000D01*
X98415000Y-114600000D02*
X98415000Y-106616000D01*
X98415000Y-127064000D02*
X98415000Y-119080000D01*
X98455000Y-114600000D02*
X98455000Y-106600000D01*
X98455000Y-127080000D02*
X98455000Y-119080000D01*
X98495000Y-114600000D02*
X98495000Y-106583000D01*
X98495000Y-127097000D02*
X98495000Y-119080000D01*
X98535000Y-114600000D02*
X98535000Y-106567000D01*
X98535000Y-127113000D02*
X98535000Y-119080000D01*
X98575000Y-114600000D02*
X98575000Y-106551000D01*
X98575000Y-127129000D02*
X98575000Y-119080000D01*
X98615000Y-114600000D02*
X98615000Y-106535000D01*
X98615000Y-127145000D02*
X98615000Y-119080000D01*
X98655000Y-114600000D02*
X98655000Y-106519000D01*
X98655000Y-127161000D02*
X98655000Y-119080000D01*
X98695000Y-114600000D02*
X98695000Y-106504000D01*
X98695000Y-127176000D02*
X98695000Y-119080000D01*
X98735000Y-114600000D02*
X98735000Y-106489000D01*
X98735000Y-127191000D02*
X98735000Y-119080000D01*
X98775000Y-114600000D02*
X98775000Y-106473000D01*
X98775000Y-127207000D02*
X98775000Y-119080000D01*
X98815000Y-114600000D02*
X98815000Y-106458000D01*
X98815000Y-127222000D02*
X98815000Y-119080000D01*
X98855000Y-114600000D02*
X98855000Y-106444000D01*
X98855000Y-127236000D02*
X98855000Y-119080000D01*
X98895000Y-114600000D02*
X98895000Y-106429000D01*
X98895000Y-127251000D02*
X98895000Y-119080000D01*
X98935000Y-114600000D02*
X98935000Y-106414000D01*
X98935000Y-127266000D02*
X98935000Y-119080000D01*
X98975000Y-114600000D02*
X98975000Y-106400000D01*
X98975000Y-127280000D02*
X98975000Y-119080000D01*
X99015000Y-114600000D02*
X99015000Y-106386000D01*
X99015000Y-127294000D02*
X99015000Y-119080000D01*
X99055000Y-114600000D02*
X99055000Y-106372000D01*
X99055000Y-127308000D02*
X99055000Y-119080000D01*
X99095000Y-114600000D02*
X99095000Y-106358000D01*
X99095000Y-127322000D02*
X99095000Y-119080000D01*
X99135000Y-114600000D02*
X99135000Y-106345000D01*
X99135000Y-127335000D02*
X99135000Y-119080000D01*
X99175000Y-114600000D02*
X99175000Y-106331000D01*
X99175000Y-127349000D02*
X99175000Y-119080000D01*
X99215000Y-114600000D02*
X99215000Y-106318000D01*
X99215000Y-127362000D02*
X99215000Y-119080000D01*
X99255000Y-114600000D02*
X99255000Y-106305000D01*
X99255000Y-127375000D02*
X99255000Y-119080000D01*
X99295000Y-114600000D02*
X99295000Y-106292000D01*
X99295000Y-127388000D02*
X99295000Y-119080000D01*
X99335000Y-114600000D02*
X99335000Y-106279000D01*
X99335000Y-127401000D02*
X99335000Y-119080000D01*
X99375000Y-114600000D02*
X99375000Y-106267000D01*
X99375000Y-127413000D02*
X99375000Y-119080000D01*
X99415000Y-114600000D02*
X99415000Y-106254000D01*
X99415000Y-127426000D02*
X99415000Y-119080000D01*
X99455000Y-114600000D02*
X99455000Y-106242000D01*
X99455000Y-127438000D02*
X99455000Y-119080000D01*
X99495000Y-114600000D02*
X99495000Y-106230000D01*
X99495000Y-127450000D02*
X99495000Y-119080000D01*
X99535000Y-114600000D02*
X99535000Y-106218000D01*
X99535000Y-127462000D02*
X99535000Y-119080000D01*
X99575000Y-114600000D02*
X99575000Y-106206000D01*
X99575000Y-127474000D02*
X99575000Y-119080000D01*
X99615000Y-114600000D02*
X99615000Y-106195000D01*
X99615000Y-127485000D02*
X99615000Y-119080000D01*
X99655000Y-114600000D02*
X99655000Y-106183000D01*
X99655000Y-127497000D02*
X99655000Y-119080000D01*
X99695000Y-114600000D02*
X99695000Y-106172000D01*
X99695000Y-127508000D02*
X99695000Y-119080000D01*
X99735000Y-114600000D02*
X99735000Y-106161000D01*
X99735000Y-127519000D02*
X99735000Y-119080000D01*
X99775000Y-114600000D02*
X99775000Y-106150000D01*
X99775000Y-127530000D02*
X99775000Y-119080000D01*
X99815000Y-114600000D02*
X99815000Y-106139000D01*
X99815000Y-127541000D02*
X99815000Y-119080000D01*
X99855000Y-114600000D02*
X99855000Y-106128000D01*
X99855000Y-127552000D02*
X99855000Y-119080000D01*
X99895000Y-114600000D02*
X99895000Y-106118000D01*
X99895000Y-127562000D02*
X99895000Y-119080000D01*
X99935000Y-114600000D02*
X99935000Y-106107000D01*
X99935000Y-127573000D02*
X99935000Y-119080000D01*
X99975000Y-127583000D02*
X99975000Y-106097000D01*
X100015000Y-127593000D02*
X100015000Y-106087000D01*
X100055000Y-127603000D02*
X100055000Y-106077000D01*
X100095000Y-127612000D02*
X100095000Y-106068000D01*
X100135000Y-127622000D02*
X100135000Y-106058000D01*
X100175000Y-127631000D02*
X100175000Y-106049000D01*
X100215000Y-127640000D02*
X100215000Y-106040000D01*
X100255000Y-127649000D02*
X100255000Y-106031000D01*
X100295000Y-127658000D02*
X100295000Y-106022000D01*
X100335000Y-127667000D02*
X100335000Y-106013000D01*
X100375000Y-127676000D02*
X100375000Y-106004000D01*
X100415000Y-127684000D02*
X100415000Y-105996000D01*
X100455000Y-127693000D02*
X100455000Y-105987000D01*
X100495000Y-127701000D02*
X100495000Y-105979000D01*
X100535000Y-127709000D02*
X100535000Y-105971000D01*
X100575000Y-127717000D02*
X100575000Y-105963000D01*
X100615000Y-127724000D02*
X100615000Y-105956000D01*
X100655000Y-127732000D02*
X100655000Y-105948000D01*
X100695000Y-127739000D02*
X100695000Y-105941000D01*
X100735000Y-127746000D02*
X100735000Y-105934000D01*
X100775000Y-127753000D02*
X100775000Y-105927000D01*
X100815000Y-127760000D02*
X100815000Y-105920000D01*
X100855000Y-127767000D02*
X100855000Y-105913000D01*
X100895000Y-127774000D02*
X100895000Y-105906000D01*
X100935000Y-127780000D02*
X100935000Y-105900000D01*
X100975000Y-127787000D02*
X100975000Y-105893000D01*
X101015000Y-127793000D02*
X101015000Y-105887000D01*
X101055000Y-127799000D02*
X101055000Y-105881000D01*
X101095000Y-127805000D02*
X101095000Y-105875000D01*
X101135000Y-127811000D02*
X101135000Y-105869000D01*
X101175000Y-127816000D02*
X101175000Y-105864000D01*
X101215000Y-127822000D02*
X101215000Y-105858000D01*
X101255000Y-127827000D02*
X101255000Y-105853000D01*
X101295000Y-127832000D02*
X101295000Y-105848000D01*
X101335000Y-127837000D02*
X101335000Y-105843000D01*
X101375000Y-127842000D02*
X101375000Y-105838000D01*
X101415000Y-127847000D02*
X101415000Y-105833000D01*
X101455000Y-127851000D02*
X101455000Y-105829000D01*
X101495000Y-127856000D02*
X101495000Y-105824000D01*
X101535000Y-127860000D02*
X101535000Y-105820000D01*
X101575000Y-127864000D02*
X101575000Y-105816000D01*
X101615000Y-127868000D02*
X101615000Y-105812000D01*
X101655000Y-127872000D02*
X101655000Y-105808000D01*
X101695000Y-127875000D02*
X101695000Y-105805000D01*
X101735000Y-127879000D02*
X101735000Y-105801000D01*
X101775000Y-127882000D02*
X101775000Y-105798000D01*
X101815000Y-127886000D02*
X101815000Y-105794000D01*
X101855000Y-127889000D02*
X101855000Y-105791000D01*
X101895000Y-127892000D02*
X101895000Y-105788000D01*
X101935000Y-127894000D02*
X101935000Y-105786000D01*
X101975000Y-127897000D02*
X101975000Y-105783000D01*
X102016000Y-127900000D02*
X102016000Y-105780000D01*
X102056000Y-127902000D02*
X102056000Y-105778000D01*
X102096000Y-127904000D02*
X102096000Y-105776000D01*
X102136000Y-127906000D02*
X102136000Y-105774000D01*
X102176000Y-127908000D02*
X102176000Y-105772000D01*
X102216000Y-127910000D02*
X102216000Y-105770000D01*
X102256000Y-127912000D02*
X102256000Y-105768000D01*
X102296000Y-127913000D02*
X102296000Y-105767000D01*
X102336000Y-127915000D02*
X102336000Y-105765000D01*
X102376000Y-127916000D02*
X102376000Y-105764000D01*
X102416000Y-127917000D02*
X102416000Y-105763000D01*
X102456000Y-127918000D02*
X102456000Y-105762000D01*
X102496000Y-127919000D02*
X102496000Y-105761000D01*
X102536000Y-127919000D02*
X102536000Y-105761000D01*
X102576000Y-127920000D02*
X102576000Y-105760000D01*
X102616000Y-127920000D02*
X102616000Y-105760000D01*
X102656000Y-127920000D02*
X102656000Y-105760000D01*
X102696000Y-127921000D02*
X102696000Y-105759000D01*
X113816000Y-116840000D02*
G75*
G03*
X113816000Y-116840000I-11120000J0D01*
G01*
X119168663Y-109505000D02*
X119168663Y-111705000D01*
X118068663Y-110605000D02*
X120268663Y-110605000D01*
X141088000Y-116800000D02*
X141088000Y-116880000D01*
X141048000Y-115937000D02*
X141048000Y-117743000D01*
X141008000Y-115548000D02*
X141008000Y-118132000D01*
X140968000Y-115250000D02*
X140968000Y-118430000D01*
X140928000Y-115000000D02*
X140928000Y-118680000D01*
X140888000Y-114780000D02*
X140888000Y-118900000D01*
X140848000Y-114582000D02*
X140848000Y-119098000D01*
X140808000Y-114400000D02*
X140808000Y-119280000D01*
X140768000Y-114231000D02*
X140768000Y-119449000D01*
X140728000Y-114073000D02*
X140728000Y-119607000D01*
X140688000Y-113924000D02*
X140688000Y-119756000D01*
X140648000Y-113782000D02*
X140648000Y-119898000D01*
X140608000Y-113648000D02*
X140608000Y-120032000D01*
X140568000Y-113519000D02*
X140568000Y-120161000D01*
X140528000Y-113395000D02*
X140528000Y-120285000D01*
X140488000Y-113276000D02*
X140488000Y-120404000D01*
X140448000Y-113161000D02*
X140448000Y-120519000D01*
X140408000Y-113051000D02*
X140408000Y-120629000D01*
X140368000Y-112943000D02*
X140368000Y-120737000D01*
X140328000Y-112839000D02*
X140328000Y-120841000D01*
X140288000Y-112738000D02*
X140288000Y-120942000D01*
X140248000Y-112640000D02*
X140248000Y-121040000D01*
X140208000Y-112544000D02*
X140208000Y-121136000D01*
X140168000Y-112451000D02*
X140168000Y-121229000D01*
X140128000Y-112360000D02*
X140128000Y-121320000D01*
X140088000Y-112271000D02*
X140088000Y-121409000D01*
X140048000Y-112184000D02*
X140048000Y-121496000D01*
X140008000Y-112099000D02*
X140008000Y-121581000D01*
X139968000Y-112016000D02*
X139968000Y-121664000D01*
X139928000Y-111935000D02*
X139928000Y-121745000D01*
X139888000Y-111855000D02*
X139888000Y-121825000D01*
X139848000Y-111777000D02*
X139848000Y-121903000D01*
X139808000Y-111700000D02*
X139808000Y-121980000D01*
X139768000Y-111625000D02*
X139768000Y-122055000D01*
X139728000Y-111551000D02*
X139728000Y-122129000D01*
X139688000Y-111478000D02*
X139688000Y-122202000D01*
X139648000Y-111407000D02*
X139648000Y-122273000D01*
X139608000Y-111337000D02*
X139608000Y-122343000D01*
X139568000Y-111268000D02*
X139568000Y-122412000D01*
X139528000Y-111200000D02*
X139528000Y-122480000D01*
X139488000Y-111133000D02*
X139488000Y-122547000D01*
X139448000Y-111067000D02*
X139448000Y-122613000D01*
X139408000Y-111002000D02*
X139408000Y-122678000D01*
X139368000Y-110939000D02*
X139368000Y-122741000D01*
X139328000Y-110876000D02*
X139328000Y-122804000D01*
X139288000Y-110814000D02*
X139288000Y-122866000D01*
X139248000Y-110753000D02*
X139248000Y-122927000D01*
X139208000Y-110693000D02*
X139208000Y-122987000D01*
X139168000Y-110633000D02*
X139168000Y-123047000D01*
X139128000Y-110575000D02*
X139128000Y-123105000D01*
X139088000Y-110517000D02*
X139088000Y-123163000D01*
X139048000Y-110460000D02*
X139048000Y-123220000D01*
X139008000Y-110404000D02*
X139008000Y-123276000D01*
X138968000Y-110348000D02*
X138968000Y-123332000D01*
X138928000Y-110294000D02*
X138928000Y-123386000D01*
X138888000Y-110240000D02*
X138888000Y-123440000D01*
X138848000Y-110186000D02*
X138848000Y-123494000D01*
X138808000Y-110133000D02*
X138808000Y-123547000D01*
X138768000Y-110081000D02*
X138768000Y-123599000D01*
X138728000Y-110030000D02*
X138728000Y-123650000D01*
X138688000Y-109979000D02*
X138688000Y-123701000D01*
X138648000Y-109929000D02*
X138648000Y-123751000D01*
X138608000Y-109879000D02*
X138608000Y-123801000D01*
X138568000Y-109830000D02*
X138568000Y-123850000D01*
X138528000Y-109782000D02*
X138528000Y-123898000D01*
X138488000Y-109734000D02*
X138488000Y-123946000D01*
X138448000Y-109686000D02*
X138448000Y-123994000D01*
X138408000Y-109639000D02*
X138408000Y-124041000D01*
X138368000Y-109593000D02*
X138368000Y-124087000D01*
X138328000Y-109547000D02*
X138328000Y-124133000D01*
X138288000Y-109502000D02*
X138288000Y-124178000D01*
X138248000Y-109457000D02*
X138248000Y-124223000D01*
X138208000Y-109412000D02*
X138208000Y-124268000D01*
X138168000Y-109369000D02*
X138168000Y-124311000D01*
X138129000Y-109325000D02*
X138129000Y-124355000D01*
X138089000Y-109282000D02*
X138089000Y-124398000D01*
X138049000Y-109240000D02*
X138049000Y-124440000D01*
X138009000Y-109198000D02*
X138009000Y-124482000D01*
X137969000Y-109156000D02*
X137969000Y-124524000D01*
X137929000Y-109115000D02*
X137929000Y-124565000D01*
X137889000Y-109074000D02*
X137889000Y-124606000D01*
X137849000Y-109033000D02*
X137849000Y-124647000D01*
X137809000Y-108994000D02*
X137809000Y-124686000D01*
X137769000Y-108954000D02*
X137769000Y-124726000D01*
X137729000Y-108915000D02*
X137729000Y-124765000D01*
X137689000Y-108876000D02*
X137689000Y-124804000D01*
X137649000Y-108838000D02*
X137649000Y-124842000D01*
X137609000Y-108800000D02*
X137609000Y-124880000D01*
X137569000Y-108762000D02*
X137569000Y-124918000D01*
X137529000Y-108725000D02*
X137529000Y-124955000D01*
X137489000Y-108688000D02*
X137489000Y-124992000D01*
X137449000Y-108651000D02*
X137449000Y-125029000D01*
X137409000Y-108615000D02*
X137409000Y-125065000D01*
X137369000Y-108579000D02*
X137369000Y-125101000D01*
X137329000Y-108544000D02*
X137329000Y-125136000D01*
X137289000Y-108509000D02*
X137289000Y-125171000D01*
X137249000Y-108474000D02*
X137249000Y-125206000D01*
X137209000Y-108439000D02*
X137209000Y-125241000D01*
X137169000Y-119080000D02*
X137169000Y-125275000D01*
X137169000Y-108405000D02*
X137169000Y-114600000D01*
X137129000Y-119080000D02*
X137129000Y-125309000D01*
X137129000Y-108371000D02*
X137129000Y-114600000D01*
X137089000Y-119080000D02*
X137089000Y-125342000D01*
X137089000Y-108338000D02*
X137089000Y-114600000D01*
X137049000Y-119080000D02*
X137049000Y-125375000D01*
X137049000Y-108305000D02*
X137049000Y-114600000D01*
X137009000Y-119080000D02*
X137009000Y-125408000D01*
X137009000Y-108272000D02*
X137009000Y-114600000D01*
X136969000Y-119080000D02*
X136969000Y-125441000D01*
X136969000Y-108239000D02*
X136969000Y-114600000D01*
X136929000Y-119080000D02*
X136929000Y-125473000D01*
X136929000Y-108207000D02*
X136929000Y-114600000D01*
X136889000Y-119080000D02*
X136889000Y-125505000D01*
X136889000Y-108175000D02*
X136889000Y-114600000D01*
X136849000Y-119080000D02*
X136849000Y-125537000D01*
X136849000Y-108143000D02*
X136849000Y-114600000D01*
X136809000Y-119080000D02*
X136809000Y-125568000D01*
X136809000Y-108112000D02*
X136809000Y-114600000D01*
X136769000Y-119080000D02*
X136769000Y-125599000D01*
X136769000Y-108081000D02*
X136769000Y-114600000D01*
X136729000Y-119080000D02*
X136729000Y-125630000D01*
X136729000Y-108050000D02*
X136729000Y-114600000D01*
X136689000Y-119080000D02*
X136689000Y-125660000D01*
X136689000Y-108020000D02*
X136689000Y-114600000D01*
X136649000Y-119080000D02*
X136649000Y-125690000D01*
X136649000Y-107990000D02*
X136649000Y-114600000D01*
X136609000Y-119080000D02*
X136609000Y-125720000D01*
X136609000Y-107960000D02*
X136609000Y-114600000D01*
X136569000Y-119080000D02*
X136569000Y-125750000D01*
X136569000Y-107930000D02*
X136569000Y-114600000D01*
X136529000Y-119080000D02*
X136529000Y-125779000D01*
X136529000Y-107901000D02*
X136529000Y-114600000D01*
X136489000Y-119080000D02*
X136489000Y-125808000D01*
X136489000Y-107872000D02*
X136489000Y-114600000D01*
X136449000Y-119080000D02*
X136449000Y-125837000D01*
X136449000Y-107843000D02*
X136449000Y-114600000D01*
X136409000Y-119080000D02*
X136409000Y-125866000D01*
X136409000Y-107814000D02*
X136409000Y-114600000D01*
X136369000Y-119080000D02*
X136369000Y-125894000D01*
X136369000Y-107786000D02*
X136369000Y-114600000D01*
X136329000Y-119080000D02*
X136329000Y-125922000D01*
X136329000Y-107758000D02*
X136329000Y-114600000D01*
X136289000Y-119080000D02*
X136289000Y-125950000D01*
X136289000Y-107730000D02*
X136289000Y-114600000D01*
X136249000Y-119080000D02*
X136249000Y-125977000D01*
X136249000Y-107703000D02*
X136249000Y-114600000D01*
X136209000Y-119080000D02*
X136209000Y-126005000D01*
X136209000Y-107675000D02*
X136209000Y-114600000D01*
X136169000Y-119080000D02*
X136169000Y-126032000D01*
X136169000Y-107648000D02*
X136169000Y-114600000D01*
X136129000Y-119080000D02*
X136129000Y-126058000D01*
X136129000Y-107622000D02*
X136129000Y-114600000D01*
X136089000Y-119080000D02*
X136089000Y-126085000D01*
X136089000Y-107595000D02*
X136089000Y-114600000D01*
X136049000Y-119080000D02*
X136049000Y-126111000D01*
X136049000Y-107569000D02*
X136049000Y-114600000D01*
X136009000Y-119080000D02*
X136009000Y-126137000D01*
X136009000Y-107543000D02*
X136009000Y-114600000D01*
X135969000Y-119080000D02*
X135969000Y-126163000D01*
X135969000Y-107517000D02*
X135969000Y-114600000D01*
X135929000Y-119080000D02*
X135929000Y-126188000D01*
X135929000Y-107492000D02*
X135929000Y-114600000D01*
X135889000Y-119080000D02*
X135889000Y-126214000D01*
X135889000Y-107466000D02*
X135889000Y-114600000D01*
X135849000Y-119080000D02*
X135849000Y-126239000D01*
X135849000Y-107441000D02*
X135849000Y-114600000D01*
X135809000Y-119080000D02*
X135809000Y-126264000D01*
X135809000Y-107416000D02*
X135809000Y-114600000D01*
X135769000Y-119080000D02*
X135769000Y-126288000D01*
X135769000Y-107392000D02*
X135769000Y-114600000D01*
X135729000Y-119080000D02*
X135729000Y-126312000D01*
X135729000Y-107368000D02*
X135729000Y-114600000D01*
X135689000Y-119080000D02*
X135689000Y-126337000D01*
X135689000Y-107343000D02*
X135689000Y-114600000D01*
X135649000Y-119080000D02*
X135649000Y-126360000D01*
X135649000Y-107320000D02*
X135649000Y-114600000D01*
X135609000Y-119080000D02*
X135609000Y-126384000D01*
X135609000Y-107296000D02*
X135609000Y-114600000D01*
X135569000Y-119080000D02*
X135569000Y-126407000D01*
X135569000Y-107273000D02*
X135569000Y-114600000D01*
X135529000Y-119080000D02*
X135529000Y-126431000D01*
X135529000Y-107249000D02*
X135529000Y-114600000D01*
X135489000Y-119080000D02*
X135489000Y-126454000D01*
X135489000Y-107226000D02*
X135489000Y-114600000D01*
X135449000Y-119080000D02*
X135449000Y-126476000D01*
X135449000Y-107204000D02*
X135449000Y-114600000D01*
X135409000Y-119080000D02*
X135409000Y-126499000D01*
X135409000Y-107181000D02*
X135409000Y-114600000D01*
X135369000Y-119080000D02*
X135369000Y-126521000D01*
X135369000Y-107159000D02*
X135369000Y-114600000D01*
X135329000Y-119080000D02*
X135329000Y-126543000D01*
X135329000Y-107137000D02*
X135329000Y-114600000D01*
X135289000Y-119080000D02*
X135289000Y-126565000D01*
X135289000Y-107115000D02*
X135289000Y-114600000D01*
X135249000Y-119080000D02*
X135249000Y-126587000D01*
X135249000Y-107093000D02*
X135249000Y-114600000D01*
X135209000Y-119080000D02*
X135209000Y-126608000D01*
X135209000Y-107072000D02*
X135209000Y-114600000D01*
X135169000Y-119080000D02*
X135169000Y-126630000D01*
X135169000Y-107050000D02*
X135169000Y-114600000D01*
X135129000Y-119080000D02*
X135129000Y-126651000D01*
X135129000Y-107029000D02*
X135129000Y-114600000D01*
X135089000Y-119080000D02*
X135089000Y-126672000D01*
X135089000Y-107008000D02*
X135089000Y-114600000D01*
X135049000Y-119080000D02*
X135049000Y-126692000D01*
X135049000Y-106988000D02*
X135049000Y-114600000D01*
X135009000Y-119080000D02*
X135009000Y-126713000D01*
X135009000Y-106967000D02*
X135009000Y-114600000D01*
X134969000Y-119080000D02*
X134969000Y-126733000D01*
X134969000Y-106947000D02*
X134969000Y-114600000D01*
X134929000Y-119080000D02*
X134929000Y-126753000D01*
X134929000Y-106927000D02*
X134929000Y-114600000D01*
X134889000Y-119080000D02*
X134889000Y-126773000D01*
X134889000Y-106907000D02*
X134889000Y-114600000D01*
X134849000Y-119080000D02*
X134849000Y-126792000D01*
X134849000Y-106888000D02*
X134849000Y-114600000D01*
X134809000Y-119080000D02*
X134809000Y-126812000D01*
X134809000Y-106868000D02*
X134809000Y-114600000D01*
X134769000Y-119080000D02*
X134769000Y-126831000D01*
X134769000Y-106849000D02*
X134769000Y-114600000D01*
X134729000Y-119080000D02*
X134729000Y-126850000D01*
X134729000Y-106830000D02*
X134729000Y-114600000D01*
X134689000Y-119080000D02*
X134689000Y-126869000D01*
X134689000Y-106811000D02*
X134689000Y-114600000D01*
X134649000Y-119080000D02*
X134649000Y-126888000D01*
X134649000Y-106792000D02*
X134649000Y-114600000D01*
X134609000Y-119080000D02*
X134609000Y-126906000D01*
X134609000Y-106774000D02*
X134609000Y-114600000D01*
X134569000Y-119080000D02*
X134569000Y-126924000D01*
X134569000Y-106756000D02*
X134569000Y-114600000D01*
X134529000Y-119080000D02*
X134529000Y-126943000D01*
X134529000Y-106737000D02*
X134529000Y-114600000D01*
X134489000Y-119080000D02*
X134489000Y-126960000D01*
X134489000Y-106720000D02*
X134489000Y-114600000D01*
X134449000Y-119080000D02*
X134449000Y-126978000D01*
X134449000Y-106702000D02*
X134449000Y-114600000D01*
X134409000Y-119080000D02*
X134409000Y-126996000D01*
X134409000Y-106684000D02*
X134409000Y-114600000D01*
X134369000Y-119080000D02*
X134369000Y-127013000D01*
X134369000Y-106667000D02*
X134369000Y-114600000D01*
X134329000Y-119080000D02*
X134329000Y-127030000D01*
X134329000Y-106650000D02*
X134329000Y-114600000D01*
X134289000Y-119080000D02*
X134289000Y-127047000D01*
X134289000Y-106633000D02*
X134289000Y-114600000D01*
X134249000Y-119080000D02*
X134249000Y-127064000D01*
X134249000Y-106616000D02*
X134249000Y-114600000D01*
X134209000Y-119080000D02*
X134209000Y-127080000D01*
X134209000Y-106600000D02*
X134209000Y-114600000D01*
X134169000Y-119080000D02*
X134169000Y-127097000D01*
X134169000Y-106583000D02*
X134169000Y-114600000D01*
X134129000Y-119080000D02*
X134129000Y-127113000D01*
X134129000Y-106567000D02*
X134129000Y-114600000D01*
X134089000Y-119080000D02*
X134089000Y-127129000D01*
X134089000Y-106551000D02*
X134089000Y-114600000D01*
X134049000Y-119080000D02*
X134049000Y-127145000D01*
X134049000Y-106535000D02*
X134049000Y-114600000D01*
X134009000Y-119080000D02*
X134009000Y-127161000D01*
X134009000Y-106519000D02*
X134009000Y-114600000D01*
X133969000Y-119080000D02*
X133969000Y-127176000D01*
X133969000Y-106504000D02*
X133969000Y-114600000D01*
X133929000Y-119080000D02*
X133929000Y-127191000D01*
X133929000Y-106489000D02*
X133929000Y-114600000D01*
X133889000Y-119080000D02*
X133889000Y-127207000D01*
X133889000Y-106473000D02*
X133889000Y-114600000D01*
X133849000Y-119080000D02*
X133849000Y-127222000D01*
X133849000Y-106458000D02*
X133849000Y-114600000D01*
X133809000Y-119080000D02*
X133809000Y-127236000D01*
X133809000Y-106444000D02*
X133809000Y-114600000D01*
X133769000Y-119080000D02*
X133769000Y-127251000D01*
X133769000Y-106429000D02*
X133769000Y-114600000D01*
X133729000Y-119080000D02*
X133729000Y-127266000D01*
X133729000Y-106414000D02*
X133729000Y-114600000D01*
X133689000Y-119080000D02*
X133689000Y-127280000D01*
X133689000Y-106400000D02*
X133689000Y-114600000D01*
X133649000Y-119080000D02*
X133649000Y-127294000D01*
X133649000Y-106386000D02*
X133649000Y-114600000D01*
X133609000Y-119080000D02*
X133609000Y-127308000D01*
X133609000Y-106372000D02*
X133609000Y-114600000D01*
X133569000Y-119080000D02*
X133569000Y-127322000D01*
X133569000Y-106358000D02*
X133569000Y-114600000D01*
X133529000Y-119080000D02*
X133529000Y-127335000D01*
X133529000Y-106345000D02*
X133529000Y-114600000D01*
X133489000Y-119080000D02*
X133489000Y-127349000D01*
X133489000Y-106331000D02*
X133489000Y-114600000D01*
X133449000Y-119080000D02*
X133449000Y-127362000D01*
X133449000Y-106318000D02*
X133449000Y-114600000D01*
X133409000Y-119080000D02*
X133409000Y-127375000D01*
X133409000Y-106305000D02*
X133409000Y-114600000D01*
X133369000Y-119080000D02*
X133369000Y-127388000D01*
X133369000Y-106292000D02*
X133369000Y-114600000D01*
X133329000Y-119080000D02*
X133329000Y-127401000D01*
X133329000Y-106279000D02*
X133329000Y-114600000D01*
X133289000Y-119080000D02*
X133289000Y-127413000D01*
X133289000Y-106267000D02*
X133289000Y-114600000D01*
X133249000Y-119080000D02*
X133249000Y-127426000D01*
X133249000Y-106254000D02*
X133249000Y-114600000D01*
X133209000Y-119080000D02*
X133209000Y-127438000D01*
X133209000Y-106242000D02*
X133209000Y-114600000D01*
X133169000Y-119080000D02*
X133169000Y-127450000D01*
X133169000Y-106230000D02*
X133169000Y-114600000D01*
X133129000Y-119080000D02*
X133129000Y-127462000D01*
X133129000Y-106218000D02*
X133129000Y-114600000D01*
X133089000Y-119080000D02*
X133089000Y-127474000D01*
X133089000Y-106206000D02*
X133089000Y-114600000D01*
X133049000Y-119080000D02*
X133049000Y-127485000D01*
X133049000Y-106195000D02*
X133049000Y-114600000D01*
X133009000Y-119080000D02*
X133009000Y-127497000D01*
X133009000Y-106183000D02*
X133009000Y-114600000D01*
X132969000Y-119080000D02*
X132969000Y-127508000D01*
X132969000Y-106172000D02*
X132969000Y-114600000D01*
X132929000Y-119080000D02*
X132929000Y-127519000D01*
X132929000Y-106161000D02*
X132929000Y-114600000D01*
X132889000Y-119080000D02*
X132889000Y-127530000D01*
X132889000Y-106150000D02*
X132889000Y-114600000D01*
X132849000Y-119080000D02*
X132849000Y-127541000D01*
X132849000Y-106139000D02*
X132849000Y-114600000D01*
X132809000Y-119080000D02*
X132809000Y-127552000D01*
X132809000Y-106128000D02*
X132809000Y-114600000D01*
X132769000Y-119080000D02*
X132769000Y-127562000D01*
X132769000Y-106118000D02*
X132769000Y-114600000D01*
X132729000Y-119080000D02*
X132729000Y-127573000D01*
X132729000Y-106107000D02*
X132729000Y-114600000D01*
X132689000Y-106097000D02*
X132689000Y-127583000D01*
X132649000Y-106087000D02*
X132649000Y-127593000D01*
X132609000Y-106077000D02*
X132609000Y-127603000D01*
X132569000Y-106068000D02*
X132569000Y-127612000D01*
X132529000Y-106058000D02*
X132529000Y-127622000D01*
X132489000Y-106049000D02*
X132489000Y-127631000D01*
X132449000Y-106040000D02*
X132449000Y-127640000D01*
X132409000Y-106031000D02*
X132409000Y-127649000D01*
X132369000Y-106022000D02*
X132369000Y-127658000D01*
X132329000Y-106013000D02*
X132329000Y-127667000D01*
X132289000Y-106004000D02*
X132289000Y-127676000D01*
X132249000Y-105996000D02*
X132249000Y-127684000D01*
X132209000Y-105987000D02*
X132209000Y-127693000D01*
X132169000Y-105979000D02*
X132169000Y-127701000D01*
X132129000Y-105971000D02*
X132129000Y-127709000D01*
X132089000Y-105963000D02*
X132089000Y-127717000D01*
X132049000Y-105956000D02*
X132049000Y-127724000D01*
X132009000Y-105948000D02*
X132009000Y-127732000D01*
X131969000Y-105941000D02*
X131969000Y-127739000D01*
X131929000Y-105934000D02*
X131929000Y-127746000D01*
X131889000Y-105927000D02*
X131889000Y-127753000D01*
X131849000Y-105920000D02*
X131849000Y-127760000D01*
X131809000Y-105913000D02*
X131809000Y-127767000D01*
X131769000Y-105906000D02*
X131769000Y-127774000D01*
X131729000Y-105900000D02*
X131729000Y-127780000D01*
X131689000Y-105893000D02*
X131689000Y-127787000D01*
X131649000Y-105887000D02*
X131649000Y-127793000D01*
X131609000Y-105881000D02*
X131609000Y-127799000D01*
X131569000Y-105875000D02*
X131569000Y-127805000D01*
X131529000Y-105869000D02*
X131529000Y-127811000D01*
X131489000Y-105864000D02*
X131489000Y-127816000D01*
X131449000Y-105858000D02*
X131449000Y-127822000D01*
X131409000Y-105853000D02*
X131409000Y-127827000D01*
X131369000Y-105848000D02*
X131369000Y-127832000D01*
X131329000Y-105843000D02*
X131329000Y-127837000D01*
X131289000Y-105838000D02*
X131289000Y-127842000D01*
X131249000Y-105833000D02*
X131249000Y-127847000D01*
X131209000Y-105829000D02*
X131209000Y-127851000D01*
X131169000Y-105824000D02*
X131169000Y-127856000D01*
X131129000Y-105820000D02*
X131129000Y-127860000D01*
X131089000Y-105816000D02*
X131089000Y-127864000D01*
X131049000Y-105812000D02*
X131049000Y-127868000D01*
X131009000Y-105808000D02*
X131009000Y-127872000D01*
X130969000Y-105805000D02*
X130969000Y-127875000D01*
X130929000Y-105801000D02*
X130929000Y-127879000D01*
X130889000Y-105798000D02*
X130889000Y-127882000D01*
X130849000Y-105794000D02*
X130849000Y-127886000D01*
X130809000Y-105791000D02*
X130809000Y-127889000D01*
X130769000Y-105788000D02*
X130769000Y-127892000D01*
X130729000Y-105786000D02*
X130729000Y-127894000D01*
X130689000Y-105783000D02*
X130689000Y-127897000D01*
X130648000Y-105780000D02*
X130648000Y-127900000D01*
X130608000Y-105778000D02*
X130608000Y-127902000D01*
X130568000Y-105776000D02*
X130568000Y-127904000D01*
X130528000Y-105774000D02*
X130528000Y-127906000D01*
X130488000Y-105772000D02*
X130488000Y-127908000D01*
X130448000Y-105770000D02*
X130448000Y-127910000D01*
X130408000Y-105768000D02*
X130408000Y-127912000D01*
X130368000Y-105767000D02*
X130368000Y-127913000D01*
X130328000Y-105765000D02*
X130328000Y-127915000D01*
X130288000Y-105764000D02*
X130288000Y-127916000D01*
X130248000Y-105763000D02*
X130248000Y-127917000D01*
X130208000Y-105762000D02*
X130208000Y-127918000D01*
X130168000Y-105761000D02*
X130168000Y-127919000D01*
X130128000Y-105761000D02*
X130128000Y-127919000D01*
X130088000Y-105760000D02*
X130088000Y-127920000D01*
X130048000Y-105760000D02*
X130048000Y-127920000D01*
X130008000Y-105760000D02*
X130008000Y-127920000D01*
X129968000Y-105759000D02*
X129968000Y-127921000D01*
X141088000Y-116840000D02*
G75*
G03*
X141088000Y-116840000I-11120000J0D01*
G01*
X125204000Y-144639000D02*
X125204000Y-148033000D01*
X121804000Y-144639000D02*
X121804000Y-148033000D01*
X118404000Y-144639000D02*
X118404000Y-148033000D01*
X115004000Y-144639000D02*
X115004000Y-148033000D01*
X111604000Y-144639000D02*
X111604000Y-148033000D01*
X108204000Y-144639000D02*
X108204000Y-148048000D01*
X118554000Y-139398000D02*
X118554000Y-141238000D01*
X114854000Y-139398000D02*
X114854000Y-141238000D01*
X106484000Y-141238000D02*
X126924000Y-141238000D01*
X126924000Y-139398000D02*
X126924000Y-144639000D01*
X106484000Y-139398000D02*
X106484000Y-144639000D01*
X124429000Y-144639000D02*
X126924000Y-144639000D01*
X121029000Y-144639000D02*
X122580000Y-144639000D01*
X117629000Y-144639000D02*
X119180000Y-144639000D01*
X114229000Y-144639000D02*
X115780000Y-144639000D01*
X110829000Y-144639000D02*
X112380000Y-144639000D01*
X106484000Y-144639000D02*
X108980000Y-144639000D01*
X106484000Y-139398000D02*
X126924000Y-139398000D01*
X111185905Y-151396641D02*
G75*
G02*
X111088867Y-152846000I320095J-749359D01*
G01*
X124526095Y-152895359D02*
G75*
G02*
X124623133Y-151446000I-320095J749359D01*
G01*
X92890000Y-133852000D02*
X92890000Y-134352000D01*
X93630000Y-133852000D02*
X92890000Y-133852000D01*
X96767000Y-140425000D02*
X96721000Y-140378000D01*
X99065000Y-142722000D02*
X99029000Y-142687000D01*
X96551000Y-140618000D02*
X96516000Y-140583000D01*
X98859000Y-142927000D02*
X98813000Y-142880000D01*
X103051000Y-144212000D02*
X93130000Y-144212000D01*
X103051000Y-134092000D02*
X93130000Y-134092000D01*
X93130000Y-134092000D02*
X93130000Y-144212000D01*
X103051000Y-134092000D02*
X103051000Y-144212000D01*
X100091000Y-134092000D02*
X100091000Y-144212000D01*
X95190000Y-134092000D02*
X95190000Y-144212000D01*
X93690000Y-134092000D02*
X93690000Y-144212000D01*
X99470000Y-141652000D02*
G75*
G03*
X99470000Y-141652000I-1680000J0D01*
G01*
X96109747Y-136680805D02*
G75*
G02*
X96255000Y-135968000I1680253J28805D01*
G01*
X97106958Y-135116574D02*
G75*
G02*
X98474000Y-135117000I683042J-1535426D01*
G01*
X99325426Y-135968958D02*
G75*
G02*
X99325000Y-137336000I-1535426J-683042D01*
G01*
X98473042Y-138187426D02*
G75*
G02*
X97106000Y-138187000I-683042J1535426D01*
G01*
X96255244Y-137335318D02*
G75*
G02*
X96110000Y-136652000I1534756J683318D01*
G01*
X130206000Y-148477000D02*
X130206000Y-147219000D01*
X128366000Y-148477000D02*
X128366000Y-147219000D01*
X103220000Y-147179000D02*
X103220000Y-148437000D01*
X105060000Y-147179000D02*
X105060000Y-148437000D01*
X117461000Y-153066000D02*
X118719000Y-153066000D01*
X117461000Y-151226000D02*
X118719000Y-151226000D01*
D11*
X138938095Y-156772380D02*
X138938095Y-155772380D01*
X138938095Y-156248571D02*
X139509523Y-156248571D01*
X139509523Y-156772380D02*
X139509523Y-155772380D01*
X140414285Y-156105714D02*
X140414285Y-156772380D01*
X140176190Y-155724761D02*
X139938095Y-156439047D01*
X140557142Y-156439047D01*
X138938095Y-90732380D02*
X138938095Y-89732380D01*
X138938095Y-90208571D02*
X139509523Y-90208571D01*
X139509523Y-90732380D02*
X139509523Y-89732380D01*
X139890476Y-89732380D02*
X140509523Y-89732380D01*
X140176190Y-90113333D01*
X140319047Y-90113333D01*
X140414285Y-90160952D01*
X140461904Y-90208571D01*
X140509523Y-90303809D01*
X140509523Y-90541904D01*
X140461904Y-90637142D01*
X140414285Y-90684761D01*
X140319047Y-90732380D01*
X140033333Y-90732380D01*
X139938095Y-90684761D01*
X139890476Y-90637142D01*
X90678095Y-156772380D02*
X90678095Y-155772380D01*
X90678095Y-156248571D02*
X91249523Y-156248571D01*
X91249523Y-156772380D02*
X91249523Y-155772380D01*
X91678095Y-155867619D02*
X91725714Y-155820000D01*
X91820952Y-155772380D01*
X92059047Y-155772380D01*
X92154285Y-155820000D01*
X92201904Y-155867619D01*
X92249523Y-155962857D01*
X92249523Y-156058095D01*
X92201904Y-156200952D01*
X91630476Y-156772380D01*
X92249523Y-156772380D01*
X90678095Y-90732380D02*
X90678095Y-89732380D01*
X90678095Y-90208571D02*
X91249523Y-90208571D01*
X91249523Y-90732380D02*
X91249523Y-89732380D01*
X92249523Y-90732380D02*
X91678095Y-90732380D01*
X91963809Y-90732380D02*
X91963809Y-89732380D01*
X91868571Y-89875238D01*
X91773333Y-89970476D01*
X91678095Y-90018095D01*
X122348666Y-156424380D02*
X122348666Y-157138666D01*
X122301047Y-157281523D01*
X122205809Y-157376761D01*
X122062952Y-157424380D01*
X121967714Y-157424380D01*
X122729619Y-156424380D02*
X123348666Y-156424380D01*
X123015333Y-156805333D01*
X123158190Y-156805333D01*
X123253428Y-156852952D01*
X123301047Y-156900571D01*
X123348666Y-156995809D01*
X123348666Y-157233904D01*
X123301047Y-157329142D01*
X123253428Y-157376761D01*
X123158190Y-157424380D01*
X122872476Y-157424380D01*
X122777238Y-157376761D01*
X122729619Y-157329142D01*
X128320380Y-139311333D02*
X129034666Y-139311333D01*
X129177523Y-139358952D01*
X129272761Y-139454190D01*
X129320380Y-139597047D01*
X129320380Y-139692285D01*
X128415619Y-138882761D02*
X128368000Y-138835142D01*
X128320380Y-138739904D01*
X128320380Y-138501809D01*
X128368000Y-138406571D01*
X128415619Y-138358952D01*
X128510857Y-138311333D01*
X128606095Y-138311333D01*
X128748952Y-138358952D01*
X129320380Y-138930380D01*
X129320380Y-138311333D01*
X102529333Y-129447142D02*
X102481714Y-129494761D01*
X102338857Y-129542380D01*
X102243619Y-129542380D01*
X102100761Y-129494761D01*
X102005523Y-129399523D01*
X101957904Y-129304285D01*
X101910285Y-129113809D01*
X101910285Y-128970952D01*
X101957904Y-128780476D01*
X102005523Y-128685238D01*
X102100761Y-128590000D01*
X102243619Y-128542380D01*
X102338857Y-128542380D01*
X102481714Y-128590000D01*
X102529333Y-128637619D01*
X102862666Y-128542380D02*
X103481714Y-128542380D01*
X103148380Y-128923333D01*
X103291238Y-128923333D01*
X103386476Y-128970952D01*
X103434095Y-129018571D01*
X103481714Y-129113809D01*
X103481714Y-129351904D01*
X103434095Y-129447142D01*
X103386476Y-129494761D01*
X103291238Y-129542380D01*
X103005523Y-129542380D01*
X102910285Y-129494761D01*
X102862666Y-129447142D01*
X129801333Y-104947142D02*
X129753714Y-104994761D01*
X129610857Y-105042380D01*
X129515619Y-105042380D01*
X129372761Y-104994761D01*
X129277523Y-104899523D01*
X129229904Y-104804285D01*
X129182285Y-104613809D01*
X129182285Y-104470952D01*
X129229904Y-104280476D01*
X129277523Y-104185238D01*
X129372761Y-104090000D01*
X129515619Y-104042380D01*
X129610857Y-104042380D01*
X129753714Y-104090000D01*
X129801333Y-104137619D01*
X130182285Y-104137619D02*
X130229904Y-104090000D01*
X130325142Y-104042380D01*
X130563238Y-104042380D01*
X130658476Y-104090000D01*
X130706095Y-104137619D01*
X130753714Y-104232857D01*
X130753714Y-104328095D01*
X130706095Y-104470952D01*
X130134666Y-105042380D01*
X130753714Y-105042380D01*
X115942095Y-137850380D02*
X115942095Y-138659904D01*
X115989714Y-138755142D01*
X116037333Y-138802761D01*
X116132571Y-138850380D01*
X116323047Y-138850380D01*
X116418285Y-138802761D01*
X116465904Y-138755142D01*
X116513523Y-138659904D01*
X116513523Y-137850380D01*
X117513523Y-138850380D02*
X116942095Y-138850380D01*
X117227809Y-138850380D02*
X117227809Y-137850380D01*
X117132571Y-137993238D01*
X117037333Y-138088476D01*
X116942095Y-138136095D01*
X106767333Y-152598380D02*
X106434000Y-152122190D01*
X106195904Y-152598380D02*
X106195904Y-151598380D01*
X106576857Y-151598380D01*
X106672095Y-151646000D01*
X106719714Y-151693619D01*
X106767333Y-151788857D01*
X106767333Y-151931714D01*
X106719714Y-152026952D01*
X106672095Y-152074571D01*
X106576857Y-152122190D01*
X106195904Y-152122190D01*
X107148285Y-151693619D02*
X107195904Y-151646000D01*
X107291142Y-151598380D01*
X107529238Y-151598380D01*
X107624476Y-151646000D01*
X107672095Y-151693619D01*
X107719714Y-151788857D01*
X107719714Y-151884095D01*
X107672095Y-152026952D01*
X107100666Y-152598380D01*
X107719714Y-152598380D01*
X122007333Y-152598380D02*
X121674000Y-152122190D01*
X121435904Y-152598380D02*
X121435904Y-151598380D01*
X121816857Y-151598380D01*
X121912095Y-151646000D01*
X121959714Y-151693619D01*
X122007333Y-151788857D01*
X122007333Y-151931714D01*
X121959714Y-152026952D01*
X121912095Y-152074571D01*
X121816857Y-152122190D01*
X121435904Y-152122190D01*
X122959714Y-152598380D02*
X122388285Y-152598380D01*
X122674000Y-152598380D02*
X122674000Y-151598380D01*
X122578761Y-151741238D01*
X122483523Y-151836476D01*
X122388285Y-151884095D01*
X103502380Y-139485333D02*
X104216666Y-139485333D01*
X104359523Y-139532952D01*
X104454761Y-139628190D01*
X104502380Y-139771047D01*
X104502380Y-139866285D01*
X104502380Y-138485333D02*
X104502380Y-139056761D01*
X104502380Y-138771047D02*
X103502380Y-138771047D01*
X103645238Y-138866285D01*
X103740476Y-138961523D01*
X103788095Y-139056761D01*
X129643142Y-151550666D02*
X129690761Y-151598285D01*
X129738380Y-151741142D01*
X129738380Y-151836380D01*
X129690761Y-151979238D01*
X129595523Y-152074476D01*
X129500285Y-152122095D01*
X129309809Y-152169714D01*
X129166952Y-152169714D01*
X128976476Y-152122095D01*
X128881238Y-152074476D01*
X128786000Y-151979238D01*
X128738380Y-151836380D01*
X128738380Y-151741142D01*
X128786000Y-151598285D01*
X128833619Y-151550666D01*
X128738380Y-150645904D02*
X128738380Y-151122095D01*
X129214571Y-151169714D01*
X129166952Y-151122095D01*
X129119333Y-151026857D01*
X129119333Y-150788761D01*
X129166952Y-150693523D01*
X129214571Y-150645904D01*
X129309809Y-150598285D01*
X129547904Y-150598285D01*
X129643142Y-150645904D01*
X129690761Y-150693523D01*
X129738380Y-150788761D01*
X129738380Y-151026857D01*
X129690761Y-151122095D01*
X129643142Y-151169714D01*
X104497142Y-151550666D02*
X104544761Y-151598285D01*
X104592380Y-151741142D01*
X104592380Y-151836380D01*
X104544761Y-151979238D01*
X104449523Y-152074476D01*
X104354285Y-152122095D01*
X104163809Y-152169714D01*
X104020952Y-152169714D01*
X103830476Y-152122095D01*
X103735238Y-152074476D01*
X103640000Y-151979238D01*
X103592380Y-151836380D01*
X103592380Y-151741142D01*
X103640000Y-151598285D01*
X103687619Y-151550666D01*
X103925714Y-150693523D02*
X104592380Y-150693523D01*
X103544761Y-150931619D02*
X104259047Y-151169714D01*
X104259047Y-150550666D01*
X114641333Y-152503142D02*
X114593714Y-152550761D01*
X114450857Y-152598380D01*
X114355619Y-152598380D01*
X114212761Y-152550761D01*
X114117523Y-152455523D01*
X114069904Y-152360285D01*
X114022285Y-152169809D01*
X114022285Y-152026952D01*
X114069904Y-151836476D01*
X114117523Y-151741238D01*
X114212761Y-151646000D01*
X114355619Y-151598380D01*
X114450857Y-151598380D01*
X114593714Y-151646000D01*
X114641333Y-151693619D01*
X115593714Y-152598380D02*
X115022285Y-152598380D01*
X115308000Y-152598380D02*
X115308000Y-151598380D01*
X115212761Y-151741238D01*
X115117523Y-151836476D01*
X115022285Y-151884095D01*
%LPC*%
D12*
X139700000Y-160020000D03*
X139700000Y-93980000D03*
X91440000Y-160020000D03*
X91440000Y-93980000D03*
D13*
X119380000Y-156972000D03*
X116840000Y-156972000D03*
X114300000Y-156972000D03*
X111760000Y-156972000D03*
D14*
X109220000Y-156972000D03*
D15*
X135128000Y-136478000D03*
D16*
X135128000Y-141478000D03*
D17*
X97696000Y-116840000D03*
D18*
X107696000Y-116840000D03*
D17*
X134968000Y-116840000D03*
D18*
X124968000Y-116840000D03*
D19*
X125204000Y-149098000D03*
X123504000Y-144018000D03*
X121804000Y-149098000D03*
X120104000Y-144018000D03*
X118404000Y-149098000D03*
X116704000Y-144018000D03*
X115004000Y-149098000D03*
X113304000Y-144018000D03*
X111604000Y-149098000D03*
X109904000Y-144018000D03*
D20*
X108204000Y-149098000D03*
D21*
X109606000Y-152146000D03*
D22*
X111506000Y-152146000D03*
D21*
X126106000Y-152146000D03*
D22*
X124206000Y-152146000D03*
D15*
X97790000Y-141652000D03*
D16*
X97790000Y-136652000D03*
D23*
X129286000Y-146598000D03*
X129286000Y-149098000D03*
X104140000Y-149058000D03*
X104140000Y-146558000D03*
X119340000Y-152146000D03*
X116840000Y-152146000D03*
M02*
