%FSLAX45Y45*%
G04 Gerber Fmt 4.5, Leading zero omitted, Abs format (unit mm)*
G04 Created by KiCad (PCBNEW (5.1.10)-1) date 2021-10-30 22:32:40*
%MOMM*%
%LPD*%
G01*
G04 APERTURE LIST*
%ADD10C,0.200000*%
%ADD11C,0.300000*%
G04 APERTURE END LIST*
D10*
X10925600Y-15179600D02*
X10995600Y-15249600D01*
X10995600Y-15179600D02*
X10925600Y-15249600D01*
X11115600Y-15179600D02*
X11185600Y-15249600D01*
X11185600Y-15179600D02*
X11115600Y-15249600D01*
X12385600Y-15179600D02*
X12455600Y-15249600D01*
X12455600Y-15179600D02*
X12385600Y-15249600D01*
X12575600Y-15179600D02*
X12645600Y-15249600D01*
X12645600Y-15179600D02*
X12575600Y-15249600D01*
X10454000Y-14655800D02*
G75*
G03*
X10454000Y-14655800I-40000J0D01*
G01*
X10454000Y-14905800D02*
G75*
G03*
X10454000Y-14905800I-40000J0D01*
G01*
X11724000Y-15214600D02*
G75*
G03*
X11724000Y-15214600I-40000J0D01*
G01*
X11974000Y-15214600D02*
G75*
G03*
X11974000Y-15214600I-40000J0D01*
G01*
X12968600Y-14659800D02*
G75*
G03*
X12968600Y-14659800I-40000J0D01*
G01*
X12968600Y-14909800D02*
G75*
G03*
X12968600Y-14909800I-40000J0D01*
G01*
X10820400Y-14859800D02*
X10820400Y-14959800D01*
X10770400Y-14909800D02*
X10870400Y-14909800D01*
X10922000Y-15647200D02*
X10922000Y-15747200D01*
X10872000Y-15697200D02*
X10972000Y-15697200D01*
X10990400Y-14351800D02*
X10990400Y-14451800D01*
X10940400Y-14401800D02*
X11040400Y-14401800D01*
X11160400Y-14859800D02*
X11160400Y-14959800D01*
X11110400Y-14909800D02*
X11210400Y-14909800D01*
X11176000Y-15647200D02*
X11176000Y-15747200D01*
X11126000Y-15697200D02*
X11226000Y-15697200D01*
X11330400Y-14351800D02*
X11330400Y-14451800D01*
X11280400Y-14401800D02*
X11380400Y-14401800D01*
X11430000Y-15647200D02*
X11430000Y-15747200D01*
X11380000Y-15697200D02*
X11480000Y-15697200D01*
X11500400Y-14859800D02*
X11500400Y-14959800D01*
X11450400Y-14909800D02*
X11550400Y-14909800D01*
X11670400Y-14351800D02*
X11670400Y-14451800D01*
X11620400Y-14401800D02*
X11720400Y-14401800D01*
X11684000Y-15647200D02*
X11684000Y-15747200D01*
X11634000Y-15697200D02*
X11734000Y-15697200D01*
X11840400Y-14859800D02*
X11840400Y-14959800D01*
X11790400Y-14909800D02*
X11890400Y-14909800D01*
X11938000Y-15647200D02*
X11938000Y-15747200D01*
X11888000Y-15697200D02*
X11988000Y-15697200D01*
X12010400Y-14351800D02*
X12010400Y-14451800D01*
X11960400Y-14401800D02*
X12060400Y-14401800D01*
X12180400Y-14859800D02*
X12180400Y-14959800D01*
X12130400Y-14909800D02*
X12230400Y-14909800D01*
X12350400Y-14351800D02*
X12350400Y-14451800D01*
X12300400Y-14401800D02*
X12400400Y-14401800D01*
X12520400Y-14859800D02*
X12520400Y-14959800D01*
X12470400Y-14909800D02*
X12570400Y-14909800D01*
X9824962Y-13711162D02*
X9824962Y-13619238D01*
X9733038Y-13619238D01*
X9733038Y-13711162D01*
X9824962Y-13711162D01*
X9824962Y-14211162D02*
X9824962Y-14119238D01*
X9733038Y-14119238D01*
X9733038Y-14211162D01*
X9824962Y-14211162D01*
X13558762Y-13693762D02*
X13558762Y-13601838D01*
X13466838Y-13601838D01*
X13466838Y-13693762D01*
X13558762Y-13693762D01*
X13558762Y-14193762D02*
X13558762Y-14101838D01*
X13466838Y-14101838D01*
X13466838Y-14193762D01*
X13558762Y-14193762D01*
X9769600Y-11784000D02*
X9869600Y-11684000D01*
X9769600Y-11584000D01*
X9669600Y-11684000D01*
X9769600Y-11784000D01*
X10769600Y-11784000D02*
X10869600Y-11684000D01*
X10769600Y-11584000D01*
X10669600Y-11684000D01*
X10769600Y-11784000D01*
X12496800Y-11784000D02*
X12596800Y-11684000D01*
X12496800Y-11584000D01*
X12396800Y-11684000D01*
X12496800Y-11784000D01*
X13496800Y-11784000D02*
X13596800Y-11684000D01*
X13496800Y-11584000D01*
X13396800Y-11684000D01*
X13496800Y-11784000D01*
D11*
X286429Y-465714D02*
X286429Y-165714D01*
X357857Y-165714D01*
X400714Y-180000D01*
X429286Y-208571D01*
X443571Y-237143D01*
X457857Y-294286D01*
X457857Y-337143D01*
X443571Y-394286D01*
X429286Y-422857D01*
X400714Y-451428D01*
X357857Y-465714D01*
X286429Y-465714D01*
X586429Y-465714D02*
X586429Y-265714D01*
X586429Y-322857D02*
X600714Y-294286D01*
X615000Y-280000D01*
X643571Y-265714D01*
X672143Y-265714D01*
X772143Y-465714D02*
X772143Y-265714D01*
X772143Y-165714D02*
X757857Y-180000D01*
X772143Y-194286D01*
X786428Y-180000D01*
X772143Y-165714D01*
X772143Y-194286D01*
X957857Y-465714D02*
X929286Y-451428D01*
X915000Y-422857D01*
X915000Y-165714D01*
X1115000Y-465714D02*
X1086429Y-451428D01*
X1072143Y-422857D01*
X1072143Y-165714D01*
X1457857Y-465714D02*
X1457857Y-165714D01*
X1557857Y-380000D01*
X1657857Y-165714D01*
X1657857Y-465714D01*
X1929286Y-465714D02*
X1929286Y-308571D01*
X1915000Y-280000D01*
X1886428Y-265714D01*
X1829286Y-265714D01*
X1800714Y-280000D01*
X1929286Y-451428D02*
X1900714Y-465714D01*
X1829286Y-465714D01*
X1800714Y-451428D01*
X1786428Y-422857D01*
X1786428Y-394286D01*
X1800714Y-365714D01*
X1829286Y-351428D01*
X1900714Y-351428D01*
X1929286Y-337143D01*
X2072143Y-265714D02*
X2072143Y-565714D01*
X2072143Y-280000D02*
X2100714Y-265714D01*
X2157857Y-265714D01*
X2186429Y-280000D01*
X2200714Y-294286D01*
X2215000Y-322857D01*
X2215000Y-408571D01*
X2200714Y-437143D01*
X2186429Y-451428D01*
X2157857Y-465714D01*
X2100714Y-465714D01*
X2072143Y-451428D01*
X2343571Y-437143D02*
X2357857Y-451428D01*
X2343571Y-465714D01*
X2329286Y-451428D01*
X2343571Y-437143D01*
X2343571Y-465714D01*
X2343571Y-280000D02*
X2357857Y-294286D01*
X2343571Y-308571D01*
X2329286Y-294286D01*
X2343571Y-280000D01*
X2343571Y-308571D01*
X-70000Y-925000D02*
X0Y-995000D01*
X0Y-925000D02*
X-70000Y-995000D01*
X343571Y-795714D02*
X372143Y-795714D01*
X400714Y-810000D01*
X415000Y-824286D01*
X429286Y-852857D01*
X443571Y-910000D01*
X443571Y-981428D01*
X429286Y-1038571D01*
X415000Y-1067143D01*
X400714Y-1081429D01*
X372143Y-1095714D01*
X343571Y-1095714D01*
X315000Y-1081429D01*
X300714Y-1067143D01*
X286429Y-1038571D01*
X272143Y-981428D01*
X272143Y-910000D01*
X286429Y-852857D01*
X300714Y-824286D01*
X315000Y-810000D01*
X343571Y-795714D01*
X572143Y-1067143D02*
X586429Y-1081429D01*
X572143Y-1095714D01*
X557857Y-1081429D01*
X572143Y-1067143D01*
X572143Y-1095714D01*
X686429Y-795714D02*
X886428Y-795714D01*
X757857Y-1095714D01*
X1057857Y-795714D02*
X1086429Y-795714D01*
X1115000Y-810000D01*
X1129286Y-824286D01*
X1143571Y-852857D01*
X1157857Y-910000D01*
X1157857Y-981428D01*
X1143571Y-1038571D01*
X1129286Y-1067143D01*
X1115000Y-1081429D01*
X1086429Y-1095714D01*
X1057857Y-1095714D01*
X1029286Y-1081429D01*
X1015000Y-1067143D01*
X1000714Y-1038571D01*
X986428Y-981428D01*
X986428Y-910000D01*
X1000714Y-852857D01*
X1015000Y-824286D01*
X1029286Y-810000D01*
X1057857Y-795714D01*
X1343571Y-795714D02*
X1372143Y-795714D01*
X1400714Y-810000D01*
X1415000Y-824286D01*
X1429286Y-852857D01*
X1443571Y-910000D01*
X1443571Y-981428D01*
X1429286Y-1038571D01*
X1415000Y-1067143D01*
X1400714Y-1081429D01*
X1372143Y-1095714D01*
X1343571Y-1095714D01*
X1315000Y-1081429D01*
X1300714Y-1067143D01*
X1286429Y-1038571D01*
X1272143Y-981428D01*
X1272143Y-910000D01*
X1286429Y-852857D01*
X1300714Y-824286D01*
X1315000Y-810000D01*
X1343571Y-795714D01*
X1572143Y-1095714D02*
X1572143Y-895714D01*
X1572143Y-924286D02*
X1586428Y-910000D01*
X1615000Y-895714D01*
X1657857Y-895714D01*
X1686428Y-910000D01*
X1700714Y-938571D01*
X1700714Y-1095714D01*
X1700714Y-938571D02*
X1715000Y-910000D01*
X1743571Y-895714D01*
X1786428Y-895714D01*
X1815000Y-910000D01*
X1829286Y-938571D01*
X1829286Y-1095714D01*
X1972143Y-1095714D02*
X1972143Y-895714D01*
X1972143Y-924286D02*
X1986428Y-910000D01*
X2015000Y-895714D01*
X2057857Y-895714D01*
X2086428Y-910000D01*
X2100714Y-938571D01*
X2100714Y-1095714D01*
X2100714Y-938571D02*
X2115000Y-910000D01*
X2143571Y-895714D01*
X2186429Y-895714D01*
X2215000Y-910000D01*
X2229286Y-938571D01*
X2229286Y-1095714D01*
X2815000Y-781428D02*
X2557857Y-1167143D01*
X3200714Y-795714D02*
X3229286Y-795714D01*
X3257857Y-810000D01*
X3272143Y-824286D01*
X3286428Y-852857D01*
X3300714Y-910000D01*
X3300714Y-981428D01*
X3286428Y-1038571D01*
X3272143Y-1067143D01*
X3257857Y-1081429D01*
X3229286Y-1095714D01*
X3200714Y-1095714D01*
X3172143Y-1081429D01*
X3157857Y-1067143D01*
X3143571Y-1038571D01*
X3129286Y-981428D01*
X3129286Y-910000D01*
X3143571Y-852857D01*
X3157857Y-824286D01*
X3172143Y-810000D01*
X3200714Y-795714D01*
X3429286Y-1067143D02*
X3443571Y-1081429D01*
X3429286Y-1095714D01*
X3415000Y-1081429D01*
X3429286Y-1067143D01*
X3429286Y-1095714D01*
X3629286Y-795714D02*
X3657857Y-795714D01*
X3686428Y-810000D01*
X3700714Y-824286D01*
X3715000Y-852857D01*
X3729286Y-910000D01*
X3729286Y-981428D01*
X3715000Y-1038571D01*
X3700714Y-1067143D01*
X3686428Y-1081429D01*
X3657857Y-1095714D01*
X3629286Y-1095714D01*
X3600714Y-1081429D01*
X3586428Y-1067143D01*
X3572143Y-1038571D01*
X3557857Y-981428D01*
X3557857Y-910000D01*
X3572143Y-852857D01*
X3586428Y-824286D01*
X3600714Y-810000D01*
X3629286Y-795714D01*
X3843571Y-824286D02*
X3857857Y-810000D01*
X3886428Y-795714D01*
X3957857Y-795714D01*
X3986428Y-810000D01*
X4000714Y-824286D01*
X4015000Y-852857D01*
X4015000Y-881428D01*
X4000714Y-924286D01*
X3829286Y-1095714D01*
X4015000Y-1095714D01*
X4115000Y-795714D02*
X4315000Y-795714D01*
X4186428Y-1095714D01*
X4557857Y-795714D02*
X4500714Y-795714D01*
X4472143Y-810000D01*
X4457857Y-824286D01*
X4429286Y-867143D01*
X4415000Y-924286D01*
X4415000Y-1038571D01*
X4429286Y-1067143D01*
X4443571Y-1081429D01*
X4472143Y-1095714D01*
X4529286Y-1095714D01*
X4557857Y-1081429D01*
X4572143Y-1067143D01*
X4586429Y-1038571D01*
X4586429Y-967143D01*
X4572143Y-938571D01*
X4557857Y-924286D01*
X4529286Y-910000D01*
X4472143Y-910000D01*
X4443571Y-924286D01*
X4429286Y-938571D01*
X4415000Y-967143D01*
X4700714Y-795714D02*
X4700714Y-852857D01*
X4815000Y-795714D02*
X4815000Y-852857D01*
X5257857Y-1210000D02*
X5243571Y-1195714D01*
X5215000Y-1152857D01*
X5200714Y-1124286D01*
X5186429Y-1081429D01*
X5172143Y-1010000D01*
X5172143Y-952857D01*
X5186429Y-881428D01*
X5200714Y-838571D01*
X5215000Y-810000D01*
X5243571Y-767143D01*
X5257857Y-752857D01*
X5500714Y-895714D02*
X5500714Y-1095714D01*
X5429286Y-781428D02*
X5357857Y-995714D01*
X5543571Y-995714D01*
X5886428Y-1095714D02*
X5886428Y-795714D01*
X6015000Y-1095714D02*
X6015000Y-938571D01*
X6000714Y-910000D01*
X5972143Y-895714D01*
X5929286Y-895714D01*
X5900714Y-910000D01*
X5886428Y-924286D01*
X6200714Y-1095714D02*
X6172143Y-1081429D01*
X6157857Y-1067143D01*
X6143571Y-1038571D01*
X6143571Y-952857D01*
X6157857Y-924286D01*
X6172143Y-910000D01*
X6200714Y-895714D01*
X6243571Y-895714D01*
X6272143Y-910000D01*
X6286428Y-924286D01*
X6300714Y-952857D01*
X6300714Y-1038571D01*
X6286428Y-1067143D01*
X6272143Y-1081429D01*
X6243571Y-1095714D01*
X6200714Y-1095714D01*
X6472143Y-1095714D02*
X6443571Y-1081429D01*
X6429286Y-1052857D01*
X6429286Y-795714D01*
X6700714Y-1081429D02*
X6672143Y-1095714D01*
X6615000Y-1095714D01*
X6586428Y-1081429D01*
X6572143Y-1052857D01*
X6572143Y-938571D01*
X6586428Y-910000D01*
X6615000Y-895714D01*
X6672143Y-895714D01*
X6700714Y-910000D01*
X6715000Y-938571D01*
X6715000Y-967143D01*
X6572143Y-995714D01*
X6829286Y-1081429D02*
X6857857Y-1095714D01*
X6915000Y-1095714D01*
X6943571Y-1081429D01*
X6957857Y-1052857D01*
X6957857Y-1038571D01*
X6943571Y-1010000D01*
X6915000Y-995714D01*
X6872143Y-995714D01*
X6843571Y-981428D01*
X6829286Y-952857D01*
X6829286Y-938571D01*
X6843571Y-910000D01*
X6872143Y-895714D01*
X6915000Y-895714D01*
X6943571Y-910000D01*
X7057857Y-1210000D02*
X7072143Y-1195714D01*
X7100714Y-1152857D01*
X7115000Y-1124286D01*
X7129286Y-1081429D01*
X7143571Y-1010000D01*
X7143571Y-952857D01*
X7129286Y-881428D01*
X7115000Y-838571D01*
X7100714Y-810000D01*
X7072143Y-767143D01*
X7057857Y-752857D01*
X0Y-1356000D02*
G75*
G03*
X0Y-1356000I-40000J0D01*
G01*
X343571Y-1191714D02*
X372143Y-1191714D01*
X400714Y-1206000D01*
X415000Y-1220286D01*
X429286Y-1248857D01*
X443571Y-1306000D01*
X443571Y-1377429D01*
X429286Y-1434571D01*
X415000Y-1463143D01*
X400714Y-1477428D01*
X372143Y-1491714D01*
X343571Y-1491714D01*
X315000Y-1477428D01*
X300714Y-1463143D01*
X286429Y-1434571D01*
X272143Y-1377429D01*
X272143Y-1306000D01*
X286429Y-1248857D01*
X300714Y-1220286D01*
X315000Y-1206000D01*
X343571Y-1191714D01*
X572143Y-1463143D02*
X586429Y-1477428D01*
X572143Y-1491714D01*
X557857Y-1477428D01*
X572143Y-1463143D01*
X572143Y-1491714D01*
X757857Y-1320286D02*
X729286Y-1306000D01*
X715000Y-1291714D01*
X700714Y-1263143D01*
X700714Y-1248857D01*
X715000Y-1220286D01*
X729286Y-1206000D01*
X757857Y-1191714D01*
X815000Y-1191714D01*
X843571Y-1206000D01*
X857857Y-1220286D01*
X872143Y-1248857D01*
X872143Y-1263143D01*
X857857Y-1291714D01*
X843571Y-1306000D01*
X815000Y-1320286D01*
X757857Y-1320286D01*
X729286Y-1334571D01*
X715000Y-1348857D01*
X700714Y-1377429D01*
X700714Y-1434571D01*
X715000Y-1463143D01*
X729286Y-1477428D01*
X757857Y-1491714D01*
X815000Y-1491714D01*
X843571Y-1477428D01*
X857857Y-1463143D01*
X872143Y-1434571D01*
X872143Y-1377429D01*
X857857Y-1348857D01*
X843571Y-1334571D01*
X815000Y-1320286D01*
X1057857Y-1191714D02*
X1086429Y-1191714D01*
X1115000Y-1206000D01*
X1129286Y-1220286D01*
X1143571Y-1248857D01*
X1157857Y-1306000D01*
X1157857Y-1377429D01*
X1143571Y-1434571D01*
X1129286Y-1463143D01*
X1115000Y-1477428D01*
X1086429Y-1491714D01*
X1057857Y-1491714D01*
X1029286Y-1477428D01*
X1015000Y-1463143D01*
X1000714Y-1434571D01*
X986428Y-1377429D01*
X986428Y-1306000D01*
X1000714Y-1248857D01*
X1015000Y-1220286D01*
X1029286Y-1206000D01*
X1057857Y-1191714D01*
X1343571Y-1191714D02*
X1372143Y-1191714D01*
X1400714Y-1206000D01*
X1415000Y-1220286D01*
X1429286Y-1248857D01*
X1443571Y-1306000D01*
X1443571Y-1377429D01*
X1429286Y-1434571D01*
X1415000Y-1463143D01*
X1400714Y-1477428D01*
X1372143Y-1491714D01*
X1343571Y-1491714D01*
X1315000Y-1477428D01*
X1300714Y-1463143D01*
X1286429Y-1434571D01*
X1272143Y-1377429D01*
X1272143Y-1306000D01*
X1286429Y-1248857D01*
X1300714Y-1220286D01*
X1315000Y-1206000D01*
X1343571Y-1191714D01*
X1572143Y-1491714D02*
X1572143Y-1291714D01*
X1572143Y-1320286D02*
X1586428Y-1306000D01*
X1615000Y-1291714D01*
X1657857Y-1291714D01*
X1686428Y-1306000D01*
X1700714Y-1334571D01*
X1700714Y-1491714D01*
X1700714Y-1334571D02*
X1715000Y-1306000D01*
X1743571Y-1291714D01*
X1786428Y-1291714D01*
X1815000Y-1306000D01*
X1829286Y-1334571D01*
X1829286Y-1491714D01*
X1972143Y-1491714D02*
X1972143Y-1291714D01*
X1972143Y-1320286D02*
X1986428Y-1306000D01*
X2015000Y-1291714D01*
X2057857Y-1291714D01*
X2086428Y-1306000D01*
X2100714Y-1334571D01*
X2100714Y-1491714D01*
X2100714Y-1334571D02*
X2115000Y-1306000D01*
X2143571Y-1291714D01*
X2186429Y-1291714D01*
X2215000Y-1306000D01*
X2229286Y-1334571D01*
X2229286Y-1491714D01*
X2815000Y-1177429D02*
X2557857Y-1563143D01*
X3200714Y-1191714D02*
X3229286Y-1191714D01*
X3257857Y-1206000D01*
X3272143Y-1220286D01*
X3286428Y-1248857D01*
X3300714Y-1306000D01*
X3300714Y-1377429D01*
X3286428Y-1434571D01*
X3272143Y-1463143D01*
X3257857Y-1477428D01*
X3229286Y-1491714D01*
X3200714Y-1491714D01*
X3172143Y-1477428D01*
X3157857Y-1463143D01*
X3143571Y-1434571D01*
X3129286Y-1377429D01*
X3129286Y-1306000D01*
X3143571Y-1248857D01*
X3157857Y-1220286D01*
X3172143Y-1206000D01*
X3200714Y-1191714D01*
X3429286Y-1463143D02*
X3443571Y-1477428D01*
X3429286Y-1491714D01*
X3415000Y-1477428D01*
X3429286Y-1463143D01*
X3429286Y-1491714D01*
X3629286Y-1191714D02*
X3657857Y-1191714D01*
X3686428Y-1206000D01*
X3700714Y-1220286D01*
X3715000Y-1248857D01*
X3729286Y-1306000D01*
X3729286Y-1377429D01*
X3715000Y-1434571D01*
X3700714Y-1463143D01*
X3686428Y-1477428D01*
X3657857Y-1491714D01*
X3629286Y-1491714D01*
X3600714Y-1477428D01*
X3586428Y-1463143D01*
X3572143Y-1434571D01*
X3557857Y-1377429D01*
X3557857Y-1306000D01*
X3572143Y-1248857D01*
X3586428Y-1220286D01*
X3600714Y-1206000D01*
X3629286Y-1191714D01*
X3829286Y-1191714D02*
X4015000Y-1191714D01*
X3915000Y-1306000D01*
X3957857Y-1306000D01*
X3986428Y-1320286D01*
X4000714Y-1334571D01*
X4015000Y-1363143D01*
X4015000Y-1434571D01*
X4000714Y-1463143D01*
X3986428Y-1477428D01*
X3957857Y-1491714D01*
X3872143Y-1491714D01*
X3843571Y-1477428D01*
X3829286Y-1463143D01*
X4300714Y-1491714D02*
X4129286Y-1491714D01*
X4215000Y-1491714D02*
X4215000Y-1191714D01*
X4186428Y-1234571D01*
X4157857Y-1263143D01*
X4129286Y-1277429D01*
X4572143Y-1191714D02*
X4429286Y-1191714D01*
X4415000Y-1334571D01*
X4429286Y-1320286D01*
X4457857Y-1306000D01*
X4529286Y-1306000D01*
X4557857Y-1320286D01*
X4572143Y-1334571D01*
X4586429Y-1363143D01*
X4586429Y-1434571D01*
X4572143Y-1463143D01*
X4557857Y-1477428D01*
X4529286Y-1491714D01*
X4457857Y-1491714D01*
X4429286Y-1477428D01*
X4415000Y-1463143D01*
X4700714Y-1191714D02*
X4700714Y-1248857D01*
X4815000Y-1191714D02*
X4815000Y-1248857D01*
X5257857Y-1606000D02*
X5243571Y-1591714D01*
X5215000Y-1548857D01*
X5200714Y-1520286D01*
X5186429Y-1477428D01*
X5172143Y-1406000D01*
X5172143Y-1348857D01*
X5186429Y-1277429D01*
X5200714Y-1234571D01*
X5215000Y-1206000D01*
X5243571Y-1163143D01*
X5257857Y-1148857D01*
X5500714Y-1191714D02*
X5443571Y-1191714D01*
X5415000Y-1206000D01*
X5400714Y-1220286D01*
X5372143Y-1263143D01*
X5357857Y-1320286D01*
X5357857Y-1434571D01*
X5372143Y-1463143D01*
X5386429Y-1477428D01*
X5415000Y-1491714D01*
X5472143Y-1491714D01*
X5500714Y-1477428D01*
X5515000Y-1463143D01*
X5529286Y-1434571D01*
X5529286Y-1363143D01*
X5515000Y-1334571D01*
X5500714Y-1320286D01*
X5472143Y-1306000D01*
X5415000Y-1306000D01*
X5386429Y-1320286D01*
X5372143Y-1334571D01*
X5357857Y-1363143D01*
X5886428Y-1491714D02*
X5886428Y-1191714D01*
X6015000Y-1491714D02*
X6015000Y-1334571D01*
X6000714Y-1306000D01*
X5972143Y-1291714D01*
X5929286Y-1291714D01*
X5900714Y-1306000D01*
X5886428Y-1320286D01*
X6200714Y-1491714D02*
X6172143Y-1477428D01*
X6157857Y-1463143D01*
X6143571Y-1434571D01*
X6143571Y-1348857D01*
X6157857Y-1320286D01*
X6172143Y-1306000D01*
X6200714Y-1291714D01*
X6243571Y-1291714D01*
X6272143Y-1306000D01*
X6286428Y-1320286D01*
X6300714Y-1348857D01*
X6300714Y-1434571D01*
X6286428Y-1463143D01*
X6272143Y-1477428D01*
X6243571Y-1491714D01*
X6200714Y-1491714D01*
X6472143Y-1491714D02*
X6443571Y-1477428D01*
X6429286Y-1448857D01*
X6429286Y-1191714D01*
X6700714Y-1477428D02*
X6672143Y-1491714D01*
X6615000Y-1491714D01*
X6586428Y-1477428D01*
X6572143Y-1448857D01*
X6572143Y-1334571D01*
X6586428Y-1306000D01*
X6615000Y-1291714D01*
X6672143Y-1291714D01*
X6700714Y-1306000D01*
X6715000Y-1334571D01*
X6715000Y-1363143D01*
X6572143Y-1391714D01*
X6829286Y-1477428D02*
X6857857Y-1491714D01*
X6915000Y-1491714D01*
X6943571Y-1477428D01*
X6957857Y-1448857D01*
X6957857Y-1434571D01*
X6943571Y-1406000D01*
X6915000Y-1391714D01*
X6872143Y-1391714D01*
X6843571Y-1377429D01*
X6829286Y-1348857D01*
X6829286Y-1334571D01*
X6843571Y-1306000D01*
X6872143Y-1291714D01*
X6915000Y-1291714D01*
X6943571Y-1306000D01*
X7057857Y-1606000D02*
X7072143Y-1591714D01*
X7100714Y-1548857D01*
X7115000Y-1520286D01*
X7129286Y-1477428D01*
X7143571Y-1406000D01*
X7143571Y-1348857D01*
X7129286Y-1277429D01*
X7115000Y-1234571D01*
X7100714Y-1206000D01*
X7072143Y-1163143D01*
X7057857Y-1148857D01*
X-50000Y-1702000D02*
X-50000Y-1802000D01*
X-100000Y-1752000D02*
X0Y-1752000D01*
X443571Y-1887714D02*
X272143Y-1887714D01*
X357857Y-1887714D02*
X357857Y-1587714D01*
X329286Y-1630571D01*
X300714Y-1659143D01*
X272143Y-1673428D01*
X572143Y-1859143D02*
X586429Y-1873428D01*
X572143Y-1887714D01*
X557857Y-1873428D01*
X572143Y-1859143D01*
X572143Y-1887714D01*
X772143Y-1587714D02*
X800714Y-1587714D01*
X829286Y-1602000D01*
X843571Y-1616286D01*
X857857Y-1644857D01*
X872143Y-1702000D01*
X872143Y-1773428D01*
X857857Y-1830571D01*
X843571Y-1859143D01*
X829286Y-1873428D01*
X800714Y-1887714D01*
X772143Y-1887714D01*
X743571Y-1873428D01*
X729286Y-1859143D01*
X715000Y-1830571D01*
X700714Y-1773428D01*
X700714Y-1702000D01*
X715000Y-1644857D01*
X729286Y-1616286D01*
X743571Y-1602000D01*
X772143Y-1587714D01*
X1057857Y-1587714D02*
X1086429Y-1587714D01*
X1115000Y-1602000D01*
X1129286Y-1616286D01*
X1143571Y-1644857D01*
X1157857Y-1702000D01*
X1157857Y-1773428D01*
X1143571Y-1830571D01*
X1129286Y-1859143D01*
X1115000Y-1873428D01*
X1086429Y-1887714D01*
X1057857Y-1887714D01*
X1029286Y-1873428D01*
X1015000Y-1859143D01*
X1000714Y-1830571D01*
X986428Y-1773428D01*
X986428Y-1702000D01*
X1000714Y-1644857D01*
X1015000Y-1616286D01*
X1029286Y-1602000D01*
X1057857Y-1587714D01*
X1343571Y-1587714D02*
X1372143Y-1587714D01*
X1400714Y-1602000D01*
X1415000Y-1616286D01*
X1429286Y-1644857D01*
X1443571Y-1702000D01*
X1443571Y-1773428D01*
X1429286Y-1830571D01*
X1415000Y-1859143D01*
X1400714Y-1873428D01*
X1372143Y-1887714D01*
X1343571Y-1887714D01*
X1315000Y-1873428D01*
X1300714Y-1859143D01*
X1286429Y-1830571D01*
X1272143Y-1773428D01*
X1272143Y-1702000D01*
X1286429Y-1644857D01*
X1300714Y-1616286D01*
X1315000Y-1602000D01*
X1343571Y-1587714D01*
X1572143Y-1887714D02*
X1572143Y-1687714D01*
X1572143Y-1716286D02*
X1586428Y-1702000D01*
X1615000Y-1687714D01*
X1657857Y-1687714D01*
X1686428Y-1702000D01*
X1700714Y-1730571D01*
X1700714Y-1887714D01*
X1700714Y-1730571D02*
X1715000Y-1702000D01*
X1743571Y-1687714D01*
X1786428Y-1687714D01*
X1815000Y-1702000D01*
X1829286Y-1730571D01*
X1829286Y-1887714D01*
X1972143Y-1887714D02*
X1972143Y-1687714D01*
X1972143Y-1716286D02*
X1986428Y-1702000D01*
X2015000Y-1687714D01*
X2057857Y-1687714D01*
X2086428Y-1702000D01*
X2100714Y-1730571D01*
X2100714Y-1887714D01*
X2100714Y-1730571D02*
X2115000Y-1702000D01*
X2143571Y-1687714D01*
X2186429Y-1687714D01*
X2215000Y-1702000D01*
X2229286Y-1730571D01*
X2229286Y-1887714D01*
X2815000Y-1573428D02*
X2557857Y-1959143D01*
X3200714Y-1587714D02*
X3229286Y-1587714D01*
X3257857Y-1602000D01*
X3272143Y-1616286D01*
X3286428Y-1644857D01*
X3300714Y-1702000D01*
X3300714Y-1773428D01*
X3286428Y-1830571D01*
X3272143Y-1859143D01*
X3257857Y-1873428D01*
X3229286Y-1887714D01*
X3200714Y-1887714D01*
X3172143Y-1873428D01*
X3157857Y-1859143D01*
X3143571Y-1830571D01*
X3129286Y-1773428D01*
X3129286Y-1702000D01*
X3143571Y-1644857D01*
X3157857Y-1616286D01*
X3172143Y-1602000D01*
X3200714Y-1587714D01*
X3429286Y-1859143D02*
X3443571Y-1873428D01*
X3429286Y-1887714D01*
X3415000Y-1873428D01*
X3429286Y-1859143D01*
X3429286Y-1887714D01*
X3629286Y-1587714D02*
X3657857Y-1587714D01*
X3686428Y-1602000D01*
X3700714Y-1616286D01*
X3715000Y-1644857D01*
X3729286Y-1702000D01*
X3729286Y-1773428D01*
X3715000Y-1830571D01*
X3700714Y-1859143D01*
X3686428Y-1873428D01*
X3657857Y-1887714D01*
X3629286Y-1887714D01*
X3600714Y-1873428D01*
X3586428Y-1859143D01*
X3572143Y-1830571D01*
X3557857Y-1773428D01*
X3557857Y-1702000D01*
X3572143Y-1644857D01*
X3586428Y-1616286D01*
X3600714Y-1602000D01*
X3629286Y-1587714D01*
X3829286Y-1587714D02*
X4015000Y-1587714D01*
X3915000Y-1702000D01*
X3957857Y-1702000D01*
X3986428Y-1716286D01*
X4000714Y-1730571D01*
X4015000Y-1759143D01*
X4015000Y-1830571D01*
X4000714Y-1859143D01*
X3986428Y-1873428D01*
X3957857Y-1887714D01*
X3872143Y-1887714D01*
X3843571Y-1873428D01*
X3829286Y-1859143D01*
X4157857Y-1887714D02*
X4215000Y-1887714D01*
X4243571Y-1873428D01*
X4257857Y-1859143D01*
X4286429Y-1816286D01*
X4300714Y-1759143D01*
X4300714Y-1644857D01*
X4286429Y-1616286D01*
X4272143Y-1602000D01*
X4243571Y-1587714D01*
X4186428Y-1587714D01*
X4157857Y-1602000D01*
X4143571Y-1616286D01*
X4129286Y-1644857D01*
X4129286Y-1716286D01*
X4143571Y-1744857D01*
X4157857Y-1759143D01*
X4186428Y-1773428D01*
X4243571Y-1773428D01*
X4272143Y-1759143D01*
X4286429Y-1744857D01*
X4300714Y-1716286D01*
X4557857Y-1687714D02*
X4557857Y-1887714D01*
X4486429Y-1573428D02*
X4415000Y-1787714D01*
X4600714Y-1787714D01*
X4700714Y-1587714D02*
X4700714Y-1644857D01*
X4815000Y-1587714D02*
X4815000Y-1644857D01*
X5257857Y-2002000D02*
X5243571Y-1987714D01*
X5215000Y-1944857D01*
X5200714Y-1916286D01*
X5186429Y-1873428D01*
X5172143Y-1802000D01*
X5172143Y-1744857D01*
X5186429Y-1673428D01*
X5200714Y-1630571D01*
X5215000Y-1602000D01*
X5243571Y-1559143D01*
X5257857Y-1544857D01*
X5529286Y-1887714D02*
X5357857Y-1887714D01*
X5443571Y-1887714D02*
X5443571Y-1587714D01*
X5415000Y-1630571D01*
X5386429Y-1659143D01*
X5357857Y-1673428D01*
X5786428Y-1587714D02*
X5729286Y-1587714D01*
X5700714Y-1602000D01*
X5686428Y-1616286D01*
X5657857Y-1659143D01*
X5643571Y-1716286D01*
X5643571Y-1830571D01*
X5657857Y-1859143D01*
X5672143Y-1873428D01*
X5700714Y-1887714D01*
X5757857Y-1887714D01*
X5786428Y-1873428D01*
X5800714Y-1859143D01*
X5815000Y-1830571D01*
X5815000Y-1759143D01*
X5800714Y-1730571D01*
X5786428Y-1716286D01*
X5757857Y-1702000D01*
X5700714Y-1702000D01*
X5672143Y-1716286D01*
X5657857Y-1730571D01*
X5643571Y-1759143D01*
X6172143Y-1887714D02*
X6172143Y-1587714D01*
X6300714Y-1887714D02*
X6300714Y-1730571D01*
X6286428Y-1702000D01*
X6257857Y-1687714D01*
X6215000Y-1687714D01*
X6186428Y-1702000D01*
X6172143Y-1716286D01*
X6486428Y-1887714D02*
X6457857Y-1873428D01*
X6443571Y-1859143D01*
X6429286Y-1830571D01*
X6429286Y-1744857D01*
X6443571Y-1716286D01*
X6457857Y-1702000D01*
X6486428Y-1687714D01*
X6529286Y-1687714D01*
X6557857Y-1702000D01*
X6572143Y-1716286D01*
X6586428Y-1744857D01*
X6586428Y-1830571D01*
X6572143Y-1859143D01*
X6557857Y-1873428D01*
X6529286Y-1887714D01*
X6486428Y-1887714D01*
X6757857Y-1887714D02*
X6729286Y-1873428D01*
X6715000Y-1844857D01*
X6715000Y-1587714D01*
X6986428Y-1873428D02*
X6957857Y-1887714D01*
X6900714Y-1887714D01*
X6872143Y-1873428D01*
X6857857Y-1844857D01*
X6857857Y-1730571D01*
X6872143Y-1702000D01*
X6900714Y-1687714D01*
X6957857Y-1687714D01*
X6986428Y-1702000D01*
X7000714Y-1730571D01*
X7000714Y-1759143D01*
X6857857Y-1787714D01*
X7115000Y-1873428D02*
X7143571Y-1887714D01*
X7200714Y-1887714D01*
X7229286Y-1873428D01*
X7243571Y-1844857D01*
X7243571Y-1830571D01*
X7229286Y-1802000D01*
X7200714Y-1787714D01*
X7157857Y-1787714D01*
X7129286Y-1773428D01*
X7115000Y-1744857D01*
X7115000Y-1730571D01*
X7129286Y-1702000D01*
X7157857Y-1687714D01*
X7200714Y-1687714D01*
X7229286Y-1702000D01*
X7343571Y-2002000D02*
X7357857Y-1987714D01*
X7386428Y-1944857D01*
X7400714Y-1916286D01*
X7415000Y-1873428D01*
X7429286Y-1802000D01*
X7429286Y-1744857D01*
X7415000Y-1673428D01*
X7400714Y-1630571D01*
X7386428Y-1602000D01*
X7357857Y-1559143D01*
X7343571Y-1544857D01*
X-19038Y-2193962D02*
X-19038Y-2102038D01*
X-110962Y-2102038D01*
X-110962Y-2193962D01*
X-19038Y-2193962D01*
X443571Y-2283714D02*
X272143Y-2283714D01*
X357857Y-2283714D02*
X357857Y-1983714D01*
X329286Y-2026571D01*
X300714Y-2055143D01*
X272143Y-2069428D01*
X572143Y-2255143D02*
X586429Y-2269429D01*
X572143Y-2283714D01*
X557857Y-2269429D01*
X572143Y-2255143D01*
X572143Y-2283714D01*
X686429Y-1983714D02*
X872143Y-1983714D01*
X772143Y-2098000D01*
X815000Y-2098000D01*
X843571Y-2112286D01*
X857857Y-2126571D01*
X872143Y-2155143D01*
X872143Y-2226571D01*
X857857Y-2255143D01*
X843571Y-2269429D01*
X815000Y-2283714D01*
X729286Y-2283714D01*
X700714Y-2269429D01*
X686429Y-2255143D01*
X1057857Y-1983714D02*
X1086429Y-1983714D01*
X1115000Y-1998000D01*
X1129286Y-2012286D01*
X1143571Y-2040857D01*
X1157857Y-2098000D01*
X1157857Y-2169429D01*
X1143571Y-2226571D01*
X1129286Y-2255143D01*
X1115000Y-2269429D01*
X1086429Y-2283714D01*
X1057857Y-2283714D01*
X1029286Y-2269429D01*
X1015000Y-2255143D01*
X1000714Y-2226571D01*
X986428Y-2169429D01*
X986428Y-2098000D01*
X1000714Y-2040857D01*
X1015000Y-2012286D01*
X1029286Y-1998000D01*
X1057857Y-1983714D01*
X1343571Y-1983714D02*
X1372143Y-1983714D01*
X1400714Y-1998000D01*
X1415000Y-2012286D01*
X1429286Y-2040857D01*
X1443571Y-2098000D01*
X1443571Y-2169429D01*
X1429286Y-2226571D01*
X1415000Y-2255143D01*
X1400714Y-2269429D01*
X1372143Y-2283714D01*
X1343571Y-2283714D01*
X1315000Y-2269429D01*
X1300714Y-2255143D01*
X1286429Y-2226571D01*
X1272143Y-2169429D01*
X1272143Y-2098000D01*
X1286429Y-2040857D01*
X1300714Y-2012286D01*
X1315000Y-1998000D01*
X1343571Y-1983714D01*
X1572143Y-2283714D02*
X1572143Y-2083714D01*
X1572143Y-2112286D02*
X1586428Y-2098000D01*
X1615000Y-2083714D01*
X1657857Y-2083714D01*
X1686428Y-2098000D01*
X1700714Y-2126571D01*
X1700714Y-2283714D01*
X1700714Y-2126571D02*
X1715000Y-2098000D01*
X1743571Y-2083714D01*
X1786428Y-2083714D01*
X1815000Y-2098000D01*
X1829286Y-2126571D01*
X1829286Y-2283714D01*
X1972143Y-2283714D02*
X1972143Y-2083714D01*
X1972143Y-2112286D02*
X1986428Y-2098000D01*
X2015000Y-2083714D01*
X2057857Y-2083714D01*
X2086428Y-2098000D01*
X2100714Y-2126571D01*
X2100714Y-2283714D01*
X2100714Y-2126571D02*
X2115000Y-2098000D01*
X2143571Y-2083714D01*
X2186429Y-2083714D01*
X2215000Y-2098000D01*
X2229286Y-2126571D01*
X2229286Y-2283714D01*
X2815000Y-1969428D02*
X2557857Y-2355143D01*
X3200714Y-1983714D02*
X3229286Y-1983714D01*
X3257857Y-1998000D01*
X3272143Y-2012286D01*
X3286428Y-2040857D01*
X3300714Y-2098000D01*
X3300714Y-2169429D01*
X3286428Y-2226571D01*
X3272143Y-2255143D01*
X3257857Y-2269429D01*
X3229286Y-2283714D01*
X3200714Y-2283714D01*
X3172143Y-2269429D01*
X3157857Y-2255143D01*
X3143571Y-2226571D01*
X3129286Y-2169429D01*
X3129286Y-2098000D01*
X3143571Y-2040857D01*
X3157857Y-2012286D01*
X3172143Y-1998000D01*
X3200714Y-1983714D01*
X3429286Y-2255143D02*
X3443571Y-2269429D01*
X3429286Y-2283714D01*
X3415000Y-2269429D01*
X3429286Y-2255143D01*
X3429286Y-2283714D01*
X3629286Y-1983714D02*
X3657857Y-1983714D01*
X3686428Y-1998000D01*
X3700714Y-2012286D01*
X3715000Y-2040857D01*
X3729286Y-2098000D01*
X3729286Y-2169429D01*
X3715000Y-2226571D01*
X3700714Y-2255143D01*
X3686428Y-2269429D01*
X3657857Y-2283714D01*
X3629286Y-2283714D01*
X3600714Y-2269429D01*
X3586428Y-2255143D01*
X3572143Y-2226571D01*
X3557857Y-2169429D01*
X3557857Y-2098000D01*
X3572143Y-2040857D01*
X3586428Y-2012286D01*
X3600714Y-1998000D01*
X3629286Y-1983714D01*
X4000714Y-1983714D02*
X3857857Y-1983714D01*
X3843571Y-2126571D01*
X3857857Y-2112286D01*
X3886428Y-2098000D01*
X3957857Y-2098000D01*
X3986428Y-2112286D01*
X4000714Y-2126571D01*
X4015000Y-2155143D01*
X4015000Y-2226571D01*
X4000714Y-2255143D01*
X3986428Y-2269429D01*
X3957857Y-2283714D01*
X3886428Y-2283714D01*
X3857857Y-2269429D01*
X3843571Y-2255143D01*
X4300714Y-2283714D02*
X4129286Y-2283714D01*
X4215000Y-2283714D02*
X4215000Y-1983714D01*
X4186428Y-2026571D01*
X4157857Y-2055143D01*
X4129286Y-2069428D01*
X4415000Y-2012286D02*
X4429286Y-1998000D01*
X4457857Y-1983714D01*
X4529286Y-1983714D01*
X4557857Y-1998000D01*
X4572143Y-2012286D01*
X4586429Y-2040857D01*
X4586429Y-2069428D01*
X4572143Y-2112286D01*
X4400714Y-2283714D01*
X4586429Y-2283714D01*
X4700714Y-1983714D02*
X4700714Y-2040857D01*
X4815000Y-1983714D02*
X4815000Y-2040857D01*
X5257857Y-2398000D02*
X5243571Y-2383714D01*
X5215000Y-2340857D01*
X5200714Y-2312286D01*
X5186429Y-2269429D01*
X5172143Y-2198000D01*
X5172143Y-2140857D01*
X5186429Y-2069428D01*
X5200714Y-2026571D01*
X5215000Y-1998000D01*
X5243571Y-1955143D01*
X5257857Y-1940857D01*
X5500714Y-2083714D02*
X5500714Y-2283714D01*
X5429286Y-1969428D02*
X5357857Y-2183714D01*
X5543571Y-2183714D01*
X5886428Y-2283714D02*
X5886428Y-1983714D01*
X6015000Y-2283714D02*
X6015000Y-2126571D01*
X6000714Y-2098000D01*
X5972143Y-2083714D01*
X5929286Y-2083714D01*
X5900714Y-2098000D01*
X5886428Y-2112286D01*
X6200714Y-2283714D02*
X6172143Y-2269429D01*
X6157857Y-2255143D01*
X6143571Y-2226571D01*
X6143571Y-2140857D01*
X6157857Y-2112286D01*
X6172143Y-2098000D01*
X6200714Y-2083714D01*
X6243571Y-2083714D01*
X6272143Y-2098000D01*
X6286428Y-2112286D01*
X6300714Y-2140857D01*
X6300714Y-2226571D01*
X6286428Y-2255143D01*
X6272143Y-2269429D01*
X6243571Y-2283714D01*
X6200714Y-2283714D01*
X6472143Y-2283714D02*
X6443571Y-2269429D01*
X6429286Y-2240857D01*
X6429286Y-1983714D01*
X6700714Y-2269429D02*
X6672143Y-2283714D01*
X6615000Y-2283714D01*
X6586428Y-2269429D01*
X6572143Y-2240857D01*
X6572143Y-2126571D01*
X6586428Y-2098000D01*
X6615000Y-2083714D01*
X6672143Y-2083714D01*
X6700714Y-2098000D01*
X6715000Y-2126571D01*
X6715000Y-2155143D01*
X6572143Y-2183714D01*
X6829286Y-2269429D02*
X6857857Y-2283714D01*
X6915000Y-2283714D01*
X6943571Y-2269429D01*
X6957857Y-2240857D01*
X6957857Y-2226571D01*
X6943571Y-2198000D01*
X6915000Y-2183714D01*
X6872143Y-2183714D01*
X6843571Y-2169429D01*
X6829286Y-2140857D01*
X6829286Y-2126571D01*
X6843571Y-2098000D01*
X6872143Y-2083714D01*
X6915000Y-2083714D01*
X6943571Y-2098000D01*
X7057857Y-2398000D02*
X7072143Y-2383714D01*
X7100714Y-2340857D01*
X7115000Y-2312286D01*
X7129286Y-2269429D01*
X7143571Y-2198000D01*
X7143571Y-2140857D01*
X7129286Y-2069428D01*
X7115000Y-2026571D01*
X7100714Y-1998000D01*
X7072143Y-1955143D01*
X7057857Y-1940857D01*
X-100000Y-2644000D02*
X0Y-2544000D01*
X-100000Y-2444000D01*
X-200000Y-2544000D01*
X-100000Y-2644000D01*
X272143Y-2408286D02*
X286429Y-2394000D01*
X315000Y-2379714D01*
X386428Y-2379714D01*
X415000Y-2394000D01*
X429286Y-2408286D01*
X443571Y-2436857D01*
X443571Y-2465429D01*
X429286Y-2508286D01*
X257857Y-2679714D01*
X443571Y-2679714D01*
X572143Y-2651143D02*
X586429Y-2665429D01*
X572143Y-2679714D01*
X557857Y-2665429D01*
X572143Y-2651143D01*
X572143Y-2679714D01*
X772143Y-2379714D02*
X800714Y-2379714D01*
X829286Y-2394000D01*
X843571Y-2408286D01*
X857857Y-2436857D01*
X872143Y-2494000D01*
X872143Y-2565429D01*
X857857Y-2622571D01*
X843571Y-2651143D01*
X829286Y-2665429D01*
X800714Y-2679714D01*
X772143Y-2679714D01*
X743571Y-2665429D01*
X729286Y-2651143D01*
X715000Y-2622571D01*
X700714Y-2565429D01*
X700714Y-2494000D01*
X715000Y-2436857D01*
X729286Y-2408286D01*
X743571Y-2394000D01*
X772143Y-2379714D01*
X1057857Y-2379714D02*
X1086429Y-2379714D01*
X1115000Y-2394000D01*
X1129286Y-2408286D01*
X1143571Y-2436857D01*
X1157857Y-2494000D01*
X1157857Y-2565429D01*
X1143571Y-2622571D01*
X1129286Y-2651143D01*
X1115000Y-2665429D01*
X1086429Y-2679714D01*
X1057857Y-2679714D01*
X1029286Y-2665429D01*
X1015000Y-2651143D01*
X1000714Y-2622571D01*
X986428Y-2565429D01*
X986428Y-2494000D01*
X1000714Y-2436857D01*
X1015000Y-2408286D01*
X1029286Y-2394000D01*
X1057857Y-2379714D01*
X1343571Y-2379714D02*
X1372143Y-2379714D01*
X1400714Y-2394000D01*
X1415000Y-2408286D01*
X1429286Y-2436857D01*
X1443571Y-2494000D01*
X1443571Y-2565429D01*
X1429286Y-2622571D01*
X1415000Y-2651143D01*
X1400714Y-2665429D01*
X1372143Y-2679714D01*
X1343571Y-2679714D01*
X1315000Y-2665429D01*
X1300714Y-2651143D01*
X1286429Y-2622571D01*
X1272143Y-2565429D01*
X1272143Y-2494000D01*
X1286429Y-2436857D01*
X1300714Y-2408286D01*
X1315000Y-2394000D01*
X1343571Y-2379714D01*
X1572143Y-2679714D02*
X1572143Y-2479714D01*
X1572143Y-2508286D02*
X1586428Y-2494000D01*
X1615000Y-2479714D01*
X1657857Y-2479714D01*
X1686428Y-2494000D01*
X1700714Y-2522571D01*
X1700714Y-2679714D01*
X1700714Y-2522571D02*
X1715000Y-2494000D01*
X1743571Y-2479714D01*
X1786428Y-2479714D01*
X1815000Y-2494000D01*
X1829286Y-2522571D01*
X1829286Y-2679714D01*
X1972143Y-2679714D02*
X1972143Y-2479714D01*
X1972143Y-2508286D02*
X1986428Y-2494000D01*
X2015000Y-2479714D01*
X2057857Y-2479714D01*
X2086428Y-2494000D01*
X2100714Y-2522571D01*
X2100714Y-2679714D01*
X2100714Y-2522571D02*
X2115000Y-2494000D01*
X2143571Y-2479714D01*
X2186429Y-2479714D01*
X2215000Y-2494000D01*
X2229286Y-2522571D01*
X2229286Y-2679714D01*
X2815000Y-2365429D02*
X2557857Y-2751143D01*
X3200714Y-2379714D02*
X3229286Y-2379714D01*
X3257857Y-2394000D01*
X3272143Y-2408286D01*
X3286428Y-2436857D01*
X3300714Y-2494000D01*
X3300714Y-2565429D01*
X3286428Y-2622571D01*
X3272143Y-2651143D01*
X3257857Y-2665429D01*
X3229286Y-2679714D01*
X3200714Y-2679714D01*
X3172143Y-2665429D01*
X3157857Y-2651143D01*
X3143571Y-2622571D01*
X3129286Y-2565429D01*
X3129286Y-2494000D01*
X3143571Y-2436857D01*
X3157857Y-2408286D01*
X3172143Y-2394000D01*
X3200714Y-2379714D01*
X3429286Y-2651143D02*
X3443571Y-2665429D01*
X3429286Y-2679714D01*
X3415000Y-2665429D01*
X3429286Y-2651143D01*
X3429286Y-2679714D01*
X3629286Y-2379714D02*
X3657857Y-2379714D01*
X3686428Y-2394000D01*
X3700714Y-2408286D01*
X3715000Y-2436857D01*
X3729286Y-2494000D01*
X3729286Y-2565429D01*
X3715000Y-2622571D01*
X3700714Y-2651143D01*
X3686428Y-2665429D01*
X3657857Y-2679714D01*
X3629286Y-2679714D01*
X3600714Y-2665429D01*
X3586428Y-2651143D01*
X3572143Y-2622571D01*
X3557857Y-2565429D01*
X3557857Y-2494000D01*
X3572143Y-2436857D01*
X3586428Y-2408286D01*
X3600714Y-2394000D01*
X3629286Y-2379714D01*
X3829286Y-2379714D02*
X4029286Y-2379714D01*
X3900714Y-2679714D01*
X4186428Y-2508286D02*
X4157857Y-2494000D01*
X4143571Y-2479714D01*
X4129286Y-2451143D01*
X4129286Y-2436857D01*
X4143571Y-2408286D01*
X4157857Y-2394000D01*
X4186428Y-2379714D01*
X4243571Y-2379714D01*
X4272143Y-2394000D01*
X4286429Y-2408286D01*
X4300714Y-2436857D01*
X4300714Y-2451143D01*
X4286429Y-2479714D01*
X4272143Y-2494000D01*
X4243571Y-2508286D01*
X4186428Y-2508286D01*
X4157857Y-2522571D01*
X4143571Y-2536857D01*
X4129286Y-2565429D01*
X4129286Y-2622571D01*
X4143571Y-2651143D01*
X4157857Y-2665429D01*
X4186428Y-2679714D01*
X4243571Y-2679714D01*
X4272143Y-2665429D01*
X4286429Y-2651143D01*
X4300714Y-2622571D01*
X4300714Y-2565429D01*
X4286429Y-2536857D01*
X4272143Y-2522571D01*
X4243571Y-2508286D01*
X4400714Y-2379714D02*
X4600714Y-2379714D01*
X4472143Y-2679714D01*
X4700714Y-2379714D02*
X4700714Y-2436857D01*
X4815000Y-2379714D02*
X4815000Y-2436857D01*
X5257857Y-2794000D02*
X5243571Y-2779714D01*
X5215000Y-2736857D01*
X5200714Y-2708286D01*
X5186429Y-2665429D01*
X5172143Y-2594000D01*
X5172143Y-2536857D01*
X5186429Y-2465429D01*
X5200714Y-2422571D01*
X5215000Y-2394000D01*
X5243571Y-2351143D01*
X5257857Y-2336857D01*
X5500714Y-2479714D02*
X5500714Y-2679714D01*
X5429286Y-2365429D02*
X5357857Y-2579714D01*
X5543571Y-2579714D01*
X5886428Y-2679714D02*
X5886428Y-2379714D01*
X6015000Y-2679714D02*
X6015000Y-2522571D01*
X6000714Y-2494000D01*
X5972143Y-2479714D01*
X5929286Y-2479714D01*
X5900714Y-2494000D01*
X5886428Y-2508286D01*
X6200714Y-2679714D02*
X6172143Y-2665429D01*
X6157857Y-2651143D01*
X6143571Y-2622571D01*
X6143571Y-2536857D01*
X6157857Y-2508286D01*
X6172143Y-2494000D01*
X6200714Y-2479714D01*
X6243571Y-2479714D01*
X6272143Y-2494000D01*
X6286428Y-2508286D01*
X6300714Y-2536857D01*
X6300714Y-2622571D01*
X6286428Y-2651143D01*
X6272143Y-2665429D01*
X6243571Y-2679714D01*
X6200714Y-2679714D01*
X6472143Y-2679714D02*
X6443571Y-2665429D01*
X6429286Y-2636857D01*
X6429286Y-2379714D01*
X6700714Y-2665429D02*
X6672143Y-2679714D01*
X6615000Y-2679714D01*
X6586428Y-2665429D01*
X6572143Y-2636857D01*
X6572143Y-2522571D01*
X6586428Y-2494000D01*
X6615000Y-2479714D01*
X6672143Y-2479714D01*
X6700714Y-2494000D01*
X6715000Y-2522571D01*
X6715000Y-2551143D01*
X6572143Y-2579714D01*
X6829286Y-2665429D02*
X6857857Y-2679714D01*
X6915000Y-2679714D01*
X6943571Y-2665429D01*
X6957857Y-2636857D01*
X6957857Y-2622571D01*
X6943571Y-2594000D01*
X6915000Y-2579714D01*
X6872143Y-2579714D01*
X6843571Y-2565429D01*
X6829286Y-2536857D01*
X6829286Y-2522571D01*
X6843571Y-2494000D01*
X6872143Y-2479714D01*
X6915000Y-2479714D01*
X6943571Y-2494000D01*
X7057857Y-2794000D02*
X7072143Y-2779714D01*
X7100714Y-2736857D01*
X7115000Y-2708286D01*
X7129286Y-2665429D01*
X7143571Y-2594000D01*
X7143571Y-2536857D01*
X7129286Y-2465429D01*
X7115000Y-2422571D01*
X7100714Y-2394000D01*
X7072143Y-2351143D01*
X7057857Y-2336857D01*
M02*
