G04 #@! TF.GenerationSoftware,KiCad,Pcbnew,(5.1.10)-1*
G04 #@! TF.CreationDate,2021-10-30T22:31:52+03:00*
G04 #@! TF.ProjectId,cmd_module_booster,636d645f-6d6f-4647-956c-655f626f6f73,rev?*
G04 #@! TF.SameCoordinates,Original*
G04 #@! TF.FileFunction,Copper,L1,Top*
G04 #@! TF.FilePolarity,Positive*
%FSLAX46Y46*%
G04 Gerber Fmt 4.6, Leading zero omitted, Abs format (unit mm)*
G04 Created by KiCad (PCBNEW (5.1.10)-1) date 2021-10-30 22:31:52*
%MOMM*%
%LPD*%
G01*
G04 APERTURE LIST*
G04 #@! TA.AperFunction,ComponentPad*
%ADD10O,1.700000X1.700000*%
G04 #@! TD*
G04 #@! TA.AperFunction,ComponentPad*
%ADD11R,1.700000X1.700000*%
G04 #@! TD*
G04 #@! TA.AperFunction,ComponentPad*
%ADD12C,2.600000*%
G04 #@! TD*
G04 #@! TA.AperFunction,ComponentPad*
%ADD13R,2.600000X2.600000*%
G04 #@! TD*
G04 #@! TA.AperFunction,ComponentPad*
%ADD14C,4.000000*%
G04 #@! TD*
G04 #@! TA.AperFunction,ComponentPad*
%ADD15R,4.000000X4.000000*%
G04 #@! TD*
G04 #@! TA.AperFunction,ComponentPad*
%ADD16O,1.800000X1.800000*%
G04 #@! TD*
G04 #@! TA.AperFunction,ComponentPad*
%ADD17R,1.800000X1.800000*%
G04 #@! TD*
G04 #@! TA.AperFunction,ComponentPad*
%ADD18O,1.400000X1.400000*%
G04 #@! TD*
G04 #@! TA.AperFunction,ComponentPad*
%ADD19C,1.400000*%
G04 #@! TD*
G04 #@! TA.AperFunction,ComponentPad*
%ADD20C,1.600000*%
G04 #@! TD*
G04 #@! TA.AperFunction,Conductor*
%ADD21C,0.250000*%
G04 #@! TD*
G04 #@! TA.AperFunction,Conductor*
%ADD22C,0.254000*%
G04 #@! TD*
G04 #@! TA.AperFunction,Conductor*
%ADD23C,0.150000*%
G04 #@! TD*
G04 APERTURE END LIST*
D10*
X119380000Y-156972000D03*
X116840000Y-156972000D03*
X114300000Y-156972000D03*
X111760000Y-156972000D03*
D11*
X109220000Y-156972000D03*
D12*
X135128000Y-136478000D03*
D13*
X135128000Y-141478000D03*
D14*
X97696000Y-116840000D03*
D15*
X107696000Y-116840000D03*
D14*
X134968000Y-116840000D03*
D15*
X124968000Y-116840000D03*
D16*
X125204000Y-149098000D03*
X123504000Y-144018000D03*
X121804000Y-149098000D03*
X120104000Y-144018000D03*
X118404000Y-149098000D03*
X116704000Y-144018000D03*
X115004000Y-149098000D03*
X113304000Y-144018000D03*
X111604000Y-149098000D03*
X109904000Y-144018000D03*
D17*
X108204000Y-149098000D03*
D18*
X109606000Y-152146000D03*
D19*
X111506000Y-152146000D03*
D18*
X126106000Y-152146000D03*
D19*
X124206000Y-152146000D03*
D12*
X97790000Y-141652000D03*
D13*
X97790000Y-136652000D03*
D20*
X129286000Y-146598000D03*
X129286000Y-149098000D03*
X104140000Y-149058000D03*
X104140000Y-146558000D03*
X119340000Y-152146000D03*
X116840000Y-152146000D03*
D21*
X116840000Y-144154000D02*
X116704000Y-144018000D01*
X116840000Y-152146000D02*
X116840000Y-144154000D01*
D22*
X129667000Y-130937000D02*
X103251000Y-130937000D01*
X103251000Y-118840000D01*
X105057928Y-118840000D01*
X105070188Y-118964482D01*
X105106498Y-119084180D01*
X105165463Y-119194494D01*
X105244815Y-119291185D01*
X105341506Y-119370537D01*
X105451820Y-119429502D01*
X105571518Y-119465812D01*
X105696000Y-119478072D01*
X107410250Y-119475000D01*
X107569000Y-119316250D01*
X107569000Y-116967000D01*
X107823000Y-116967000D01*
X107823000Y-119316250D01*
X107981750Y-119475000D01*
X109696000Y-119478072D01*
X109820482Y-119465812D01*
X109940180Y-119429502D01*
X110050494Y-119370537D01*
X110147185Y-119291185D01*
X110226537Y-119194494D01*
X110285502Y-119084180D01*
X110321812Y-118964482D01*
X110334072Y-118840000D01*
X122329928Y-118840000D01*
X122342188Y-118964482D01*
X122378498Y-119084180D01*
X122437463Y-119194494D01*
X122516815Y-119291185D01*
X122613506Y-119370537D01*
X122723820Y-119429502D01*
X122843518Y-119465812D01*
X122968000Y-119478072D01*
X124682250Y-119475000D01*
X124841000Y-119316250D01*
X124841000Y-116967000D01*
X125095000Y-116967000D01*
X125095000Y-119316250D01*
X125253750Y-119475000D01*
X126968000Y-119478072D01*
X127092482Y-119465812D01*
X127212180Y-119429502D01*
X127322494Y-119370537D01*
X127419185Y-119291185D01*
X127498537Y-119194494D01*
X127557502Y-119084180D01*
X127593812Y-118964482D01*
X127606072Y-118840000D01*
X127603000Y-117125750D01*
X127444250Y-116967000D01*
X125095000Y-116967000D01*
X124841000Y-116967000D01*
X122491750Y-116967000D01*
X122333000Y-117125750D01*
X122329928Y-118840000D01*
X110334072Y-118840000D01*
X110331000Y-117125750D01*
X110172250Y-116967000D01*
X107823000Y-116967000D01*
X107569000Y-116967000D01*
X105219750Y-116967000D01*
X105061000Y-117125750D01*
X105057928Y-118840000D01*
X103251000Y-118840000D01*
X103251000Y-114840000D01*
X105057928Y-114840000D01*
X105061000Y-116554250D01*
X105219750Y-116713000D01*
X107569000Y-116713000D01*
X107569000Y-114363750D01*
X107823000Y-114363750D01*
X107823000Y-116713000D01*
X110172250Y-116713000D01*
X110331000Y-116554250D01*
X110334072Y-114840000D01*
X122329928Y-114840000D01*
X122333000Y-116554250D01*
X122491750Y-116713000D01*
X124841000Y-116713000D01*
X124841000Y-114363750D01*
X125095000Y-114363750D01*
X125095000Y-116713000D01*
X127444250Y-116713000D01*
X127603000Y-116554250D01*
X127606072Y-114840000D01*
X127593812Y-114715518D01*
X127557502Y-114595820D01*
X127498537Y-114485506D01*
X127419185Y-114388815D01*
X127322494Y-114309463D01*
X127212180Y-114250498D01*
X127092482Y-114214188D01*
X126968000Y-114201928D01*
X125253750Y-114205000D01*
X125095000Y-114363750D01*
X124841000Y-114363750D01*
X124682250Y-114205000D01*
X122968000Y-114201928D01*
X122843518Y-114214188D01*
X122723820Y-114250498D01*
X122613506Y-114309463D01*
X122516815Y-114388815D01*
X122437463Y-114485506D01*
X122378498Y-114595820D01*
X122342188Y-114715518D01*
X122329928Y-114840000D01*
X110334072Y-114840000D01*
X110321812Y-114715518D01*
X110285502Y-114595820D01*
X110226537Y-114485506D01*
X110147185Y-114388815D01*
X110050494Y-114309463D01*
X109940180Y-114250498D01*
X109820482Y-114214188D01*
X109696000Y-114201928D01*
X107981750Y-114205000D01*
X107823000Y-114363750D01*
X107569000Y-114363750D01*
X107410250Y-114205000D01*
X105696000Y-114201928D01*
X105571518Y-114214188D01*
X105451820Y-114250498D01*
X105341506Y-114309463D01*
X105244815Y-114388815D01*
X105165463Y-114485506D01*
X105106498Y-114595820D01*
X105070188Y-114715518D01*
X105057928Y-114840000D01*
X103251000Y-114840000D01*
X103251000Y-111633000D01*
X129667000Y-111633000D01*
X129667000Y-130937000D01*
G04 #@! TA.AperFunction,Conductor*
D23*
G36*
X129667000Y-130937000D02*
G01*
X103251000Y-130937000D01*
X103251000Y-118840000D01*
X105057928Y-118840000D01*
X105070188Y-118964482D01*
X105106498Y-119084180D01*
X105165463Y-119194494D01*
X105244815Y-119291185D01*
X105341506Y-119370537D01*
X105451820Y-119429502D01*
X105571518Y-119465812D01*
X105696000Y-119478072D01*
X107410250Y-119475000D01*
X107569000Y-119316250D01*
X107569000Y-116967000D01*
X107823000Y-116967000D01*
X107823000Y-119316250D01*
X107981750Y-119475000D01*
X109696000Y-119478072D01*
X109820482Y-119465812D01*
X109940180Y-119429502D01*
X110050494Y-119370537D01*
X110147185Y-119291185D01*
X110226537Y-119194494D01*
X110285502Y-119084180D01*
X110321812Y-118964482D01*
X110334072Y-118840000D01*
X122329928Y-118840000D01*
X122342188Y-118964482D01*
X122378498Y-119084180D01*
X122437463Y-119194494D01*
X122516815Y-119291185D01*
X122613506Y-119370537D01*
X122723820Y-119429502D01*
X122843518Y-119465812D01*
X122968000Y-119478072D01*
X124682250Y-119475000D01*
X124841000Y-119316250D01*
X124841000Y-116967000D01*
X125095000Y-116967000D01*
X125095000Y-119316250D01*
X125253750Y-119475000D01*
X126968000Y-119478072D01*
X127092482Y-119465812D01*
X127212180Y-119429502D01*
X127322494Y-119370537D01*
X127419185Y-119291185D01*
X127498537Y-119194494D01*
X127557502Y-119084180D01*
X127593812Y-118964482D01*
X127606072Y-118840000D01*
X127603000Y-117125750D01*
X127444250Y-116967000D01*
X125095000Y-116967000D01*
X124841000Y-116967000D01*
X122491750Y-116967000D01*
X122333000Y-117125750D01*
X122329928Y-118840000D01*
X110334072Y-118840000D01*
X110331000Y-117125750D01*
X110172250Y-116967000D01*
X107823000Y-116967000D01*
X107569000Y-116967000D01*
X105219750Y-116967000D01*
X105061000Y-117125750D01*
X105057928Y-118840000D01*
X103251000Y-118840000D01*
X103251000Y-114840000D01*
X105057928Y-114840000D01*
X105061000Y-116554250D01*
X105219750Y-116713000D01*
X107569000Y-116713000D01*
X107569000Y-114363750D01*
X107823000Y-114363750D01*
X107823000Y-116713000D01*
X110172250Y-116713000D01*
X110331000Y-116554250D01*
X110334072Y-114840000D01*
X122329928Y-114840000D01*
X122333000Y-116554250D01*
X122491750Y-116713000D01*
X124841000Y-116713000D01*
X124841000Y-114363750D01*
X125095000Y-114363750D01*
X125095000Y-116713000D01*
X127444250Y-116713000D01*
X127603000Y-116554250D01*
X127606072Y-114840000D01*
X127593812Y-114715518D01*
X127557502Y-114595820D01*
X127498537Y-114485506D01*
X127419185Y-114388815D01*
X127322494Y-114309463D01*
X127212180Y-114250498D01*
X127092482Y-114214188D01*
X126968000Y-114201928D01*
X125253750Y-114205000D01*
X125095000Y-114363750D01*
X124841000Y-114363750D01*
X124682250Y-114205000D01*
X122968000Y-114201928D01*
X122843518Y-114214188D01*
X122723820Y-114250498D01*
X122613506Y-114309463D01*
X122516815Y-114388815D01*
X122437463Y-114485506D01*
X122378498Y-114595820D01*
X122342188Y-114715518D01*
X122329928Y-114840000D01*
X110334072Y-114840000D01*
X110321812Y-114715518D01*
X110285502Y-114595820D01*
X110226537Y-114485506D01*
X110147185Y-114388815D01*
X110050494Y-114309463D01*
X109940180Y-114250498D01*
X109820482Y-114214188D01*
X109696000Y-114201928D01*
X107981750Y-114205000D01*
X107823000Y-114363750D01*
X107569000Y-114363750D01*
X107410250Y-114205000D01*
X105696000Y-114201928D01*
X105571518Y-114214188D01*
X105451820Y-114250498D01*
X105341506Y-114309463D01*
X105244815Y-114388815D01*
X105165463Y-114485506D01*
X105106498Y-114595820D01*
X105070188Y-114715518D01*
X105057928Y-114840000D01*
X103251000Y-114840000D01*
X103251000Y-111633000D01*
X129667000Y-111633000D01*
X129667000Y-130937000D01*
G37*
G04 #@! TD.AperFunction*
D22*
X118237000Y-143890998D02*
X118074379Y-143890998D01*
X118195036Y-143653260D01*
X118146394Y-143492893D01*
X118016236Y-143221586D01*
X117835649Y-142980884D01*
X117611573Y-142780038D01*
X117352620Y-142626766D01*
X117068741Y-142526959D01*
X116831000Y-142647008D01*
X116831000Y-143891000D01*
X116851000Y-143891000D01*
X116851000Y-144145000D01*
X116831000Y-144145000D01*
X116831000Y-145388992D01*
X117068741Y-145509041D01*
X117352620Y-145409234D01*
X117611573Y-145255962D01*
X117835649Y-145055116D01*
X118016236Y-144814414D01*
X118146394Y-144543107D01*
X118195036Y-144382740D01*
X118074379Y-144145002D01*
X118237000Y-144145002D01*
X118237000Y-145669000D01*
X114935000Y-145669000D01*
X114935000Y-144382740D01*
X115212964Y-144382740D01*
X115261606Y-144543107D01*
X115391764Y-144814414D01*
X115572351Y-145055116D01*
X115796427Y-145255962D01*
X116055380Y-145409234D01*
X116339259Y-145509041D01*
X116577000Y-145388992D01*
X116577000Y-144145000D01*
X115333622Y-144145000D01*
X115212964Y-144382740D01*
X114935000Y-144382740D01*
X114935000Y-143653260D01*
X115212964Y-143653260D01*
X115333622Y-143891000D01*
X116577000Y-143891000D01*
X116577000Y-142647008D01*
X116339259Y-142526959D01*
X116055380Y-142626766D01*
X115796427Y-142780038D01*
X115572351Y-142980884D01*
X115391764Y-143221586D01*
X115261606Y-143492893D01*
X115212964Y-143653260D01*
X114935000Y-143653260D01*
X114935000Y-123063000D01*
X118237000Y-123063000D01*
X118237000Y-143890998D01*
G04 #@! TA.AperFunction,Conductor*
D23*
G36*
X118237000Y-143890998D02*
G01*
X118074379Y-143890998D01*
X118195036Y-143653260D01*
X118146394Y-143492893D01*
X118016236Y-143221586D01*
X117835649Y-142980884D01*
X117611573Y-142780038D01*
X117352620Y-142626766D01*
X117068741Y-142526959D01*
X116831000Y-142647008D01*
X116831000Y-143891000D01*
X116851000Y-143891000D01*
X116851000Y-144145000D01*
X116831000Y-144145000D01*
X116831000Y-145388992D01*
X117068741Y-145509041D01*
X117352620Y-145409234D01*
X117611573Y-145255962D01*
X117835649Y-145055116D01*
X118016236Y-144814414D01*
X118146394Y-144543107D01*
X118195036Y-144382740D01*
X118074379Y-144145002D01*
X118237000Y-144145002D01*
X118237000Y-145669000D01*
X114935000Y-145669000D01*
X114935000Y-144382740D01*
X115212964Y-144382740D01*
X115261606Y-144543107D01*
X115391764Y-144814414D01*
X115572351Y-145055116D01*
X115796427Y-145255962D01*
X116055380Y-145409234D01*
X116339259Y-145509041D01*
X116577000Y-145388992D01*
X116577000Y-144145000D01*
X115333622Y-144145000D01*
X115212964Y-144382740D01*
X114935000Y-144382740D01*
X114935000Y-143653260D01*
X115212964Y-143653260D01*
X115333622Y-143891000D01*
X116577000Y-143891000D01*
X116577000Y-142647008D01*
X116339259Y-142526959D01*
X116055380Y-142626766D01*
X115796427Y-142780038D01*
X115572351Y-142980884D01*
X115391764Y-143221586D01*
X115261606Y-143492893D01*
X115212964Y-143653260D01*
X114935000Y-143653260D01*
X114935000Y-123063000D01*
X118237000Y-123063000D01*
X118237000Y-143890998D01*
G37*
G04 #@! TD.AperFunction*
D22*
X118491000Y-145669000D02*
X117983000Y-145669000D01*
X117983000Y-144858714D01*
X118016236Y-144814414D01*
X118146394Y-144543107D01*
X118195036Y-144382740D01*
X118074378Y-144145000D01*
X117983000Y-144145000D01*
X117983000Y-143891000D01*
X118074378Y-143891000D01*
X118195036Y-143653260D01*
X118146394Y-143492893D01*
X118016236Y-143221586D01*
X117983000Y-143177286D01*
X117983000Y-127381000D01*
X118491000Y-127381000D01*
X118491000Y-145669000D01*
G04 #@! TA.AperFunction,Conductor*
D23*
G36*
X118491000Y-145669000D02*
G01*
X117983000Y-145669000D01*
X117983000Y-144858714D01*
X118016236Y-144814414D01*
X118146394Y-144543107D01*
X118195036Y-144382740D01*
X118074378Y-144145000D01*
X117983000Y-144145000D01*
X117983000Y-143891000D01*
X118074378Y-143891000D01*
X118195036Y-143653260D01*
X118146394Y-143492893D01*
X118016236Y-143221586D01*
X117983000Y-143177286D01*
X117983000Y-127381000D01*
X118491000Y-127381000D01*
X118491000Y-145669000D01*
G37*
G04 #@! TD.AperFunction*
D22*
X137795000Y-133661628D02*
X137795000Y-138811000D01*
X133656606Y-138811000D01*
X132672830Y-137827224D01*
X133958381Y-137827224D01*
X134090317Y-138122312D01*
X134431045Y-138293159D01*
X134798557Y-138394250D01*
X135178729Y-138421701D01*
X135556951Y-138374457D01*
X135918690Y-138254333D01*
X136165683Y-138122312D01*
X136297619Y-137827224D01*
X135128000Y-136657605D01*
X133958381Y-137827224D01*
X132672830Y-137827224D01*
X131374335Y-136528729D01*
X133184299Y-136528729D01*
X133231543Y-136906951D01*
X133351667Y-137268690D01*
X133483688Y-137515683D01*
X133778776Y-137647619D01*
X134948395Y-136478000D01*
X135307605Y-136478000D01*
X136477224Y-137647619D01*
X136772312Y-137515683D01*
X136943159Y-137174955D01*
X137044250Y-136807443D01*
X137071701Y-136427271D01*
X137024457Y-136049049D01*
X136904333Y-135687310D01*
X136772312Y-135440317D01*
X136477224Y-135308381D01*
X135307605Y-136478000D01*
X134948395Y-136478000D01*
X133778776Y-135308381D01*
X133483688Y-135440317D01*
X133312841Y-135781045D01*
X133211750Y-136148557D01*
X133184299Y-136528729D01*
X131374335Y-136528729D01*
X129974382Y-135128776D01*
X133958381Y-135128776D01*
X135128000Y-136298395D01*
X136297619Y-135128776D01*
X136165683Y-134833688D01*
X135824955Y-134662841D01*
X135457443Y-134561750D01*
X135077271Y-134534299D01*
X134699049Y-134581543D01*
X134337310Y-134701667D01*
X134090317Y-134833688D01*
X133958381Y-135128776D01*
X129974382Y-135128776D01*
X125874559Y-131028953D01*
X127823987Y-124936992D01*
X137795000Y-133661628D01*
G04 #@! TA.AperFunction,Conductor*
D23*
G36*
X137795000Y-133661628D02*
G01*
X137795000Y-138811000D01*
X133656606Y-138811000D01*
X132672830Y-137827224D01*
X133958381Y-137827224D01*
X134090317Y-138122312D01*
X134431045Y-138293159D01*
X134798557Y-138394250D01*
X135178729Y-138421701D01*
X135556951Y-138374457D01*
X135918690Y-138254333D01*
X136165683Y-138122312D01*
X136297619Y-137827224D01*
X135128000Y-136657605D01*
X133958381Y-137827224D01*
X132672830Y-137827224D01*
X131374335Y-136528729D01*
X133184299Y-136528729D01*
X133231543Y-136906951D01*
X133351667Y-137268690D01*
X133483688Y-137515683D01*
X133778776Y-137647619D01*
X134948395Y-136478000D01*
X135307605Y-136478000D01*
X136477224Y-137647619D01*
X136772312Y-137515683D01*
X136943159Y-137174955D01*
X137044250Y-136807443D01*
X137071701Y-136427271D01*
X137024457Y-136049049D01*
X136904333Y-135687310D01*
X136772312Y-135440317D01*
X136477224Y-135308381D01*
X135307605Y-136478000D01*
X134948395Y-136478000D01*
X133778776Y-135308381D01*
X133483688Y-135440317D01*
X133312841Y-135781045D01*
X133211750Y-136148557D01*
X133184299Y-136528729D01*
X131374335Y-136528729D01*
X129974382Y-135128776D01*
X133958381Y-135128776D01*
X135128000Y-136298395D01*
X136297619Y-135128776D01*
X136165683Y-134833688D01*
X135824955Y-134662841D01*
X135457443Y-134561750D01*
X135077271Y-134534299D01*
X134699049Y-134581543D01*
X134337310Y-134701667D01*
X134090317Y-134833688D01*
X133958381Y-135128776D01*
X129974382Y-135128776D01*
X125874559Y-131028953D01*
X127823987Y-124936992D01*
X137795000Y-133661628D01*
G37*
G04 #@! TD.AperFunction*
D22*
X127889000Y-142367000D02*
X103251000Y-142367000D01*
X103251000Y-122047000D01*
X127889000Y-122047000D01*
X127889000Y-142367000D01*
G04 #@! TA.AperFunction,Conductor*
D23*
G36*
X127889000Y-142367000D02*
G01*
X103251000Y-142367000D01*
X103251000Y-122047000D01*
X127889000Y-122047000D01*
X127889000Y-142367000D01*
G37*
G04 #@! TD.AperFunction*
D22*
X133223000Y-136107658D02*
X133211750Y-136148557D01*
X133184299Y-136528729D01*
X133223000Y-136838558D01*
X133223000Y-139984910D01*
X133202188Y-140053518D01*
X133189928Y-140178000D01*
X133189928Y-142367000D01*
X125857000Y-142367000D01*
X125857000Y-131953000D01*
X133223000Y-131953000D01*
X133223000Y-136107658D01*
G04 #@! TA.AperFunction,Conductor*
D23*
G36*
X133223000Y-136107658D02*
G01*
X133211750Y-136148557D01*
X133184299Y-136528729D01*
X133223000Y-136838558D01*
X133223000Y-139984910D01*
X133202188Y-140053518D01*
X133189928Y-140178000D01*
X133189928Y-142367000D01*
X125857000Y-142367000D01*
X125857000Y-131953000D01*
X133223000Y-131953000D01*
X133223000Y-136107658D01*
G37*
G04 #@! TD.AperFunction*
D22*
X137795000Y-138811000D02*
X132715000Y-138811000D01*
X132715000Y-137827224D01*
X133958381Y-137827224D01*
X134090317Y-138122312D01*
X134431045Y-138293159D01*
X134798557Y-138394250D01*
X135178729Y-138421701D01*
X135556951Y-138374457D01*
X135918690Y-138254333D01*
X136165683Y-138122312D01*
X136297619Y-137827224D01*
X135128000Y-136657605D01*
X133958381Y-137827224D01*
X132715000Y-137827224D01*
X132715000Y-136528729D01*
X133184299Y-136528729D01*
X133231543Y-136906951D01*
X133351667Y-137268690D01*
X133483688Y-137515683D01*
X133778776Y-137647619D01*
X134948395Y-136478000D01*
X135307605Y-136478000D01*
X136477224Y-137647619D01*
X136772312Y-137515683D01*
X136943159Y-137174955D01*
X137044250Y-136807443D01*
X137071701Y-136427271D01*
X137024457Y-136049049D01*
X136904333Y-135687310D01*
X136772312Y-135440317D01*
X136477224Y-135308381D01*
X135307605Y-136478000D01*
X134948395Y-136478000D01*
X133778776Y-135308381D01*
X133483688Y-135440317D01*
X133312841Y-135781045D01*
X133211750Y-136148557D01*
X133184299Y-136528729D01*
X132715000Y-136528729D01*
X132715000Y-135128776D01*
X133958381Y-135128776D01*
X135128000Y-136298395D01*
X136297619Y-135128776D01*
X136165683Y-134833688D01*
X135824955Y-134662841D01*
X135457443Y-134561750D01*
X135077271Y-134534299D01*
X134699049Y-134581543D01*
X134337310Y-134701667D01*
X134090317Y-134833688D01*
X133958381Y-135128776D01*
X132715000Y-135128776D01*
X132715000Y-133731000D01*
X137795000Y-133731000D01*
X137795000Y-138811000D01*
G04 #@! TA.AperFunction,Conductor*
D23*
G36*
X137795000Y-138811000D02*
G01*
X132715000Y-138811000D01*
X132715000Y-137827224D01*
X133958381Y-137827224D01*
X134090317Y-138122312D01*
X134431045Y-138293159D01*
X134798557Y-138394250D01*
X135178729Y-138421701D01*
X135556951Y-138374457D01*
X135918690Y-138254333D01*
X136165683Y-138122312D01*
X136297619Y-137827224D01*
X135128000Y-136657605D01*
X133958381Y-137827224D01*
X132715000Y-137827224D01*
X132715000Y-136528729D01*
X133184299Y-136528729D01*
X133231543Y-136906951D01*
X133351667Y-137268690D01*
X133483688Y-137515683D01*
X133778776Y-137647619D01*
X134948395Y-136478000D01*
X135307605Y-136478000D01*
X136477224Y-137647619D01*
X136772312Y-137515683D01*
X136943159Y-137174955D01*
X137044250Y-136807443D01*
X137071701Y-136427271D01*
X137024457Y-136049049D01*
X136904333Y-135687310D01*
X136772312Y-135440317D01*
X136477224Y-135308381D01*
X135307605Y-136478000D01*
X134948395Y-136478000D01*
X133778776Y-135308381D01*
X133483688Y-135440317D01*
X133312841Y-135781045D01*
X133211750Y-136148557D01*
X133184299Y-136528729D01*
X132715000Y-136528729D01*
X132715000Y-135128776D01*
X133958381Y-135128776D01*
X135128000Y-136298395D01*
X136297619Y-135128776D01*
X136165683Y-134833688D01*
X135824955Y-134662841D01*
X135457443Y-134561750D01*
X135077271Y-134534299D01*
X134699049Y-134581543D01*
X134337310Y-134701667D01*
X134090317Y-134833688D01*
X133958381Y-135128776D01*
X132715000Y-135128776D01*
X132715000Y-133731000D01*
X137795000Y-133731000D01*
X137795000Y-138811000D01*
G37*
G04 #@! TD.AperFunction*
M02*
