%TF.GenerationSoftware,KiCad,Pcbnew,6.0.10-86aedd382b~118~ubuntu22.10.1*%
%TF.CreationDate,2023-02-15T12:29:17+01:00*%
%TF.ProjectId,railway,7261696c-7761-4792-9e6b-696361645f70,rev?*%
%TF.SameCoordinates,Original*%
%TF.FileFunction,Soldermask,Top*%
%TF.FilePolarity,Negative*%
%FSLAX46Y46*%
G04 Gerber Fmt 4.6, Leading zero omitted, Abs format (unit mm)*
G04 Created by KiCad (PCBNEW 6.0.10-86aedd382b~118~ubuntu22.10.1) date 2023-02-15 12:29:17*
%MOMM*%
%LPD*%
G01*
G04 APERTURE LIST*
%ADD10R,1.700000X1.700000*%
%ADD11O,1.700000X1.700000*%
%ADD12C,1.600000*%
%ADD13O,1.600000X1.600000*%
%ADD14C,0.800000*%
%ADD15C,5.000000*%
%ADD16R,1.600000X1.600000*%
%ADD17C,3.200000*%
%ADD18C,1.700000*%
G04 APERTURE END LIST*
D10*
%TO.C,J2*%
X127309825Y-60127175D03*
D11*
X127309825Y-57587175D03*
X127309825Y-55047175D03*
%TD*%
D10*
%TO.C,J2*%
X92717500Y-60127175D03*
D11*
X92717500Y-57587175D03*
X92717500Y-55047175D03*
%TD*%
D12*
%TO.C,C2*%
X107029825Y-58872175D03*
X112029825Y-58872175D03*
%TD*%
%TO.C,R1*%
X106989825Y-54935175D03*
D13*
X119689825Y-54935175D03*
%TD*%
D14*
%TO.C,H1*%
X125293175Y-65857175D03*
X126619000Y-69058000D03*
X126619000Y-65308000D03*
X127944825Y-65857175D03*
X128494000Y-67183000D03*
X127944825Y-68508825D03*
D15*
X126619000Y-67183000D03*
D14*
X124744000Y-67183000D03*
X125293175Y-68508825D03*
%TD*%
%TO.C,H2*%
X104038825Y-55824175D03*
X103489650Y-54498350D03*
X102163825Y-53949175D03*
X100838000Y-57150000D03*
D15*
X102163825Y-55824175D03*
D14*
X100288825Y-55824175D03*
X102163825Y-57699175D03*
X103489650Y-57150000D03*
X100838000Y-54498350D03*
%TD*%
D16*
%TO.C,C1*%
X114990825Y-63487222D03*
D12*
X114990825Y-67287222D03*
%TD*%
D10*
%TO.C,J1*%
X66682500Y-62682175D03*
D11*
X66682500Y-65222175D03*
X66682500Y-67762175D03*
%TD*%
D12*
%TO.C,C2*%
X72437500Y-58872175D03*
X77437500Y-58872175D03*
%TD*%
D14*
%TO.C,H1*%
X90700850Y-65857175D03*
X92026675Y-69058000D03*
X92026675Y-65308000D03*
X93352500Y-65857175D03*
X93901675Y-67183000D03*
X93352500Y-68508825D03*
D15*
X92026675Y-67183000D03*
D14*
X90151675Y-67183000D03*
X90700850Y-68508825D03*
%TD*%
%TO.C,H2*%
X69446500Y-55824175D03*
X68897325Y-54498350D03*
X67571500Y-53949175D03*
X66245675Y-57150000D03*
D15*
X67571500Y-55824175D03*
D14*
X65696500Y-55824175D03*
X67571500Y-57699175D03*
X68897325Y-57150000D03*
X66245675Y-54498350D03*
%TD*%
D12*
%TO.C,R1*%
X72397500Y-54935175D03*
D13*
X85097500Y-54935175D03*
%TD*%
D10*
%TO.C,J1*%
X101274825Y-62682175D03*
D11*
X101274825Y-65222175D03*
X101274825Y-67762175D03*
%TD*%
D14*
%TO.C,H2*%
X35403000Y-55753000D03*
X34853825Y-54427175D03*
X33528000Y-53878000D03*
X32202175Y-57078825D03*
D15*
X33528000Y-55753000D03*
D14*
X31653000Y-55753000D03*
X33528000Y-57628000D03*
X34853825Y-57078825D03*
X32202175Y-54427175D03*
%TD*%
D10*
%TO.C,J2*%
X58674000Y-60056000D03*
D11*
X58674000Y-57516000D03*
X58674000Y-54976000D03*
%TD*%
D16*
%TO.C,C1*%
X46355000Y-63416047D03*
D12*
X46355000Y-67216047D03*
%TD*%
%TO.C,C2*%
X38394000Y-58801000D03*
X43394000Y-58801000D03*
%TD*%
D14*
%TO.C,H1*%
X56657350Y-65786000D03*
X57983175Y-68986825D03*
X57983175Y-65236825D03*
X59309000Y-65786000D03*
X59858175Y-67111825D03*
X59309000Y-68437650D03*
D15*
X57983175Y-67111825D03*
D14*
X56108175Y-67111825D03*
X56657350Y-68437650D03*
%TD*%
D12*
%TO.C,R1*%
X38354000Y-54864000D03*
D13*
X51054000Y-54864000D03*
%TD*%
D10*
%TO.C,J1*%
X32639000Y-62611000D03*
D11*
X32639000Y-65151000D03*
X32639000Y-67691000D03*
%TD*%
D16*
%TO.C,C1*%
X80398500Y-63487222D03*
D12*
X80398500Y-67287222D03*
%TD*%
D14*
%TO.C,H2*%
X103911825Y-34869175D03*
X103362650Y-33543350D03*
X102036825Y-32994175D03*
X100711000Y-36195000D03*
D15*
X102036825Y-34869175D03*
D14*
X100161825Y-34869175D03*
X102036825Y-36744175D03*
X103362650Y-36195000D03*
X100711000Y-33543350D03*
%TD*%
D10*
%TO.C,J2*%
X127182825Y-39172175D03*
D11*
X127182825Y-36632175D03*
X127182825Y-34092175D03*
%TD*%
D16*
%TO.C,C1*%
X114863825Y-42532222D03*
D12*
X114863825Y-46332222D03*
%TD*%
%TO.C,C2*%
X106902825Y-37917175D03*
X111902825Y-37917175D03*
%TD*%
D14*
%TO.C,H1*%
X125166175Y-44902175D03*
X126492000Y-48103000D03*
X126492000Y-44353000D03*
X127817825Y-44902175D03*
X128367000Y-46228000D03*
X127817825Y-47553825D03*
D15*
X126492000Y-46228000D03*
D14*
X124617000Y-46228000D03*
X125166175Y-47553825D03*
%TD*%
D12*
%TO.C,R1*%
X106862825Y-33980175D03*
D13*
X119562825Y-33980175D03*
%TD*%
D10*
%TO.C,J1*%
X101147825Y-41727175D03*
D11*
X101147825Y-44267175D03*
X101147825Y-46807175D03*
%TD*%
D14*
%TO.C,H2*%
X69319500Y-34869175D03*
X68770325Y-33543350D03*
X67444500Y-32994175D03*
X66118675Y-36195000D03*
D15*
X67444500Y-34869175D03*
D14*
X65569500Y-34869175D03*
X67444500Y-36744175D03*
X68770325Y-36195000D03*
X66118675Y-33543350D03*
%TD*%
D10*
%TO.C,J2*%
X92590500Y-39172175D03*
D11*
X92590500Y-36632175D03*
X92590500Y-34092175D03*
%TD*%
D16*
%TO.C,C1*%
X80271500Y-42532222D03*
D12*
X80271500Y-46332222D03*
%TD*%
%TO.C,C2*%
X72310500Y-37917175D03*
X77310500Y-37917175D03*
%TD*%
D14*
%TO.C,H1*%
X90573850Y-44902175D03*
X91899675Y-48103000D03*
X91899675Y-44353000D03*
X93225500Y-44902175D03*
X93774675Y-46228000D03*
X93225500Y-47553825D03*
D15*
X91899675Y-46228000D03*
D14*
X90024675Y-46228000D03*
X90573850Y-47553825D03*
%TD*%
D12*
%TO.C,R1*%
X72270500Y-33980175D03*
D13*
X84970500Y-33980175D03*
%TD*%
D10*
%TO.C,J1*%
X66555500Y-41727175D03*
D11*
X66555500Y-44267175D03*
X66555500Y-46807175D03*
%TD*%
D17*
%TO.C,U2*%
X96084000Y-126521000D03*
X40084000Y-107521000D03*
X96084000Y-107521000D03*
X40084000Y-126521000D03*
D18*
X96774000Y-123317000D03*
X39370000Y-123317000D03*
X96774000Y-120777000D03*
X39370000Y-120777000D03*
X39370000Y-118237000D03*
X96774000Y-118237000D03*
X96774000Y-115697000D03*
X39370000Y-115697000D03*
X39370000Y-113157000D03*
X96774000Y-113157000D03*
X96774000Y-110617000D03*
X39370000Y-110617000D03*
%TD*%
D16*
%TO.C,U3*%
X120152000Y-114056000D03*
D13*
X120152000Y-116596000D03*
X120152000Y-119136000D03*
X120152000Y-121676000D03*
X127772000Y-121676000D03*
X127772000Y-119136000D03*
X127772000Y-116596000D03*
X127772000Y-114056000D03*
%TD*%
D10*
%TO.C,J1*%
X32512000Y-41656000D03*
D11*
X32512000Y-44196000D03*
X32512000Y-46736000D03*
%TD*%
D10*
%TO.C,J4*%
X127889000Y-85984000D03*
D11*
X127889000Y-88524000D03*
X127889000Y-91064000D03*
X127889000Y-93604000D03*
X127889000Y-96144000D03*
X127889000Y-98684000D03*
X127889000Y-101224000D03*
X127889000Y-103764000D03*
X127889000Y-106304000D03*
X127889000Y-108844000D03*
%TD*%
D16*
%TO.C,D1*%
X120269000Y-101981000D03*
D13*
X120269000Y-109601000D03*
%TD*%
D12*
%TO.C,R2*%
X124079000Y-109601000D03*
D13*
X124079000Y-96901000D03*
%TD*%
D15*
%TO.C,H4*%
X126492000Y-126365000D03*
D14*
X126492000Y-128240000D03*
X128367000Y-126365000D03*
X125166175Y-125039175D03*
X127817825Y-127690825D03*
X127817825Y-125039175D03*
X124617000Y-126365000D03*
X126492000Y-124490000D03*
X125166175Y-127690825D03*
%TD*%
D10*
%TO.C,J3*%
X32131000Y-84709000D03*
D11*
X32131000Y-87249000D03*
X32131000Y-89789000D03*
X32131000Y-92329000D03*
X32131000Y-94869000D03*
X32131000Y-97409000D03*
X32131000Y-99949000D03*
X32131000Y-102489000D03*
X32131000Y-105029000D03*
X32131000Y-107569000D03*
X32131000Y-110109000D03*
X32131000Y-112649000D03*
X32131000Y-115189000D03*
X32131000Y-117729000D03*
X32131000Y-120269000D03*
%TD*%
D10*
%TO.C,J5*%
X103520000Y-76962000D03*
D11*
X106060000Y-76962000D03*
X108600000Y-76962000D03*
X111140000Y-76962000D03*
X113680000Y-76962000D03*
X116220000Y-76962000D03*
X118760000Y-76962000D03*
X121300000Y-76962000D03*
%TD*%
D12*
%TO.C,R1*%
X38227000Y-33909000D03*
D13*
X50927000Y-33909000D03*
%TD*%
D12*
%TO.C,C3*%
X124079000Y-89027000D03*
X124079000Y-94027000D03*
%TD*%
D16*
%TO.C,A1*%
X101610000Y-87503000D03*
D13*
X101610000Y-90043000D03*
X101610000Y-92583000D03*
X101610000Y-95123000D03*
X101610000Y-97663000D03*
X101610000Y-100203000D03*
X101610000Y-102743000D03*
X101610000Y-105283000D03*
X101610000Y-107823000D03*
X101610000Y-110363000D03*
X101610000Y-112903000D03*
X101610000Y-115443000D03*
X101610000Y-117983000D03*
X101610000Y-120523000D03*
X101610000Y-123063000D03*
X116850000Y-123063000D03*
X116850000Y-120523000D03*
X116850000Y-117983000D03*
X116850000Y-115443000D03*
X116850000Y-112903000D03*
X116850000Y-110363000D03*
X116850000Y-107823000D03*
X116850000Y-105283000D03*
X116850000Y-102743000D03*
X116850000Y-100203000D03*
X116850000Y-97663000D03*
X116850000Y-95123000D03*
X116850000Y-92583000D03*
X116850000Y-90043000D03*
X116850000Y-87503000D03*
%TD*%
D12*
%TO.C,R4*%
X107442000Y-81280000D03*
D13*
X120142000Y-81280000D03*
%TD*%
D14*
%TO.C,H6*%
X32131000Y-127889000D03*
X32131000Y-125237350D03*
X33456825Y-128438175D03*
X35331825Y-126563175D03*
D15*
X33456825Y-126563175D03*
D14*
X31581825Y-126563175D03*
X34782650Y-125237350D03*
X33456825Y-124688175D03*
X34782650Y-127889000D03*
%TD*%
%TO.C,H1*%
X56530350Y-44831000D03*
X57856175Y-48031825D03*
X57856175Y-44281825D03*
X59182000Y-44831000D03*
X59731175Y-46156825D03*
X59182000Y-47482650D03*
D15*
X57856175Y-46156825D03*
D14*
X55981175Y-46156825D03*
X56530350Y-47482650D03*
%TD*%
D15*
%TO.C,H5*%
X33528000Y-79248000D03*
D14*
X32202175Y-77922175D03*
X34853825Y-77922175D03*
X33528000Y-77373000D03*
X35403000Y-79248000D03*
X33528000Y-81123000D03*
X31653000Y-79248000D03*
X34853825Y-80573825D03*
X32202175Y-80573825D03*
%TD*%
D12*
%TO.C,C2*%
X38267000Y-37846000D03*
X43267000Y-37846000D03*
%TD*%
D17*
%TO.C,U1*%
X40104000Y-98686000D03*
X96104000Y-79686000D03*
X96104000Y-98686000D03*
X40104000Y-79686000D03*
D18*
X39414000Y-82890000D03*
X96818000Y-82890000D03*
X39414000Y-85430000D03*
X96818000Y-85430000D03*
X96818000Y-87970000D03*
X39414000Y-87970000D03*
X96818000Y-90510000D03*
X39414000Y-90510000D03*
X39414000Y-93050000D03*
X96818000Y-93050000D03*
X96818000Y-95590000D03*
X39414000Y-95590000D03*
%TD*%
D16*
%TO.C,C1*%
X46228000Y-42461047D03*
D12*
X46228000Y-46261047D03*
%TD*%
D10*
%TO.C,J2*%
X58547000Y-39101000D03*
D11*
X58547000Y-36561000D03*
X58547000Y-34021000D03*
%TD*%
D12*
%TO.C,R3*%
X120269000Y-98298000D03*
D13*
X120269000Y-85598000D03*
%TD*%
D14*
%TO.C,H3*%
X128367000Y-79248000D03*
X126492000Y-77373000D03*
D15*
X126492000Y-79248000D03*
D14*
X127817825Y-80573825D03*
X127817825Y-77922175D03*
X124617000Y-79248000D03*
X125166175Y-77922175D03*
X126492000Y-81123000D03*
X125166175Y-80573825D03*
%TD*%
%TO.C,H2*%
X35276000Y-34798000D03*
X34726825Y-33472175D03*
X33401000Y-32923000D03*
X32075175Y-36123825D03*
D15*
X33401000Y-34798000D03*
D14*
X31526000Y-34798000D03*
X33401000Y-36673000D03*
X34726825Y-36123825D03*
X32075175Y-33472175D03*
%TD*%
M02*
