%TF.GenerationSoftware,KiCad,Pcbnew,6.0.10-86aedd382b~118~ubuntu22.10.1*%
%TF.CreationDate,2023-02-15T12:29:17+01:00*%
%TF.ProjectId,railway,7261696c-7761-4792-9e6b-696361645f70,rev?*%
%TF.SameCoordinates,Original*%
%TF.FileFunction,Legend,Top*%
%TF.FilePolarity,Positive*%
%FSLAX46Y46*%
G04 Gerber Fmt 4.6, Leading zero omitted, Abs format (unit mm)*
G04 Created by KiCad (PCBNEW 6.0.10-86aedd382b~118~ubuntu22.10.1) date 2023-02-15 12:29:17*
%MOMM*%
%LPD*%
G01*
G04 APERTURE LIST*
%ADD10C,0.150000*%
%ADD11C,0.300000*%
%ADD12C,0.120000*%
G04 APERTURE END LIST*
D10*
X62865000Y-30607000D02*
X62865000Y-73533000D01*
X97028000Y-30607000D02*
X97028000Y-73533000D01*
X30226000Y-50292000D02*
X129794000Y-50292000D01*
D11*
X86470928Y-57836317D02*
X87613785Y-57836317D01*
X87042357Y-58407746D02*
X87042357Y-57264889D01*
X89042357Y-56907746D02*
X88328071Y-56907746D01*
X88256642Y-57622032D01*
X88328071Y-57550603D01*
X88470928Y-57479175D01*
X88828071Y-57479175D01*
X88970928Y-57550603D01*
X89042357Y-57622032D01*
X89113785Y-57764889D01*
X89113785Y-58122032D01*
X89042357Y-58264889D01*
X88970928Y-58336317D01*
X88828071Y-58407746D01*
X88470928Y-58407746D01*
X88328071Y-58336317D01*
X88256642Y-58264889D01*
X89542357Y-56907746D02*
X90042357Y-58407746D01*
X90542357Y-56907746D01*
X103283253Y-65456317D02*
X104426110Y-65456317D01*
X103854682Y-66027746D02*
X103854682Y-64884889D01*
X105854682Y-64527746D02*
X105140396Y-64527746D01*
X105068967Y-65242032D01*
X105140396Y-65170603D01*
X105283253Y-65099175D01*
X105640396Y-65099175D01*
X105783253Y-65170603D01*
X105854682Y-65242032D01*
X105926110Y-65384889D01*
X105926110Y-65742032D01*
X105854682Y-65884889D01*
X105783253Y-65956317D01*
X105640396Y-66027746D01*
X105283253Y-66027746D01*
X105140396Y-65956317D01*
X105068967Y-65884889D01*
X106354682Y-64527746D02*
X106854682Y-66027746D01*
X107354682Y-64527746D01*
X122102967Y-54312175D02*
X121960110Y-54240746D01*
X121745825Y-54240746D01*
X121531539Y-54312175D01*
X121388682Y-54455032D01*
X121317253Y-54597889D01*
X121245825Y-54883603D01*
X121245825Y-55097889D01*
X121317253Y-55383603D01*
X121388682Y-55526460D01*
X121531539Y-55669317D01*
X121745825Y-55740746D01*
X121888682Y-55740746D01*
X122102967Y-55669317D01*
X122174396Y-55597889D01*
X122174396Y-55097889D01*
X121888682Y-55097889D01*
X122817253Y-55740746D02*
X122817253Y-54240746D01*
X123674396Y-55740746D01*
X123674396Y-54240746D01*
X124388682Y-55740746D02*
X124388682Y-54240746D01*
X124745825Y-54240746D01*
X124960110Y-54312175D01*
X125102967Y-54455032D01*
X125174396Y-54597889D01*
X125245825Y-54883603D01*
X125245825Y-55097889D01*
X125174396Y-55383603D01*
X125102967Y-55526460D01*
X124960110Y-55669317D01*
X124745825Y-55740746D01*
X124388682Y-55740746D01*
X121063253Y-57836317D02*
X122206110Y-57836317D01*
X121634682Y-58407746D02*
X121634682Y-57264889D01*
X123634682Y-56907746D02*
X122920396Y-56907746D01*
X122848967Y-57622032D01*
X122920396Y-57550603D01*
X123063253Y-57479175D01*
X123420396Y-57479175D01*
X123563253Y-57550603D01*
X123634682Y-57622032D01*
X123706110Y-57764889D01*
X123706110Y-58122032D01*
X123634682Y-58264889D01*
X123563253Y-58336317D01*
X123420396Y-58407746D01*
X123063253Y-58407746D01*
X122920396Y-58336317D01*
X122848967Y-58264889D01*
X124134682Y-56907746D02*
X124634682Y-58407746D01*
X125134682Y-56907746D01*
X87510642Y-54312175D02*
X87367785Y-54240746D01*
X87153500Y-54240746D01*
X86939214Y-54312175D01*
X86796357Y-54455032D01*
X86724928Y-54597889D01*
X86653500Y-54883603D01*
X86653500Y-55097889D01*
X86724928Y-55383603D01*
X86796357Y-55526460D01*
X86939214Y-55669317D01*
X87153500Y-55740746D01*
X87296357Y-55740746D01*
X87510642Y-55669317D01*
X87582071Y-55597889D01*
X87582071Y-55097889D01*
X87296357Y-55097889D01*
X88224928Y-55740746D02*
X88224928Y-54240746D01*
X89082071Y-55740746D01*
X89082071Y-54240746D01*
X89796357Y-55740746D02*
X89796357Y-54240746D01*
X90153500Y-54240746D01*
X90367785Y-54312175D01*
X90510642Y-54455032D01*
X90582071Y-54597889D01*
X90653500Y-54883603D01*
X90653500Y-55097889D01*
X90582071Y-55383603D01*
X90510642Y-55526460D01*
X90367785Y-55669317D01*
X90153500Y-55740746D01*
X89796357Y-55740746D01*
X69603642Y-67266175D02*
X69460785Y-67194746D01*
X69246500Y-67194746D01*
X69032214Y-67266175D01*
X68889357Y-67409032D01*
X68817928Y-67551889D01*
X68746500Y-67837603D01*
X68746500Y-68051889D01*
X68817928Y-68337603D01*
X68889357Y-68480460D01*
X69032214Y-68623317D01*
X69246500Y-68694746D01*
X69389357Y-68694746D01*
X69603642Y-68623317D01*
X69675071Y-68551889D01*
X69675071Y-68051889D01*
X69389357Y-68051889D01*
X70317928Y-68694746D02*
X70317928Y-67194746D01*
X71175071Y-68694746D01*
X71175071Y-67194746D01*
X71889357Y-68694746D02*
X71889357Y-67194746D01*
X72246500Y-67194746D01*
X72460785Y-67266175D01*
X72603642Y-67409032D01*
X72675071Y-67551889D01*
X72746500Y-67837603D01*
X72746500Y-68051889D01*
X72675071Y-68337603D01*
X72603642Y-68480460D01*
X72460785Y-68623317D01*
X72246500Y-68694746D01*
X71889357Y-68694746D01*
X104195967Y-67266175D02*
X104053110Y-67194746D01*
X103838825Y-67194746D01*
X103624539Y-67266175D01*
X103481682Y-67409032D01*
X103410253Y-67551889D01*
X103338825Y-67837603D01*
X103338825Y-68051889D01*
X103410253Y-68337603D01*
X103481682Y-68480460D01*
X103624539Y-68623317D01*
X103838825Y-68694746D01*
X103981682Y-68694746D01*
X104195967Y-68623317D01*
X104267396Y-68551889D01*
X104267396Y-68051889D01*
X103981682Y-68051889D01*
X104910253Y-68694746D02*
X104910253Y-67194746D01*
X105767396Y-68694746D01*
X105767396Y-67194746D01*
X106481682Y-68694746D02*
X106481682Y-67194746D01*
X106838825Y-67194746D01*
X107053110Y-67266175D01*
X107195967Y-67409032D01*
X107267396Y-67551889D01*
X107338825Y-67837603D01*
X107338825Y-68051889D01*
X107267396Y-68337603D01*
X107195967Y-68480460D01*
X107053110Y-68623317D01*
X106838825Y-68694746D01*
X106481682Y-68694746D01*
X118023396Y-61003317D02*
X118237682Y-61074746D01*
X118594825Y-61074746D01*
X118737682Y-61003317D01*
X118809110Y-60931889D01*
X118880539Y-60789032D01*
X118880539Y-60646175D01*
X118809110Y-60503317D01*
X118737682Y-60431889D01*
X118594825Y-60360460D01*
X118309110Y-60289032D01*
X118166253Y-60217603D01*
X118094825Y-60146175D01*
X118023396Y-60003317D01*
X118023396Y-59860460D01*
X118094825Y-59717603D01*
X118166253Y-59646175D01*
X118309110Y-59574746D01*
X118666253Y-59574746D01*
X118880539Y-59646175D01*
X119523396Y-61074746D02*
X119523396Y-59574746D01*
X121023396Y-59646175D02*
X120880539Y-59574746D01*
X120666253Y-59574746D01*
X120451967Y-59646175D01*
X120309110Y-59789032D01*
X120237682Y-59931889D01*
X120166253Y-60217603D01*
X120166253Y-60431889D01*
X120237682Y-60717603D01*
X120309110Y-60860460D01*
X120451967Y-61003317D01*
X120666253Y-61074746D01*
X120809110Y-61074746D01*
X121023396Y-61003317D01*
X121094825Y-60931889D01*
X121094825Y-60431889D01*
X120809110Y-60431889D01*
X121737682Y-61074746D02*
X121737682Y-59574746D01*
X122594825Y-61074746D01*
X122594825Y-59574746D01*
X123237682Y-60646175D02*
X123951967Y-60646175D01*
X123094825Y-61074746D02*
X123594825Y-59574746D01*
X124094825Y-61074746D01*
X125309110Y-61074746D02*
X124594825Y-61074746D01*
X124594825Y-59574746D01*
X68699071Y-63416317D02*
X68913357Y-63487746D01*
X69270500Y-63487746D01*
X69413357Y-63416317D01*
X69484785Y-63344889D01*
X69556214Y-63202032D01*
X69556214Y-63059175D01*
X69484785Y-62916317D01*
X69413357Y-62844889D01*
X69270500Y-62773460D01*
X68984785Y-62702032D01*
X68841928Y-62630603D01*
X68770500Y-62559175D01*
X68699071Y-62416317D01*
X68699071Y-62273460D01*
X68770500Y-62130603D01*
X68841928Y-62059175D01*
X68984785Y-61987746D01*
X69341928Y-61987746D01*
X69556214Y-62059175D01*
X70199071Y-63487746D02*
X70199071Y-61987746D01*
X71699071Y-62059175D02*
X71556214Y-61987746D01*
X71341928Y-61987746D01*
X71127642Y-62059175D01*
X70984785Y-62202032D01*
X70913357Y-62344889D01*
X70841928Y-62630603D01*
X70841928Y-62844889D01*
X70913357Y-63130603D01*
X70984785Y-63273460D01*
X71127642Y-63416317D01*
X71341928Y-63487746D01*
X71484785Y-63487746D01*
X71699071Y-63416317D01*
X71770500Y-63344889D01*
X71770500Y-62844889D01*
X71484785Y-62844889D01*
X72413357Y-63487746D02*
X72413357Y-61987746D01*
X73270500Y-63487746D01*
X73270500Y-61987746D01*
X73913357Y-63059175D02*
X74627642Y-63059175D01*
X73770500Y-63487746D02*
X74270500Y-61987746D01*
X74770500Y-63487746D01*
X75984785Y-63487746D02*
X75270500Y-63487746D01*
X75270500Y-61987746D01*
X68690928Y-65456317D02*
X69833785Y-65456317D01*
X69262357Y-66027746D02*
X69262357Y-64884889D01*
X71262357Y-64527746D02*
X70548071Y-64527746D01*
X70476642Y-65242032D01*
X70548071Y-65170603D01*
X70690928Y-65099175D01*
X71048071Y-65099175D01*
X71190928Y-65170603D01*
X71262357Y-65242032D01*
X71333785Y-65384889D01*
X71333785Y-65742032D01*
X71262357Y-65884889D01*
X71190928Y-65956317D01*
X71048071Y-66027746D01*
X70690928Y-66027746D01*
X70548071Y-65956317D01*
X70476642Y-65884889D01*
X71762357Y-64527746D02*
X72262357Y-66027746D01*
X72762357Y-64527746D01*
X103291396Y-63416317D02*
X103505682Y-63487746D01*
X103862825Y-63487746D01*
X104005682Y-63416317D01*
X104077110Y-63344889D01*
X104148539Y-63202032D01*
X104148539Y-63059175D01*
X104077110Y-62916317D01*
X104005682Y-62844889D01*
X103862825Y-62773460D01*
X103577110Y-62702032D01*
X103434253Y-62630603D01*
X103362825Y-62559175D01*
X103291396Y-62416317D01*
X103291396Y-62273460D01*
X103362825Y-62130603D01*
X103434253Y-62059175D01*
X103577110Y-61987746D01*
X103934253Y-61987746D01*
X104148539Y-62059175D01*
X104791396Y-63487746D02*
X104791396Y-61987746D01*
X106291396Y-62059175D02*
X106148539Y-61987746D01*
X105934253Y-61987746D01*
X105719967Y-62059175D01*
X105577110Y-62202032D01*
X105505682Y-62344889D01*
X105434253Y-62630603D01*
X105434253Y-62844889D01*
X105505682Y-63130603D01*
X105577110Y-63273460D01*
X105719967Y-63416317D01*
X105934253Y-63487746D01*
X106077110Y-63487746D01*
X106291396Y-63416317D01*
X106362825Y-63344889D01*
X106362825Y-62844889D01*
X106077110Y-62844889D01*
X107005682Y-63487746D02*
X107005682Y-61987746D01*
X107862825Y-63487746D01*
X107862825Y-61987746D01*
X108505682Y-63059175D02*
X109219967Y-63059175D01*
X108362825Y-63487746D02*
X108862825Y-61987746D01*
X109362825Y-63487746D01*
X110577110Y-63487746D02*
X109862825Y-63487746D01*
X109862825Y-61987746D01*
X52427428Y-57765142D02*
X53570285Y-57765142D01*
X52998857Y-58336571D02*
X52998857Y-57193714D01*
X54998857Y-56836571D02*
X54284571Y-56836571D01*
X54213142Y-57550857D01*
X54284571Y-57479428D01*
X54427428Y-57408000D01*
X54784571Y-57408000D01*
X54927428Y-57479428D01*
X54998857Y-57550857D01*
X55070285Y-57693714D01*
X55070285Y-58050857D01*
X54998857Y-58193714D01*
X54927428Y-58265142D01*
X54784571Y-58336571D01*
X54427428Y-58336571D01*
X54284571Y-58265142D01*
X54213142Y-58193714D01*
X55498857Y-56836571D02*
X55998857Y-58336571D01*
X56498857Y-56836571D01*
X35560142Y-67195000D02*
X35417285Y-67123571D01*
X35203000Y-67123571D01*
X34988714Y-67195000D01*
X34845857Y-67337857D01*
X34774428Y-67480714D01*
X34703000Y-67766428D01*
X34703000Y-67980714D01*
X34774428Y-68266428D01*
X34845857Y-68409285D01*
X34988714Y-68552142D01*
X35203000Y-68623571D01*
X35345857Y-68623571D01*
X35560142Y-68552142D01*
X35631571Y-68480714D01*
X35631571Y-67980714D01*
X35345857Y-67980714D01*
X36274428Y-68623571D02*
X36274428Y-67123571D01*
X37131571Y-68623571D01*
X37131571Y-67123571D01*
X37845857Y-68623571D02*
X37845857Y-67123571D01*
X38203000Y-67123571D01*
X38417285Y-67195000D01*
X38560142Y-67337857D01*
X38631571Y-67480714D01*
X38703000Y-67766428D01*
X38703000Y-67980714D01*
X38631571Y-68266428D01*
X38560142Y-68409285D01*
X38417285Y-68552142D01*
X38203000Y-68623571D01*
X37845857Y-68623571D01*
X49387571Y-60932142D02*
X49601857Y-61003571D01*
X49959000Y-61003571D01*
X50101857Y-60932142D01*
X50173285Y-60860714D01*
X50244714Y-60717857D01*
X50244714Y-60575000D01*
X50173285Y-60432142D01*
X50101857Y-60360714D01*
X49959000Y-60289285D01*
X49673285Y-60217857D01*
X49530428Y-60146428D01*
X49459000Y-60075000D01*
X49387571Y-59932142D01*
X49387571Y-59789285D01*
X49459000Y-59646428D01*
X49530428Y-59575000D01*
X49673285Y-59503571D01*
X50030428Y-59503571D01*
X50244714Y-59575000D01*
X50887571Y-61003571D02*
X50887571Y-59503571D01*
X52387571Y-59575000D02*
X52244714Y-59503571D01*
X52030428Y-59503571D01*
X51816142Y-59575000D01*
X51673285Y-59717857D01*
X51601857Y-59860714D01*
X51530428Y-60146428D01*
X51530428Y-60360714D01*
X51601857Y-60646428D01*
X51673285Y-60789285D01*
X51816142Y-60932142D01*
X52030428Y-61003571D01*
X52173285Y-61003571D01*
X52387571Y-60932142D01*
X52459000Y-60860714D01*
X52459000Y-60360714D01*
X52173285Y-60360714D01*
X53101857Y-61003571D02*
X53101857Y-59503571D01*
X53959000Y-61003571D01*
X53959000Y-59503571D01*
X54601857Y-60575000D02*
X55316142Y-60575000D01*
X54459000Y-61003571D02*
X54959000Y-59503571D01*
X55459000Y-61003571D01*
X56673285Y-61003571D02*
X55959000Y-61003571D01*
X55959000Y-59503571D01*
X34655571Y-63345142D02*
X34869857Y-63416571D01*
X35227000Y-63416571D01*
X35369857Y-63345142D01*
X35441285Y-63273714D01*
X35512714Y-63130857D01*
X35512714Y-62988000D01*
X35441285Y-62845142D01*
X35369857Y-62773714D01*
X35227000Y-62702285D01*
X34941285Y-62630857D01*
X34798428Y-62559428D01*
X34727000Y-62488000D01*
X34655571Y-62345142D01*
X34655571Y-62202285D01*
X34727000Y-62059428D01*
X34798428Y-61988000D01*
X34941285Y-61916571D01*
X35298428Y-61916571D01*
X35512714Y-61988000D01*
X36155571Y-63416571D02*
X36155571Y-61916571D01*
X37655571Y-61988000D02*
X37512714Y-61916571D01*
X37298428Y-61916571D01*
X37084142Y-61988000D01*
X36941285Y-62130857D01*
X36869857Y-62273714D01*
X36798428Y-62559428D01*
X36798428Y-62773714D01*
X36869857Y-63059428D01*
X36941285Y-63202285D01*
X37084142Y-63345142D01*
X37298428Y-63416571D01*
X37441285Y-63416571D01*
X37655571Y-63345142D01*
X37727000Y-63273714D01*
X37727000Y-62773714D01*
X37441285Y-62773714D01*
X38369857Y-63416571D02*
X38369857Y-61916571D01*
X39227000Y-63416571D01*
X39227000Y-61916571D01*
X39869857Y-62988000D02*
X40584142Y-62988000D01*
X39727000Y-63416571D02*
X40227000Y-61916571D01*
X40727000Y-63416571D01*
X41941285Y-63416571D02*
X41227000Y-63416571D01*
X41227000Y-61916571D01*
X34647428Y-65385142D02*
X35790285Y-65385142D01*
X35218857Y-65956571D02*
X35218857Y-64813714D01*
X37218857Y-64456571D02*
X36504571Y-64456571D01*
X36433142Y-65170857D01*
X36504571Y-65099428D01*
X36647428Y-65028000D01*
X37004571Y-65028000D01*
X37147428Y-65099428D01*
X37218857Y-65170857D01*
X37290285Y-65313714D01*
X37290285Y-65670857D01*
X37218857Y-65813714D01*
X37147428Y-65885142D01*
X37004571Y-65956571D01*
X36647428Y-65956571D01*
X36504571Y-65885142D01*
X36433142Y-65813714D01*
X37718857Y-64456571D02*
X38218857Y-65956571D01*
X38718857Y-64456571D01*
X53467142Y-54241000D02*
X53324285Y-54169571D01*
X53110000Y-54169571D01*
X52895714Y-54241000D01*
X52752857Y-54383857D01*
X52681428Y-54526714D01*
X52610000Y-54812428D01*
X52610000Y-55026714D01*
X52681428Y-55312428D01*
X52752857Y-55455285D01*
X52895714Y-55598142D01*
X53110000Y-55669571D01*
X53252857Y-55669571D01*
X53467142Y-55598142D01*
X53538571Y-55526714D01*
X53538571Y-55026714D01*
X53252857Y-55026714D01*
X54181428Y-55669571D02*
X54181428Y-54169571D01*
X55038571Y-55669571D01*
X55038571Y-54169571D01*
X55752857Y-55669571D02*
X55752857Y-54169571D01*
X56110000Y-54169571D01*
X56324285Y-54241000D01*
X56467142Y-54383857D01*
X56538571Y-54526714D01*
X56610000Y-54812428D01*
X56610000Y-55026714D01*
X56538571Y-55312428D01*
X56467142Y-55455285D01*
X56324285Y-55598142D01*
X56110000Y-55669571D01*
X55752857Y-55669571D01*
X83431071Y-61003317D02*
X83645357Y-61074746D01*
X84002500Y-61074746D01*
X84145357Y-61003317D01*
X84216785Y-60931889D01*
X84288214Y-60789032D01*
X84288214Y-60646175D01*
X84216785Y-60503317D01*
X84145357Y-60431889D01*
X84002500Y-60360460D01*
X83716785Y-60289032D01*
X83573928Y-60217603D01*
X83502500Y-60146175D01*
X83431071Y-60003317D01*
X83431071Y-59860460D01*
X83502500Y-59717603D01*
X83573928Y-59646175D01*
X83716785Y-59574746D01*
X84073928Y-59574746D01*
X84288214Y-59646175D01*
X84931071Y-61074746D02*
X84931071Y-59574746D01*
X86431071Y-59646175D02*
X86288214Y-59574746D01*
X86073928Y-59574746D01*
X85859642Y-59646175D01*
X85716785Y-59789032D01*
X85645357Y-59931889D01*
X85573928Y-60217603D01*
X85573928Y-60431889D01*
X85645357Y-60717603D01*
X85716785Y-60860460D01*
X85859642Y-61003317D01*
X86073928Y-61074746D01*
X86216785Y-61074746D01*
X86431071Y-61003317D01*
X86502500Y-60931889D01*
X86502500Y-60431889D01*
X86216785Y-60431889D01*
X87145357Y-61074746D02*
X87145357Y-59574746D01*
X88002500Y-61074746D01*
X88002500Y-59574746D01*
X88645357Y-60646175D02*
X89359642Y-60646175D01*
X88502500Y-61074746D02*
X89002500Y-59574746D01*
X89502500Y-61074746D01*
X90716785Y-61074746D02*
X90002500Y-61074746D01*
X90002500Y-59574746D01*
X120936253Y-36881317D02*
X122079110Y-36881317D01*
X121507682Y-37452746D02*
X121507682Y-36309889D01*
X123507682Y-35952746D02*
X122793396Y-35952746D01*
X122721967Y-36667032D01*
X122793396Y-36595603D01*
X122936253Y-36524175D01*
X123293396Y-36524175D01*
X123436253Y-36595603D01*
X123507682Y-36667032D01*
X123579110Y-36809889D01*
X123579110Y-37167032D01*
X123507682Y-37309889D01*
X123436253Y-37381317D01*
X123293396Y-37452746D01*
X122936253Y-37452746D01*
X122793396Y-37381317D01*
X122721967Y-37309889D01*
X124007682Y-35952746D02*
X124507682Y-37452746D01*
X125007682Y-35952746D01*
X104068967Y-46311175D02*
X103926110Y-46239746D01*
X103711825Y-46239746D01*
X103497539Y-46311175D01*
X103354682Y-46454032D01*
X103283253Y-46596889D01*
X103211825Y-46882603D01*
X103211825Y-47096889D01*
X103283253Y-47382603D01*
X103354682Y-47525460D01*
X103497539Y-47668317D01*
X103711825Y-47739746D01*
X103854682Y-47739746D01*
X104068967Y-47668317D01*
X104140396Y-47596889D01*
X104140396Y-47096889D01*
X103854682Y-47096889D01*
X104783253Y-47739746D02*
X104783253Y-46239746D01*
X105640396Y-47739746D01*
X105640396Y-46239746D01*
X106354682Y-47739746D02*
X106354682Y-46239746D01*
X106711825Y-46239746D01*
X106926110Y-46311175D01*
X107068967Y-46454032D01*
X107140396Y-46596889D01*
X107211825Y-46882603D01*
X107211825Y-47096889D01*
X107140396Y-47382603D01*
X107068967Y-47525460D01*
X106926110Y-47668317D01*
X106711825Y-47739746D01*
X106354682Y-47739746D01*
X117896396Y-40048317D02*
X118110682Y-40119746D01*
X118467825Y-40119746D01*
X118610682Y-40048317D01*
X118682110Y-39976889D01*
X118753539Y-39834032D01*
X118753539Y-39691175D01*
X118682110Y-39548317D01*
X118610682Y-39476889D01*
X118467825Y-39405460D01*
X118182110Y-39334032D01*
X118039253Y-39262603D01*
X117967825Y-39191175D01*
X117896396Y-39048317D01*
X117896396Y-38905460D01*
X117967825Y-38762603D01*
X118039253Y-38691175D01*
X118182110Y-38619746D01*
X118539253Y-38619746D01*
X118753539Y-38691175D01*
X119396396Y-40119746D02*
X119396396Y-38619746D01*
X120896396Y-38691175D02*
X120753539Y-38619746D01*
X120539253Y-38619746D01*
X120324967Y-38691175D01*
X120182110Y-38834032D01*
X120110682Y-38976889D01*
X120039253Y-39262603D01*
X120039253Y-39476889D01*
X120110682Y-39762603D01*
X120182110Y-39905460D01*
X120324967Y-40048317D01*
X120539253Y-40119746D01*
X120682110Y-40119746D01*
X120896396Y-40048317D01*
X120967825Y-39976889D01*
X120967825Y-39476889D01*
X120682110Y-39476889D01*
X121610682Y-40119746D02*
X121610682Y-38619746D01*
X122467825Y-40119746D01*
X122467825Y-38619746D01*
X123110682Y-39691175D02*
X123824967Y-39691175D01*
X122967825Y-40119746D02*
X123467825Y-38619746D01*
X123967825Y-40119746D01*
X125182110Y-40119746D02*
X124467825Y-40119746D01*
X124467825Y-38619746D01*
X103164396Y-42461317D02*
X103378682Y-42532746D01*
X103735825Y-42532746D01*
X103878682Y-42461317D01*
X103950110Y-42389889D01*
X104021539Y-42247032D01*
X104021539Y-42104175D01*
X103950110Y-41961317D01*
X103878682Y-41889889D01*
X103735825Y-41818460D01*
X103450110Y-41747032D01*
X103307253Y-41675603D01*
X103235825Y-41604175D01*
X103164396Y-41461317D01*
X103164396Y-41318460D01*
X103235825Y-41175603D01*
X103307253Y-41104175D01*
X103450110Y-41032746D01*
X103807253Y-41032746D01*
X104021539Y-41104175D01*
X104664396Y-42532746D02*
X104664396Y-41032746D01*
X106164396Y-41104175D02*
X106021539Y-41032746D01*
X105807253Y-41032746D01*
X105592967Y-41104175D01*
X105450110Y-41247032D01*
X105378682Y-41389889D01*
X105307253Y-41675603D01*
X105307253Y-41889889D01*
X105378682Y-42175603D01*
X105450110Y-42318460D01*
X105592967Y-42461317D01*
X105807253Y-42532746D01*
X105950110Y-42532746D01*
X106164396Y-42461317D01*
X106235825Y-42389889D01*
X106235825Y-41889889D01*
X105950110Y-41889889D01*
X106878682Y-42532746D02*
X106878682Y-41032746D01*
X107735825Y-42532746D01*
X107735825Y-41032746D01*
X108378682Y-42104175D02*
X109092967Y-42104175D01*
X108235825Y-42532746D02*
X108735825Y-41032746D01*
X109235825Y-42532746D01*
X110450110Y-42532746D02*
X109735825Y-42532746D01*
X109735825Y-41032746D01*
X103156253Y-44501317D02*
X104299110Y-44501317D01*
X103727682Y-45072746D02*
X103727682Y-43929889D01*
X105727682Y-43572746D02*
X105013396Y-43572746D01*
X104941967Y-44287032D01*
X105013396Y-44215603D01*
X105156253Y-44144175D01*
X105513396Y-44144175D01*
X105656253Y-44215603D01*
X105727682Y-44287032D01*
X105799110Y-44429889D01*
X105799110Y-44787032D01*
X105727682Y-44929889D01*
X105656253Y-45001317D01*
X105513396Y-45072746D01*
X105156253Y-45072746D01*
X105013396Y-45001317D01*
X104941967Y-44929889D01*
X106227682Y-43572746D02*
X106727682Y-45072746D01*
X107227682Y-43572746D01*
X121975967Y-33357175D02*
X121833110Y-33285746D01*
X121618825Y-33285746D01*
X121404539Y-33357175D01*
X121261682Y-33500032D01*
X121190253Y-33642889D01*
X121118825Y-33928603D01*
X121118825Y-34142889D01*
X121190253Y-34428603D01*
X121261682Y-34571460D01*
X121404539Y-34714317D01*
X121618825Y-34785746D01*
X121761682Y-34785746D01*
X121975967Y-34714317D01*
X122047396Y-34642889D01*
X122047396Y-34142889D01*
X121761682Y-34142889D01*
X122690253Y-34785746D02*
X122690253Y-33285746D01*
X123547396Y-34785746D01*
X123547396Y-33285746D01*
X124261682Y-34785746D02*
X124261682Y-33285746D01*
X124618825Y-33285746D01*
X124833110Y-33357175D01*
X124975967Y-33500032D01*
X125047396Y-33642889D01*
X125118825Y-33928603D01*
X125118825Y-34142889D01*
X125047396Y-34428603D01*
X124975967Y-34571460D01*
X124833110Y-34714317D01*
X124618825Y-34785746D01*
X124261682Y-34785746D01*
X86343928Y-36881317D02*
X87486785Y-36881317D01*
X86915357Y-37452746D02*
X86915357Y-36309889D01*
X88915357Y-35952746D02*
X88201071Y-35952746D01*
X88129642Y-36667032D01*
X88201071Y-36595603D01*
X88343928Y-36524175D01*
X88701071Y-36524175D01*
X88843928Y-36595603D01*
X88915357Y-36667032D01*
X88986785Y-36809889D01*
X88986785Y-37167032D01*
X88915357Y-37309889D01*
X88843928Y-37381317D01*
X88701071Y-37452746D01*
X88343928Y-37452746D01*
X88201071Y-37381317D01*
X88129642Y-37309889D01*
X89415357Y-35952746D02*
X89915357Y-37452746D01*
X90415357Y-35952746D01*
X69476642Y-46311175D02*
X69333785Y-46239746D01*
X69119500Y-46239746D01*
X68905214Y-46311175D01*
X68762357Y-46454032D01*
X68690928Y-46596889D01*
X68619500Y-46882603D01*
X68619500Y-47096889D01*
X68690928Y-47382603D01*
X68762357Y-47525460D01*
X68905214Y-47668317D01*
X69119500Y-47739746D01*
X69262357Y-47739746D01*
X69476642Y-47668317D01*
X69548071Y-47596889D01*
X69548071Y-47096889D01*
X69262357Y-47096889D01*
X70190928Y-47739746D02*
X70190928Y-46239746D01*
X71048071Y-47739746D01*
X71048071Y-46239746D01*
X71762357Y-47739746D02*
X71762357Y-46239746D01*
X72119500Y-46239746D01*
X72333785Y-46311175D01*
X72476642Y-46454032D01*
X72548071Y-46596889D01*
X72619500Y-46882603D01*
X72619500Y-47096889D01*
X72548071Y-47382603D01*
X72476642Y-47525460D01*
X72333785Y-47668317D01*
X72119500Y-47739746D01*
X71762357Y-47739746D01*
X83304071Y-40048317D02*
X83518357Y-40119746D01*
X83875500Y-40119746D01*
X84018357Y-40048317D01*
X84089785Y-39976889D01*
X84161214Y-39834032D01*
X84161214Y-39691175D01*
X84089785Y-39548317D01*
X84018357Y-39476889D01*
X83875500Y-39405460D01*
X83589785Y-39334032D01*
X83446928Y-39262603D01*
X83375500Y-39191175D01*
X83304071Y-39048317D01*
X83304071Y-38905460D01*
X83375500Y-38762603D01*
X83446928Y-38691175D01*
X83589785Y-38619746D01*
X83946928Y-38619746D01*
X84161214Y-38691175D01*
X84804071Y-40119746D02*
X84804071Y-38619746D01*
X86304071Y-38691175D02*
X86161214Y-38619746D01*
X85946928Y-38619746D01*
X85732642Y-38691175D01*
X85589785Y-38834032D01*
X85518357Y-38976889D01*
X85446928Y-39262603D01*
X85446928Y-39476889D01*
X85518357Y-39762603D01*
X85589785Y-39905460D01*
X85732642Y-40048317D01*
X85946928Y-40119746D01*
X86089785Y-40119746D01*
X86304071Y-40048317D01*
X86375500Y-39976889D01*
X86375500Y-39476889D01*
X86089785Y-39476889D01*
X87018357Y-40119746D02*
X87018357Y-38619746D01*
X87875500Y-40119746D01*
X87875500Y-38619746D01*
X88518357Y-39691175D02*
X89232642Y-39691175D01*
X88375500Y-40119746D02*
X88875500Y-38619746D01*
X89375500Y-40119746D01*
X90589785Y-40119746D02*
X89875500Y-40119746D01*
X89875500Y-38619746D01*
X68572071Y-42461317D02*
X68786357Y-42532746D01*
X69143500Y-42532746D01*
X69286357Y-42461317D01*
X69357785Y-42389889D01*
X69429214Y-42247032D01*
X69429214Y-42104175D01*
X69357785Y-41961317D01*
X69286357Y-41889889D01*
X69143500Y-41818460D01*
X68857785Y-41747032D01*
X68714928Y-41675603D01*
X68643500Y-41604175D01*
X68572071Y-41461317D01*
X68572071Y-41318460D01*
X68643500Y-41175603D01*
X68714928Y-41104175D01*
X68857785Y-41032746D01*
X69214928Y-41032746D01*
X69429214Y-41104175D01*
X70072071Y-42532746D02*
X70072071Y-41032746D01*
X71572071Y-41104175D02*
X71429214Y-41032746D01*
X71214928Y-41032746D01*
X71000642Y-41104175D01*
X70857785Y-41247032D01*
X70786357Y-41389889D01*
X70714928Y-41675603D01*
X70714928Y-41889889D01*
X70786357Y-42175603D01*
X70857785Y-42318460D01*
X71000642Y-42461317D01*
X71214928Y-42532746D01*
X71357785Y-42532746D01*
X71572071Y-42461317D01*
X71643500Y-42389889D01*
X71643500Y-41889889D01*
X71357785Y-41889889D01*
X72286357Y-42532746D02*
X72286357Y-41032746D01*
X73143500Y-42532746D01*
X73143500Y-41032746D01*
X73786357Y-42104175D02*
X74500642Y-42104175D01*
X73643500Y-42532746D02*
X74143500Y-41032746D01*
X74643500Y-42532746D01*
X75857785Y-42532746D02*
X75143500Y-42532746D01*
X75143500Y-41032746D01*
X68563928Y-44501317D02*
X69706785Y-44501317D01*
X69135357Y-45072746D02*
X69135357Y-43929889D01*
X71135357Y-43572746D02*
X70421071Y-43572746D01*
X70349642Y-44287032D01*
X70421071Y-44215603D01*
X70563928Y-44144175D01*
X70921071Y-44144175D01*
X71063928Y-44215603D01*
X71135357Y-44287032D01*
X71206785Y-44429889D01*
X71206785Y-44787032D01*
X71135357Y-44929889D01*
X71063928Y-45001317D01*
X70921071Y-45072746D01*
X70563928Y-45072746D01*
X70421071Y-45001317D01*
X70349642Y-44929889D01*
X71635357Y-43572746D02*
X72135357Y-45072746D01*
X72635357Y-43572746D01*
X87383642Y-33357175D02*
X87240785Y-33285746D01*
X87026500Y-33285746D01*
X86812214Y-33357175D01*
X86669357Y-33500032D01*
X86597928Y-33642889D01*
X86526500Y-33928603D01*
X86526500Y-34142889D01*
X86597928Y-34428603D01*
X86669357Y-34571460D01*
X86812214Y-34714317D01*
X87026500Y-34785746D01*
X87169357Y-34785746D01*
X87383642Y-34714317D01*
X87455071Y-34642889D01*
X87455071Y-34142889D01*
X87169357Y-34142889D01*
X88097928Y-34785746D02*
X88097928Y-33285746D01*
X88955071Y-34785746D01*
X88955071Y-33285746D01*
X89669357Y-34785746D02*
X89669357Y-33285746D01*
X90026500Y-33285746D01*
X90240785Y-33357175D01*
X90383642Y-33500032D01*
X90455071Y-33642889D01*
X90526500Y-33928603D01*
X90526500Y-34142889D01*
X90455071Y-34428603D01*
X90383642Y-34571460D01*
X90240785Y-34714317D01*
X90026500Y-34785746D01*
X89669357Y-34785746D01*
D10*
X129189000Y-106299000D02*
G75*
G03*
X129189000Y-106299000I-1300000J0D01*
G01*
X128989000Y-106299000D02*
G75*
G03*
X128989000Y-106299000I-1100000J0D01*
G01*
X129189000Y-108839000D02*
G75*
G03*
X129189000Y-108839000I-1300000J0D01*
G01*
X30226000Y-73660000D02*
X129794000Y-73660000D01*
X128989000Y-108839000D02*
G75*
G03*
X128989000Y-108839000I-1100000J0D01*
G01*
D11*
X53340142Y-33286000D02*
X53197285Y-33214571D01*
X52983000Y-33214571D01*
X52768714Y-33286000D01*
X52625857Y-33428857D01*
X52554428Y-33571714D01*
X52483000Y-33857428D01*
X52483000Y-34071714D01*
X52554428Y-34357428D01*
X52625857Y-34500285D01*
X52768714Y-34643142D01*
X52983000Y-34714571D01*
X53125857Y-34714571D01*
X53340142Y-34643142D01*
X53411571Y-34571714D01*
X53411571Y-34071714D01*
X53125857Y-34071714D01*
X54054428Y-34714571D02*
X54054428Y-33214571D01*
X54911571Y-34714571D01*
X54911571Y-33214571D01*
X55625857Y-34714571D02*
X55625857Y-33214571D01*
X55983000Y-33214571D01*
X56197285Y-33286000D01*
X56340142Y-33428857D01*
X56411571Y-33571714D01*
X56483000Y-33857428D01*
X56483000Y-34071714D01*
X56411571Y-34357428D01*
X56340142Y-34500285D01*
X56197285Y-34643142D01*
X55983000Y-34714571D01*
X55625857Y-34714571D01*
D10*
X33847738Y-99401380D02*
X34181071Y-100401380D01*
X34514404Y-99401380D01*
X34847738Y-100020428D02*
X35609642Y-100020428D01*
X35228690Y-100401380D02*
X35228690Y-99639476D01*
D11*
X34520428Y-44430142D02*
X35663285Y-44430142D01*
X35091857Y-45001571D02*
X35091857Y-43858714D01*
X37091857Y-43501571D02*
X36377571Y-43501571D01*
X36306142Y-44215857D01*
X36377571Y-44144428D01*
X36520428Y-44073000D01*
X36877571Y-44073000D01*
X37020428Y-44144428D01*
X37091857Y-44215857D01*
X37163285Y-44358714D01*
X37163285Y-44715857D01*
X37091857Y-44858714D01*
X37020428Y-44930142D01*
X36877571Y-45001571D01*
X36520428Y-45001571D01*
X36377571Y-44930142D01*
X36306142Y-44858714D01*
X37591857Y-43501571D02*
X38091857Y-45001571D01*
X38591857Y-43501571D01*
D10*
X33863595Y-120721380D02*
X33863595Y-119721380D01*
X34101690Y-119721380D01*
X34244547Y-119769000D01*
X34339785Y-119864238D01*
X34387404Y-119959476D01*
X34435023Y-120149952D01*
X34435023Y-120292809D01*
X34387404Y-120483285D01*
X34339785Y-120578523D01*
X34244547Y-120673761D01*
X34101690Y-120721380D01*
X33863595Y-120721380D01*
X35387404Y-120721380D02*
X34815976Y-120721380D01*
X35101690Y-120721380D02*
X35101690Y-119721380D01*
X35006452Y-119864238D01*
X34911214Y-119959476D01*
X34815976Y-120007095D01*
X35768357Y-119816619D02*
X35815976Y-119769000D01*
X35911214Y-119721380D01*
X36149309Y-119721380D01*
X36244547Y-119769000D01*
X36292166Y-119816619D01*
X36339785Y-119911857D01*
X36339785Y-120007095D01*
X36292166Y-120149952D01*
X35720738Y-120721380D01*
X36339785Y-120721380D01*
X33863595Y-92400428D02*
X34625500Y-92400428D01*
X34244547Y-92781380D02*
X34244547Y-92019476D01*
X35577880Y-91781380D02*
X35101690Y-91781380D01*
X35054071Y-92257571D01*
X35101690Y-92209952D01*
X35196928Y-92162333D01*
X35435023Y-92162333D01*
X35530261Y-92209952D01*
X35577880Y-92257571D01*
X35625500Y-92352809D01*
X35625500Y-92590904D01*
X35577880Y-92686142D01*
X35530261Y-92733761D01*
X35435023Y-92781380D01*
X35196928Y-92781380D01*
X35101690Y-92733761D01*
X35054071Y-92686142D01*
X35911214Y-91781380D02*
X36244547Y-92781380D01*
X36577880Y-91781380D01*
X33863595Y-113101380D02*
X33863595Y-112101380D01*
X34101690Y-112101380D01*
X34244547Y-112149000D01*
X34339785Y-112244238D01*
X34387404Y-112339476D01*
X34435023Y-112529952D01*
X34435023Y-112672809D01*
X34387404Y-112863285D01*
X34339785Y-112958523D01*
X34244547Y-113053761D01*
X34101690Y-113101380D01*
X33863595Y-113101380D01*
X34911214Y-113101380D02*
X35101690Y-113101380D01*
X35196928Y-113053761D01*
X35244547Y-113006142D01*
X35339785Y-112863285D01*
X35387404Y-112672809D01*
X35387404Y-112291857D01*
X35339785Y-112196619D01*
X35292166Y-112149000D01*
X35196928Y-112101380D01*
X35006452Y-112101380D01*
X34911214Y-112149000D01*
X34863595Y-112196619D01*
X34815976Y-112291857D01*
X34815976Y-112529952D01*
X34863595Y-112625190D01*
X34911214Y-112672809D01*
X35006452Y-112720428D01*
X35196928Y-112720428D01*
X35292166Y-112672809D01*
X35339785Y-112625190D01*
X35387404Y-112529952D01*
X110386904Y-75128380D02*
X110386904Y-74128380D01*
X110625000Y-74128380D01*
X110767857Y-74176000D01*
X110863095Y-74271238D01*
X110910714Y-74366476D01*
X110958333Y-74556952D01*
X110958333Y-74699809D01*
X110910714Y-74890285D01*
X110863095Y-74985523D01*
X110767857Y-75080761D01*
X110625000Y-75128380D01*
X110386904Y-75128380D01*
X111863095Y-74128380D02*
X111386904Y-74128380D01*
X111339285Y-74604571D01*
X111386904Y-74556952D01*
X111482142Y-74509333D01*
X111720238Y-74509333D01*
X111815476Y-74556952D01*
X111863095Y-74604571D01*
X111910714Y-74699809D01*
X111910714Y-74937904D01*
X111863095Y-75033142D01*
X111815476Y-75080761D01*
X111720238Y-75128380D01*
X111482142Y-75128380D01*
X111386904Y-75080761D01*
X111339285Y-75033142D01*
X33847738Y-104481380D02*
X34181071Y-105481380D01*
X34514404Y-104481380D01*
X34847738Y-105100428D02*
X35609642Y-105100428D01*
X35228690Y-105481380D02*
X35228690Y-104719476D01*
X33863595Y-115641380D02*
X33863595Y-114641380D01*
X34101690Y-114641380D01*
X34244547Y-114689000D01*
X34339785Y-114784238D01*
X34387404Y-114879476D01*
X34435023Y-115069952D01*
X34435023Y-115212809D01*
X34387404Y-115403285D01*
X34339785Y-115498523D01*
X34244547Y-115593761D01*
X34101690Y-115641380D01*
X33863595Y-115641380D01*
X35387404Y-115641380D02*
X34815976Y-115641380D01*
X35101690Y-115641380D02*
X35101690Y-114641380D01*
X35006452Y-114784238D01*
X34911214Y-114879476D01*
X34815976Y-114927095D01*
X36006452Y-114641380D02*
X36101690Y-114641380D01*
X36196928Y-114689000D01*
X36244547Y-114736619D01*
X36292166Y-114831857D01*
X36339785Y-115022333D01*
X36339785Y-115260428D01*
X36292166Y-115450904D01*
X36244547Y-115546142D01*
X36196928Y-115593761D01*
X36101690Y-115641380D01*
X36006452Y-115641380D01*
X35911214Y-115593761D01*
X35863595Y-115546142D01*
X35815976Y-115450904D01*
X35768357Y-115260428D01*
X35768357Y-115022333D01*
X35815976Y-114831857D01*
X35863595Y-114736619D01*
X35911214Y-114689000D01*
X36006452Y-114641380D01*
X112926904Y-75128380D02*
X112926904Y-74128380D01*
X113165000Y-74128380D01*
X113307857Y-74176000D01*
X113403095Y-74271238D01*
X113450714Y-74366476D01*
X113498333Y-74556952D01*
X113498333Y-74699809D01*
X113450714Y-74890285D01*
X113403095Y-74985523D01*
X113307857Y-75080761D01*
X113165000Y-75128380D01*
X112926904Y-75128380D01*
X114355476Y-74128380D02*
X114165000Y-74128380D01*
X114069761Y-74176000D01*
X114022142Y-74223619D01*
X113926904Y-74366476D01*
X113879285Y-74556952D01*
X113879285Y-74937904D01*
X113926904Y-75033142D01*
X113974523Y-75080761D01*
X114069761Y-75128380D01*
X114260238Y-75128380D01*
X114355476Y-75080761D01*
X114403095Y-75033142D01*
X114450714Y-74937904D01*
X114450714Y-74699809D01*
X114403095Y-74604571D01*
X114355476Y-74556952D01*
X114260238Y-74509333D01*
X114069761Y-74509333D01*
X113974523Y-74556952D01*
X113926904Y-74604571D01*
X113879285Y-74699809D01*
X118006904Y-75128380D02*
X118006904Y-74128380D01*
X118245000Y-74128380D01*
X118387857Y-74176000D01*
X118483095Y-74271238D01*
X118530714Y-74366476D01*
X118578333Y-74556952D01*
X118578333Y-74699809D01*
X118530714Y-74890285D01*
X118483095Y-74985523D01*
X118387857Y-75080761D01*
X118245000Y-75128380D01*
X118006904Y-75128380D01*
X119149761Y-74556952D02*
X119054523Y-74509333D01*
X119006904Y-74461714D01*
X118959285Y-74366476D01*
X118959285Y-74318857D01*
X119006904Y-74223619D01*
X119054523Y-74176000D01*
X119149761Y-74128380D01*
X119340238Y-74128380D01*
X119435476Y-74176000D01*
X119483095Y-74223619D01*
X119530714Y-74318857D01*
X119530714Y-74366476D01*
X119483095Y-74461714D01*
X119435476Y-74509333D01*
X119340238Y-74556952D01*
X119149761Y-74556952D01*
X119054523Y-74604571D01*
X119006904Y-74652190D01*
X118959285Y-74747428D01*
X118959285Y-74937904D01*
X119006904Y-75033142D01*
X119054523Y-75080761D01*
X119149761Y-75128380D01*
X119340238Y-75128380D01*
X119435476Y-75080761D01*
X119483095Y-75033142D01*
X119530714Y-74937904D01*
X119530714Y-74747428D01*
X119483095Y-74652190D01*
X119435476Y-74604571D01*
X119340238Y-74556952D01*
X120721380Y-91146238D02*
X120721380Y-91717666D01*
X120721380Y-91431952D02*
X119721380Y-91431952D01*
X119864238Y-91527190D01*
X119959476Y-91622428D01*
X120007095Y-91717666D01*
X119721380Y-90527190D02*
X119721380Y-90431952D01*
X119769000Y-90336714D01*
X119816619Y-90289095D01*
X119911857Y-90241476D01*
X120102333Y-90193857D01*
X120340428Y-90193857D01*
X120530904Y-90241476D01*
X120626142Y-90289095D01*
X120673761Y-90336714D01*
X120721380Y-90431952D01*
X120721380Y-90527190D01*
X120673761Y-90622428D01*
X120626142Y-90670047D01*
X120530904Y-90717666D01*
X120340428Y-90765285D01*
X120102333Y-90765285D01*
X119911857Y-90717666D01*
X119816619Y-90670047D01*
X119769000Y-90622428D01*
X119721380Y-90527190D01*
X120721380Y-89765285D02*
X119721380Y-89765285D01*
X120340428Y-89670047D02*
X120721380Y-89384333D01*
X120054714Y-89384333D02*
X120435666Y-89765285D01*
X34387404Y-89289000D02*
X34292166Y-89241380D01*
X34149309Y-89241380D01*
X34006452Y-89289000D01*
X33911214Y-89384238D01*
X33863595Y-89479476D01*
X33815976Y-89669952D01*
X33815976Y-89812809D01*
X33863595Y-90003285D01*
X33911214Y-90098523D01*
X34006452Y-90193761D01*
X34149309Y-90241380D01*
X34244547Y-90241380D01*
X34387404Y-90193761D01*
X34435023Y-90146142D01*
X34435023Y-89812809D01*
X34244547Y-89812809D01*
X34863595Y-90241380D02*
X34863595Y-89241380D01*
X35435023Y-90241380D01*
X35435023Y-89241380D01*
X35911214Y-90241380D02*
X35911214Y-89241380D01*
X36149309Y-89241380D01*
X36292166Y-89289000D01*
X36387404Y-89384238D01*
X36435023Y-89479476D01*
X36482642Y-89669952D01*
X36482642Y-89812809D01*
X36435023Y-90003285D01*
X36387404Y-90098523D01*
X36292166Y-90193761D01*
X36149309Y-90241380D01*
X35911214Y-90241380D01*
X105219619Y-74128380D02*
X105552952Y-75128380D01*
X105886285Y-74128380D01*
X106219619Y-74747428D02*
X106981523Y-74747428D01*
X106600571Y-75128380D02*
X106600571Y-74366476D01*
X33847738Y-109561380D02*
X34181071Y-110561380D01*
X34514404Y-109561380D01*
X34847738Y-110180428D02*
X35609642Y-110180428D01*
X35228690Y-110561380D02*
X35228690Y-109799476D01*
X33847738Y-107021380D02*
X34181071Y-108021380D01*
X34514404Y-107021380D01*
X34847738Y-107640428D02*
X35609642Y-107640428D01*
X35228690Y-108021380D02*
X35228690Y-107259476D01*
X33847738Y-101941380D02*
X34181071Y-102941380D01*
X34514404Y-101941380D01*
X34847738Y-102560428D02*
X35609642Y-102560428D01*
X35228690Y-102941380D02*
X35228690Y-102179476D01*
X102679619Y-74128380D02*
X103012952Y-75128380D01*
X103346285Y-74128380D01*
X103679619Y-74747428D02*
X104441523Y-74747428D01*
X104060571Y-75128380D02*
X104060571Y-74366476D01*
X123531380Y-103687380D02*
X123531380Y-103068333D01*
X123912333Y-103401666D01*
X123912333Y-103258809D01*
X123959952Y-103163571D01*
X124007571Y-103115952D01*
X124102809Y-103068333D01*
X124340904Y-103068333D01*
X124436142Y-103115952D01*
X124483761Y-103163571D01*
X124531380Y-103258809D01*
X124531380Y-103544523D01*
X124483761Y-103639761D01*
X124436142Y-103687380D01*
X124436142Y-102639761D02*
X124483761Y-102592142D01*
X124531380Y-102639761D01*
X124483761Y-102687380D01*
X124436142Y-102639761D01*
X124531380Y-102639761D01*
X124531380Y-102115952D02*
X124531380Y-101925476D01*
X124483761Y-101830238D01*
X124436142Y-101782619D01*
X124293285Y-101687380D01*
X124102809Y-101639761D01*
X123721857Y-101639761D01*
X123626619Y-101687380D01*
X123579000Y-101735000D01*
X123531380Y-101830238D01*
X123531380Y-102020714D01*
X123579000Y-102115952D01*
X123626619Y-102163571D01*
X123721857Y-102211190D01*
X123959952Y-102211190D01*
X124055190Y-102163571D01*
X124102809Y-102115952D01*
X124150428Y-102020714D01*
X124150428Y-101830238D01*
X124102809Y-101735000D01*
X124055190Y-101687380D01*
X123959952Y-101639761D01*
X124531380Y-101211190D02*
X123531380Y-101211190D01*
X124150428Y-101115952D02*
X124531380Y-100830238D01*
X123864714Y-100830238D02*
X124245666Y-101211190D01*
D11*
X34528571Y-42390142D02*
X34742857Y-42461571D01*
X35100000Y-42461571D01*
X35242857Y-42390142D01*
X35314285Y-42318714D01*
X35385714Y-42175857D01*
X35385714Y-42033000D01*
X35314285Y-41890142D01*
X35242857Y-41818714D01*
X35100000Y-41747285D01*
X34814285Y-41675857D01*
X34671428Y-41604428D01*
X34600000Y-41533000D01*
X34528571Y-41390142D01*
X34528571Y-41247285D01*
X34600000Y-41104428D01*
X34671428Y-41033000D01*
X34814285Y-40961571D01*
X35171428Y-40961571D01*
X35385714Y-41033000D01*
X36028571Y-42461571D02*
X36028571Y-40961571D01*
X37528571Y-41033000D02*
X37385714Y-40961571D01*
X37171428Y-40961571D01*
X36957142Y-41033000D01*
X36814285Y-41175857D01*
X36742857Y-41318714D01*
X36671428Y-41604428D01*
X36671428Y-41818714D01*
X36742857Y-42104428D01*
X36814285Y-42247285D01*
X36957142Y-42390142D01*
X37171428Y-42461571D01*
X37314285Y-42461571D01*
X37528571Y-42390142D01*
X37600000Y-42318714D01*
X37600000Y-41818714D01*
X37314285Y-41818714D01*
X38242857Y-42461571D02*
X38242857Y-40961571D01*
X39100000Y-42461571D01*
X39100000Y-40961571D01*
X39742857Y-42033000D02*
X40457142Y-42033000D01*
X39600000Y-42461571D02*
X40100000Y-40961571D01*
X40600000Y-42461571D01*
X41814285Y-42461571D02*
X41100000Y-42461571D01*
X41100000Y-40961571D01*
D10*
X120920095Y-74747428D02*
X121682000Y-74747428D01*
X121301047Y-75128380D02*
X121301047Y-74366476D01*
X122682000Y-75128380D02*
X122110571Y-75128380D01*
X122396285Y-75128380D02*
X122396285Y-74128380D01*
X122301047Y-74271238D01*
X122205809Y-74366476D01*
X122110571Y-74414095D01*
X123062952Y-74223619D02*
X123110571Y-74176000D01*
X123205809Y-74128380D01*
X123443904Y-74128380D01*
X123539142Y-74176000D01*
X123586761Y-74223619D01*
X123634380Y-74318857D01*
X123634380Y-74414095D01*
X123586761Y-74556952D01*
X123015333Y-75128380D01*
X123634380Y-75128380D01*
X123920095Y-74128380D02*
X124253428Y-75128380D01*
X124586761Y-74128380D01*
D11*
X49260571Y-39977142D02*
X49474857Y-40048571D01*
X49832000Y-40048571D01*
X49974857Y-39977142D01*
X50046285Y-39905714D01*
X50117714Y-39762857D01*
X50117714Y-39620000D01*
X50046285Y-39477142D01*
X49974857Y-39405714D01*
X49832000Y-39334285D01*
X49546285Y-39262857D01*
X49403428Y-39191428D01*
X49332000Y-39120000D01*
X49260571Y-38977142D01*
X49260571Y-38834285D01*
X49332000Y-38691428D01*
X49403428Y-38620000D01*
X49546285Y-38548571D01*
X49903428Y-38548571D01*
X50117714Y-38620000D01*
X50760571Y-40048571D02*
X50760571Y-38548571D01*
X52260571Y-38620000D02*
X52117714Y-38548571D01*
X51903428Y-38548571D01*
X51689142Y-38620000D01*
X51546285Y-38762857D01*
X51474857Y-38905714D01*
X51403428Y-39191428D01*
X51403428Y-39405714D01*
X51474857Y-39691428D01*
X51546285Y-39834285D01*
X51689142Y-39977142D01*
X51903428Y-40048571D01*
X52046285Y-40048571D01*
X52260571Y-39977142D01*
X52332000Y-39905714D01*
X52332000Y-39405714D01*
X52046285Y-39405714D01*
X52974857Y-40048571D02*
X52974857Y-38548571D01*
X53832000Y-40048571D01*
X53832000Y-38548571D01*
X54474857Y-39620000D02*
X55189142Y-39620000D01*
X54332000Y-40048571D02*
X54832000Y-38548571D01*
X55332000Y-40048571D01*
X56546285Y-40048571D02*
X55832000Y-40048571D01*
X55832000Y-38548571D01*
D10*
X114847761Y-81732380D02*
X114276333Y-81732380D01*
X114562047Y-81732380D02*
X114562047Y-80732380D01*
X114466809Y-80875238D01*
X114371571Y-80970476D01*
X114276333Y-81018095D01*
X115466809Y-80732380D02*
X115562047Y-80732380D01*
X115657285Y-80780000D01*
X115704904Y-80827619D01*
X115752523Y-80922857D01*
X115800142Y-81113333D01*
X115800142Y-81351428D01*
X115752523Y-81541904D01*
X115704904Y-81637142D01*
X115657285Y-81684761D01*
X115562047Y-81732380D01*
X115466809Y-81732380D01*
X115371571Y-81684761D01*
X115323952Y-81637142D01*
X115276333Y-81541904D01*
X115228714Y-81351428D01*
X115228714Y-81113333D01*
X115276333Y-80922857D01*
X115323952Y-80827619D01*
X115371571Y-80780000D01*
X115466809Y-80732380D01*
X116228714Y-81732380D02*
X116228714Y-80732380D01*
X116323952Y-81351428D02*
X116609666Y-81732380D01*
X116609666Y-81065714D02*
X116228714Y-81446666D01*
D11*
X35433142Y-46240000D02*
X35290285Y-46168571D01*
X35076000Y-46168571D01*
X34861714Y-46240000D01*
X34718857Y-46382857D01*
X34647428Y-46525714D01*
X34576000Y-46811428D01*
X34576000Y-47025714D01*
X34647428Y-47311428D01*
X34718857Y-47454285D01*
X34861714Y-47597142D01*
X35076000Y-47668571D01*
X35218857Y-47668571D01*
X35433142Y-47597142D01*
X35504571Y-47525714D01*
X35504571Y-47025714D01*
X35218857Y-47025714D01*
X36147428Y-47668571D02*
X36147428Y-46168571D01*
X37004571Y-47668571D01*
X37004571Y-46168571D01*
X37718857Y-47668571D02*
X37718857Y-46168571D01*
X38076000Y-46168571D01*
X38290285Y-46240000D01*
X38433142Y-46382857D01*
X38504571Y-46525714D01*
X38576000Y-46811428D01*
X38576000Y-47025714D01*
X38504571Y-47311428D01*
X38433142Y-47454285D01*
X38290285Y-47597142D01*
X38076000Y-47668571D01*
X37718857Y-47668571D01*
D10*
X107846904Y-75128380D02*
X107846904Y-74128380D01*
X108085000Y-74128380D01*
X108227857Y-74176000D01*
X108323095Y-74271238D01*
X108370714Y-74366476D01*
X108418333Y-74556952D01*
X108418333Y-74699809D01*
X108370714Y-74890285D01*
X108323095Y-74985523D01*
X108227857Y-75080761D01*
X108085000Y-75128380D01*
X107846904Y-75128380D01*
X109275476Y-74461714D02*
X109275476Y-75128380D01*
X109037380Y-74080761D02*
X108799285Y-74795047D01*
X109418333Y-74795047D01*
X34387404Y-86749000D02*
X34292166Y-86701380D01*
X34149309Y-86701380D01*
X34006452Y-86749000D01*
X33911214Y-86844238D01*
X33863595Y-86939476D01*
X33815976Y-87129952D01*
X33815976Y-87272809D01*
X33863595Y-87463285D01*
X33911214Y-87558523D01*
X34006452Y-87653761D01*
X34149309Y-87701380D01*
X34244547Y-87701380D01*
X34387404Y-87653761D01*
X34435023Y-87606142D01*
X34435023Y-87272809D01*
X34244547Y-87272809D01*
X34863595Y-87701380D02*
X34863595Y-86701380D01*
X35435023Y-87701380D01*
X35435023Y-86701380D01*
X35911214Y-87701380D02*
X35911214Y-86701380D01*
X36149309Y-86701380D01*
X36292166Y-86749000D01*
X36387404Y-86844238D01*
X36435023Y-86939476D01*
X36482642Y-87129952D01*
X36482642Y-87272809D01*
X36435023Y-87463285D01*
X36387404Y-87558523D01*
X36292166Y-87653761D01*
X36149309Y-87701380D01*
X35911214Y-87701380D01*
X123404380Y-120125904D02*
X123404380Y-120316380D01*
X123452000Y-120411619D01*
X123499619Y-120459238D01*
X123642476Y-120554476D01*
X123832952Y-120602095D01*
X124213904Y-120602095D01*
X124309142Y-120554476D01*
X124356761Y-120506857D01*
X124404380Y-120411619D01*
X124404380Y-120221142D01*
X124356761Y-120125904D01*
X124309142Y-120078285D01*
X124213904Y-120030666D01*
X123975809Y-120030666D01*
X123880571Y-120078285D01*
X123832952Y-120125904D01*
X123785333Y-120221142D01*
X123785333Y-120411619D01*
X123832952Y-120506857D01*
X123880571Y-120554476D01*
X123975809Y-120602095D01*
X124404380Y-119602095D02*
X123404380Y-119602095D01*
X124404380Y-119030666D01*
X123404380Y-119030666D01*
X124404380Y-118030666D02*
X124404380Y-118602095D01*
X124404380Y-118316380D02*
X123404380Y-118316380D01*
X123547238Y-118411619D01*
X123642476Y-118506857D01*
X123690095Y-118602095D01*
X123404380Y-117697333D02*
X123404380Y-117078285D01*
X123785333Y-117411619D01*
X123785333Y-117268761D01*
X123832952Y-117173523D01*
X123880571Y-117125904D01*
X123975809Y-117078285D01*
X124213904Y-117078285D01*
X124309142Y-117125904D01*
X124356761Y-117173523D01*
X124404380Y-117268761D01*
X124404380Y-117554476D01*
X124356761Y-117649714D01*
X124309142Y-117697333D01*
X123404380Y-116744952D02*
X123404380Y-116078285D01*
X124404380Y-116506857D01*
D11*
X52300428Y-36810142D02*
X53443285Y-36810142D01*
X52871857Y-37381571D02*
X52871857Y-36238714D01*
X54871857Y-35881571D02*
X54157571Y-35881571D01*
X54086142Y-36595857D01*
X54157571Y-36524428D01*
X54300428Y-36453000D01*
X54657571Y-36453000D01*
X54800428Y-36524428D01*
X54871857Y-36595857D01*
X54943285Y-36738714D01*
X54943285Y-37095857D01*
X54871857Y-37238714D01*
X54800428Y-37310142D01*
X54657571Y-37381571D01*
X54300428Y-37381571D01*
X54157571Y-37310142D01*
X54086142Y-37238714D01*
X55371857Y-35881571D02*
X55871857Y-37381571D01*
X56371857Y-35881571D01*
D10*
X34387404Y-96909000D02*
X34292166Y-96861380D01*
X34149309Y-96861380D01*
X34006452Y-96909000D01*
X33911214Y-97004238D01*
X33863595Y-97099476D01*
X33815976Y-97289952D01*
X33815976Y-97432809D01*
X33863595Y-97623285D01*
X33911214Y-97718523D01*
X34006452Y-97813761D01*
X34149309Y-97861380D01*
X34244547Y-97861380D01*
X34387404Y-97813761D01*
X34435023Y-97766142D01*
X34435023Y-97432809D01*
X34244547Y-97432809D01*
X34863595Y-97861380D02*
X34863595Y-96861380D01*
X35435023Y-97861380D01*
X35435023Y-96861380D01*
X35911214Y-97861380D02*
X35911214Y-96861380D01*
X36149309Y-96861380D01*
X36292166Y-96909000D01*
X36387404Y-97004238D01*
X36435023Y-97099476D01*
X36482642Y-97289952D01*
X36482642Y-97432809D01*
X36435023Y-97623285D01*
X36387404Y-97718523D01*
X36292166Y-97813761D01*
X36149309Y-97861380D01*
X35911214Y-97861380D01*
X33863595Y-94940428D02*
X34625500Y-94940428D01*
X34244547Y-95321380D02*
X34244547Y-94559476D01*
X35577880Y-94321380D02*
X35101690Y-94321380D01*
X35054071Y-94797571D01*
X35101690Y-94749952D01*
X35196928Y-94702333D01*
X35435023Y-94702333D01*
X35530261Y-94749952D01*
X35577880Y-94797571D01*
X35625500Y-94892809D01*
X35625500Y-95130904D01*
X35577880Y-95226142D01*
X35530261Y-95273761D01*
X35435023Y-95321380D01*
X35196928Y-95321380D01*
X35101690Y-95273761D01*
X35054071Y-95226142D01*
X35911214Y-94321380D02*
X36244547Y-95321380D01*
X36577880Y-94321380D01*
X115466904Y-75128380D02*
X115466904Y-74128380D01*
X115705000Y-74128380D01*
X115847857Y-74176000D01*
X115943095Y-74271238D01*
X115990714Y-74366476D01*
X116038333Y-74556952D01*
X116038333Y-74699809D01*
X115990714Y-74890285D01*
X115943095Y-74985523D01*
X115847857Y-75080761D01*
X115705000Y-75128380D01*
X115466904Y-75128380D01*
X116371666Y-74128380D02*
X117038333Y-74128380D01*
X116609761Y-75128380D01*
X33863595Y-118181380D02*
X33863595Y-117181380D01*
X34101690Y-117181380D01*
X34244547Y-117229000D01*
X34339785Y-117324238D01*
X34387404Y-117419476D01*
X34435023Y-117609952D01*
X34435023Y-117752809D01*
X34387404Y-117943285D01*
X34339785Y-118038523D01*
X34244547Y-118133761D01*
X34101690Y-118181380D01*
X33863595Y-118181380D01*
X35387404Y-118181380D02*
X34815976Y-118181380D01*
X35101690Y-118181380D02*
X35101690Y-117181380D01*
X35006452Y-117324238D01*
X34911214Y-117419476D01*
X34815976Y-117467095D01*
X36339785Y-118181380D02*
X35768357Y-118181380D01*
X36054071Y-118181380D02*
X36054071Y-117181380D01*
X35958833Y-117324238D01*
X35863595Y-117419476D01*
X35768357Y-117467095D01*
X109386666Y-113227428D02*
X109386666Y-112751238D01*
X109672380Y-113322666D02*
X108672380Y-112989333D01*
X109672380Y-112656000D01*
X109672380Y-111751238D02*
X109196190Y-112084571D01*
X109672380Y-112322666D02*
X108672380Y-112322666D01*
X108672380Y-111941714D01*
X108720000Y-111846476D01*
X108767619Y-111798857D01*
X108862857Y-111751238D01*
X109005714Y-111751238D01*
X109100952Y-111798857D01*
X109148571Y-111846476D01*
X109196190Y-111941714D01*
X109196190Y-112322666D01*
X109672380Y-111322666D02*
X108672380Y-111322666D01*
X108672380Y-111084571D01*
X108720000Y-110941714D01*
X108815238Y-110846476D01*
X108910476Y-110798857D01*
X109100952Y-110751238D01*
X109243809Y-110751238D01*
X109434285Y-110798857D01*
X109529523Y-110846476D01*
X109624761Y-110941714D01*
X109672380Y-111084571D01*
X109672380Y-111322666D01*
X108672380Y-110322666D02*
X109481904Y-110322666D01*
X109577142Y-110275047D01*
X109624761Y-110227428D01*
X109672380Y-110132190D01*
X109672380Y-109941714D01*
X109624761Y-109846476D01*
X109577142Y-109798857D01*
X109481904Y-109751238D01*
X108672380Y-109751238D01*
X109672380Y-109275047D02*
X108672380Y-109275047D01*
X109672380Y-108798857D02*
X108672380Y-108798857D01*
X109672380Y-108227428D01*
X108672380Y-108227428D01*
X108672380Y-107560761D02*
X108672380Y-107370285D01*
X108720000Y-107275047D01*
X108815238Y-107179809D01*
X109005714Y-107132190D01*
X109339047Y-107132190D01*
X109529523Y-107179809D01*
X109624761Y-107275047D01*
X109672380Y-107370285D01*
X109672380Y-107560761D01*
X109624761Y-107656000D01*
X109529523Y-107751238D01*
X109339047Y-107798857D01*
X109005714Y-107798857D01*
X108815238Y-107751238D01*
X108720000Y-107656000D01*
X108672380Y-107560761D01*
X109672380Y-105941714D02*
X108672380Y-105941714D01*
X109672380Y-105370285D01*
X108672380Y-105370285D01*
X109386666Y-104941714D02*
X109386666Y-104465523D01*
X109672380Y-105036952D02*
X108672380Y-104703619D01*
X109672380Y-104370285D01*
X109672380Y-104036952D02*
X108672380Y-104036952D01*
X109672380Y-103465523D01*
X108672380Y-103465523D01*
X108672380Y-102798857D02*
X108672380Y-102608380D01*
X108720000Y-102513142D01*
X108815238Y-102417904D01*
X109005714Y-102370285D01*
X109339047Y-102370285D01*
X109529523Y-102417904D01*
X109624761Y-102513142D01*
X109672380Y-102608380D01*
X109672380Y-102798857D01*
X109624761Y-102894095D01*
X109529523Y-102989333D01*
X109339047Y-103036952D01*
X109005714Y-103036952D01*
X108815238Y-102989333D01*
X108720000Y-102894095D01*
X108672380Y-102798857D01*
X109148571Y-101179809D02*
X109148571Y-100846476D01*
X109672380Y-100703619D02*
X109672380Y-101179809D01*
X108672380Y-101179809D01*
X108672380Y-100703619D01*
X108672380Y-100417904D02*
X109672380Y-100084571D01*
X108672380Y-99751238D01*
X109148571Y-99417904D02*
X109148571Y-99084571D01*
X109672380Y-98941714D02*
X109672380Y-99417904D01*
X108672380Y-99417904D01*
X108672380Y-98941714D01*
X109672380Y-97941714D02*
X109196190Y-98275047D01*
X109672380Y-98513142D02*
X108672380Y-98513142D01*
X108672380Y-98132190D01*
X108720000Y-98036952D01*
X108767619Y-97989333D01*
X108862857Y-97941714D01*
X109005714Y-97941714D01*
X109100952Y-97989333D01*
X109148571Y-98036952D01*
X109196190Y-98132190D01*
X109196190Y-98513142D01*
X109196190Y-97322666D02*
X109672380Y-97322666D01*
X108672380Y-97656000D02*
X109196190Y-97322666D01*
X108672380Y-96989333D01*
%TO.C,J2*%
X126849491Y-51847555D02*
X126849491Y-52561841D01*
X126801872Y-52704698D01*
X126706634Y-52799936D01*
X126563777Y-52847555D01*
X126468539Y-52847555D01*
X127278063Y-51942794D02*
X127325682Y-51895175D01*
X127420920Y-51847555D01*
X127659015Y-51847555D01*
X127754253Y-51895175D01*
X127801872Y-51942794D01*
X127849491Y-52038032D01*
X127849491Y-52133270D01*
X127801872Y-52276127D01*
X127230444Y-52847555D01*
X127849491Y-52847555D01*
X92257166Y-51847555D02*
X92257166Y-52561841D01*
X92209547Y-52704698D01*
X92114309Y-52799936D01*
X91971452Y-52847555D01*
X91876214Y-52847555D01*
X92685738Y-51942794D02*
X92733357Y-51895175D01*
X92828595Y-51847555D01*
X93066690Y-51847555D01*
X93161928Y-51895175D01*
X93209547Y-51942794D01*
X93257166Y-52038032D01*
X93257166Y-52133270D01*
X93209547Y-52276127D01*
X92638119Y-52847555D01*
X93257166Y-52847555D01*
%TO.C,C2*%
X113935158Y-59229317D02*
X113887539Y-59276936D01*
X113744682Y-59324555D01*
X113649444Y-59324555D01*
X113506586Y-59276936D01*
X113411348Y-59181698D01*
X113363729Y-59086460D01*
X113316110Y-58895984D01*
X113316110Y-58753127D01*
X113363729Y-58562651D01*
X113411348Y-58467413D01*
X113506586Y-58372175D01*
X113649444Y-58324555D01*
X113744682Y-58324555D01*
X113887539Y-58372175D01*
X113935158Y-58419794D01*
X114316110Y-58419794D02*
X114363729Y-58372175D01*
X114458967Y-58324555D01*
X114697063Y-58324555D01*
X114792301Y-58372175D01*
X114839920Y-58419794D01*
X114887539Y-58515032D01*
X114887539Y-58610270D01*
X114839920Y-58753127D01*
X114268491Y-59324555D01*
X114887539Y-59324555D01*
%TO.C,R1*%
X113173158Y-52667555D02*
X112839825Y-52191365D01*
X112601729Y-52667555D02*
X112601729Y-51667555D01*
X112982682Y-51667555D01*
X113077920Y-51715175D01*
X113125539Y-51762794D01*
X113173158Y-51858032D01*
X113173158Y-52000889D01*
X113125539Y-52096127D01*
X113077920Y-52143746D01*
X112982682Y-52191365D01*
X112601729Y-52191365D01*
X114125539Y-52667555D02*
X113554110Y-52667555D01*
X113839825Y-52667555D02*
X113839825Y-51667555D01*
X113744586Y-51810413D01*
X113649348Y-51905651D01*
X113554110Y-51953270D01*
%TO.C,H1*%
X125857095Y-63698380D02*
X125857095Y-62698380D01*
X125857095Y-63174571D02*
X126428523Y-63174571D01*
X126428523Y-63698380D02*
X126428523Y-62698380D01*
X127428523Y-63698380D02*
X126857095Y-63698380D01*
X127142809Y-63698380D02*
X127142809Y-62698380D01*
X127047571Y-62841238D01*
X126952333Y-62936476D01*
X126857095Y-62984095D01*
%TO.C,H2*%
X101401920Y-52776555D02*
X101401920Y-51776555D01*
X101401920Y-52252746D02*
X101973348Y-52252746D01*
X101973348Y-52776555D02*
X101973348Y-51776555D01*
X102401920Y-51871794D02*
X102449539Y-51824175D01*
X102544777Y-51776555D01*
X102782872Y-51776555D01*
X102878110Y-51824175D01*
X102925729Y-51871794D01*
X102973348Y-51967032D01*
X102973348Y-52062270D01*
X102925729Y-52205127D01*
X102354301Y-52776555D01*
X102973348Y-52776555D01*
%TO.C,C1*%
X120158158Y-65833317D02*
X120110539Y-65880936D01*
X119967682Y-65928555D01*
X119872444Y-65928555D01*
X119729586Y-65880936D01*
X119634348Y-65785698D01*
X119586729Y-65690460D01*
X119539110Y-65499984D01*
X119539110Y-65357127D01*
X119586729Y-65166651D01*
X119634348Y-65071413D01*
X119729586Y-64976175D01*
X119872444Y-64928555D01*
X119967682Y-64928555D01*
X120110539Y-64976175D01*
X120158158Y-65023794D01*
X121110539Y-65928555D02*
X120539110Y-65928555D01*
X120824825Y-65928555D02*
X120824825Y-64928555D01*
X120729586Y-65071413D01*
X120634348Y-65166651D01*
X120539110Y-65214270D01*
%TO.C,J1*%
X66349166Y-59804555D02*
X66349166Y-60518841D01*
X66301547Y-60661698D01*
X66206309Y-60756936D01*
X66063452Y-60804555D01*
X65968214Y-60804555D01*
X67349166Y-60804555D02*
X66777738Y-60804555D01*
X67063452Y-60804555D02*
X67063452Y-59804555D01*
X66968214Y-59947413D01*
X66872976Y-60042651D01*
X66777738Y-60090270D01*
%TO.C,C2*%
X79342833Y-59229317D02*
X79295214Y-59276936D01*
X79152357Y-59324555D01*
X79057119Y-59324555D01*
X78914261Y-59276936D01*
X78819023Y-59181698D01*
X78771404Y-59086460D01*
X78723785Y-58895984D01*
X78723785Y-58753127D01*
X78771404Y-58562651D01*
X78819023Y-58467413D01*
X78914261Y-58372175D01*
X79057119Y-58324555D01*
X79152357Y-58324555D01*
X79295214Y-58372175D01*
X79342833Y-58419794D01*
X79723785Y-58419794D02*
X79771404Y-58372175D01*
X79866642Y-58324555D01*
X80104738Y-58324555D01*
X80199976Y-58372175D01*
X80247595Y-58419794D01*
X80295214Y-58515032D01*
X80295214Y-58610270D01*
X80247595Y-58753127D01*
X79676166Y-59324555D01*
X80295214Y-59324555D01*
%TO.C,H1*%
X91264770Y-63698380D02*
X91264770Y-62698380D01*
X91264770Y-63174571D02*
X91836198Y-63174571D01*
X91836198Y-63698380D02*
X91836198Y-62698380D01*
X92836198Y-63698380D02*
X92264770Y-63698380D01*
X92550484Y-63698380D02*
X92550484Y-62698380D01*
X92455246Y-62841238D01*
X92360008Y-62936476D01*
X92264770Y-62984095D01*
%TO.C,H2*%
X66809595Y-52776555D02*
X66809595Y-51776555D01*
X66809595Y-52252746D02*
X67381023Y-52252746D01*
X67381023Y-52776555D02*
X67381023Y-51776555D01*
X67809595Y-51871794D02*
X67857214Y-51824175D01*
X67952452Y-51776555D01*
X68190547Y-51776555D01*
X68285785Y-51824175D01*
X68333404Y-51871794D01*
X68381023Y-51967032D01*
X68381023Y-52062270D01*
X68333404Y-52205127D01*
X67761976Y-52776555D01*
X68381023Y-52776555D01*
%TO.C,R1*%
X78580833Y-52667555D02*
X78247500Y-52191365D01*
X78009404Y-52667555D02*
X78009404Y-51667555D01*
X78390357Y-51667555D01*
X78485595Y-51715175D01*
X78533214Y-51762794D01*
X78580833Y-51858032D01*
X78580833Y-52000889D01*
X78533214Y-52096127D01*
X78485595Y-52143746D01*
X78390357Y-52191365D01*
X78009404Y-52191365D01*
X79533214Y-52667555D02*
X78961785Y-52667555D01*
X79247500Y-52667555D02*
X79247500Y-51667555D01*
X79152261Y-51810413D01*
X79057023Y-51905651D01*
X78961785Y-51953270D01*
%TO.C,J1*%
X100941491Y-59804555D02*
X100941491Y-60518841D01*
X100893872Y-60661698D01*
X100798634Y-60756936D01*
X100655777Y-60804555D01*
X100560539Y-60804555D01*
X101941491Y-60804555D02*
X101370063Y-60804555D01*
X101655777Y-60804555D02*
X101655777Y-59804555D01*
X101560539Y-59947413D01*
X101465301Y-60042651D01*
X101370063Y-60090270D01*
%TO.C,H2*%
X32766095Y-52705380D02*
X32766095Y-51705380D01*
X32766095Y-52181571D02*
X33337523Y-52181571D01*
X33337523Y-52705380D02*
X33337523Y-51705380D01*
X33766095Y-51800619D02*
X33813714Y-51753000D01*
X33908952Y-51705380D01*
X34147047Y-51705380D01*
X34242285Y-51753000D01*
X34289904Y-51800619D01*
X34337523Y-51895857D01*
X34337523Y-51991095D01*
X34289904Y-52133952D01*
X33718476Y-52705380D01*
X34337523Y-52705380D01*
%TO.C,J2*%
X58213666Y-51776380D02*
X58213666Y-52490666D01*
X58166047Y-52633523D01*
X58070809Y-52728761D01*
X57927952Y-52776380D01*
X57832714Y-52776380D01*
X58642238Y-51871619D02*
X58689857Y-51824000D01*
X58785095Y-51776380D01*
X59023190Y-51776380D01*
X59118428Y-51824000D01*
X59166047Y-51871619D01*
X59213666Y-51966857D01*
X59213666Y-52062095D01*
X59166047Y-52204952D01*
X58594619Y-52776380D01*
X59213666Y-52776380D01*
%TO.C,C1*%
X51522333Y-65762142D02*
X51474714Y-65809761D01*
X51331857Y-65857380D01*
X51236619Y-65857380D01*
X51093761Y-65809761D01*
X50998523Y-65714523D01*
X50950904Y-65619285D01*
X50903285Y-65428809D01*
X50903285Y-65285952D01*
X50950904Y-65095476D01*
X50998523Y-65000238D01*
X51093761Y-64905000D01*
X51236619Y-64857380D01*
X51331857Y-64857380D01*
X51474714Y-64905000D01*
X51522333Y-64952619D01*
X52474714Y-65857380D02*
X51903285Y-65857380D01*
X52189000Y-65857380D02*
X52189000Y-64857380D01*
X52093761Y-65000238D01*
X51998523Y-65095476D01*
X51903285Y-65143095D01*
%TO.C,C2*%
X45299333Y-59158142D02*
X45251714Y-59205761D01*
X45108857Y-59253380D01*
X45013619Y-59253380D01*
X44870761Y-59205761D01*
X44775523Y-59110523D01*
X44727904Y-59015285D01*
X44680285Y-58824809D01*
X44680285Y-58681952D01*
X44727904Y-58491476D01*
X44775523Y-58396238D01*
X44870761Y-58301000D01*
X45013619Y-58253380D01*
X45108857Y-58253380D01*
X45251714Y-58301000D01*
X45299333Y-58348619D01*
X45680285Y-58348619D02*
X45727904Y-58301000D01*
X45823142Y-58253380D01*
X46061238Y-58253380D01*
X46156476Y-58301000D01*
X46204095Y-58348619D01*
X46251714Y-58443857D01*
X46251714Y-58539095D01*
X46204095Y-58681952D01*
X45632666Y-59253380D01*
X46251714Y-59253380D01*
%TO.C,H1*%
X57221270Y-63627205D02*
X57221270Y-62627205D01*
X57221270Y-63103396D02*
X57792698Y-63103396D01*
X57792698Y-63627205D02*
X57792698Y-62627205D01*
X58792698Y-63627205D02*
X58221270Y-63627205D01*
X58506984Y-63627205D02*
X58506984Y-62627205D01*
X58411746Y-62770063D01*
X58316508Y-62865301D01*
X58221270Y-62912920D01*
%TO.C,R1*%
X44537333Y-52596380D02*
X44204000Y-52120190D01*
X43965904Y-52596380D02*
X43965904Y-51596380D01*
X44346857Y-51596380D01*
X44442095Y-51644000D01*
X44489714Y-51691619D01*
X44537333Y-51786857D01*
X44537333Y-51929714D01*
X44489714Y-52024952D01*
X44442095Y-52072571D01*
X44346857Y-52120190D01*
X43965904Y-52120190D01*
X45489714Y-52596380D02*
X44918285Y-52596380D01*
X45204000Y-52596380D02*
X45204000Y-51596380D01*
X45108761Y-51739238D01*
X45013523Y-51834476D01*
X44918285Y-51882095D01*
%TO.C,J1*%
X32305666Y-59733380D02*
X32305666Y-60447666D01*
X32258047Y-60590523D01*
X32162809Y-60685761D01*
X32019952Y-60733380D01*
X31924714Y-60733380D01*
X33305666Y-60733380D02*
X32734238Y-60733380D01*
X33019952Y-60733380D02*
X33019952Y-59733380D01*
X32924714Y-59876238D01*
X32829476Y-59971476D01*
X32734238Y-60019095D01*
%TO.C,C1*%
X85565833Y-65833317D02*
X85518214Y-65880936D01*
X85375357Y-65928555D01*
X85280119Y-65928555D01*
X85137261Y-65880936D01*
X85042023Y-65785698D01*
X84994404Y-65690460D01*
X84946785Y-65499984D01*
X84946785Y-65357127D01*
X84994404Y-65166651D01*
X85042023Y-65071413D01*
X85137261Y-64976175D01*
X85280119Y-64928555D01*
X85375357Y-64928555D01*
X85518214Y-64976175D01*
X85565833Y-65023794D01*
X86518214Y-65928555D02*
X85946785Y-65928555D01*
X86232500Y-65928555D02*
X86232500Y-64928555D01*
X86137261Y-65071413D01*
X86042023Y-65166651D01*
X85946785Y-65214270D01*
%TO.C,H2*%
X101274920Y-31821555D02*
X101274920Y-30821555D01*
X101274920Y-31297746D02*
X101846348Y-31297746D01*
X101846348Y-31821555D02*
X101846348Y-30821555D01*
X102274920Y-30916794D02*
X102322539Y-30869175D01*
X102417777Y-30821555D01*
X102655872Y-30821555D01*
X102751110Y-30869175D01*
X102798729Y-30916794D01*
X102846348Y-31012032D01*
X102846348Y-31107270D01*
X102798729Y-31250127D01*
X102227301Y-31821555D01*
X102846348Y-31821555D01*
%TO.C,J2*%
X126722491Y-30892555D02*
X126722491Y-31606841D01*
X126674872Y-31749698D01*
X126579634Y-31844936D01*
X126436777Y-31892555D01*
X126341539Y-31892555D01*
X127151063Y-30987794D02*
X127198682Y-30940175D01*
X127293920Y-30892555D01*
X127532015Y-30892555D01*
X127627253Y-30940175D01*
X127674872Y-30987794D01*
X127722491Y-31083032D01*
X127722491Y-31178270D01*
X127674872Y-31321127D01*
X127103444Y-31892555D01*
X127722491Y-31892555D01*
%TO.C,C1*%
X120031158Y-44878317D02*
X119983539Y-44925936D01*
X119840682Y-44973555D01*
X119745444Y-44973555D01*
X119602586Y-44925936D01*
X119507348Y-44830698D01*
X119459729Y-44735460D01*
X119412110Y-44544984D01*
X119412110Y-44402127D01*
X119459729Y-44211651D01*
X119507348Y-44116413D01*
X119602586Y-44021175D01*
X119745444Y-43973555D01*
X119840682Y-43973555D01*
X119983539Y-44021175D01*
X120031158Y-44068794D01*
X120983539Y-44973555D02*
X120412110Y-44973555D01*
X120697825Y-44973555D02*
X120697825Y-43973555D01*
X120602586Y-44116413D01*
X120507348Y-44211651D01*
X120412110Y-44259270D01*
%TO.C,C2*%
X113808158Y-38274317D02*
X113760539Y-38321936D01*
X113617682Y-38369555D01*
X113522444Y-38369555D01*
X113379586Y-38321936D01*
X113284348Y-38226698D01*
X113236729Y-38131460D01*
X113189110Y-37940984D01*
X113189110Y-37798127D01*
X113236729Y-37607651D01*
X113284348Y-37512413D01*
X113379586Y-37417175D01*
X113522444Y-37369555D01*
X113617682Y-37369555D01*
X113760539Y-37417175D01*
X113808158Y-37464794D01*
X114189110Y-37464794D02*
X114236729Y-37417175D01*
X114331967Y-37369555D01*
X114570063Y-37369555D01*
X114665301Y-37417175D01*
X114712920Y-37464794D01*
X114760539Y-37560032D01*
X114760539Y-37655270D01*
X114712920Y-37798127D01*
X114141491Y-38369555D01*
X114760539Y-38369555D01*
%TO.C,H1*%
X125730095Y-42743380D02*
X125730095Y-41743380D01*
X125730095Y-42219571D02*
X126301523Y-42219571D01*
X126301523Y-42743380D02*
X126301523Y-41743380D01*
X127301523Y-42743380D02*
X126730095Y-42743380D01*
X127015809Y-42743380D02*
X127015809Y-41743380D01*
X126920571Y-41886238D01*
X126825333Y-41981476D01*
X126730095Y-42029095D01*
%TO.C,R1*%
X113046158Y-31712555D02*
X112712825Y-31236365D01*
X112474729Y-31712555D02*
X112474729Y-30712555D01*
X112855682Y-30712555D01*
X112950920Y-30760175D01*
X112998539Y-30807794D01*
X113046158Y-30903032D01*
X113046158Y-31045889D01*
X112998539Y-31141127D01*
X112950920Y-31188746D01*
X112855682Y-31236365D01*
X112474729Y-31236365D01*
X113998539Y-31712555D02*
X113427110Y-31712555D01*
X113712825Y-31712555D02*
X113712825Y-30712555D01*
X113617586Y-30855413D01*
X113522348Y-30950651D01*
X113427110Y-30998270D01*
%TO.C,J1*%
X100814491Y-38849555D02*
X100814491Y-39563841D01*
X100766872Y-39706698D01*
X100671634Y-39801936D01*
X100528777Y-39849555D01*
X100433539Y-39849555D01*
X101814491Y-39849555D02*
X101243063Y-39849555D01*
X101528777Y-39849555D02*
X101528777Y-38849555D01*
X101433539Y-38992413D01*
X101338301Y-39087651D01*
X101243063Y-39135270D01*
%TO.C,H2*%
X66682595Y-31821555D02*
X66682595Y-30821555D01*
X66682595Y-31297746D02*
X67254023Y-31297746D01*
X67254023Y-31821555D02*
X67254023Y-30821555D01*
X67682595Y-30916794D02*
X67730214Y-30869175D01*
X67825452Y-30821555D01*
X68063547Y-30821555D01*
X68158785Y-30869175D01*
X68206404Y-30916794D01*
X68254023Y-31012032D01*
X68254023Y-31107270D01*
X68206404Y-31250127D01*
X67634976Y-31821555D01*
X68254023Y-31821555D01*
%TO.C,J2*%
X92130166Y-30892555D02*
X92130166Y-31606841D01*
X92082547Y-31749698D01*
X91987309Y-31844936D01*
X91844452Y-31892555D01*
X91749214Y-31892555D01*
X92558738Y-30987794D02*
X92606357Y-30940175D01*
X92701595Y-30892555D01*
X92939690Y-30892555D01*
X93034928Y-30940175D01*
X93082547Y-30987794D01*
X93130166Y-31083032D01*
X93130166Y-31178270D01*
X93082547Y-31321127D01*
X92511119Y-31892555D01*
X93130166Y-31892555D01*
%TO.C,C1*%
X85438833Y-44878317D02*
X85391214Y-44925936D01*
X85248357Y-44973555D01*
X85153119Y-44973555D01*
X85010261Y-44925936D01*
X84915023Y-44830698D01*
X84867404Y-44735460D01*
X84819785Y-44544984D01*
X84819785Y-44402127D01*
X84867404Y-44211651D01*
X84915023Y-44116413D01*
X85010261Y-44021175D01*
X85153119Y-43973555D01*
X85248357Y-43973555D01*
X85391214Y-44021175D01*
X85438833Y-44068794D01*
X86391214Y-44973555D02*
X85819785Y-44973555D01*
X86105500Y-44973555D02*
X86105500Y-43973555D01*
X86010261Y-44116413D01*
X85915023Y-44211651D01*
X85819785Y-44259270D01*
%TO.C,C2*%
X79215833Y-38274317D02*
X79168214Y-38321936D01*
X79025357Y-38369555D01*
X78930119Y-38369555D01*
X78787261Y-38321936D01*
X78692023Y-38226698D01*
X78644404Y-38131460D01*
X78596785Y-37940984D01*
X78596785Y-37798127D01*
X78644404Y-37607651D01*
X78692023Y-37512413D01*
X78787261Y-37417175D01*
X78930119Y-37369555D01*
X79025357Y-37369555D01*
X79168214Y-37417175D01*
X79215833Y-37464794D01*
X79596785Y-37464794D02*
X79644404Y-37417175D01*
X79739642Y-37369555D01*
X79977738Y-37369555D01*
X80072976Y-37417175D01*
X80120595Y-37464794D01*
X80168214Y-37560032D01*
X80168214Y-37655270D01*
X80120595Y-37798127D01*
X79549166Y-38369555D01*
X80168214Y-38369555D01*
%TO.C,H1*%
X91137770Y-42743380D02*
X91137770Y-41743380D01*
X91137770Y-42219571D02*
X91709198Y-42219571D01*
X91709198Y-42743380D02*
X91709198Y-41743380D01*
X92709198Y-42743380D02*
X92137770Y-42743380D01*
X92423484Y-42743380D02*
X92423484Y-41743380D01*
X92328246Y-41886238D01*
X92233008Y-41981476D01*
X92137770Y-42029095D01*
%TO.C,R1*%
X78453833Y-31712555D02*
X78120500Y-31236365D01*
X77882404Y-31712555D02*
X77882404Y-30712555D01*
X78263357Y-30712555D01*
X78358595Y-30760175D01*
X78406214Y-30807794D01*
X78453833Y-30903032D01*
X78453833Y-31045889D01*
X78406214Y-31141127D01*
X78358595Y-31188746D01*
X78263357Y-31236365D01*
X77882404Y-31236365D01*
X79406214Y-31712555D02*
X78834785Y-31712555D01*
X79120500Y-31712555D02*
X79120500Y-30712555D01*
X79025261Y-30855413D01*
X78930023Y-30950651D01*
X78834785Y-30998270D01*
%TO.C,J1*%
X66222166Y-38849555D02*
X66222166Y-39563841D01*
X66174547Y-39706698D01*
X66079309Y-39801936D01*
X65936452Y-39849555D01*
X65841214Y-39849555D01*
X67222166Y-39849555D02*
X66650738Y-39849555D01*
X66936452Y-39849555D02*
X66936452Y-38849555D01*
X66841214Y-38992413D01*
X66745976Y-39087651D01*
X66650738Y-39135270D01*
%TO.C,U2*%
X52832095Y-118451380D02*
X52832095Y-119260904D01*
X52879714Y-119356142D01*
X52927333Y-119403761D01*
X53022571Y-119451380D01*
X53213047Y-119451380D01*
X53308285Y-119403761D01*
X53355904Y-119356142D01*
X53403523Y-119260904D01*
X53403523Y-118451380D01*
X53832095Y-118546619D02*
X53879714Y-118499000D01*
X53974952Y-118451380D01*
X54213047Y-118451380D01*
X54308285Y-118499000D01*
X54355904Y-118546619D01*
X54403523Y-118641857D01*
X54403523Y-118737095D01*
X54355904Y-118879952D01*
X53784476Y-119451380D01*
X54403523Y-119451380D01*
X57993595Y-109561380D02*
X57993595Y-110370904D01*
X58041214Y-110466142D01*
X58088833Y-110513761D01*
X58184071Y-110561380D01*
X58374547Y-110561380D01*
X58469785Y-110513761D01*
X58517404Y-110466142D01*
X58565023Y-110370904D01*
X58565023Y-109561380D01*
X58993595Y-110513761D02*
X59088833Y-110561380D01*
X59279309Y-110561380D01*
X59374547Y-110513761D01*
X59422166Y-110418523D01*
X59422166Y-110370904D01*
X59374547Y-110275666D01*
X59279309Y-110228047D01*
X59136452Y-110228047D01*
X59041214Y-110180428D01*
X58993595Y-110085190D01*
X58993595Y-110037571D01*
X59041214Y-109942333D01*
X59136452Y-109894714D01*
X59279309Y-109894714D01*
X59374547Y-109942333D01*
X60231690Y-110513761D02*
X60136452Y-110561380D01*
X59945976Y-110561380D01*
X59850738Y-110513761D01*
X59803119Y-110418523D01*
X59803119Y-110037571D01*
X59850738Y-109942333D01*
X59945976Y-109894714D01*
X60136452Y-109894714D01*
X60231690Y-109942333D01*
X60279309Y-110037571D01*
X60279309Y-110132809D01*
X59803119Y-110228047D01*
X62088833Y-109561380D02*
X62422166Y-110561380D01*
X62755500Y-109561380D01*
X63088833Y-110180428D02*
X63850738Y-110180428D01*
X63469785Y-110561380D02*
X63469785Y-109799476D01*
X65707880Y-109894714D02*
X66088833Y-109894714D01*
X65850738Y-110561380D02*
X65850738Y-109704238D01*
X65898357Y-109609000D01*
X65993595Y-109561380D01*
X66088833Y-109561380D01*
X66565023Y-110561380D02*
X66469785Y-110513761D01*
X66422166Y-110466142D01*
X66374547Y-110370904D01*
X66374547Y-110085190D01*
X66422166Y-109989952D01*
X66469785Y-109942333D01*
X66565023Y-109894714D01*
X66707880Y-109894714D01*
X66803119Y-109942333D01*
X66850738Y-109989952D01*
X66898357Y-110085190D01*
X66898357Y-110370904D01*
X66850738Y-110466142D01*
X66803119Y-110513761D01*
X66707880Y-110561380D01*
X66565023Y-110561380D01*
X67326928Y-110561380D02*
X67326928Y-109894714D01*
X67326928Y-110085190D02*
X67374547Y-109989952D01*
X67422166Y-109942333D01*
X67517404Y-109894714D01*
X67612642Y-109894714D01*
X69422166Y-110513761D02*
X69517404Y-110561380D01*
X69707880Y-110561380D01*
X69803119Y-110513761D01*
X69850738Y-110418523D01*
X69850738Y-110370904D01*
X69803119Y-110275666D01*
X69707880Y-110228047D01*
X69565023Y-110228047D01*
X69469785Y-110180428D01*
X69422166Y-110085190D01*
X69422166Y-110037571D01*
X69469785Y-109942333D01*
X69565023Y-109894714D01*
X69707880Y-109894714D01*
X69803119Y-109942333D01*
X70660261Y-110513761D02*
X70565023Y-110561380D01*
X70374547Y-110561380D01*
X70279309Y-110513761D01*
X70231690Y-110418523D01*
X70231690Y-110037571D01*
X70279309Y-109942333D01*
X70374547Y-109894714D01*
X70565023Y-109894714D01*
X70660261Y-109942333D01*
X70707880Y-110037571D01*
X70707880Y-110132809D01*
X70231690Y-110228047D01*
X71136452Y-110561380D02*
X71136452Y-109894714D01*
X71136452Y-110085190D02*
X71184071Y-109989952D01*
X71231690Y-109942333D01*
X71326928Y-109894714D01*
X71422166Y-109894714D01*
X71660261Y-109894714D02*
X71898357Y-110561380D01*
X72136452Y-109894714D01*
X72660261Y-110561380D02*
X72565023Y-110513761D01*
X72517404Y-110466142D01*
X72469785Y-110370904D01*
X72469785Y-110085190D01*
X72517404Y-109989952D01*
X72565023Y-109942333D01*
X72660261Y-109894714D01*
X72803119Y-109894714D01*
X72898357Y-109942333D01*
X72945976Y-109989952D01*
X72993595Y-110085190D01*
X72993595Y-110370904D01*
X72945976Y-110466142D01*
X72898357Y-110513761D01*
X72803119Y-110561380D01*
X72660261Y-110561380D01*
X74898357Y-110513761D02*
X74993595Y-110561380D01*
X75184071Y-110561380D01*
X75279309Y-110513761D01*
X75326928Y-110418523D01*
X75326928Y-110370904D01*
X75279309Y-110275666D01*
X75184071Y-110228047D01*
X75041214Y-110228047D01*
X74945976Y-110180428D01*
X74898357Y-110085190D01*
X74898357Y-110037571D01*
X74945976Y-109942333D01*
X75041214Y-109894714D01*
X75184071Y-109894714D01*
X75279309Y-109942333D01*
X76184071Y-109894714D02*
X76184071Y-110561380D01*
X75755500Y-109894714D02*
X75755500Y-110418523D01*
X75803119Y-110513761D01*
X75898357Y-110561380D01*
X76041214Y-110561380D01*
X76136452Y-110513761D01*
X76184071Y-110466142D01*
X76660261Y-109894714D02*
X76660261Y-110894714D01*
X76660261Y-109942333D02*
X76755500Y-109894714D01*
X76945976Y-109894714D01*
X77041214Y-109942333D01*
X77088833Y-109989952D01*
X77136452Y-110085190D01*
X77136452Y-110370904D01*
X77088833Y-110466142D01*
X77041214Y-110513761D01*
X76945976Y-110561380D01*
X76755500Y-110561380D01*
X76660261Y-110513761D01*
X77565023Y-109894714D02*
X77565023Y-110894714D01*
X77565023Y-109942333D02*
X77660261Y-109894714D01*
X77850738Y-109894714D01*
X77945976Y-109942333D01*
X77993595Y-109989952D01*
X78041214Y-110085190D01*
X78041214Y-110370904D01*
X77993595Y-110466142D01*
X77945976Y-110513761D01*
X77850738Y-110561380D01*
X77660261Y-110561380D01*
X77565023Y-110513761D01*
X78612642Y-110561380D02*
X78517404Y-110513761D01*
X78469785Y-110418523D01*
X78469785Y-109561380D01*
X78898357Y-109894714D02*
X79136452Y-110561380D01*
X79374547Y-109894714D02*
X79136452Y-110561380D01*
X79041214Y-110799476D01*
X78993595Y-110847095D01*
X78898357Y-110894714D01*
X58453928Y-114101571D02*
X58120595Y-114101571D01*
X58120595Y-114625380D02*
X58120595Y-113625380D01*
X58596785Y-113625380D01*
X58977738Y-114625380D02*
X58977738Y-113958714D01*
X58977738Y-114149190D02*
X59025357Y-114053952D01*
X59072976Y-114006333D01*
X59168214Y-113958714D01*
X59263452Y-113958714D01*
X59977738Y-114577761D02*
X59882500Y-114625380D01*
X59692023Y-114625380D01*
X59596785Y-114577761D01*
X59549166Y-114482523D01*
X59549166Y-114101571D01*
X59596785Y-114006333D01*
X59692023Y-113958714D01*
X59882500Y-113958714D01*
X59977738Y-114006333D01*
X60025357Y-114101571D01*
X60025357Y-114196809D01*
X59549166Y-114292047D01*
X60882500Y-113958714D02*
X60882500Y-114958714D01*
X60882500Y-114577761D02*
X60787261Y-114625380D01*
X60596785Y-114625380D01*
X60501547Y-114577761D01*
X60453928Y-114530142D01*
X60406309Y-114434904D01*
X60406309Y-114149190D01*
X60453928Y-114053952D01*
X60501547Y-114006333D01*
X60596785Y-113958714D01*
X60787261Y-113958714D01*
X60882500Y-114006333D01*
X61358690Y-114530142D02*
X61406309Y-114577761D01*
X61358690Y-114625380D01*
X61311071Y-114577761D01*
X61358690Y-114530142D01*
X61358690Y-114625380D01*
X61358690Y-114006333D02*
X61406309Y-114053952D01*
X61358690Y-114101571D01*
X61311071Y-114053952D01*
X61358690Y-114006333D01*
X61358690Y-114101571D01*
X64549166Y-113958714D02*
X64549166Y-114625380D01*
X64311071Y-113577761D02*
X64072976Y-114292047D01*
X64692023Y-114292047D01*
X65263452Y-113625380D02*
X65358690Y-113625380D01*
X65453928Y-113673000D01*
X65501547Y-113720619D01*
X65549166Y-113815857D01*
X65596785Y-114006333D01*
X65596785Y-114244428D01*
X65549166Y-114434904D01*
X65501547Y-114530142D01*
X65453928Y-114577761D01*
X65358690Y-114625380D01*
X65263452Y-114625380D01*
X65168214Y-114577761D01*
X65120595Y-114530142D01*
X65072976Y-114434904D01*
X65025357Y-114244428D01*
X65025357Y-114006333D01*
X65072976Y-113815857D01*
X65120595Y-113720619D01*
X65168214Y-113673000D01*
X65263452Y-113625380D01*
X66025357Y-114244428D02*
X66787261Y-114244428D01*
X67787261Y-114625380D02*
X67215833Y-114625380D01*
X67501547Y-114625380D02*
X67501547Y-113625380D01*
X67406309Y-113768238D01*
X67311071Y-113863476D01*
X67215833Y-113911095D01*
X68406309Y-113625380D02*
X68501547Y-113625380D01*
X68596785Y-113673000D01*
X68644404Y-113720619D01*
X68692023Y-113815857D01*
X68739642Y-114006333D01*
X68739642Y-114244428D01*
X68692023Y-114434904D01*
X68644404Y-114530142D01*
X68596785Y-114577761D01*
X68501547Y-114625380D01*
X68406309Y-114625380D01*
X68311071Y-114577761D01*
X68263452Y-114530142D01*
X68215833Y-114434904D01*
X68168214Y-114244428D01*
X68168214Y-114006333D01*
X68215833Y-113815857D01*
X68263452Y-113720619D01*
X68311071Y-113673000D01*
X68406309Y-113625380D01*
X69358690Y-113625380D02*
X69453928Y-113625380D01*
X69549166Y-113673000D01*
X69596785Y-113720619D01*
X69644404Y-113815857D01*
X69692023Y-114006333D01*
X69692023Y-114244428D01*
X69644404Y-114434904D01*
X69596785Y-114530142D01*
X69549166Y-114577761D01*
X69453928Y-114625380D01*
X69358690Y-114625380D01*
X69263452Y-114577761D01*
X69215833Y-114530142D01*
X69168214Y-114434904D01*
X69120595Y-114244428D01*
X69120595Y-114006333D01*
X69168214Y-113815857D01*
X69215833Y-113720619D01*
X69263452Y-113673000D01*
X69358690Y-113625380D01*
X70311071Y-113625380D02*
X70406309Y-113625380D01*
X70501547Y-113673000D01*
X70549166Y-113720619D01*
X70596785Y-113815857D01*
X70644404Y-114006333D01*
X70644404Y-114244428D01*
X70596785Y-114434904D01*
X70549166Y-114530142D01*
X70501547Y-114577761D01*
X70406309Y-114625380D01*
X70311071Y-114625380D01*
X70215833Y-114577761D01*
X70168214Y-114530142D01*
X70120595Y-114434904D01*
X70072976Y-114244428D01*
X70072976Y-114006333D01*
X70120595Y-113815857D01*
X70168214Y-113720619D01*
X70215833Y-113673000D01*
X70311071Y-113625380D01*
X71072976Y-114625380D02*
X71072976Y-113625380D01*
X71072976Y-114101571D02*
X71644404Y-114101571D01*
X71644404Y-114625380D02*
X71644404Y-113625380D01*
X72025357Y-113958714D02*
X72549166Y-113958714D01*
X72025357Y-114625380D01*
X72549166Y-114625380D01*
X93120785Y-123071000D02*
X93025547Y-123023380D01*
X92882690Y-123023380D01*
X92739833Y-123071000D01*
X92644595Y-123166238D01*
X92596976Y-123261476D01*
X92549357Y-123451952D01*
X92549357Y-123594809D01*
X92596976Y-123785285D01*
X92644595Y-123880523D01*
X92739833Y-123975761D01*
X92882690Y-124023380D01*
X92977928Y-124023380D01*
X93120785Y-123975761D01*
X93168404Y-123928142D01*
X93168404Y-123594809D01*
X92977928Y-123594809D01*
X93596976Y-124023380D02*
X93596976Y-123023380D01*
X94168404Y-124023380D01*
X94168404Y-123023380D01*
X94644595Y-124023380D02*
X94644595Y-123023380D01*
X94882690Y-123023380D01*
X95025547Y-123071000D01*
X95120785Y-123166238D01*
X95168404Y-123261476D01*
X95216023Y-123451952D01*
X95216023Y-123594809D01*
X95168404Y-123785285D01*
X95120785Y-123880523D01*
X95025547Y-123975761D01*
X94882690Y-124023380D01*
X94644595Y-124023380D01*
X92787452Y-116355761D02*
X92930309Y-116403380D01*
X93168404Y-116403380D01*
X93263642Y-116355761D01*
X93311261Y-116308142D01*
X93358880Y-116212904D01*
X93358880Y-116117666D01*
X93311261Y-116022428D01*
X93263642Y-115974809D01*
X93168404Y-115927190D01*
X92977928Y-115879571D01*
X92882690Y-115831952D01*
X92835071Y-115784333D01*
X92787452Y-115689095D01*
X92787452Y-115593857D01*
X92835071Y-115498619D01*
X92882690Y-115451000D01*
X92977928Y-115403380D01*
X93216023Y-115403380D01*
X93358880Y-115451000D01*
X93787452Y-116403380D02*
X93787452Y-115403380D01*
X94025547Y-115403380D01*
X94168404Y-115451000D01*
X94263642Y-115546238D01*
X94311261Y-115641476D01*
X94358880Y-115831952D01*
X94358880Y-115974809D01*
X94311261Y-116165285D01*
X94263642Y-116260523D01*
X94168404Y-116355761D01*
X94025547Y-116403380D01*
X93787452Y-116403380D01*
X94739833Y-116117666D02*
X95216023Y-116117666D01*
X94644595Y-116403380D02*
X94977928Y-115403380D01*
X95311261Y-116403380D01*
X41181976Y-116355761D02*
X41324833Y-116403380D01*
X41562928Y-116403380D01*
X41658166Y-116355761D01*
X41705785Y-116308142D01*
X41753404Y-116212904D01*
X41753404Y-116117666D01*
X41705785Y-116022428D01*
X41658166Y-115974809D01*
X41562928Y-115927190D01*
X41372452Y-115879571D01*
X41277214Y-115831952D01*
X41229595Y-115784333D01*
X41181976Y-115689095D01*
X41181976Y-115593857D01*
X41229595Y-115498619D01*
X41277214Y-115451000D01*
X41372452Y-115403380D01*
X41610547Y-115403380D01*
X41753404Y-115451000D01*
X42181976Y-116403380D02*
X42181976Y-115403380D01*
X42420071Y-115403380D01*
X42562928Y-115451000D01*
X42658166Y-115546238D01*
X42705785Y-115641476D01*
X42753404Y-115831952D01*
X42753404Y-115974809D01*
X42705785Y-116165285D01*
X42658166Y-116260523D01*
X42562928Y-116355761D01*
X42420071Y-116403380D01*
X42181976Y-116403380D01*
X43134357Y-116117666D02*
X43610547Y-116117666D01*
X43039119Y-116403380D02*
X43372452Y-115403380D01*
X43705785Y-116403380D01*
X92644595Y-112863380D02*
X92977928Y-113863380D01*
X93311261Y-112863380D01*
X94216023Y-113768142D02*
X94168404Y-113815761D01*
X94025547Y-113863380D01*
X93930309Y-113863380D01*
X93787452Y-113815761D01*
X93692214Y-113720523D01*
X93644595Y-113625285D01*
X93596976Y-113434809D01*
X93596976Y-113291952D01*
X93644595Y-113101476D01*
X93692214Y-113006238D01*
X93787452Y-112911000D01*
X93930309Y-112863380D01*
X94025547Y-112863380D01*
X94168404Y-112911000D01*
X94216023Y-112958619D01*
X95216023Y-113768142D02*
X95168404Y-113815761D01*
X95025547Y-113863380D01*
X94930309Y-113863380D01*
X94787452Y-113815761D01*
X94692214Y-113720523D01*
X94644595Y-113625285D01*
X94596976Y-113434809D01*
X94596976Y-113291952D01*
X94644595Y-113101476D01*
X94692214Y-113006238D01*
X94787452Y-112911000D01*
X94930309Y-112863380D01*
X95025547Y-112863380D01*
X95168404Y-112911000D01*
X95216023Y-112958619D01*
X41086738Y-112863380D02*
X41420071Y-113863380D01*
X41753404Y-112863380D01*
X42658166Y-113768142D02*
X42610547Y-113815761D01*
X42467690Y-113863380D01*
X42372452Y-113863380D01*
X42229595Y-113815761D01*
X42134357Y-113720523D01*
X42086738Y-113625285D01*
X42039119Y-113434809D01*
X42039119Y-113291952D01*
X42086738Y-113101476D01*
X42134357Y-113006238D01*
X42229595Y-112911000D01*
X42372452Y-112863380D01*
X42467690Y-112863380D01*
X42610547Y-112911000D01*
X42658166Y-112958619D01*
X43658166Y-113768142D02*
X43610547Y-113815761D01*
X43467690Y-113863380D01*
X43372452Y-113863380D01*
X43229595Y-113815761D01*
X43134357Y-113720523D01*
X43086738Y-113625285D01*
X43039119Y-113434809D01*
X43039119Y-113291952D01*
X43086738Y-113101476D01*
X43134357Y-113006238D01*
X43229595Y-112911000D01*
X43372452Y-112863380D01*
X43467690Y-112863380D01*
X43610547Y-112911000D01*
X43658166Y-112958619D01*
X92835071Y-118895761D02*
X92977928Y-118943380D01*
X93216023Y-118943380D01*
X93311261Y-118895761D01*
X93358880Y-118848142D01*
X93406500Y-118752904D01*
X93406500Y-118657666D01*
X93358880Y-118562428D01*
X93311261Y-118514809D01*
X93216023Y-118467190D01*
X93025547Y-118419571D01*
X92930309Y-118371952D01*
X92882690Y-118324333D01*
X92835071Y-118229095D01*
X92835071Y-118133857D01*
X92882690Y-118038619D01*
X92930309Y-117991000D01*
X93025547Y-117943380D01*
X93263642Y-117943380D01*
X93406500Y-117991000D01*
X94406500Y-118848142D02*
X94358880Y-118895761D01*
X94216023Y-118943380D01*
X94120785Y-118943380D01*
X93977928Y-118895761D01*
X93882690Y-118800523D01*
X93835071Y-118705285D01*
X93787452Y-118514809D01*
X93787452Y-118371952D01*
X93835071Y-118181476D01*
X93882690Y-118086238D01*
X93977928Y-117991000D01*
X94120785Y-117943380D01*
X94216023Y-117943380D01*
X94358880Y-117991000D01*
X94406500Y-118038619D01*
X95311261Y-118943380D02*
X94835071Y-118943380D01*
X94835071Y-117943380D01*
X41420071Y-120483380D02*
X41610547Y-120483380D01*
X41705785Y-120531000D01*
X41801023Y-120626238D01*
X41848642Y-120816714D01*
X41848642Y-121150047D01*
X41801023Y-121340523D01*
X41705785Y-121435761D01*
X41610547Y-121483380D01*
X41420071Y-121483380D01*
X41324833Y-121435761D01*
X41229595Y-121340523D01*
X41181976Y-121150047D01*
X41181976Y-120816714D01*
X41229595Y-120626238D01*
X41324833Y-120531000D01*
X41420071Y-120483380D01*
X42277214Y-120959571D02*
X42610547Y-120959571D01*
X42753404Y-121483380D02*
X42277214Y-121483380D01*
X42277214Y-120483380D01*
X42753404Y-120483380D01*
X57977738Y-111593380D02*
X58311071Y-112593380D01*
X58644404Y-111593380D01*
X58977738Y-112212428D02*
X59739642Y-112212428D01*
X59358690Y-112593380D02*
X59358690Y-111831476D01*
X60215833Y-112498142D02*
X60263452Y-112545761D01*
X60215833Y-112593380D01*
X60168214Y-112545761D01*
X60215833Y-112498142D01*
X60215833Y-112593380D01*
X60215833Y-111974333D02*
X60263452Y-112021952D01*
X60215833Y-112069571D01*
X60168214Y-112021952D01*
X60215833Y-111974333D01*
X60215833Y-112069571D01*
X64930119Y-111593380D02*
X64739642Y-111593380D01*
X64644404Y-111641000D01*
X64596785Y-111688619D01*
X64501547Y-111831476D01*
X64453928Y-112021952D01*
X64453928Y-112402904D01*
X64501547Y-112498142D01*
X64549166Y-112545761D01*
X64644404Y-112593380D01*
X64834880Y-112593380D01*
X64930119Y-112545761D01*
X64977738Y-112498142D01*
X65025357Y-112402904D01*
X65025357Y-112164809D01*
X64977738Y-112069571D01*
X64930119Y-112021952D01*
X64834880Y-111974333D01*
X64644404Y-111974333D01*
X64549166Y-112021952D01*
X64501547Y-112069571D01*
X64453928Y-112164809D01*
X65311071Y-111593380D02*
X65644404Y-112593380D01*
X65977738Y-111593380D01*
X67072976Y-112593380D02*
X67072976Y-111593380D01*
X67406309Y-112307666D01*
X67739642Y-111593380D01*
X67739642Y-112593380D01*
X68644404Y-112593380D02*
X68644404Y-112069571D01*
X68596785Y-111974333D01*
X68501547Y-111926714D01*
X68311071Y-111926714D01*
X68215833Y-111974333D01*
X68644404Y-112545761D02*
X68549166Y-112593380D01*
X68311071Y-112593380D01*
X68215833Y-112545761D01*
X68168214Y-112450523D01*
X68168214Y-112355285D01*
X68215833Y-112260047D01*
X68311071Y-112212428D01*
X68549166Y-112212428D01*
X68644404Y-112164809D01*
X69025357Y-112593380D02*
X69549166Y-111926714D01*
X69025357Y-111926714D02*
X69549166Y-112593380D01*
X41181976Y-118895761D02*
X41324833Y-118943380D01*
X41562928Y-118943380D01*
X41658166Y-118895761D01*
X41705785Y-118848142D01*
X41753404Y-118752904D01*
X41753404Y-118657666D01*
X41705785Y-118562428D01*
X41658166Y-118514809D01*
X41562928Y-118467190D01*
X41372452Y-118419571D01*
X41277214Y-118371952D01*
X41229595Y-118324333D01*
X41181976Y-118229095D01*
X41181976Y-118133857D01*
X41229595Y-118038619D01*
X41277214Y-117991000D01*
X41372452Y-117943380D01*
X41610547Y-117943380D01*
X41753404Y-117991000D01*
X42753404Y-118848142D02*
X42705785Y-118895761D01*
X42562928Y-118943380D01*
X42467690Y-118943380D01*
X42324833Y-118895761D01*
X42229595Y-118800523D01*
X42181976Y-118705285D01*
X42134357Y-118514809D01*
X42134357Y-118371952D01*
X42181976Y-118181476D01*
X42229595Y-118086238D01*
X42324833Y-117991000D01*
X42467690Y-117943380D01*
X42562928Y-117943380D01*
X42705785Y-117991000D01*
X42753404Y-118038619D01*
X43658166Y-118943380D02*
X43181976Y-118943380D01*
X43181976Y-117943380D01*
X93406500Y-110323380D02*
X93739833Y-111323380D01*
X94073166Y-110323380D01*
X94406500Y-110942428D02*
X95168404Y-110942428D01*
X94787452Y-111323380D02*
X94787452Y-110561476D01*
X41086738Y-110323380D02*
X41420071Y-111323380D01*
X41753404Y-110323380D01*
X42086738Y-110942428D02*
X42848642Y-110942428D01*
X42467690Y-111323380D02*
X42467690Y-110561476D01*
X41753404Y-123071000D02*
X41658166Y-123023380D01*
X41515309Y-123023380D01*
X41372452Y-123071000D01*
X41277214Y-123166238D01*
X41229595Y-123261476D01*
X41181976Y-123451952D01*
X41181976Y-123594809D01*
X41229595Y-123785285D01*
X41277214Y-123880523D01*
X41372452Y-123975761D01*
X41515309Y-124023380D01*
X41610547Y-124023380D01*
X41753404Y-123975761D01*
X41801023Y-123928142D01*
X41801023Y-123594809D01*
X41610547Y-123594809D01*
X42229595Y-124023380D02*
X42229595Y-123023380D01*
X42801023Y-124023380D01*
X42801023Y-123023380D01*
X43277214Y-124023380D02*
X43277214Y-123023380D01*
X43515309Y-123023380D01*
X43658166Y-123071000D01*
X43753404Y-123166238D01*
X43801023Y-123261476D01*
X43848642Y-123451952D01*
X43848642Y-123594809D01*
X43801023Y-123785285D01*
X43753404Y-123880523D01*
X43658166Y-123975761D01*
X43515309Y-124023380D01*
X43277214Y-124023380D01*
X93882690Y-120483380D02*
X94073166Y-120483380D01*
X94168404Y-120531000D01*
X94263642Y-120626238D01*
X94311261Y-120816714D01*
X94311261Y-121150047D01*
X94263642Y-121340523D01*
X94168404Y-121435761D01*
X94073166Y-121483380D01*
X93882690Y-121483380D01*
X93787452Y-121435761D01*
X93692214Y-121340523D01*
X93644595Y-121150047D01*
X93644595Y-120816714D01*
X93692214Y-120626238D01*
X93787452Y-120531000D01*
X93882690Y-120483380D01*
X94739833Y-120959571D02*
X95073166Y-120959571D01*
X95216023Y-121483380D02*
X94739833Y-121483380D01*
X94739833Y-120483380D01*
X95216023Y-120483380D01*
%TO.C,U3*%
X123200095Y-111178380D02*
X123200095Y-111987904D01*
X123247714Y-112083142D01*
X123295333Y-112130761D01*
X123390571Y-112178380D01*
X123581047Y-112178380D01*
X123676285Y-112130761D01*
X123723904Y-112083142D01*
X123771523Y-111987904D01*
X123771523Y-111178380D01*
X124152476Y-111178380D02*
X124771523Y-111178380D01*
X124438190Y-111559333D01*
X124581047Y-111559333D01*
X124676285Y-111606952D01*
X124723904Y-111654571D01*
X124771523Y-111749809D01*
X124771523Y-111987904D01*
X124723904Y-112083142D01*
X124676285Y-112130761D01*
X124581047Y-112178380D01*
X124295333Y-112178380D01*
X124200095Y-112130761D01*
X124152476Y-112083142D01*
%TO.C,J1*%
X32178666Y-38778380D02*
X32178666Y-39492666D01*
X32131047Y-39635523D01*
X32035809Y-39730761D01*
X31892952Y-39778380D01*
X31797714Y-39778380D01*
X33178666Y-39778380D02*
X32607238Y-39778380D01*
X32892952Y-39778380D02*
X32892952Y-38778380D01*
X32797714Y-38921238D01*
X32702476Y-39016476D01*
X32607238Y-39064095D01*
%TO.C,J4*%
X127555666Y-83106380D02*
X127555666Y-83820666D01*
X127508047Y-83963523D01*
X127412809Y-84058761D01*
X127269952Y-84106380D01*
X127174714Y-84106380D01*
X128460428Y-83439714D02*
X128460428Y-84106380D01*
X128222333Y-83058761D02*
X127984238Y-83773047D01*
X128603285Y-83773047D01*
%TO.C,D1*%
X120721380Y-107164095D02*
X119721380Y-107164095D01*
X119721380Y-106926000D01*
X119769000Y-106783142D01*
X119864238Y-106687904D01*
X119959476Y-106640285D01*
X120149952Y-106592666D01*
X120292809Y-106592666D01*
X120483285Y-106640285D01*
X120578523Y-106687904D01*
X120673761Y-106783142D01*
X120721380Y-106926000D01*
X120721380Y-107164095D01*
X120721380Y-105640285D02*
X120721380Y-106211714D01*
X120721380Y-105926000D02*
X119721380Y-105926000D01*
X119864238Y-106021238D01*
X119959476Y-106116476D01*
X120007095Y-106211714D01*
X120721380Y-100464904D02*
X119721380Y-100464904D01*
X120721380Y-99893476D02*
X120149952Y-100322047D01*
X119721380Y-99893476D02*
X120292809Y-100464904D01*
%TO.C,R2*%
X124531380Y-106338666D02*
X124055190Y-106672000D01*
X124531380Y-106910095D02*
X123531380Y-106910095D01*
X123531380Y-106529142D01*
X123579000Y-106433904D01*
X123626619Y-106386285D01*
X123721857Y-106338666D01*
X123864714Y-106338666D01*
X123959952Y-106386285D01*
X124007571Y-106433904D01*
X124055190Y-106529142D01*
X124055190Y-106910095D01*
X123626619Y-105957714D02*
X123579000Y-105910095D01*
X123531380Y-105814857D01*
X123531380Y-105576761D01*
X123579000Y-105481523D01*
X123626619Y-105433904D01*
X123721857Y-105386285D01*
X123817095Y-105386285D01*
X123959952Y-105433904D01*
X124531380Y-106005333D01*
X124531380Y-105386285D01*
%TO.C,H4*%
X122174095Y-129103380D02*
X122174095Y-128103380D01*
X122174095Y-128579571D02*
X122745523Y-128579571D01*
X122745523Y-129103380D02*
X122745523Y-128103380D01*
X123650285Y-128436714D02*
X123650285Y-129103380D01*
X123412190Y-128055761D02*
X123174095Y-128770047D01*
X123793142Y-128770047D01*
%TO.C,J3*%
X34718666Y-84161380D02*
X34718666Y-84875666D01*
X34671047Y-85018523D01*
X34575809Y-85113761D01*
X34432952Y-85161380D01*
X34337714Y-85161380D01*
X35099619Y-84161380D02*
X35718666Y-84161380D01*
X35385333Y-84542333D01*
X35528190Y-84542333D01*
X35623428Y-84589952D01*
X35671047Y-84637571D01*
X35718666Y-84732809D01*
X35718666Y-84970904D01*
X35671047Y-85066142D01*
X35623428Y-85113761D01*
X35528190Y-85161380D01*
X35242476Y-85161380D01*
X35147238Y-85113761D01*
X35099619Y-85066142D01*
%TO.C,J5*%
X100392666Y-76414380D02*
X100392666Y-77128666D01*
X100345047Y-77271523D01*
X100249809Y-77366761D01*
X100106952Y-77414380D01*
X100011714Y-77414380D01*
X101345047Y-76414380D02*
X100868857Y-76414380D01*
X100821238Y-76890571D01*
X100868857Y-76842952D01*
X100964095Y-76795333D01*
X101202190Y-76795333D01*
X101297428Y-76842952D01*
X101345047Y-76890571D01*
X101392666Y-76985809D01*
X101392666Y-77223904D01*
X101345047Y-77319142D01*
X101297428Y-77366761D01*
X101202190Y-77414380D01*
X100964095Y-77414380D01*
X100868857Y-77366761D01*
X100821238Y-77319142D01*
%TO.C,R1*%
X44410333Y-31641380D02*
X44077000Y-31165190D01*
X43838904Y-31641380D02*
X43838904Y-30641380D01*
X44219857Y-30641380D01*
X44315095Y-30689000D01*
X44362714Y-30736619D01*
X44410333Y-30831857D01*
X44410333Y-30974714D01*
X44362714Y-31069952D01*
X44315095Y-31117571D01*
X44219857Y-31165190D01*
X43838904Y-31165190D01*
X45362714Y-31641380D02*
X44791285Y-31641380D01*
X45077000Y-31641380D02*
X45077000Y-30641380D01*
X44981761Y-30784238D01*
X44886523Y-30879476D01*
X44791285Y-30927095D01*
%TO.C,C3*%
X124563142Y-91693666D02*
X124610761Y-91741285D01*
X124658380Y-91884142D01*
X124658380Y-91979380D01*
X124610761Y-92122238D01*
X124515523Y-92217476D01*
X124420285Y-92265095D01*
X124229809Y-92312714D01*
X124086952Y-92312714D01*
X123896476Y-92265095D01*
X123801238Y-92217476D01*
X123706000Y-92122238D01*
X123658380Y-91979380D01*
X123658380Y-91884142D01*
X123706000Y-91741285D01*
X123753619Y-91693666D01*
X123658380Y-91360333D02*
X123658380Y-90741285D01*
X124039333Y-91074619D01*
X124039333Y-90931761D01*
X124086952Y-90836523D01*
X124134571Y-90788904D01*
X124229809Y-90741285D01*
X124467904Y-90741285D01*
X124563142Y-90788904D01*
X124610761Y-90836523D01*
X124658380Y-90931761D01*
X124658380Y-91217476D01*
X124610761Y-91312714D01*
X124563142Y-91360333D01*
%TO.C,A1*%
X108515714Y-85129666D02*
X108991904Y-85129666D01*
X108420476Y-85415380D02*
X108753809Y-84415380D01*
X109087142Y-85415380D01*
X109944285Y-85415380D02*
X109372857Y-85415380D01*
X109658571Y-85415380D02*
X109658571Y-84415380D01*
X109563333Y-84558238D01*
X109468095Y-84653476D01*
X109372857Y-84701095D01*
X107968095Y-122515380D02*
X107968095Y-123324904D01*
X108015714Y-123420142D01*
X108063333Y-123467761D01*
X108158571Y-123515380D01*
X108349047Y-123515380D01*
X108444285Y-123467761D01*
X108491904Y-123420142D01*
X108539523Y-123324904D01*
X108539523Y-122515380D01*
X108968095Y-123467761D02*
X109110952Y-123515380D01*
X109349047Y-123515380D01*
X109444285Y-123467761D01*
X109491904Y-123420142D01*
X109539523Y-123324904D01*
X109539523Y-123229666D01*
X109491904Y-123134428D01*
X109444285Y-123086809D01*
X109349047Y-123039190D01*
X109158571Y-122991571D01*
X109063333Y-122943952D01*
X109015714Y-122896333D01*
X108968095Y-122801095D01*
X108968095Y-122705857D01*
X109015714Y-122610619D01*
X109063333Y-122563000D01*
X109158571Y-122515380D01*
X109396666Y-122515380D01*
X109539523Y-122563000D01*
X110301428Y-122991571D02*
X110444285Y-123039190D01*
X110491904Y-123086809D01*
X110539523Y-123182047D01*
X110539523Y-123324904D01*
X110491904Y-123420142D01*
X110444285Y-123467761D01*
X110349047Y-123515380D01*
X109968095Y-123515380D01*
X109968095Y-122515380D01*
X110301428Y-122515380D01*
X110396666Y-122563000D01*
X110444285Y-122610619D01*
X110491904Y-122705857D01*
X110491904Y-122801095D01*
X110444285Y-122896333D01*
X110396666Y-122943952D01*
X110301428Y-122991571D01*
X109968095Y-122991571D01*
%TO.C,R4*%
X110958333Y-81732380D02*
X110625000Y-81256190D01*
X110386904Y-81732380D02*
X110386904Y-80732380D01*
X110767857Y-80732380D01*
X110863095Y-80780000D01*
X110910714Y-80827619D01*
X110958333Y-80922857D01*
X110958333Y-81065714D01*
X110910714Y-81160952D01*
X110863095Y-81208571D01*
X110767857Y-81256190D01*
X110386904Y-81256190D01*
X111815476Y-81065714D02*
X111815476Y-81732380D01*
X111577380Y-80684761D02*
X111339285Y-81399047D01*
X111958333Y-81399047D01*
%TO.C,H6*%
X32694920Y-123515555D02*
X32694920Y-122515555D01*
X32694920Y-122991746D02*
X33266348Y-122991746D01*
X33266348Y-123515555D02*
X33266348Y-122515555D01*
X34171110Y-122515555D02*
X33980634Y-122515555D01*
X33885396Y-122563175D01*
X33837777Y-122610794D01*
X33742539Y-122753651D01*
X33694920Y-122944127D01*
X33694920Y-123325079D01*
X33742539Y-123420317D01*
X33790158Y-123467936D01*
X33885396Y-123515555D01*
X34075872Y-123515555D01*
X34171110Y-123467936D01*
X34218729Y-123420317D01*
X34266348Y-123325079D01*
X34266348Y-123086984D01*
X34218729Y-122991746D01*
X34171110Y-122944127D01*
X34075872Y-122896508D01*
X33885396Y-122896508D01*
X33790158Y-122944127D01*
X33742539Y-122991746D01*
X33694920Y-123086984D01*
%TO.C,H1*%
X57094270Y-42672205D02*
X57094270Y-41672205D01*
X57094270Y-42148396D02*
X57665698Y-42148396D01*
X57665698Y-42672205D02*
X57665698Y-41672205D01*
X58665698Y-42672205D02*
X58094270Y-42672205D01*
X58379984Y-42672205D02*
X58379984Y-41672205D01*
X58284746Y-41815063D01*
X58189508Y-41910301D01*
X58094270Y-41957920D01*
%TO.C,H5*%
X32766095Y-76200380D02*
X32766095Y-75200380D01*
X32766095Y-75676571D02*
X33337523Y-75676571D01*
X33337523Y-76200380D02*
X33337523Y-75200380D01*
X34289904Y-75200380D02*
X33813714Y-75200380D01*
X33766095Y-75676571D01*
X33813714Y-75628952D01*
X33908952Y-75581333D01*
X34147047Y-75581333D01*
X34242285Y-75628952D01*
X34289904Y-75676571D01*
X34337523Y-75771809D01*
X34337523Y-76009904D01*
X34289904Y-76105142D01*
X34242285Y-76152761D01*
X34147047Y-76200380D01*
X33908952Y-76200380D01*
X33813714Y-76152761D01*
X33766095Y-76105142D01*
%TO.C,C2*%
X45172333Y-38203142D02*
X45124714Y-38250761D01*
X44981857Y-38298380D01*
X44886619Y-38298380D01*
X44743761Y-38250761D01*
X44648523Y-38155523D01*
X44600904Y-38060285D01*
X44553285Y-37869809D01*
X44553285Y-37726952D01*
X44600904Y-37536476D01*
X44648523Y-37441238D01*
X44743761Y-37346000D01*
X44886619Y-37298380D01*
X44981857Y-37298380D01*
X45124714Y-37346000D01*
X45172333Y-37393619D01*
X45553285Y-37393619D02*
X45600904Y-37346000D01*
X45696142Y-37298380D01*
X45934238Y-37298380D01*
X46029476Y-37346000D01*
X46077095Y-37393619D01*
X46124714Y-37488857D01*
X46124714Y-37584095D01*
X46077095Y-37726952D01*
X45505666Y-38298380D01*
X46124714Y-38298380D01*
%TO.C,U1*%
X53847904Y-85510619D02*
X53847904Y-84701095D01*
X53800285Y-84605857D01*
X53752666Y-84558238D01*
X53657428Y-84510619D01*
X53466952Y-84510619D01*
X53371714Y-84558238D01*
X53324095Y-84605857D01*
X53276476Y-84701095D01*
X53276476Y-85510619D01*
X52276476Y-84510619D02*
X52847904Y-84510619D01*
X52562190Y-84510619D02*
X52562190Y-85510619D01*
X52657428Y-85367761D01*
X52752666Y-85272523D01*
X52847904Y-85224904D01*
X95006023Y-87311238D02*
X94863166Y-87263619D01*
X94625071Y-87263619D01*
X94529833Y-87311238D01*
X94482214Y-87358857D01*
X94434595Y-87454095D01*
X94434595Y-87549333D01*
X94482214Y-87644571D01*
X94529833Y-87692190D01*
X94625071Y-87739809D01*
X94815547Y-87787428D01*
X94910785Y-87835047D01*
X94958404Y-87882666D01*
X95006023Y-87977904D01*
X95006023Y-88073142D01*
X94958404Y-88168380D01*
X94910785Y-88216000D01*
X94815547Y-88263619D01*
X94577452Y-88263619D01*
X94434595Y-88216000D01*
X93434595Y-87358857D02*
X93482214Y-87311238D01*
X93625071Y-87263619D01*
X93720309Y-87263619D01*
X93863166Y-87311238D01*
X93958404Y-87406476D01*
X94006023Y-87501714D01*
X94053642Y-87692190D01*
X94053642Y-87835047D01*
X94006023Y-88025523D01*
X93958404Y-88120761D01*
X93863166Y-88216000D01*
X93720309Y-88263619D01*
X93625071Y-88263619D01*
X93482214Y-88216000D01*
X93434595Y-88168380D01*
X92529833Y-87263619D02*
X93006023Y-87263619D01*
X93006023Y-88263619D01*
X43400547Y-89851238D02*
X43257690Y-89803619D01*
X43019595Y-89803619D01*
X42924357Y-89851238D01*
X42876738Y-89898857D01*
X42829119Y-89994095D01*
X42829119Y-90089333D01*
X42876738Y-90184571D01*
X42924357Y-90232190D01*
X43019595Y-90279809D01*
X43210071Y-90327428D01*
X43305309Y-90375047D01*
X43352928Y-90422666D01*
X43400547Y-90517904D01*
X43400547Y-90613142D01*
X43352928Y-90708380D01*
X43305309Y-90756000D01*
X43210071Y-90803619D01*
X42971976Y-90803619D01*
X42829119Y-90756000D01*
X42400547Y-89803619D02*
X42400547Y-90803619D01*
X42162452Y-90803619D01*
X42019595Y-90756000D01*
X41924357Y-90660761D01*
X41876738Y-90565523D01*
X41829119Y-90375047D01*
X41829119Y-90232190D01*
X41876738Y-90041714D01*
X41924357Y-89946476D01*
X42019595Y-89851238D01*
X42162452Y-89803619D01*
X42400547Y-89803619D01*
X41448166Y-90089333D02*
X40971976Y-90089333D01*
X41543404Y-89803619D02*
X41210071Y-90803619D01*
X40876738Y-89803619D01*
X94767928Y-85723619D02*
X94577452Y-85723619D01*
X94482214Y-85676000D01*
X94386976Y-85580761D01*
X94339357Y-85390285D01*
X94339357Y-85056952D01*
X94386976Y-84866476D01*
X94482214Y-84771238D01*
X94577452Y-84723619D01*
X94767928Y-84723619D01*
X94863166Y-84771238D01*
X94958404Y-84866476D01*
X95006023Y-85056952D01*
X95006023Y-85390285D01*
X94958404Y-85580761D01*
X94863166Y-85676000D01*
X94767928Y-85723619D01*
X93910785Y-85247428D02*
X93577452Y-85247428D01*
X93434595Y-84723619D02*
X93910785Y-84723619D01*
X93910785Y-85723619D01*
X93434595Y-85723619D01*
X77734071Y-92105428D02*
X78067404Y-92105428D01*
X78067404Y-91581619D02*
X78067404Y-92581619D01*
X77591214Y-92581619D01*
X77210261Y-91581619D02*
X77210261Y-92248285D01*
X77210261Y-92057809D02*
X77162642Y-92153047D01*
X77115023Y-92200666D01*
X77019785Y-92248285D01*
X76924547Y-92248285D01*
X76210261Y-91629238D02*
X76305500Y-91581619D01*
X76495976Y-91581619D01*
X76591214Y-91629238D01*
X76638833Y-91724476D01*
X76638833Y-92105428D01*
X76591214Y-92200666D01*
X76495976Y-92248285D01*
X76305500Y-92248285D01*
X76210261Y-92200666D01*
X76162642Y-92105428D01*
X76162642Y-92010190D01*
X76638833Y-91914952D01*
X75305500Y-92248285D02*
X75305500Y-91248285D01*
X75305500Y-91629238D02*
X75400738Y-91581619D01*
X75591214Y-91581619D01*
X75686452Y-91629238D01*
X75734071Y-91676857D01*
X75781690Y-91772095D01*
X75781690Y-92057809D01*
X75734071Y-92153047D01*
X75686452Y-92200666D01*
X75591214Y-92248285D01*
X75400738Y-92248285D01*
X75305500Y-92200666D01*
X74829309Y-91676857D02*
X74781690Y-91629238D01*
X74829309Y-91581619D01*
X74876928Y-91629238D01*
X74829309Y-91676857D01*
X74829309Y-91581619D01*
X74829309Y-92200666D02*
X74781690Y-92153047D01*
X74829309Y-92105428D01*
X74876928Y-92153047D01*
X74829309Y-92200666D01*
X74829309Y-92105428D01*
X71638833Y-92248285D02*
X71638833Y-91581619D01*
X71876928Y-92629238D02*
X72115023Y-91914952D01*
X71495976Y-91914952D01*
X70924547Y-92581619D02*
X70829309Y-92581619D01*
X70734071Y-92534000D01*
X70686452Y-92486380D01*
X70638833Y-92391142D01*
X70591214Y-92200666D01*
X70591214Y-91962571D01*
X70638833Y-91772095D01*
X70686452Y-91676857D01*
X70734071Y-91629238D01*
X70829309Y-91581619D01*
X70924547Y-91581619D01*
X71019785Y-91629238D01*
X71067404Y-91676857D01*
X71115023Y-91772095D01*
X71162642Y-91962571D01*
X71162642Y-92200666D01*
X71115023Y-92391142D01*
X71067404Y-92486380D01*
X71019785Y-92534000D01*
X70924547Y-92581619D01*
X70162642Y-91962571D02*
X69400738Y-91962571D01*
X68400738Y-91581619D02*
X68972166Y-91581619D01*
X68686452Y-91581619D02*
X68686452Y-92581619D01*
X68781690Y-92438761D01*
X68876928Y-92343523D01*
X68972166Y-92295904D01*
X67781690Y-92581619D02*
X67686452Y-92581619D01*
X67591214Y-92534000D01*
X67543595Y-92486380D01*
X67495976Y-92391142D01*
X67448357Y-92200666D01*
X67448357Y-91962571D01*
X67495976Y-91772095D01*
X67543595Y-91676857D01*
X67591214Y-91629238D01*
X67686452Y-91581619D01*
X67781690Y-91581619D01*
X67876928Y-91629238D01*
X67924547Y-91676857D01*
X67972166Y-91772095D01*
X68019785Y-91962571D01*
X68019785Y-92200666D01*
X67972166Y-92391142D01*
X67924547Y-92486380D01*
X67876928Y-92534000D01*
X67781690Y-92581619D01*
X66829309Y-92581619D02*
X66734071Y-92581619D01*
X66638833Y-92534000D01*
X66591214Y-92486380D01*
X66543595Y-92391142D01*
X66495976Y-92200666D01*
X66495976Y-91962571D01*
X66543595Y-91772095D01*
X66591214Y-91676857D01*
X66638833Y-91629238D01*
X66734071Y-91581619D01*
X66829309Y-91581619D01*
X66924547Y-91629238D01*
X66972166Y-91676857D01*
X67019785Y-91772095D01*
X67067404Y-91962571D01*
X67067404Y-92200666D01*
X67019785Y-92391142D01*
X66972166Y-92486380D01*
X66924547Y-92534000D01*
X66829309Y-92581619D01*
X65876928Y-92581619D02*
X65781690Y-92581619D01*
X65686452Y-92534000D01*
X65638833Y-92486380D01*
X65591214Y-92391142D01*
X65543595Y-92200666D01*
X65543595Y-91962571D01*
X65591214Y-91772095D01*
X65638833Y-91676857D01*
X65686452Y-91629238D01*
X65781690Y-91581619D01*
X65876928Y-91581619D01*
X65972166Y-91629238D01*
X66019785Y-91676857D01*
X66067404Y-91772095D01*
X66115023Y-91962571D01*
X66115023Y-92200666D01*
X66067404Y-92391142D01*
X66019785Y-92486380D01*
X65972166Y-92534000D01*
X65876928Y-92581619D01*
X65115023Y-91581619D02*
X65115023Y-92581619D01*
X65115023Y-92105428D02*
X64543595Y-92105428D01*
X64543595Y-91581619D02*
X64543595Y-92581619D01*
X64162642Y-92248285D02*
X63638833Y-92248285D01*
X64162642Y-91581619D01*
X63638833Y-91581619D01*
X43543404Y-93343619D02*
X43210071Y-92343619D01*
X42876738Y-93343619D01*
X41971976Y-92438857D02*
X42019595Y-92391238D01*
X42162452Y-92343619D01*
X42257690Y-92343619D01*
X42400547Y-92391238D01*
X42495785Y-92486476D01*
X42543404Y-92581714D01*
X42591023Y-92772190D01*
X42591023Y-92915047D01*
X42543404Y-93105523D01*
X42495785Y-93200761D01*
X42400547Y-93296000D01*
X42257690Y-93343619D01*
X42162452Y-93343619D01*
X42019595Y-93296000D01*
X41971976Y-93248380D01*
X40971976Y-92438857D02*
X41019595Y-92391238D01*
X41162452Y-92343619D01*
X41257690Y-92343619D01*
X41400547Y-92391238D01*
X41495785Y-92486476D01*
X41543404Y-92581714D01*
X41591023Y-92772190D01*
X41591023Y-92915047D01*
X41543404Y-93105523D01*
X41495785Y-93200761D01*
X41400547Y-93296000D01*
X41257690Y-93343619D01*
X41162452Y-93343619D01*
X41019595Y-93296000D01*
X40971976Y-93248380D01*
X42781500Y-95883619D02*
X42448166Y-94883619D01*
X42114833Y-95883619D01*
X41781500Y-95264571D02*
X41019595Y-95264571D01*
X41400547Y-94883619D02*
X41400547Y-95645523D01*
X94434595Y-83136000D02*
X94529833Y-83183619D01*
X94672690Y-83183619D01*
X94815547Y-83136000D01*
X94910785Y-83040761D01*
X94958404Y-82945523D01*
X95006023Y-82755047D01*
X95006023Y-82612190D01*
X94958404Y-82421714D01*
X94910785Y-82326476D01*
X94815547Y-82231238D01*
X94672690Y-82183619D01*
X94577452Y-82183619D01*
X94434595Y-82231238D01*
X94386976Y-82278857D01*
X94386976Y-82612190D01*
X94577452Y-82612190D01*
X93958404Y-82183619D02*
X93958404Y-83183619D01*
X93386976Y-82183619D01*
X93386976Y-83183619D01*
X92910785Y-82183619D02*
X92910785Y-83183619D01*
X92672690Y-83183619D01*
X92529833Y-83136000D01*
X92434595Y-83040761D01*
X92386976Y-82945523D01*
X92339357Y-82755047D01*
X92339357Y-82612190D01*
X92386976Y-82421714D01*
X92434595Y-82326476D01*
X92529833Y-82231238D01*
X92672690Y-82183619D01*
X92910785Y-82183619D01*
X78210261Y-94613619D02*
X77876928Y-93613619D01*
X77543595Y-94613619D01*
X77210261Y-93994571D02*
X76448357Y-93994571D01*
X76829309Y-93613619D02*
X76829309Y-94375523D01*
X75972166Y-93708857D02*
X75924547Y-93661238D01*
X75972166Y-93613619D01*
X76019785Y-93661238D01*
X75972166Y-93708857D01*
X75972166Y-93613619D01*
X75972166Y-94232666D02*
X75924547Y-94185047D01*
X75972166Y-94137428D01*
X76019785Y-94185047D01*
X75972166Y-94232666D01*
X75972166Y-94137428D01*
X71257880Y-94613619D02*
X71448357Y-94613619D01*
X71543595Y-94566000D01*
X71591214Y-94518380D01*
X71686452Y-94375523D01*
X71734071Y-94185047D01*
X71734071Y-93804095D01*
X71686452Y-93708857D01*
X71638833Y-93661238D01*
X71543595Y-93613619D01*
X71353119Y-93613619D01*
X71257880Y-93661238D01*
X71210261Y-93708857D01*
X71162642Y-93804095D01*
X71162642Y-94042190D01*
X71210261Y-94137428D01*
X71257880Y-94185047D01*
X71353119Y-94232666D01*
X71543595Y-94232666D01*
X71638833Y-94185047D01*
X71686452Y-94137428D01*
X71734071Y-94042190D01*
X70876928Y-94613619D02*
X70543595Y-93613619D01*
X70210261Y-94613619D01*
X69115023Y-93613619D02*
X69115023Y-94613619D01*
X68781690Y-93899333D01*
X68448357Y-94613619D01*
X68448357Y-93613619D01*
X67543595Y-93613619D02*
X67543595Y-94137428D01*
X67591214Y-94232666D01*
X67686452Y-94280285D01*
X67876928Y-94280285D01*
X67972166Y-94232666D01*
X67543595Y-93661238D02*
X67638833Y-93613619D01*
X67876928Y-93613619D01*
X67972166Y-93661238D01*
X68019785Y-93756476D01*
X68019785Y-93851714D01*
X67972166Y-93946952D01*
X67876928Y-93994571D01*
X67638833Y-93994571D01*
X67543595Y-94042190D01*
X67162642Y-93613619D02*
X66638833Y-94280285D01*
X67162642Y-94280285D02*
X66638833Y-93613619D01*
X42305309Y-85723619D02*
X42114833Y-85723619D01*
X42019595Y-85676000D01*
X41924357Y-85580761D01*
X41876738Y-85390285D01*
X41876738Y-85056952D01*
X41924357Y-84866476D01*
X42019595Y-84771238D01*
X42114833Y-84723619D01*
X42305309Y-84723619D01*
X42400547Y-84771238D01*
X42495785Y-84866476D01*
X42543404Y-85056952D01*
X42543404Y-85390285D01*
X42495785Y-85580761D01*
X42400547Y-85676000D01*
X42305309Y-85723619D01*
X41448166Y-85247428D02*
X41114833Y-85247428D01*
X40971976Y-84723619D02*
X41448166Y-84723619D01*
X41448166Y-85723619D01*
X40971976Y-85723619D01*
X95006023Y-89851238D02*
X94863166Y-89803619D01*
X94625071Y-89803619D01*
X94529833Y-89851238D01*
X94482214Y-89898857D01*
X94434595Y-89994095D01*
X94434595Y-90089333D01*
X94482214Y-90184571D01*
X94529833Y-90232190D01*
X94625071Y-90279809D01*
X94815547Y-90327428D01*
X94910785Y-90375047D01*
X94958404Y-90422666D01*
X95006023Y-90517904D01*
X95006023Y-90613142D01*
X94958404Y-90708380D01*
X94910785Y-90756000D01*
X94815547Y-90803619D01*
X94577452Y-90803619D01*
X94434595Y-90756000D01*
X94006023Y-89803619D02*
X94006023Y-90803619D01*
X93767928Y-90803619D01*
X93625071Y-90756000D01*
X93529833Y-90660761D01*
X93482214Y-90565523D01*
X93434595Y-90375047D01*
X93434595Y-90232190D01*
X93482214Y-90041714D01*
X93529833Y-89946476D01*
X93625071Y-89851238D01*
X93767928Y-89803619D01*
X94006023Y-89803619D01*
X93053642Y-90089333D02*
X92577452Y-90089333D01*
X93148880Y-89803619D02*
X92815547Y-90803619D01*
X92482214Y-89803619D01*
X78194404Y-96645619D02*
X78194404Y-95836095D01*
X78146785Y-95740857D01*
X78099166Y-95693238D01*
X78003928Y-95645619D01*
X77813452Y-95645619D01*
X77718214Y-95693238D01*
X77670595Y-95740857D01*
X77622976Y-95836095D01*
X77622976Y-96645619D01*
X77194404Y-95693238D02*
X77099166Y-95645619D01*
X76908690Y-95645619D01*
X76813452Y-95693238D01*
X76765833Y-95788476D01*
X76765833Y-95836095D01*
X76813452Y-95931333D01*
X76908690Y-95978952D01*
X77051547Y-95978952D01*
X77146785Y-96026571D01*
X77194404Y-96121809D01*
X77194404Y-96169428D01*
X77146785Y-96264666D01*
X77051547Y-96312285D01*
X76908690Y-96312285D01*
X76813452Y-96264666D01*
X75956309Y-95693238D02*
X76051547Y-95645619D01*
X76242023Y-95645619D01*
X76337261Y-95693238D01*
X76384880Y-95788476D01*
X76384880Y-96169428D01*
X76337261Y-96264666D01*
X76242023Y-96312285D01*
X76051547Y-96312285D01*
X75956309Y-96264666D01*
X75908690Y-96169428D01*
X75908690Y-96074190D01*
X76384880Y-95978952D01*
X74099166Y-96645619D02*
X73765833Y-95645619D01*
X73432500Y-96645619D01*
X73099166Y-96026571D02*
X72337261Y-96026571D01*
X72718214Y-95645619D02*
X72718214Y-96407523D01*
X70480119Y-96312285D02*
X70099166Y-96312285D01*
X70337261Y-95645619D02*
X70337261Y-96502761D01*
X70289642Y-96598000D01*
X70194404Y-96645619D01*
X70099166Y-96645619D01*
X69622976Y-95645619D02*
X69718214Y-95693238D01*
X69765833Y-95740857D01*
X69813452Y-95836095D01*
X69813452Y-96121809D01*
X69765833Y-96217047D01*
X69718214Y-96264666D01*
X69622976Y-96312285D01*
X69480119Y-96312285D01*
X69384880Y-96264666D01*
X69337261Y-96217047D01*
X69289642Y-96121809D01*
X69289642Y-95836095D01*
X69337261Y-95740857D01*
X69384880Y-95693238D01*
X69480119Y-95645619D01*
X69622976Y-95645619D01*
X68861071Y-95645619D02*
X68861071Y-96312285D01*
X68861071Y-96121809D02*
X68813452Y-96217047D01*
X68765833Y-96264666D01*
X68670595Y-96312285D01*
X68575357Y-96312285D01*
X66765833Y-95693238D02*
X66670595Y-95645619D01*
X66480119Y-95645619D01*
X66384880Y-95693238D01*
X66337261Y-95788476D01*
X66337261Y-95836095D01*
X66384880Y-95931333D01*
X66480119Y-95978952D01*
X66622976Y-95978952D01*
X66718214Y-96026571D01*
X66765833Y-96121809D01*
X66765833Y-96169428D01*
X66718214Y-96264666D01*
X66622976Y-96312285D01*
X66480119Y-96312285D01*
X66384880Y-96264666D01*
X65527738Y-95693238D02*
X65622976Y-95645619D01*
X65813452Y-95645619D01*
X65908690Y-95693238D01*
X65956309Y-95788476D01*
X65956309Y-96169428D01*
X65908690Y-96264666D01*
X65813452Y-96312285D01*
X65622976Y-96312285D01*
X65527738Y-96264666D01*
X65480119Y-96169428D01*
X65480119Y-96074190D01*
X65956309Y-95978952D01*
X65051547Y-95645619D02*
X65051547Y-96312285D01*
X65051547Y-96121809D02*
X65003928Y-96217047D01*
X64956309Y-96264666D01*
X64861071Y-96312285D01*
X64765833Y-96312285D01*
X64527738Y-96312285D02*
X64289642Y-95645619D01*
X64051547Y-96312285D01*
X63527738Y-95645619D02*
X63622976Y-95693238D01*
X63670595Y-95740857D01*
X63718214Y-95836095D01*
X63718214Y-96121809D01*
X63670595Y-96217047D01*
X63622976Y-96264666D01*
X63527738Y-96312285D01*
X63384880Y-96312285D01*
X63289642Y-96264666D01*
X63242023Y-96217047D01*
X63194404Y-96121809D01*
X63194404Y-95836095D01*
X63242023Y-95740857D01*
X63289642Y-95693238D01*
X63384880Y-95645619D01*
X63527738Y-95645619D01*
X61289642Y-95693238D02*
X61194404Y-95645619D01*
X61003928Y-95645619D01*
X60908690Y-95693238D01*
X60861071Y-95788476D01*
X60861071Y-95836095D01*
X60908690Y-95931333D01*
X61003928Y-95978952D01*
X61146785Y-95978952D01*
X61242023Y-96026571D01*
X61289642Y-96121809D01*
X61289642Y-96169428D01*
X61242023Y-96264666D01*
X61146785Y-96312285D01*
X61003928Y-96312285D01*
X60908690Y-96264666D01*
X60003928Y-96312285D02*
X60003928Y-95645619D01*
X60432500Y-96312285D02*
X60432500Y-95788476D01*
X60384880Y-95693238D01*
X60289642Y-95645619D01*
X60146785Y-95645619D01*
X60051547Y-95693238D01*
X60003928Y-95740857D01*
X59527738Y-96312285D02*
X59527738Y-95312285D01*
X59527738Y-96264666D02*
X59432500Y-96312285D01*
X59242023Y-96312285D01*
X59146785Y-96264666D01*
X59099166Y-96217047D01*
X59051547Y-96121809D01*
X59051547Y-95836095D01*
X59099166Y-95740857D01*
X59146785Y-95693238D01*
X59242023Y-95645619D01*
X59432500Y-95645619D01*
X59527738Y-95693238D01*
X58622976Y-96312285D02*
X58622976Y-95312285D01*
X58622976Y-96264666D02*
X58527738Y-96312285D01*
X58337261Y-96312285D01*
X58242023Y-96264666D01*
X58194404Y-96217047D01*
X58146785Y-96121809D01*
X58146785Y-95836095D01*
X58194404Y-95740857D01*
X58242023Y-95693238D01*
X58337261Y-95645619D01*
X58527738Y-95645619D01*
X58622976Y-95693238D01*
X57575357Y-95645619D02*
X57670595Y-95693238D01*
X57718214Y-95788476D01*
X57718214Y-96645619D01*
X57289642Y-96312285D02*
X57051547Y-95645619D01*
X56813452Y-96312285D02*
X57051547Y-95645619D01*
X57146785Y-95407523D01*
X57194404Y-95359904D01*
X57289642Y-95312285D01*
X95101261Y-95883619D02*
X94767928Y-94883619D01*
X94434595Y-95883619D01*
X94101261Y-95264571D02*
X93339357Y-95264571D01*
X93720309Y-94883619D02*
X93720309Y-95645523D01*
X43352928Y-87311238D02*
X43210071Y-87263619D01*
X42971976Y-87263619D01*
X42876738Y-87311238D01*
X42829119Y-87358857D01*
X42781500Y-87454095D01*
X42781500Y-87549333D01*
X42829119Y-87644571D01*
X42876738Y-87692190D01*
X42971976Y-87739809D01*
X43162452Y-87787428D01*
X43257690Y-87835047D01*
X43305309Y-87882666D01*
X43352928Y-87977904D01*
X43352928Y-88073142D01*
X43305309Y-88168380D01*
X43257690Y-88216000D01*
X43162452Y-88263619D01*
X42924357Y-88263619D01*
X42781500Y-88216000D01*
X41781500Y-87358857D02*
X41829119Y-87311238D01*
X41971976Y-87263619D01*
X42067214Y-87263619D01*
X42210071Y-87311238D01*
X42305309Y-87406476D01*
X42352928Y-87501714D01*
X42400547Y-87692190D01*
X42400547Y-87835047D01*
X42352928Y-88025523D01*
X42305309Y-88120761D01*
X42210071Y-88216000D01*
X42067214Y-88263619D01*
X41971976Y-88263619D01*
X41829119Y-88216000D01*
X41781500Y-88168380D01*
X40876738Y-87263619D02*
X41352928Y-87263619D01*
X41352928Y-88263619D01*
X95101261Y-93343619D02*
X94767928Y-92343619D01*
X94434595Y-93343619D01*
X93529833Y-92438857D02*
X93577452Y-92391238D01*
X93720309Y-92343619D01*
X93815547Y-92343619D01*
X93958404Y-92391238D01*
X94053642Y-92486476D01*
X94101261Y-92581714D01*
X94148880Y-92772190D01*
X94148880Y-92915047D01*
X94101261Y-93105523D01*
X94053642Y-93200761D01*
X93958404Y-93296000D01*
X93815547Y-93343619D01*
X93720309Y-93343619D01*
X93577452Y-93296000D01*
X93529833Y-93248380D01*
X92529833Y-92438857D02*
X92577452Y-92391238D01*
X92720309Y-92343619D01*
X92815547Y-92343619D01*
X92958404Y-92391238D01*
X93053642Y-92486476D01*
X93101261Y-92581714D01*
X93148880Y-92772190D01*
X93148880Y-92915047D01*
X93101261Y-93105523D01*
X93053642Y-93200761D01*
X92958404Y-93296000D01*
X92815547Y-93343619D01*
X92720309Y-93343619D01*
X92577452Y-93296000D01*
X92529833Y-93248380D01*
X43067214Y-83136000D02*
X43162452Y-83183619D01*
X43305309Y-83183619D01*
X43448166Y-83136000D01*
X43543404Y-83040761D01*
X43591023Y-82945523D01*
X43638642Y-82755047D01*
X43638642Y-82612190D01*
X43591023Y-82421714D01*
X43543404Y-82326476D01*
X43448166Y-82231238D01*
X43305309Y-82183619D01*
X43210071Y-82183619D01*
X43067214Y-82231238D01*
X43019595Y-82278857D01*
X43019595Y-82612190D01*
X43210071Y-82612190D01*
X42591023Y-82183619D02*
X42591023Y-83183619D01*
X42019595Y-82183619D01*
X42019595Y-83183619D01*
X41543404Y-82183619D02*
X41543404Y-83183619D01*
X41305309Y-83183619D01*
X41162452Y-83136000D01*
X41067214Y-83040761D01*
X41019595Y-82945523D01*
X40971976Y-82755047D01*
X40971976Y-82612190D01*
X41019595Y-82421714D01*
X41067214Y-82326476D01*
X41162452Y-82231238D01*
X41305309Y-82183619D01*
X41543404Y-82183619D01*
%TO.C,C1*%
X51395333Y-44807142D02*
X51347714Y-44854761D01*
X51204857Y-44902380D01*
X51109619Y-44902380D01*
X50966761Y-44854761D01*
X50871523Y-44759523D01*
X50823904Y-44664285D01*
X50776285Y-44473809D01*
X50776285Y-44330952D01*
X50823904Y-44140476D01*
X50871523Y-44045238D01*
X50966761Y-43950000D01*
X51109619Y-43902380D01*
X51204857Y-43902380D01*
X51347714Y-43950000D01*
X51395333Y-43997619D01*
X52347714Y-44902380D02*
X51776285Y-44902380D01*
X52062000Y-44902380D02*
X52062000Y-43902380D01*
X51966761Y-44045238D01*
X51871523Y-44140476D01*
X51776285Y-44188095D01*
%TO.C,J2*%
X58086666Y-30821380D02*
X58086666Y-31535666D01*
X58039047Y-31678523D01*
X57943809Y-31773761D01*
X57800952Y-31821380D01*
X57705714Y-31821380D01*
X58515238Y-30916619D02*
X58562857Y-30869000D01*
X58658095Y-30821380D01*
X58896190Y-30821380D01*
X58991428Y-30869000D01*
X59039047Y-30916619D01*
X59086666Y-31011857D01*
X59086666Y-31107095D01*
X59039047Y-31249952D01*
X58467619Y-31821380D01*
X59086666Y-31821380D01*
%TO.C,R3*%
X120721380Y-95035666D02*
X120245190Y-95369000D01*
X120721380Y-95607095D02*
X119721380Y-95607095D01*
X119721380Y-95226142D01*
X119769000Y-95130904D01*
X119816619Y-95083285D01*
X119911857Y-95035666D01*
X120054714Y-95035666D01*
X120149952Y-95083285D01*
X120197571Y-95130904D01*
X120245190Y-95226142D01*
X120245190Y-95607095D01*
X119721380Y-94702333D02*
X119721380Y-94083285D01*
X120102333Y-94416619D01*
X120102333Y-94273761D01*
X120149952Y-94178523D01*
X120197571Y-94130904D01*
X120292809Y-94083285D01*
X120530904Y-94083285D01*
X120626142Y-94130904D01*
X120673761Y-94178523D01*
X120721380Y-94273761D01*
X120721380Y-94559476D01*
X120673761Y-94654714D01*
X120626142Y-94702333D01*
%TO.C,H3*%
X125730095Y-76200380D02*
X125730095Y-75200380D01*
X125730095Y-75676571D02*
X126301523Y-75676571D01*
X126301523Y-76200380D02*
X126301523Y-75200380D01*
X126682476Y-75200380D02*
X127301523Y-75200380D01*
X126968190Y-75581333D01*
X127111047Y-75581333D01*
X127206285Y-75628952D01*
X127253904Y-75676571D01*
X127301523Y-75771809D01*
X127301523Y-76009904D01*
X127253904Y-76105142D01*
X127206285Y-76152761D01*
X127111047Y-76200380D01*
X126825333Y-76200380D01*
X126730095Y-76152761D01*
X126682476Y-76105142D01*
%TO.C,H2*%
X32639095Y-31750380D02*
X32639095Y-30750380D01*
X32639095Y-31226571D02*
X33210523Y-31226571D01*
X33210523Y-31750380D02*
X33210523Y-30750380D01*
X33639095Y-30845619D02*
X33686714Y-30798000D01*
X33781952Y-30750380D01*
X34020047Y-30750380D01*
X34115285Y-30798000D01*
X34162904Y-30845619D01*
X34210523Y-30940857D01*
X34210523Y-31036095D01*
X34162904Y-31178952D01*
X33591476Y-31750380D01*
X34210523Y-31750380D01*
D12*
%TO.C,J2*%
X128639825Y-61457175D02*
X127309825Y-61457175D01*
X128639825Y-60127175D02*
X128639825Y-61457175D01*
X128639825Y-53717175D02*
X125979825Y-53717175D01*
X128639825Y-58857175D02*
X128639825Y-53717175D01*
X128639825Y-58857175D02*
X125979825Y-58857175D01*
X125979825Y-58857175D02*
X125979825Y-53717175D01*
X94047500Y-61457175D02*
X92717500Y-61457175D01*
X94047500Y-60127175D02*
X94047500Y-61457175D01*
X94047500Y-53717175D02*
X91387500Y-53717175D01*
X94047500Y-58857175D02*
X94047500Y-53717175D01*
X94047500Y-58857175D02*
X91387500Y-58857175D01*
X91387500Y-58857175D02*
X91387500Y-53717175D01*
%TO.C,C2*%
X106909825Y-60242175D02*
X112149825Y-60242175D01*
X106909825Y-57502175D02*
X112149825Y-57502175D01*
X106909825Y-57502175D02*
X106909825Y-57817175D01*
X106909825Y-59927175D02*
X106909825Y-60242175D01*
X112149825Y-59927175D02*
X112149825Y-60242175D01*
X112149825Y-57502175D02*
X112149825Y-57817175D01*
%TO.C,R1*%
X117959825Y-53215175D02*
X108719825Y-53215175D01*
X118649825Y-54935175D02*
X117959825Y-54935175D01*
X108029825Y-54935175D02*
X108719825Y-54935175D01*
X117959825Y-56655175D02*
X117959825Y-53215175D01*
X108719825Y-56655175D02*
X117959825Y-56655175D01*
X108719825Y-53215175D02*
X108719825Y-56655175D01*
%TO.C,C1*%
X118879825Y-66628222D02*
X116030825Y-66628222D01*
X119042825Y-65867222D02*
X110938825Y-65867222D01*
X118780825Y-66908222D02*
X116030825Y-66908222D01*
X119070825Y-65387222D02*
X110910825Y-65387222D01*
X119055825Y-65747222D02*
X110925825Y-65747222D01*
X118853825Y-66708222D02*
X116030825Y-66708222D01*
X115523825Y-69468222D02*
X114457825Y-69468222D01*
X113950825Y-67348222D02*
X111406825Y-67348222D01*
X117390825Y-68708222D02*
X112590825Y-68708222D01*
X113950825Y-68268222D02*
X112083825Y-68268222D01*
X117495825Y-68628222D02*
X112485825Y-68628222D01*
X113950825Y-66548222D02*
X111076825Y-66548222D01*
X118114825Y-68028222D02*
X116030825Y-68028222D01*
X118966825Y-66308222D02*
X116030825Y-66308222D01*
X118483825Y-67508222D02*
X116030825Y-67508222D01*
X118957825Y-66348222D02*
X116030825Y-66348222D01*
X119014825Y-66067222D02*
X110966825Y-66067222D01*
X118811825Y-66828222D02*
X116030825Y-66828222D01*
X119061825Y-65667222D02*
X110919825Y-65667222D01*
X117305825Y-60977524D02*
X117305825Y-61777524D01*
X117705825Y-61377524D02*
X116905825Y-61377524D01*
X118080825Y-68068222D02*
X116030825Y-68068222D01*
X118825825Y-66788222D02*
X116030825Y-66788222D01*
X117816825Y-68348222D02*
X112164825Y-68348222D01*
X118730825Y-67028222D02*
X116030825Y-67028222D01*
X113950825Y-67228222D02*
X111343825Y-67228222D01*
X113950825Y-68068222D02*
X111900825Y-68068222D01*
X117897825Y-68268222D02*
X116030825Y-68268222D01*
X113950825Y-68028222D02*
X111866825Y-68028222D01*
X119047825Y-65827222D02*
X110933825Y-65827222D01*
X113950825Y-68228222D02*
X112045825Y-68228222D01*
X113950825Y-67628222D02*
X111572825Y-67628222D01*
X117935825Y-68228222D02*
X116030825Y-68228222D01*
X113950825Y-66668222D02*
X111113825Y-66668222D01*
X118937825Y-66428222D02*
X116030825Y-66428222D01*
X113950825Y-67668222D02*
X111598825Y-67668222D01*
X119070825Y-65467222D02*
X110910825Y-65467222D01*
X118617825Y-67268222D02*
X116030825Y-67268222D01*
X113950825Y-67108222D02*
X111286825Y-67108222D01*
X113950825Y-66828222D02*
X111169825Y-66828222D01*
X117641825Y-68508222D02*
X112339825Y-68508222D01*
X113950825Y-67588222D02*
X111546825Y-67588222D01*
X118210825Y-67908222D02*
X116030825Y-67908222D01*
X113950825Y-67468222D02*
X111473825Y-67468222D01*
X118552825Y-67388222D02*
X116030825Y-67388222D01*
X118270825Y-67828222D02*
X116030825Y-67828222D01*
X119064825Y-65627222D02*
X110916825Y-65627222D01*
X117774825Y-68388222D02*
X112206825Y-68388222D01*
X113950825Y-68308222D02*
X112123825Y-68308222D01*
X118656825Y-67188222D02*
X116030825Y-67188222D01*
X113950825Y-66748222D02*
X111140825Y-66748222D01*
X113950825Y-67428222D02*
X111450825Y-67428222D01*
X113950825Y-66788222D02*
X111155825Y-66788222D01*
X119051825Y-65787222D02*
X110929825Y-65787222D01*
X117857825Y-68308222D02*
X116030825Y-68308222D01*
X118904825Y-66548222D02*
X116030825Y-66548222D01*
X119007825Y-66108222D02*
X110973825Y-66108222D01*
X118637825Y-67228222D02*
X116030825Y-67228222D01*
X118328825Y-67748222D02*
X116030825Y-67748222D01*
X116954825Y-68988222D02*
X113026825Y-68988222D01*
X119000825Y-66148222D02*
X110980825Y-66148222D01*
X113950825Y-68108222D02*
X111935825Y-68108222D01*
X118764825Y-66948222D02*
X116030825Y-66948222D01*
X113950825Y-66948222D02*
X111216825Y-66948222D01*
X118146825Y-67988222D02*
X116030825Y-67988222D01*
X113950825Y-67508222D02*
X111497825Y-67508222D01*
X117156825Y-68868222D02*
X112824825Y-68868222D01*
X118747825Y-66988222D02*
X116030825Y-66988222D01*
X119067825Y-65547222D02*
X110913825Y-65547222D01*
X113950825Y-66268222D02*
X111005825Y-66268222D01*
X118530825Y-67428222D02*
X116030825Y-67428222D01*
X113950825Y-66628222D02*
X111101825Y-66628222D01*
X116336825Y-69268222D02*
X113644825Y-69268222D01*
X118975825Y-66268222D02*
X116030825Y-66268222D01*
X113950825Y-67028222D02*
X111250825Y-67028222D01*
X119027825Y-65987222D02*
X110953825Y-65987222D01*
X117731825Y-68428222D02*
X112249825Y-68428222D01*
X119070825Y-65427222D02*
X110910825Y-65427222D01*
X118915825Y-66508222D02*
X116030825Y-66508222D01*
X113950825Y-67188222D02*
X111324825Y-67188222D01*
X118596825Y-67308222D02*
X116030825Y-67308222D01*
X113950825Y-66468222D02*
X111054825Y-66468222D01*
X113950825Y-66508222D02*
X111065825Y-66508222D01*
X118676825Y-67148222D02*
X116030825Y-67148222D01*
X113950825Y-66708222D02*
X111127825Y-66708222D01*
X113950825Y-67828222D02*
X111710825Y-67828222D01*
X116880825Y-69028222D02*
X113100825Y-69028222D01*
X116088825Y-69348222D02*
X113892825Y-69348222D01*
X116443825Y-69228222D02*
X113537825Y-69228222D01*
X117973825Y-68188222D02*
X116030825Y-68188222D01*
X115938825Y-69388222D02*
X114042825Y-69388222D01*
X116721825Y-69108222D02*
X113259825Y-69108222D01*
X118867825Y-66668222D02*
X116030825Y-66668222D01*
X117335825Y-68748222D02*
X112645825Y-68748222D01*
X113950825Y-67388222D02*
X111428825Y-67388222D01*
X118712825Y-67068222D02*
X116030825Y-67068222D01*
X116542825Y-69188222D02*
X113438825Y-69188222D01*
X119038825Y-65907222D02*
X110942825Y-65907222D01*
X113950825Y-67268222D02*
X111363825Y-67268222D01*
X113950825Y-67148222D02*
X111304825Y-67148222D01*
X113950825Y-67308222D02*
X111384825Y-67308222D01*
X113950825Y-66388222D02*
X111033825Y-66388222D01*
X113950825Y-66308222D02*
X111014825Y-66308222D01*
X113950825Y-68148222D02*
X111971825Y-68148222D01*
X118179825Y-67948222D02*
X116030825Y-67948222D01*
X118382825Y-67668222D02*
X116030825Y-67668222D01*
X118947825Y-66388222D02*
X116030825Y-66388222D01*
X113950825Y-67708222D02*
X111625825Y-67708222D01*
X113950825Y-66868222D02*
X111185825Y-66868222D01*
X117546825Y-68588222D02*
X112434825Y-68588222D01*
X113950825Y-67988222D02*
X111834825Y-67988222D01*
X118892825Y-66588222D02*
X116030825Y-66588222D01*
X113950825Y-66588222D02*
X111088825Y-66588222D01*
X116219825Y-69308222D02*
X113761825Y-69308222D01*
X113950825Y-67068222D02*
X111268825Y-67068222D01*
X113950825Y-67548222D02*
X111521825Y-67548222D01*
X118795825Y-66868222D02*
X116030825Y-66868222D01*
X118408825Y-67628222D02*
X116030825Y-67628222D01*
X113950825Y-66428222D02*
X111043825Y-66428222D01*
X117594825Y-68548222D02*
X112386825Y-68548222D01*
X118992825Y-66188222D02*
X110988825Y-66188222D01*
X118984825Y-66228222D02*
X110996825Y-66228222D01*
X113950825Y-67948222D02*
X111801825Y-67948222D01*
X118434825Y-67588222D02*
X116030825Y-67588222D01*
X118009825Y-68148222D02*
X116030825Y-68148222D01*
X118240825Y-67868222D02*
X116030825Y-67868222D01*
X118926825Y-66468222D02*
X116030825Y-66468222D01*
X118299825Y-67788222D02*
X116030825Y-67788222D01*
X119058825Y-65707222D02*
X110922825Y-65707222D01*
X116635825Y-69148222D02*
X113345825Y-69148222D01*
X113950825Y-67908222D02*
X111770825Y-67908222D01*
X117277825Y-68788222D02*
X112703825Y-68788222D01*
X118045825Y-68108222D02*
X116030825Y-68108222D01*
X119032825Y-65947222D02*
X110948825Y-65947222D01*
X118355825Y-67708222D02*
X116030825Y-67708222D01*
X119069825Y-65507222D02*
X110911825Y-65507222D01*
X118459825Y-67548222D02*
X116030825Y-67548222D01*
X113950825Y-66908222D02*
X111200825Y-66908222D01*
X117687825Y-68468222D02*
X112293825Y-68468222D01*
X118694825Y-67108222D02*
X116030825Y-67108222D01*
X113950825Y-67868222D02*
X111740825Y-67868222D01*
X119066825Y-65587222D02*
X110914825Y-65587222D01*
X115758825Y-69428222D02*
X114222825Y-69428222D01*
X117092825Y-68908222D02*
X112888825Y-68908222D01*
X113950825Y-67748222D02*
X111652825Y-67748222D01*
X113950825Y-67788222D02*
X111681825Y-67788222D01*
X117218825Y-68828222D02*
X112762825Y-68828222D01*
X113950825Y-68188222D02*
X112007825Y-68188222D01*
X116803825Y-69068222D02*
X113177825Y-69068222D01*
X118574825Y-67348222D02*
X116030825Y-67348222D01*
X113950825Y-66348222D02*
X111023825Y-66348222D01*
X118507825Y-67468222D02*
X116030825Y-67468222D01*
X113950825Y-66988222D02*
X111233825Y-66988222D01*
X119020825Y-66027222D02*
X110960825Y-66027222D01*
X117024825Y-68948222D02*
X112956825Y-68948222D01*
X117444825Y-68668222D02*
X112536825Y-68668222D01*
X118840825Y-66748222D02*
X116030825Y-66748222D01*
X119110825Y-65387222D02*
G75*
G03*
X119110825Y-65387222I-4120000J0D01*
G01*
%TO.C,J1*%
X65352500Y-61352175D02*
X66682500Y-61352175D01*
X65352500Y-63952175D02*
X68012500Y-63952175D01*
X68012500Y-63952175D02*
X68012500Y-69092175D01*
X65352500Y-69092175D02*
X68012500Y-69092175D01*
X65352500Y-62682175D02*
X65352500Y-61352175D01*
X65352500Y-63952175D02*
X65352500Y-69092175D01*
%TO.C,C2*%
X72317500Y-60242175D02*
X77557500Y-60242175D01*
X72317500Y-57502175D02*
X77557500Y-57502175D01*
X72317500Y-57502175D02*
X72317500Y-57817175D01*
X72317500Y-59927175D02*
X72317500Y-60242175D01*
X77557500Y-59927175D02*
X77557500Y-60242175D01*
X77557500Y-57502175D02*
X77557500Y-57817175D01*
%TO.C,R1*%
X83367500Y-53215175D02*
X74127500Y-53215175D01*
X84057500Y-54935175D02*
X83367500Y-54935175D01*
X73437500Y-54935175D02*
X74127500Y-54935175D01*
X83367500Y-56655175D02*
X83367500Y-53215175D01*
X74127500Y-56655175D02*
X83367500Y-56655175D01*
X74127500Y-53215175D02*
X74127500Y-56655175D01*
%TO.C,J1*%
X99944825Y-61352175D02*
X101274825Y-61352175D01*
X99944825Y-63952175D02*
X102604825Y-63952175D01*
X102604825Y-63952175D02*
X102604825Y-69092175D01*
X99944825Y-69092175D02*
X102604825Y-69092175D01*
X99944825Y-62682175D02*
X99944825Y-61352175D01*
X99944825Y-63952175D02*
X99944825Y-69092175D01*
%TO.C,J2*%
X60004000Y-61386000D02*
X58674000Y-61386000D01*
X60004000Y-60056000D02*
X60004000Y-61386000D01*
X60004000Y-53646000D02*
X57344000Y-53646000D01*
X60004000Y-58786000D02*
X60004000Y-53646000D01*
X60004000Y-58786000D02*
X57344000Y-58786000D01*
X57344000Y-58786000D02*
X57344000Y-53646000D01*
%TO.C,C1*%
X50244000Y-66557047D02*
X47395000Y-66557047D01*
X50407000Y-65796047D02*
X42303000Y-65796047D01*
X50145000Y-66837047D02*
X47395000Y-66837047D01*
X50435000Y-65316047D02*
X42275000Y-65316047D01*
X50420000Y-65676047D02*
X42290000Y-65676047D01*
X50218000Y-66637047D02*
X47395000Y-66637047D01*
X46888000Y-69397047D02*
X45822000Y-69397047D01*
X45315000Y-67277047D02*
X42771000Y-67277047D01*
X48755000Y-68637047D02*
X43955000Y-68637047D01*
X45315000Y-68197047D02*
X43448000Y-68197047D01*
X48860000Y-68557047D02*
X43850000Y-68557047D01*
X45315000Y-66477047D02*
X42441000Y-66477047D01*
X49479000Y-67957047D02*
X47395000Y-67957047D01*
X50331000Y-66237047D02*
X47395000Y-66237047D01*
X49848000Y-67437047D02*
X47395000Y-67437047D01*
X50322000Y-66277047D02*
X47395000Y-66277047D01*
X50379000Y-65996047D02*
X42331000Y-65996047D01*
X50176000Y-66757047D02*
X47395000Y-66757047D01*
X50426000Y-65596047D02*
X42284000Y-65596047D01*
X48670000Y-60906349D02*
X48670000Y-61706349D01*
X49070000Y-61306349D02*
X48270000Y-61306349D01*
X49445000Y-67997047D02*
X47395000Y-67997047D01*
X50190000Y-66717047D02*
X47395000Y-66717047D01*
X49181000Y-68277047D02*
X43529000Y-68277047D01*
X50095000Y-66957047D02*
X47395000Y-66957047D01*
X45315000Y-67157047D02*
X42708000Y-67157047D01*
X45315000Y-67997047D02*
X43265000Y-67997047D01*
X49262000Y-68197047D02*
X47395000Y-68197047D01*
X45315000Y-67957047D02*
X43231000Y-67957047D01*
X50412000Y-65756047D02*
X42298000Y-65756047D01*
X45315000Y-68157047D02*
X43410000Y-68157047D01*
X45315000Y-67557047D02*
X42937000Y-67557047D01*
X49300000Y-68157047D02*
X47395000Y-68157047D01*
X45315000Y-66597047D02*
X42478000Y-66597047D01*
X50302000Y-66357047D02*
X47395000Y-66357047D01*
X45315000Y-67597047D02*
X42963000Y-67597047D01*
X50435000Y-65396047D02*
X42275000Y-65396047D01*
X49982000Y-67197047D02*
X47395000Y-67197047D01*
X45315000Y-67037047D02*
X42651000Y-67037047D01*
X45315000Y-66757047D02*
X42534000Y-66757047D01*
X49006000Y-68437047D02*
X43704000Y-68437047D01*
X45315000Y-67517047D02*
X42911000Y-67517047D01*
X49575000Y-67837047D02*
X47395000Y-67837047D01*
X45315000Y-67397047D02*
X42838000Y-67397047D01*
X49917000Y-67317047D02*
X47395000Y-67317047D01*
X49635000Y-67757047D02*
X47395000Y-67757047D01*
X50429000Y-65556047D02*
X42281000Y-65556047D01*
X49139000Y-68317047D02*
X43571000Y-68317047D01*
X45315000Y-68237047D02*
X43488000Y-68237047D01*
X50021000Y-67117047D02*
X47395000Y-67117047D01*
X45315000Y-66677047D02*
X42505000Y-66677047D01*
X45315000Y-67357047D02*
X42815000Y-67357047D01*
X45315000Y-66717047D02*
X42520000Y-66717047D01*
X50416000Y-65716047D02*
X42294000Y-65716047D01*
X49222000Y-68237047D02*
X47395000Y-68237047D01*
X50269000Y-66477047D02*
X47395000Y-66477047D01*
X50372000Y-66037047D02*
X42338000Y-66037047D01*
X50002000Y-67157047D02*
X47395000Y-67157047D01*
X49693000Y-67677047D02*
X47395000Y-67677047D01*
X48319000Y-68917047D02*
X44391000Y-68917047D01*
X50365000Y-66077047D02*
X42345000Y-66077047D01*
X45315000Y-68037047D02*
X43300000Y-68037047D01*
X50129000Y-66877047D02*
X47395000Y-66877047D01*
X45315000Y-66877047D02*
X42581000Y-66877047D01*
X49511000Y-67917047D02*
X47395000Y-67917047D01*
X45315000Y-67437047D02*
X42862000Y-67437047D01*
X48521000Y-68797047D02*
X44189000Y-68797047D01*
X50112000Y-66917047D02*
X47395000Y-66917047D01*
X50432000Y-65476047D02*
X42278000Y-65476047D01*
X45315000Y-66197047D02*
X42370000Y-66197047D01*
X49895000Y-67357047D02*
X47395000Y-67357047D01*
X45315000Y-66557047D02*
X42466000Y-66557047D01*
X47701000Y-69197047D02*
X45009000Y-69197047D01*
X50340000Y-66197047D02*
X47395000Y-66197047D01*
X45315000Y-66957047D02*
X42615000Y-66957047D01*
X50392000Y-65916047D02*
X42318000Y-65916047D01*
X49096000Y-68357047D02*
X43614000Y-68357047D01*
X50435000Y-65356047D02*
X42275000Y-65356047D01*
X50280000Y-66437047D02*
X47395000Y-66437047D01*
X45315000Y-67117047D02*
X42689000Y-67117047D01*
X49961000Y-67237047D02*
X47395000Y-67237047D01*
X45315000Y-66397047D02*
X42419000Y-66397047D01*
X45315000Y-66437047D02*
X42430000Y-66437047D01*
X50041000Y-67077047D02*
X47395000Y-67077047D01*
X45315000Y-66637047D02*
X42492000Y-66637047D01*
X45315000Y-67757047D02*
X43075000Y-67757047D01*
X48245000Y-68957047D02*
X44465000Y-68957047D01*
X47453000Y-69277047D02*
X45257000Y-69277047D01*
X47808000Y-69157047D02*
X44902000Y-69157047D01*
X49338000Y-68117047D02*
X47395000Y-68117047D01*
X47303000Y-69317047D02*
X45407000Y-69317047D01*
X48086000Y-69037047D02*
X44624000Y-69037047D01*
X50232000Y-66597047D02*
X47395000Y-66597047D01*
X48700000Y-68677047D02*
X44010000Y-68677047D01*
X45315000Y-67317047D02*
X42793000Y-67317047D01*
X50077000Y-66997047D02*
X47395000Y-66997047D01*
X47907000Y-69117047D02*
X44803000Y-69117047D01*
X50403000Y-65836047D02*
X42307000Y-65836047D01*
X45315000Y-67197047D02*
X42728000Y-67197047D01*
X45315000Y-67077047D02*
X42669000Y-67077047D01*
X45315000Y-67237047D02*
X42749000Y-67237047D01*
X45315000Y-66317047D02*
X42398000Y-66317047D01*
X45315000Y-66237047D02*
X42379000Y-66237047D01*
X45315000Y-68077047D02*
X43336000Y-68077047D01*
X49544000Y-67877047D02*
X47395000Y-67877047D01*
X49747000Y-67597047D02*
X47395000Y-67597047D01*
X50312000Y-66317047D02*
X47395000Y-66317047D01*
X45315000Y-67637047D02*
X42990000Y-67637047D01*
X45315000Y-66797047D02*
X42550000Y-66797047D01*
X48911000Y-68517047D02*
X43799000Y-68517047D01*
X45315000Y-67917047D02*
X43199000Y-67917047D01*
X50257000Y-66517047D02*
X47395000Y-66517047D01*
X45315000Y-66517047D02*
X42453000Y-66517047D01*
X47584000Y-69237047D02*
X45126000Y-69237047D01*
X45315000Y-66997047D02*
X42633000Y-66997047D01*
X45315000Y-67477047D02*
X42886000Y-67477047D01*
X50160000Y-66797047D02*
X47395000Y-66797047D01*
X49773000Y-67557047D02*
X47395000Y-67557047D01*
X45315000Y-66357047D02*
X42408000Y-66357047D01*
X48959000Y-68477047D02*
X43751000Y-68477047D01*
X50357000Y-66117047D02*
X42353000Y-66117047D01*
X50349000Y-66157047D02*
X42361000Y-66157047D01*
X45315000Y-67877047D02*
X43166000Y-67877047D01*
X49799000Y-67517047D02*
X47395000Y-67517047D01*
X49374000Y-68077047D02*
X47395000Y-68077047D01*
X49605000Y-67797047D02*
X47395000Y-67797047D01*
X50291000Y-66397047D02*
X47395000Y-66397047D01*
X49664000Y-67717047D02*
X47395000Y-67717047D01*
X50423000Y-65636047D02*
X42287000Y-65636047D01*
X48000000Y-69077047D02*
X44710000Y-69077047D01*
X45315000Y-67837047D02*
X43135000Y-67837047D01*
X48642000Y-68717047D02*
X44068000Y-68717047D01*
X49410000Y-68037047D02*
X47395000Y-68037047D01*
X50397000Y-65876047D02*
X42313000Y-65876047D01*
X49720000Y-67637047D02*
X47395000Y-67637047D01*
X50434000Y-65436047D02*
X42276000Y-65436047D01*
X49824000Y-67477047D02*
X47395000Y-67477047D01*
X45315000Y-66837047D02*
X42565000Y-66837047D01*
X49052000Y-68397047D02*
X43658000Y-68397047D01*
X50059000Y-67037047D02*
X47395000Y-67037047D01*
X45315000Y-67797047D02*
X43105000Y-67797047D01*
X50431000Y-65516047D02*
X42279000Y-65516047D01*
X47123000Y-69357047D02*
X45587000Y-69357047D01*
X48457000Y-68837047D02*
X44253000Y-68837047D01*
X45315000Y-67677047D02*
X43017000Y-67677047D01*
X45315000Y-67717047D02*
X43046000Y-67717047D01*
X48583000Y-68757047D02*
X44127000Y-68757047D01*
X45315000Y-68117047D02*
X43372000Y-68117047D01*
X48168000Y-68997047D02*
X44542000Y-68997047D01*
X49939000Y-67277047D02*
X47395000Y-67277047D01*
X45315000Y-66277047D02*
X42388000Y-66277047D01*
X49872000Y-67397047D02*
X47395000Y-67397047D01*
X45315000Y-66917047D02*
X42598000Y-66917047D01*
X50385000Y-65956047D02*
X42325000Y-65956047D01*
X48389000Y-68877047D02*
X44321000Y-68877047D01*
X48809000Y-68597047D02*
X43901000Y-68597047D01*
X50205000Y-66677047D02*
X47395000Y-66677047D01*
X50475000Y-65316047D02*
G75*
G03*
X50475000Y-65316047I-4120000J0D01*
G01*
%TO.C,C2*%
X38274000Y-60171000D02*
X43514000Y-60171000D01*
X38274000Y-57431000D02*
X43514000Y-57431000D01*
X38274000Y-57431000D02*
X38274000Y-57746000D01*
X38274000Y-59856000D02*
X38274000Y-60171000D01*
X43514000Y-59856000D02*
X43514000Y-60171000D01*
X43514000Y-57431000D02*
X43514000Y-57746000D01*
%TO.C,R1*%
X49324000Y-53144000D02*
X40084000Y-53144000D01*
X50014000Y-54864000D02*
X49324000Y-54864000D01*
X39394000Y-54864000D02*
X40084000Y-54864000D01*
X49324000Y-56584000D02*
X49324000Y-53144000D01*
X40084000Y-56584000D02*
X49324000Y-56584000D01*
X40084000Y-53144000D02*
X40084000Y-56584000D01*
%TO.C,J1*%
X31309000Y-61281000D02*
X32639000Y-61281000D01*
X31309000Y-63881000D02*
X33969000Y-63881000D01*
X33969000Y-63881000D02*
X33969000Y-69021000D01*
X31309000Y-69021000D02*
X33969000Y-69021000D01*
X31309000Y-62611000D02*
X31309000Y-61281000D01*
X31309000Y-63881000D02*
X31309000Y-69021000D01*
%TO.C,C1*%
X84287500Y-66628222D02*
X81438500Y-66628222D01*
X84450500Y-65867222D02*
X76346500Y-65867222D01*
X84188500Y-66908222D02*
X81438500Y-66908222D01*
X84478500Y-65387222D02*
X76318500Y-65387222D01*
X84463500Y-65747222D02*
X76333500Y-65747222D01*
X84261500Y-66708222D02*
X81438500Y-66708222D01*
X80931500Y-69468222D02*
X79865500Y-69468222D01*
X79358500Y-67348222D02*
X76814500Y-67348222D01*
X82798500Y-68708222D02*
X77998500Y-68708222D01*
X79358500Y-68268222D02*
X77491500Y-68268222D01*
X82903500Y-68628222D02*
X77893500Y-68628222D01*
X79358500Y-66548222D02*
X76484500Y-66548222D01*
X83522500Y-68028222D02*
X81438500Y-68028222D01*
X84374500Y-66308222D02*
X81438500Y-66308222D01*
X83891500Y-67508222D02*
X81438500Y-67508222D01*
X84365500Y-66348222D02*
X81438500Y-66348222D01*
X84422500Y-66067222D02*
X76374500Y-66067222D01*
X84219500Y-66828222D02*
X81438500Y-66828222D01*
X84469500Y-65667222D02*
X76327500Y-65667222D01*
X82713500Y-60977524D02*
X82713500Y-61777524D01*
X83113500Y-61377524D02*
X82313500Y-61377524D01*
X83488500Y-68068222D02*
X81438500Y-68068222D01*
X84233500Y-66788222D02*
X81438500Y-66788222D01*
X83224500Y-68348222D02*
X77572500Y-68348222D01*
X84138500Y-67028222D02*
X81438500Y-67028222D01*
X79358500Y-67228222D02*
X76751500Y-67228222D01*
X79358500Y-68068222D02*
X77308500Y-68068222D01*
X83305500Y-68268222D02*
X81438500Y-68268222D01*
X79358500Y-68028222D02*
X77274500Y-68028222D01*
X84455500Y-65827222D02*
X76341500Y-65827222D01*
X79358500Y-68228222D02*
X77453500Y-68228222D01*
X79358500Y-67628222D02*
X76980500Y-67628222D01*
X83343500Y-68228222D02*
X81438500Y-68228222D01*
X79358500Y-66668222D02*
X76521500Y-66668222D01*
X84345500Y-66428222D02*
X81438500Y-66428222D01*
X79358500Y-67668222D02*
X77006500Y-67668222D01*
X84478500Y-65467222D02*
X76318500Y-65467222D01*
X84025500Y-67268222D02*
X81438500Y-67268222D01*
X79358500Y-67108222D02*
X76694500Y-67108222D01*
X79358500Y-66828222D02*
X76577500Y-66828222D01*
X83049500Y-68508222D02*
X77747500Y-68508222D01*
X79358500Y-67588222D02*
X76954500Y-67588222D01*
X83618500Y-67908222D02*
X81438500Y-67908222D01*
X79358500Y-67468222D02*
X76881500Y-67468222D01*
X83960500Y-67388222D02*
X81438500Y-67388222D01*
X83678500Y-67828222D02*
X81438500Y-67828222D01*
X84472500Y-65627222D02*
X76324500Y-65627222D01*
X83182500Y-68388222D02*
X77614500Y-68388222D01*
X79358500Y-68308222D02*
X77531500Y-68308222D01*
X84064500Y-67188222D02*
X81438500Y-67188222D01*
X79358500Y-66748222D02*
X76548500Y-66748222D01*
X79358500Y-67428222D02*
X76858500Y-67428222D01*
X79358500Y-66788222D02*
X76563500Y-66788222D01*
X84459500Y-65787222D02*
X76337500Y-65787222D01*
X83265500Y-68308222D02*
X81438500Y-68308222D01*
X84312500Y-66548222D02*
X81438500Y-66548222D01*
X84415500Y-66108222D02*
X76381500Y-66108222D01*
X84045500Y-67228222D02*
X81438500Y-67228222D01*
X83736500Y-67748222D02*
X81438500Y-67748222D01*
X82362500Y-68988222D02*
X78434500Y-68988222D01*
X84408500Y-66148222D02*
X76388500Y-66148222D01*
X79358500Y-68108222D02*
X77343500Y-68108222D01*
X84172500Y-66948222D02*
X81438500Y-66948222D01*
X79358500Y-66948222D02*
X76624500Y-66948222D01*
X83554500Y-67988222D02*
X81438500Y-67988222D01*
X79358500Y-67508222D02*
X76905500Y-67508222D01*
X82564500Y-68868222D02*
X78232500Y-68868222D01*
X84155500Y-66988222D02*
X81438500Y-66988222D01*
X84475500Y-65547222D02*
X76321500Y-65547222D01*
X79358500Y-66268222D02*
X76413500Y-66268222D01*
X83938500Y-67428222D02*
X81438500Y-67428222D01*
X79358500Y-66628222D02*
X76509500Y-66628222D01*
X81744500Y-69268222D02*
X79052500Y-69268222D01*
X84383500Y-66268222D02*
X81438500Y-66268222D01*
X79358500Y-67028222D02*
X76658500Y-67028222D01*
X84435500Y-65987222D02*
X76361500Y-65987222D01*
X83139500Y-68428222D02*
X77657500Y-68428222D01*
X84478500Y-65427222D02*
X76318500Y-65427222D01*
X84323500Y-66508222D02*
X81438500Y-66508222D01*
X79358500Y-67188222D02*
X76732500Y-67188222D01*
X84004500Y-67308222D02*
X81438500Y-67308222D01*
X79358500Y-66468222D02*
X76462500Y-66468222D01*
X79358500Y-66508222D02*
X76473500Y-66508222D01*
X84084500Y-67148222D02*
X81438500Y-67148222D01*
X79358500Y-66708222D02*
X76535500Y-66708222D01*
X79358500Y-67828222D02*
X77118500Y-67828222D01*
X82288500Y-69028222D02*
X78508500Y-69028222D01*
X81496500Y-69348222D02*
X79300500Y-69348222D01*
X81851500Y-69228222D02*
X78945500Y-69228222D01*
X83381500Y-68188222D02*
X81438500Y-68188222D01*
X81346500Y-69388222D02*
X79450500Y-69388222D01*
X82129500Y-69108222D02*
X78667500Y-69108222D01*
X84275500Y-66668222D02*
X81438500Y-66668222D01*
X82743500Y-68748222D02*
X78053500Y-68748222D01*
X79358500Y-67388222D02*
X76836500Y-67388222D01*
X84120500Y-67068222D02*
X81438500Y-67068222D01*
X81950500Y-69188222D02*
X78846500Y-69188222D01*
X84446500Y-65907222D02*
X76350500Y-65907222D01*
X79358500Y-67268222D02*
X76771500Y-67268222D01*
X79358500Y-67148222D02*
X76712500Y-67148222D01*
X79358500Y-67308222D02*
X76792500Y-67308222D01*
X79358500Y-66388222D02*
X76441500Y-66388222D01*
X79358500Y-66308222D02*
X76422500Y-66308222D01*
X79358500Y-68148222D02*
X77379500Y-68148222D01*
X83587500Y-67948222D02*
X81438500Y-67948222D01*
X83790500Y-67668222D02*
X81438500Y-67668222D01*
X84355500Y-66388222D02*
X81438500Y-66388222D01*
X79358500Y-67708222D02*
X77033500Y-67708222D01*
X79358500Y-66868222D02*
X76593500Y-66868222D01*
X82954500Y-68588222D02*
X77842500Y-68588222D01*
X79358500Y-67988222D02*
X77242500Y-67988222D01*
X84300500Y-66588222D02*
X81438500Y-66588222D01*
X79358500Y-66588222D02*
X76496500Y-66588222D01*
X81627500Y-69308222D02*
X79169500Y-69308222D01*
X79358500Y-67068222D02*
X76676500Y-67068222D01*
X79358500Y-67548222D02*
X76929500Y-67548222D01*
X84203500Y-66868222D02*
X81438500Y-66868222D01*
X83816500Y-67628222D02*
X81438500Y-67628222D01*
X79358500Y-66428222D02*
X76451500Y-66428222D01*
X83002500Y-68548222D02*
X77794500Y-68548222D01*
X84400500Y-66188222D02*
X76396500Y-66188222D01*
X84392500Y-66228222D02*
X76404500Y-66228222D01*
X79358500Y-67948222D02*
X77209500Y-67948222D01*
X83842500Y-67588222D02*
X81438500Y-67588222D01*
X83417500Y-68148222D02*
X81438500Y-68148222D01*
X83648500Y-67868222D02*
X81438500Y-67868222D01*
X84334500Y-66468222D02*
X81438500Y-66468222D01*
X83707500Y-67788222D02*
X81438500Y-67788222D01*
X84466500Y-65707222D02*
X76330500Y-65707222D01*
X82043500Y-69148222D02*
X78753500Y-69148222D01*
X79358500Y-67908222D02*
X77178500Y-67908222D01*
X82685500Y-68788222D02*
X78111500Y-68788222D01*
X83453500Y-68108222D02*
X81438500Y-68108222D01*
X84440500Y-65947222D02*
X76356500Y-65947222D01*
X83763500Y-67708222D02*
X81438500Y-67708222D01*
X84477500Y-65507222D02*
X76319500Y-65507222D01*
X83867500Y-67548222D02*
X81438500Y-67548222D01*
X79358500Y-66908222D02*
X76608500Y-66908222D01*
X83095500Y-68468222D02*
X77701500Y-68468222D01*
X84102500Y-67108222D02*
X81438500Y-67108222D01*
X79358500Y-67868222D02*
X77148500Y-67868222D01*
X84474500Y-65587222D02*
X76322500Y-65587222D01*
X81166500Y-69428222D02*
X79630500Y-69428222D01*
X82500500Y-68908222D02*
X78296500Y-68908222D01*
X79358500Y-67748222D02*
X77060500Y-67748222D01*
X79358500Y-67788222D02*
X77089500Y-67788222D01*
X82626500Y-68828222D02*
X78170500Y-68828222D01*
X79358500Y-68188222D02*
X77415500Y-68188222D01*
X82211500Y-69068222D02*
X78585500Y-69068222D01*
X83982500Y-67348222D02*
X81438500Y-67348222D01*
X79358500Y-66348222D02*
X76431500Y-66348222D01*
X83915500Y-67468222D02*
X81438500Y-67468222D01*
X79358500Y-66988222D02*
X76641500Y-66988222D01*
X84428500Y-66027222D02*
X76368500Y-66027222D01*
X82432500Y-68948222D02*
X78364500Y-68948222D01*
X82852500Y-68668222D02*
X77944500Y-68668222D01*
X84248500Y-66748222D02*
X81438500Y-66748222D01*
X84518500Y-65387222D02*
G75*
G03*
X84518500Y-65387222I-4120000J0D01*
G01*
%TO.C,J2*%
X128512825Y-40502175D02*
X127182825Y-40502175D01*
X128512825Y-39172175D02*
X128512825Y-40502175D01*
X128512825Y-32762175D02*
X125852825Y-32762175D01*
X128512825Y-37902175D02*
X128512825Y-32762175D01*
X128512825Y-37902175D02*
X125852825Y-37902175D01*
X125852825Y-37902175D02*
X125852825Y-32762175D01*
%TO.C,C1*%
X118752825Y-45673222D02*
X115903825Y-45673222D01*
X118915825Y-44912222D02*
X110811825Y-44912222D01*
X118653825Y-45953222D02*
X115903825Y-45953222D01*
X118943825Y-44432222D02*
X110783825Y-44432222D01*
X118928825Y-44792222D02*
X110798825Y-44792222D01*
X118726825Y-45753222D02*
X115903825Y-45753222D01*
X115396825Y-48513222D02*
X114330825Y-48513222D01*
X113823825Y-46393222D02*
X111279825Y-46393222D01*
X117263825Y-47753222D02*
X112463825Y-47753222D01*
X113823825Y-47313222D02*
X111956825Y-47313222D01*
X117368825Y-47673222D02*
X112358825Y-47673222D01*
X113823825Y-45593222D02*
X110949825Y-45593222D01*
X117987825Y-47073222D02*
X115903825Y-47073222D01*
X118839825Y-45353222D02*
X115903825Y-45353222D01*
X118356825Y-46553222D02*
X115903825Y-46553222D01*
X118830825Y-45393222D02*
X115903825Y-45393222D01*
X118887825Y-45112222D02*
X110839825Y-45112222D01*
X118684825Y-45873222D02*
X115903825Y-45873222D01*
X118934825Y-44712222D02*
X110792825Y-44712222D01*
X117178825Y-40022524D02*
X117178825Y-40822524D01*
X117578825Y-40422524D02*
X116778825Y-40422524D01*
X117953825Y-47113222D02*
X115903825Y-47113222D01*
X118698825Y-45833222D02*
X115903825Y-45833222D01*
X117689825Y-47393222D02*
X112037825Y-47393222D01*
X118603825Y-46073222D02*
X115903825Y-46073222D01*
X113823825Y-46273222D02*
X111216825Y-46273222D01*
X113823825Y-47113222D02*
X111773825Y-47113222D01*
X117770825Y-47313222D02*
X115903825Y-47313222D01*
X113823825Y-47073222D02*
X111739825Y-47073222D01*
X118920825Y-44872222D02*
X110806825Y-44872222D01*
X113823825Y-47273222D02*
X111918825Y-47273222D01*
X113823825Y-46673222D02*
X111445825Y-46673222D01*
X117808825Y-47273222D02*
X115903825Y-47273222D01*
X113823825Y-45713222D02*
X110986825Y-45713222D01*
X118810825Y-45473222D02*
X115903825Y-45473222D01*
X113823825Y-46713222D02*
X111471825Y-46713222D01*
X118943825Y-44512222D02*
X110783825Y-44512222D01*
X118490825Y-46313222D02*
X115903825Y-46313222D01*
X113823825Y-46153222D02*
X111159825Y-46153222D01*
X113823825Y-45873222D02*
X111042825Y-45873222D01*
X117514825Y-47553222D02*
X112212825Y-47553222D01*
X113823825Y-46633222D02*
X111419825Y-46633222D01*
X118083825Y-46953222D02*
X115903825Y-46953222D01*
X113823825Y-46513222D02*
X111346825Y-46513222D01*
X118425825Y-46433222D02*
X115903825Y-46433222D01*
X118143825Y-46873222D02*
X115903825Y-46873222D01*
X118937825Y-44672222D02*
X110789825Y-44672222D01*
X117647825Y-47433222D02*
X112079825Y-47433222D01*
X113823825Y-47353222D02*
X111996825Y-47353222D01*
X118529825Y-46233222D02*
X115903825Y-46233222D01*
X113823825Y-45793222D02*
X111013825Y-45793222D01*
X113823825Y-46473222D02*
X111323825Y-46473222D01*
X113823825Y-45833222D02*
X111028825Y-45833222D01*
X118924825Y-44832222D02*
X110802825Y-44832222D01*
X117730825Y-47353222D02*
X115903825Y-47353222D01*
X118777825Y-45593222D02*
X115903825Y-45593222D01*
X118880825Y-45153222D02*
X110846825Y-45153222D01*
X118510825Y-46273222D02*
X115903825Y-46273222D01*
X118201825Y-46793222D02*
X115903825Y-46793222D01*
X116827825Y-48033222D02*
X112899825Y-48033222D01*
X118873825Y-45193222D02*
X110853825Y-45193222D01*
X113823825Y-47153222D02*
X111808825Y-47153222D01*
X118637825Y-45993222D02*
X115903825Y-45993222D01*
X113823825Y-45993222D02*
X111089825Y-45993222D01*
X118019825Y-47033222D02*
X115903825Y-47033222D01*
X113823825Y-46553222D02*
X111370825Y-46553222D01*
X117029825Y-47913222D02*
X112697825Y-47913222D01*
X118620825Y-46033222D02*
X115903825Y-46033222D01*
X118940825Y-44592222D02*
X110786825Y-44592222D01*
X113823825Y-45313222D02*
X110878825Y-45313222D01*
X118403825Y-46473222D02*
X115903825Y-46473222D01*
X113823825Y-45673222D02*
X110974825Y-45673222D01*
X116209825Y-48313222D02*
X113517825Y-48313222D01*
X118848825Y-45313222D02*
X115903825Y-45313222D01*
X113823825Y-46073222D02*
X111123825Y-46073222D01*
X118900825Y-45032222D02*
X110826825Y-45032222D01*
X117604825Y-47473222D02*
X112122825Y-47473222D01*
X118943825Y-44472222D02*
X110783825Y-44472222D01*
X118788825Y-45553222D02*
X115903825Y-45553222D01*
X113823825Y-46233222D02*
X111197825Y-46233222D01*
X118469825Y-46353222D02*
X115903825Y-46353222D01*
X113823825Y-45513222D02*
X110927825Y-45513222D01*
X113823825Y-45553222D02*
X110938825Y-45553222D01*
X118549825Y-46193222D02*
X115903825Y-46193222D01*
X113823825Y-45753222D02*
X111000825Y-45753222D01*
X113823825Y-46873222D02*
X111583825Y-46873222D01*
X116753825Y-48073222D02*
X112973825Y-48073222D01*
X115961825Y-48393222D02*
X113765825Y-48393222D01*
X116316825Y-48273222D02*
X113410825Y-48273222D01*
X117846825Y-47233222D02*
X115903825Y-47233222D01*
X115811825Y-48433222D02*
X113915825Y-48433222D01*
X116594825Y-48153222D02*
X113132825Y-48153222D01*
X118740825Y-45713222D02*
X115903825Y-45713222D01*
X117208825Y-47793222D02*
X112518825Y-47793222D01*
X113823825Y-46433222D02*
X111301825Y-46433222D01*
X118585825Y-46113222D02*
X115903825Y-46113222D01*
X116415825Y-48233222D02*
X113311825Y-48233222D01*
X118911825Y-44952222D02*
X110815825Y-44952222D01*
X113823825Y-46313222D02*
X111236825Y-46313222D01*
X113823825Y-46193222D02*
X111177825Y-46193222D01*
X113823825Y-46353222D02*
X111257825Y-46353222D01*
X113823825Y-45433222D02*
X110906825Y-45433222D01*
X113823825Y-45353222D02*
X110887825Y-45353222D01*
X113823825Y-47193222D02*
X111844825Y-47193222D01*
X118052825Y-46993222D02*
X115903825Y-46993222D01*
X118255825Y-46713222D02*
X115903825Y-46713222D01*
X118820825Y-45433222D02*
X115903825Y-45433222D01*
X113823825Y-46753222D02*
X111498825Y-46753222D01*
X113823825Y-45913222D02*
X111058825Y-45913222D01*
X117419825Y-47633222D02*
X112307825Y-47633222D01*
X113823825Y-47033222D02*
X111707825Y-47033222D01*
X118765825Y-45633222D02*
X115903825Y-45633222D01*
X113823825Y-45633222D02*
X110961825Y-45633222D01*
X116092825Y-48353222D02*
X113634825Y-48353222D01*
X113823825Y-46113222D02*
X111141825Y-46113222D01*
X113823825Y-46593222D02*
X111394825Y-46593222D01*
X118668825Y-45913222D02*
X115903825Y-45913222D01*
X118281825Y-46673222D02*
X115903825Y-46673222D01*
X113823825Y-45473222D02*
X110916825Y-45473222D01*
X117467825Y-47593222D02*
X112259825Y-47593222D01*
X118865825Y-45233222D02*
X110861825Y-45233222D01*
X118857825Y-45273222D02*
X110869825Y-45273222D01*
X113823825Y-46993222D02*
X111674825Y-46993222D01*
X118307825Y-46633222D02*
X115903825Y-46633222D01*
X117882825Y-47193222D02*
X115903825Y-47193222D01*
X118113825Y-46913222D02*
X115903825Y-46913222D01*
X118799825Y-45513222D02*
X115903825Y-45513222D01*
X118172825Y-46833222D02*
X115903825Y-46833222D01*
X118931825Y-44752222D02*
X110795825Y-44752222D01*
X116508825Y-48193222D02*
X113218825Y-48193222D01*
X113823825Y-46953222D02*
X111643825Y-46953222D01*
X117150825Y-47833222D02*
X112576825Y-47833222D01*
X117918825Y-47153222D02*
X115903825Y-47153222D01*
X118905825Y-44992222D02*
X110821825Y-44992222D01*
X118228825Y-46753222D02*
X115903825Y-46753222D01*
X118942825Y-44552222D02*
X110784825Y-44552222D01*
X118332825Y-46593222D02*
X115903825Y-46593222D01*
X113823825Y-45953222D02*
X111073825Y-45953222D01*
X117560825Y-47513222D02*
X112166825Y-47513222D01*
X118567825Y-46153222D02*
X115903825Y-46153222D01*
X113823825Y-46913222D02*
X111613825Y-46913222D01*
X118939825Y-44632222D02*
X110787825Y-44632222D01*
X115631825Y-48473222D02*
X114095825Y-48473222D01*
X116965825Y-47953222D02*
X112761825Y-47953222D01*
X113823825Y-46793222D02*
X111525825Y-46793222D01*
X113823825Y-46833222D02*
X111554825Y-46833222D01*
X117091825Y-47873222D02*
X112635825Y-47873222D01*
X113823825Y-47233222D02*
X111880825Y-47233222D01*
X116676825Y-48113222D02*
X113050825Y-48113222D01*
X118447825Y-46393222D02*
X115903825Y-46393222D01*
X113823825Y-45393222D02*
X110896825Y-45393222D01*
X118380825Y-46513222D02*
X115903825Y-46513222D01*
X113823825Y-46033222D02*
X111106825Y-46033222D01*
X118893825Y-45072222D02*
X110833825Y-45072222D01*
X116897825Y-47993222D02*
X112829825Y-47993222D01*
X117317825Y-47713222D02*
X112409825Y-47713222D01*
X118713825Y-45793222D02*
X115903825Y-45793222D01*
X118983825Y-44432222D02*
G75*
G03*
X118983825Y-44432222I-4120000J0D01*
G01*
%TO.C,C2*%
X106782825Y-39287175D02*
X112022825Y-39287175D01*
X106782825Y-36547175D02*
X112022825Y-36547175D01*
X106782825Y-36547175D02*
X106782825Y-36862175D01*
X106782825Y-38972175D02*
X106782825Y-39287175D01*
X112022825Y-38972175D02*
X112022825Y-39287175D01*
X112022825Y-36547175D02*
X112022825Y-36862175D01*
%TO.C,R1*%
X117832825Y-32260175D02*
X108592825Y-32260175D01*
X118522825Y-33980175D02*
X117832825Y-33980175D01*
X107902825Y-33980175D02*
X108592825Y-33980175D01*
X117832825Y-35700175D02*
X117832825Y-32260175D01*
X108592825Y-35700175D02*
X117832825Y-35700175D01*
X108592825Y-32260175D02*
X108592825Y-35700175D01*
%TO.C,J1*%
X99817825Y-40397175D02*
X101147825Y-40397175D01*
X99817825Y-42997175D02*
X102477825Y-42997175D01*
X102477825Y-42997175D02*
X102477825Y-48137175D01*
X99817825Y-48137175D02*
X102477825Y-48137175D01*
X99817825Y-41727175D02*
X99817825Y-40397175D01*
X99817825Y-42997175D02*
X99817825Y-48137175D01*
%TO.C,J2*%
X93920500Y-40502175D02*
X92590500Y-40502175D01*
X93920500Y-39172175D02*
X93920500Y-40502175D01*
X93920500Y-32762175D02*
X91260500Y-32762175D01*
X93920500Y-37902175D02*
X93920500Y-32762175D01*
X93920500Y-37902175D02*
X91260500Y-37902175D01*
X91260500Y-37902175D02*
X91260500Y-32762175D01*
%TO.C,C1*%
X84160500Y-45673222D02*
X81311500Y-45673222D01*
X84323500Y-44912222D02*
X76219500Y-44912222D01*
X84061500Y-45953222D02*
X81311500Y-45953222D01*
X84351500Y-44432222D02*
X76191500Y-44432222D01*
X84336500Y-44792222D02*
X76206500Y-44792222D01*
X84134500Y-45753222D02*
X81311500Y-45753222D01*
X80804500Y-48513222D02*
X79738500Y-48513222D01*
X79231500Y-46393222D02*
X76687500Y-46393222D01*
X82671500Y-47753222D02*
X77871500Y-47753222D01*
X79231500Y-47313222D02*
X77364500Y-47313222D01*
X82776500Y-47673222D02*
X77766500Y-47673222D01*
X79231500Y-45593222D02*
X76357500Y-45593222D01*
X83395500Y-47073222D02*
X81311500Y-47073222D01*
X84247500Y-45353222D02*
X81311500Y-45353222D01*
X83764500Y-46553222D02*
X81311500Y-46553222D01*
X84238500Y-45393222D02*
X81311500Y-45393222D01*
X84295500Y-45112222D02*
X76247500Y-45112222D01*
X84092500Y-45873222D02*
X81311500Y-45873222D01*
X84342500Y-44712222D02*
X76200500Y-44712222D01*
X82586500Y-40022524D02*
X82586500Y-40822524D01*
X82986500Y-40422524D02*
X82186500Y-40422524D01*
X83361500Y-47113222D02*
X81311500Y-47113222D01*
X84106500Y-45833222D02*
X81311500Y-45833222D01*
X83097500Y-47393222D02*
X77445500Y-47393222D01*
X84011500Y-46073222D02*
X81311500Y-46073222D01*
X79231500Y-46273222D02*
X76624500Y-46273222D01*
X79231500Y-47113222D02*
X77181500Y-47113222D01*
X83178500Y-47313222D02*
X81311500Y-47313222D01*
X79231500Y-47073222D02*
X77147500Y-47073222D01*
X84328500Y-44872222D02*
X76214500Y-44872222D01*
X79231500Y-47273222D02*
X77326500Y-47273222D01*
X79231500Y-46673222D02*
X76853500Y-46673222D01*
X83216500Y-47273222D02*
X81311500Y-47273222D01*
X79231500Y-45713222D02*
X76394500Y-45713222D01*
X84218500Y-45473222D02*
X81311500Y-45473222D01*
X79231500Y-46713222D02*
X76879500Y-46713222D01*
X84351500Y-44512222D02*
X76191500Y-44512222D01*
X83898500Y-46313222D02*
X81311500Y-46313222D01*
X79231500Y-46153222D02*
X76567500Y-46153222D01*
X79231500Y-45873222D02*
X76450500Y-45873222D01*
X82922500Y-47553222D02*
X77620500Y-47553222D01*
X79231500Y-46633222D02*
X76827500Y-46633222D01*
X83491500Y-46953222D02*
X81311500Y-46953222D01*
X79231500Y-46513222D02*
X76754500Y-46513222D01*
X83833500Y-46433222D02*
X81311500Y-46433222D01*
X83551500Y-46873222D02*
X81311500Y-46873222D01*
X84345500Y-44672222D02*
X76197500Y-44672222D01*
X83055500Y-47433222D02*
X77487500Y-47433222D01*
X79231500Y-47353222D02*
X77404500Y-47353222D01*
X83937500Y-46233222D02*
X81311500Y-46233222D01*
X79231500Y-45793222D02*
X76421500Y-45793222D01*
X79231500Y-46473222D02*
X76731500Y-46473222D01*
X79231500Y-45833222D02*
X76436500Y-45833222D01*
X84332500Y-44832222D02*
X76210500Y-44832222D01*
X83138500Y-47353222D02*
X81311500Y-47353222D01*
X84185500Y-45593222D02*
X81311500Y-45593222D01*
X84288500Y-45153222D02*
X76254500Y-45153222D01*
X83918500Y-46273222D02*
X81311500Y-46273222D01*
X83609500Y-46793222D02*
X81311500Y-46793222D01*
X82235500Y-48033222D02*
X78307500Y-48033222D01*
X84281500Y-45193222D02*
X76261500Y-45193222D01*
X79231500Y-47153222D02*
X77216500Y-47153222D01*
X84045500Y-45993222D02*
X81311500Y-45993222D01*
X79231500Y-45993222D02*
X76497500Y-45993222D01*
X83427500Y-47033222D02*
X81311500Y-47033222D01*
X79231500Y-46553222D02*
X76778500Y-46553222D01*
X82437500Y-47913222D02*
X78105500Y-47913222D01*
X84028500Y-46033222D02*
X81311500Y-46033222D01*
X84348500Y-44592222D02*
X76194500Y-44592222D01*
X79231500Y-45313222D02*
X76286500Y-45313222D01*
X83811500Y-46473222D02*
X81311500Y-46473222D01*
X79231500Y-45673222D02*
X76382500Y-45673222D01*
X81617500Y-48313222D02*
X78925500Y-48313222D01*
X84256500Y-45313222D02*
X81311500Y-45313222D01*
X79231500Y-46073222D02*
X76531500Y-46073222D01*
X84308500Y-45032222D02*
X76234500Y-45032222D01*
X83012500Y-47473222D02*
X77530500Y-47473222D01*
X84351500Y-44472222D02*
X76191500Y-44472222D01*
X84196500Y-45553222D02*
X81311500Y-45553222D01*
X79231500Y-46233222D02*
X76605500Y-46233222D01*
X83877500Y-46353222D02*
X81311500Y-46353222D01*
X79231500Y-45513222D02*
X76335500Y-45513222D01*
X79231500Y-45553222D02*
X76346500Y-45553222D01*
X83957500Y-46193222D02*
X81311500Y-46193222D01*
X79231500Y-45753222D02*
X76408500Y-45753222D01*
X79231500Y-46873222D02*
X76991500Y-46873222D01*
X82161500Y-48073222D02*
X78381500Y-48073222D01*
X81369500Y-48393222D02*
X79173500Y-48393222D01*
X81724500Y-48273222D02*
X78818500Y-48273222D01*
X83254500Y-47233222D02*
X81311500Y-47233222D01*
X81219500Y-48433222D02*
X79323500Y-48433222D01*
X82002500Y-48153222D02*
X78540500Y-48153222D01*
X84148500Y-45713222D02*
X81311500Y-45713222D01*
X82616500Y-47793222D02*
X77926500Y-47793222D01*
X79231500Y-46433222D02*
X76709500Y-46433222D01*
X83993500Y-46113222D02*
X81311500Y-46113222D01*
X81823500Y-48233222D02*
X78719500Y-48233222D01*
X84319500Y-44952222D02*
X76223500Y-44952222D01*
X79231500Y-46313222D02*
X76644500Y-46313222D01*
X79231500Y-46193222D02*
X76585500Y-46193222D01*
X79231500Y-46353222D02*
X76665500Y-46353222D01*
X79231500Y-45433222D02*
X76314500Y-45433222D01*
X79231500Y-45353222D02*
X76295500Y-45353222D01*
X79231500Y-47193222D02*
X77252500Y-47193222D01*
X83460500Y-46993222D02*
X81311500Y-46993222D01*
X83663500Y-46713222D02*
X81311500Y-46713222D01*
X84228500Y-45433222D02*
X81311500Y-45433222D01*
X79231500Y-46753222D02*
X76906500Y-46753222D01*
X79231500Y-45913222D02*
X76466500Y-45913222D01*
X82827500Y-47633222D02*
X77715500Y-47633222D01*
X79231500Y-47033222D02*
X77115500Y-47033222D01*
X84173500Y-45633222D02*
X81311500Y-45633222D01*
X79231500Y-45633222D02*
X76369500Y-45633222D01*
X81500500Y-48353222D02*
X79042500Y-48353222D01*
X79231500Y-46113222D02*
X76549500Y-46113222D01*
X79231500Y-46593222D02*
X76802500Y-46593222D01*
X84076500Y-45913222D02*
X81311500Y-45913222D01*
X83689500Y-46673222D02*
X81311500Y-46673222D01*
X79231500Y-45473222D02*
X76324500Y-45473222D01*
X82875500Y-47593222D02*
X77667500Y-47593222D01*
X84273500Y-45233222D02*
X76269500Y-45233222D01*
X84265500Y-45273222D02*
X76277500Y-45273222D01*
X79231500Y-46993222D02*
X77082500Y-46993222D01*
X83715500Y-46633222D02*
X81311500Y-46633222D01*
X83290500Y-47193222D02*
X81311500Y-47193222D01*
X83521500Y-46913222D02*
X81311500Y-46913222D01*
X84207500Y-45513222D02*
X81311500Y-45513222D01*
X83580500Y-46833222D02*
X81311500Y-46833222D01*
X84339500Y-44752222D02*
X76203500Y-44752222D01*
X81916500Y-48193222D02*
X78626500Y-48193222D01*
X79231500Y-46953222D02*
X77051500Y-46953222D01*
X82558500Y-47833222D02*
X77984500Y-47833222D01*
X83326500Y-47153222D02*
X81311500Y-47153222D01*
X84313500Y-44992222D02*
X76229500Y-44992222D01*
X83636500Y-46753222D02*
X81311500Y-46753222D01*
X84350500Y-44552222D02*
X76192500Y-44552222D01*
X83740500Y-46593222D02*
X81311500Y-46593222D01*
X79231500Y-45953222D02*
X76481500Y-45953222D01*
X82968500Y-47513222D02*
X77574500Y-47513222D01*
X83975500Y-46153222D02*
X81311500Y-46153222D01*
X79231500Y-46913222D02*
X77021500Y-46913222D01*
X84347500Y-44632222D02*
X76195500Y-44632222D01*
X81039500Y-48473222D02*
X79503500Y-48473222D01*
X82373500Y-47953222D02*
X78169500Y-47953222D01*
X79231500Y-46793222D02*
X76933500Y-46793222D01*
X79231500Y-46833222D02*
X76962500Y-46833222D01*
X82499500Y-47873222D02*
X78043500Y-47873222D01*
X79231500Y-47233222D02*
X77288500Y-47233222D01*
X82084500Y-48113222D02*
X78458500Y-48113222D01*
X83855500Y-46393222D02*
X81311500Y-46393222D01*
X79231500Y-45393222D02*
X76304500Y-45393222D01*
X83788500Y-46513222D02*
X81311500Y-46513222D01*
X79231500Y-46033222D02*
X76514500Y-46033222D01*
X84301500Y-45072222D02*
X76241500Y-45072222D01*
X82305500Y-47993222D02*
X78237500Y-47993222D01*
X82725500Y-47713222D02*
X77817500Y-47713222D01*
X84121500Y-45793222D02*
X81311500Y-45793222D01*
X84391500Y-44432222D02*
G75*
G03*
X84391500Y-44432222I-4120000J0D01*
G01*
%TO.C,C2*%
X72190500Y-39287175D02*
X77430500Y-39287175D01*
X72190500Y-36547175D02*
X77430500Y-36547175D01*
X72190500Y-36547175D02*
X72190500Y-36862175D01*
X72190500Y-38972175D02*
X72190500Y-39287175D01*
X77430500Y-38972175D02*
X77430500Y-39287175D01*
X77430500Y-36547175D02*
X77430500Y-36862175D01*
%TO.C,R1*%
X83240500Y-32260175D02*
X74000500Y-32260175D01*
X83930500Y-33980175D02*
X83240500Y-33980175D01*
X73310500Y-33980175D02*
X74000500Y-33980175D01*
X83240500Y-35700175D02*
X83240500Y-32260175D01*
X74000500Y-35700175D02*
X83240500Y-35700175D01*
X74000500Y-32260175D02*
X74000500Y-35700175D01*
%TO.C,J1*%
X65225500Y-40397175D02*
X66555500Y-40397175D01*
X65225500Y-42997175D02*
X67885500Y-42997175D01*
X67885500Y-42997175D02*
X67885500Y-48137175D01*
X65225500Y-48137175D02*
X67885500Y-48137175D01*
X65225500Y-41727175D02*
X65225500Y-40397175D01*
X65225500Y-42997175D02*
X65225500Y-48137175D01*
%TO.C,U2*%
X55118000Y-104521000D02*
X65024000Y-104521000D01*
X65024000Y-104521000D02*
X65024000Y-108839000D01*
X65024000Y-108839000D02*
X55118000Y-108839000D01*
X55118000Y-108839000D02*
X55118000Y-104521000D01*
X64770000Y-121412000D02*
X71882000Y-121412000D01*
X71882000Y-121412000D02*
X71882000Y-129413000D01*
X71882000Y-129413000D02*
X64770000Y-129413000D01*
X64770000Y-129413000D02*
X64770000Y-121412000D01*
X71120000Y-104521000D02*
X81026000Y-104521000D01*
X81026000Y-104521000D02*
X81026000Y-108839000D01*
X81026000Y-108839000D02*
X71120000Y-108839000D01*
X71120000Y-108839000D02*
X71120000Y-104521000D01*
X42672000Y-104521000D02*
X52578000Y-104521000D01*
X52578000Y-104521000D02*
X52578000Y-108839000D01*
X52578000Y-108839000D02*
X42672000Y-108839000D01*
X42672000Y-108839000D02*
X42672000Y-104521000D01*
X37084000Y-104521000D02*
X99084000Y-104521000D01*
X99084000Y-104521000D02*
X99084000Y-129521000D01*
X99084000Y-129521000D02*
X37084000Y-129521000D01*
X37084000Y-129521000D02*
X37084000Y-104521000D01*
X83693000Y-104521000D02*
X93599000Y-104521000D01*
X93599000Y-104521000D02*
X93599000Y-108839000D01*
X93599000Y-108839000D02*
X83693000Y-108839000D01*
X83693000Y-108839000D02*
X83693000Y-104521000D01*
X67691000Y-127127000D02*
G75*
G03*
X67691000Y-127127000I-1000000J0D01*
G01*
X70993000Y-127127000D02*
G75*
G03*
X70993000Y-127127000I-1000000J0D01*
G01*
%TO.C,U3*%
X122962000Y-112726000D02*
X121312000Y-112726000D01*
X121312000Y-123006000D02*
X126612000Y-123006000D01*
X121312000Y-112726000D02*
X121312000Y-123006000D01*
X126612000Y-123006000D02*
X126612000Y-112726000D01*
X126612000Y-112726000D02*
X124962000Y-112726000D01*
X122962000Y-112726000D02*
G75*
G03*
X124962000Y-112726000I1000000J0D01*
G01*
%TO.C,J1*%
X31182000Y-40326000D02*
X32512000Y-40326000D01*
X31182000Y-42926000D02*
X33842000Y-42926000D01*
X33842000Y-42926000D02*
X33842000Y-48066000D01*
X31182000Y-48066000D02*
X33842000Y-48066000D01*
X31182000Y-41656000D02*
X31182000Y-40326000D01*
X31182000Y-42926000D02*
X31182000Y-48066000D01*
%TO.C,J4*%
X126559000Y-110174000D02*
X129219000Y-110174000D01*
X126559000Y-87254000D02*
X126559000Y-110174000D01*
X129219000Y-87254000D02*
X129219000Y-110174000D01*
X126559000Y-87254000D02*
X129219000Y-87254000D01*
X126559000Y-84654000D02*
X127889000Y-84654000D01*
X126559000Y-85984000D02*
X126559000Y-84654000D01*
%TO.C,D1*%
X121389000Y-104391000D02*
X119149000Y-104391000D01*
X121389000Y-107911000D02*
X121389000Y-103671000D01*
X120269000Y-108561000D02*
X120269000Y-107911000D01*
X120269000Y-103021000D02*
X120269000Y-103671000D01*
X121389000Y-103671000D02*
X119149000Y-103671000D01*
X119149000Y-103671000D02*
X119149000Y-107911000D01*
X119149000Y-107911000D02*
X121389000Y-107911000D01*
X121389000Y-104511000D02*
X119149000Y-104511000D01*
X121389000Y-104271000D02*
X119149000Y-104271000D01*
%TO.C,R2*%
X124079000Y-97941000D02*
X124079000Y-98631000D01*
X122359000Y-98631000D02*
X122359000Y-107871000D01*
X122359000Y-107871000D02*
X125799000Y-107871000D01*
X124079000Y-108561000D02*
X124079000Y-107871000D01*
X125799000Y-98631000D02*
X122359000Y-98631000D01*
X125799000Y-107871000D02*
X125799000Y-98631000D01*
%TO.C,J3*%
X30801000Y-85979000D02*
X30801000Y-121599000D01*
X30801000Y-85979000D02*
X33461000Y-85979000D01*
X30801000Y-121599000D02*
X33461000Y-121599000D01*
X33461000Y-85979000D02*
X33461000Y-121599000D01*
X30801000Y-84709000D02*
X30801000Y-83379000D01*
X30801000Y-83379000D02*
X32131000Y-83379000D01*
%TO.C,J5*%
X103520000Y-78292000D02*
X102190000Y-78292000D01*
X104790000Y-75632000D02*
X122630000Y-75632000D01*
X102190000Y-78292000D02*
X102190000Y-76962000D01*
X122630000Y-78292000D02*
X122630000Y-75632000D01*
X104790000Y-78292000D02*
X122630000Y-78292000D01*
X104790000Y-78292000D02*
X104790000Y-75632000D01*
%TO.C,R1*%
X49197000Y-32189000D02*
X39957000Y-32189000D01*
X49887000Y-33909000D02*
X49197000Y-33909000D01*
X39267000Y-33909000D02*
X39957000Y-33909000D01*
X49197000Y-35629000D02*
X49197000Y-32189000D01*
X39957000Y-35629000D02*
X49197000Y-35629000D01*
X39957000Y-32189000D02*
X39957000Y-35629000D01*
%TO.C,C3*%
X125449000Y-88907000D02*
X125134000Y-88907000D01*
X125449000Y-94147000D02*
X125134000Y-94147000D01*
X123024000Y-88907000D02*
X122709000Y-88907000D01*
X125449000Y-88907000D02*
X125449000Y-94147000D01*
X122709000Y-88907000D02*
X122709000Y-94147000D01*
X123024000Y-94147000D02*
X122709000Y-94147000D01*
%TO.C,A1*%
X102880000Y-88773000D02*
X102880000Y-124333000D01*
X105290000Y-129543000D02*
X105290000Y-119123000D01*
X102880000Y-88773000D02*
X100210000Y-88773000D01*
X100210000Y-127003000D02*
X105290000Y-127003000D01*
X102880000Y-124333000D02*
X100210000Y-124333000D01*
X113170000Y-129543000D02*
X105290000Y-129543000D01*
X118250000Y-83563000D02*
X100210000Y-83563000D01*
X102880000Y-86233000D02*
X100210000Y-86233000D01*
X105290000Y-119123000D02*
X113170000Y-119123000D01*
X118250000Y-127003000D02*
X118250000Y-83563000D01*
X100210000Y-88773000D02*
X100210000Y-127003000D01*
X113170000Y-119123000D02*
X113170000Y-129543000D01*
X115580000Y-86233000D02*
X115580000Y-124333000D01*
X115580000Y-124333000D02*
X118250000Y-124333000D01*
X100210000Y-83563000D02*
X100210000Y-86233000D01*
X102880000Y-88773000D02*
X102880000Y-86233000D01*
X115580000Y-86233000D02*
X118250000Y-86233000D01*
X118250000Y-127003000D02*
X113170000Y-127003000D01*
%TO.C,R4*%
X109172000Y-79560000D02*
X109172000Y-83000000D01*
X118412000Y-79560000D02*
X109172000Y-79560000D01*
X108482000Y-81280000D02*
X109172000Y-81280000D01*
X118412000Y-83000000D02*
X118412000Y-79560000D01*
X119102000Y-81280000D02*
X118412000Y-81280000D01*
X109172000Y-83000000D02*
X118412000Y-83000000D01*
%TO.C,C2*%
X38147000Y-39216000D02*
X43387000Y-39216000D01*
X38147000Y-36476000D02*
X43387000Y-36476000D01*
X38147000Y-36476000D02*
X38147000Y-36791000D01*
X38147000Y-38901000D02*
X38147000Y-39216000D01*
X43387000Y-38901000D02*
X43387000Y-39216000D01*
X43387000Y-36476000D02*
X43387000Y-36791000D01*
%TO.C,U1*%
X93516000Y-101686000D02*
X83610000Y-101686000D01*
X83610000Y-101686000D02*
X83610000Y-97368000D01*
X83610000Y-97368000D02*
X93516000Y-97368000D01*
X93516000Y-97368000D02*
X93516000Y-101686000D01*
X81070000Y-101686000D02*
X71164000Y-101686000D01*
X71164000Y-101686000D02*
X71164000Y-97368000D01*
X71164000Y-97368000D02*
X81070000Y-97368000D01*
X81070000Y-97368000D02*
X81070000Y-101686000D01*
X52495000Y-101686000D02*
X42589000Y-101686000D01*
X42589000Y-101686000D02*
X42589000Y-97368000D01*
X42589000Y-97368000D02*
X52495000Y-97368000D01*
X52495000Y-97368000D02*
X52495000Y-101686000D01*
X71418000Y-84795000D02*
X64306000Y-84795000D01*
X64306000Y-84795000D02*
X64306000Y-76794000D01*
X64306000Y-76794000D02*
X71418000Y-76794000D01*
X71418000Y-76794000D02*
X71418000Y-84795000D01*
X99104000Y-101686000D02*
X37104000Y-101686000D01*
X37104000Y-101686000D02*
X37104000Y-76686000D01*
X37104000Y-76686000D02*
X99104000Y-76686000D01*
X99104000Y-76686000D02*
X99104000Y-101686000D01*
X65068000Y-101686000D02*
X55162000Y-101686000D01*
X55162000Y-101686000D02*
X55162000Y-97368000D01*
X55162000Y-97368000D02*
X65068000Y-97368000D01*
X65068000Y-97368000D02*
X65068000Y-101686000D01*
X70497000Y-79080000D02*
G75*
G03*
X70497000Y-79080000I-1000000J0D01*
G01*
X67195000Y-79080000D02*
G75*
G03*
X67195000Y-79080000I-1000000J0D01*
G01*
%TO.C,C1*%
X50117000Y-45602047D02*
X47268000Y-45602047D01*
X50280000Y-44841047D02*
X42176000Y-44841047D01*
X50018000Y-45882047D02*
X47268000Y-45882047D01*
X50308000Y-44361047D02*
X42148000Y-44361047D01*
X50293000Y-44721047D02*
X42163000Y-44721047D01*
X50091000Y-45682047D02*
X47268000Y-45682047D01*
X46761000Y-48442047D02*
X45695000Y-48442047D01*
X45188000Y-46322047D02*
X42644000Y-46322047D01*
X48628000Y-47682047D02*
X43828000Y-47682047D01*
X45188000Y-47242047D02*
X43321000Y-47242047D01*
X48733000Y-47602047D02*
X43723000Y-47602047D01*
X45188000Y-45522047D02*
X42314000Y-45522047D01*
X49352000Y-47002047D02*
X47268000Y-47002047D01*
X50204000Y-45282047D02*
X47268000Y-45282047D01*
X49721000Y-46482047D02*
X47268000Y-46482047D01*
X50195000Y-45322047D02*
X47268000Y-45322047D01*
X50252000Y-45041047D02*
X42204000Y-45041047D01*
X50049000Y-45802047D02*
X47268000Y-45802047D01*
X50299000Y-44641047D02*
X42157000Y-44641047D01*
X48543000Y-39951349D02*
X48543000Y-40751349D01*
X48943000Y-40351349D02*
X48143000Y-40351349D01*
X49318000Y-47042047D02*
X47268000Y-47042047D01*
X50063000Y-45762047D02*
X47268000Y-45762047D01*
X49054000Y-47322047D02*
X43402000Y-47322047D01*
X49968000Y-46002047D02*
X47268000Y-46002047D01*
X45188000Y-46202047D02*
X42581000Y-46202047D01*
X45188000Y-47042047D02*
X43138000Y-47042047D01*
X49135000Y-47242047D02*
X47268000Y-47242047D01*
X45188000Y-47002047D02*
X43104000Y-47002047D01*
X50285000Y-44801047D02*
X42171000Y-44801047D01*
X45188000Y-47202047D02*
X43283000Y-47202047D01*
X45188000Y-46602047D02*
X42810000Y-46602047D01*
X49173000Y-47202047D02*
X47268000Y-47202047D01*
X45188000Y-45642047D02*
X42351000Y-45642047D01*
X50175000Y-45402047D02*
X47268000Y-45402047D01*
X45188000Y-46642047D02*
X42836000Y-46642047D01*
X50308000Y-44441047D02*
X42148000Y-44441047D01*
X49855000Y-46242047D02*
X47268000Y-46242047D01*
X45188000Y-46082047D02*
X42524000Y-46082047D01*
X45188000Y-45802047D02*
X42407000Y-45802047D01*
X48879000Y-47482047D02*
X43577000Y-47482047D01*
X45188000Y-46562047D02*
X42784000Y-46562047D01*
X49448000Y-46882047D02*
X47268000Y-46882047D01*
X45188000Y-46442047D02*
X42711000Y-46442047D01*
X49790000Y-46362047D02*
X47268000Y-46362047D01*
X49508000Y-46802047D02*
X47268000Y-46802047D01*
X50302000Y-44601047D02*
X42154000Y-44601047D01*
X49012000Y-47362047D02*
X43444000Y-47362047D01*
X45188000Y-47282047D02*
X43361000Y-47282047D01*
X49894000Y-46162047D02*
X47268000Y-46162047D01*
X45188000Y-45722047D02*
X42378000Y-45722047D01*
X45188000Y-46402047D02*
X42688000Y-46402047D01*
X45188000Y-45762047D02*
X42393000Y-45762047D01*
X50289000Y-44761047D02*
X42167000Y-44761047D01*
X49095000Y-47282047D02*
X47268000Y-47282047D01*
X50142000Y-45522047D02*
X47268000Y-45522047D01*
X50245000Y-45082047D02*
X42211000Y-45082047D01*
X49875000Y-46202047D02*
X47268000Y-46202047D01*
X49566000Y-46722047D02*
X47268000Y-46722047D01*
X48192000Y-47962047D02*
X44264000Y-47962047D01*
X50238000Y-45122047D02*
X42218000Y-45122047D01*
X45188000Y-47082047D02*
X43173000Y-47082047D01*
X50002000Y-45922047D02*
X47268000Y-45922047D01*
X45188000Y-45922047D02*
X42454000Y-45922047D01*
X49384000Y-46962047D02*
X47268000Y-46962047D01*
X45188000Y-46482047D02*
X42735000Y-46482047D01*
X48394000Y-47842047D02*
X44062000Y-47842047D01*
X49985000Y-45962047D02*
X47268000Y-45962047D01*
X50305000Y-44521047D02*
X42151000Y-44521047D01*
X45188000Y-45242047D02*
X42243000Y-45242047D01*
X49768000Y-46402047D02*
X47268000Y-46402047D01*
X45188000Y-45602047D02*
X42339000Y-45602047D01*
X47574000Y-48242047D02*
X44882000Y-48242047D01*
X50213000Y-45242047D02*
X47268000Y-45242047D01*
X45188000Y-46002047D02*
X42488000Y-46002047D01*
X50265000Y-44961047D02*
X42191000Y-44961047D01*
X48969000Y-47402047D02*
X43487000Y-47402047D01*
X50308000Y-44401047D02*
X42148000Y-44401047D01*
X50153000Y-45482047D02*
X47268000Y-45482047D01*
X45188000Y-46162047D02*
X42562000Y-46162047D01*
X49834000Y-46282047D02*
X47268000Y-46282047D01*
X45188000Y-45442047D02*
X42292000Y-45442047D01*
X45188000Y-45482047D02*
X42303000Y-45482047D01*
X49914000Y-46122047D02*
X47268000Y-46122047D01*
X45188000Y-45682047D02*
X42365000Y-45682047D01*
X45188000Y-46802047D02*
X42948000Y-46802047D01*
X48118000Y-48002047D02*
X44338000Y-48002047D01*
X47326000Y-48322047D02*
X45130000Y-48322047D01*
X47681000Y-48202047D02*
X44775000Y-48202047D01*
X49211000Y-47162047D02*
X47268000Y-47162047D01*
X47176000Y-48362047D02*
X45280000Y-48362047D01*
X47959000Y-48082047D02*
X44497000Y-48082047D01*
X50105000Y-45642047D02*
X47268000Y-45642047D01*
X48573000Y-47722047D02*
X43883000Y-47722047D01*
X45188000Y-46362047D02*
X42666000Y-46362047D01*
X49950000Y-46042047D02*
X47268000Y-46042047D01*
X47780000Y-48162047D02*
X44676000Y-48162047D01*
X50276000Y-44881047D02*
X42180000Y-44881047D01*
X45188000Y-46242047D02*
X42601000Y-46242047D01*
X45188000Y-46122047D02*
X42542000Y-46122047D01*
X45188000Y-46282047D02*
X42622000Y-46282047D01*
X45188000Y-45362047D02*
X42271000Y-45362047D01*
X45188000Y-45282047D02*
X42252000Y-45282047D01*
X45188000Y-47122047D02*
X43209000Y-47122047D01*
X49417000Y-46922047D02*
X47268000Y-46922047D01*
X49620000Y-46642047D02*
X47268000Y-46642047D01*
X50185000Y-45362047D02*
X47268000Y-45362047D01*
X45188000Y-46682047D02*
X42863000Y-46682047D01*
X45188000Y-45842047D02*
X42423000Y-45842047D01*
X48784000Y-47562047D02*
X43672000Y-47562047D01*
X45188000Y-46962047D02*
X43072000Y-46962047D01*
X50130000Y-45562047D02*
X47268000Y-45562047D01*
X45188000Y-45562047D02*
X42326000Y-45562047D01*
X47457000Y-48282047D02*
X44999000Y-48282047D01*
X45188000Y-46042047D02*
X42506000Y-46042047D01*
X45188000Y-46522047D02*
X42759000Y-46522047D01*
X50033000Y-45842047D02*
X47268000Y-45842047D01*
X49646000Y-46602047D02*
X47268000Y-46602047D01*
X45188000Y-45402047D02*
X42281000Y-45402047D01*
X48832000Y-47522047D02*
X43624000Y-47522047D01*
X50230000Y-45162047D02*
X42226000Y-45162047D01*
X50222000Y-45202047D02*
X42234000Y-45202047D01*
X45188000Y-46922047D02*
X43039000Y-46922047D01*
X49672000Y-46562047D02*
X47268000Y-46562047D01*
X49247000Y-47122047D02*
X47268000Y-47122047D01*
X49478000Y-46842047D02*
X47268000Y-46842047D01*
X50164000Y-45442047D02*
X47268000Y-45442047D01*
X49537000Y-46762047D02*
X47268000Y-46762047D01*
X50296000Y-44681047D02*
X42160000Y-44681047D01*
X47873000Y-48122047D02*
X44583000Y-48122047D01*
X45188000Y-46882047D02*
X43008000Y-46882047D01*
X48515000Y-47762047D02*
X43941000Y-47762047D01*
X49283000Y-47082047D02*
X47268000Y-47082047D01*
X50270000Y-44921047D02*
X42186000Y-44921047D01*
X49593000Y-46682047D02*
X47268000Y-46682047D01*
X50307000Y-44481047D02*
X42149000Y-44481047D01*
X49697000Y-46522047D02*
X47268000Y-46522047D01*
X45188000Y-45882047D02*
X42438000Y-45882047D01*
X48925000Y-47442047D02*
X43531000Y-47442047D01*
X49932000Y-46082047D02*
X47268000Y-46082047D01*
X45188000Y-46842047D02*
X42978000Y-46842047D01*
X50304000Y-44561047D02*
X42152000Y-44561047D01*
X46996000Y-48402047D02*
X45460000Y-48402047D01*
X48330000Y-47882047D02*
X44126000Y-47882047D01*
X45188000Y-46722047D02*
X42890000Y-46722047D01*
X45188000Y-46762047D02*
X42919000Y-46762047D01*
X48456000Y-47802047D02*
X44000000Y-47802047D01*
X45188000Y-47162047D02*
X43245000Y-47162047D01*
X48041000Y-48042047D02*
X44415000Y-48042047D01*
X49812000Y-46322047D02*
X47268000Y-46322047D01*
X45188000Y-45322047D02*
X42261000Y-45322047D01*
X49745000Y-46442047D02*
X47268000Y-46442047D01*
X45188000Y-45962047D02*
X42471000Y-45962047D01*
X50258000Y-45001047D02*
X42198000Y-45001047D01*
X48262000Y-47922047D02*
X44194000Y-47922047D01*
X48682000Y-47642047D02*
X43774000Y-47642047D01*
X50078000Y-45722047D02*
X47268000Y-45722047D01*
X50348000Y-44361047D02*
G75*
G03*
X50348000Y-44361047I-4120000J0D01*
G01*
%TO.C,J2*%
X59877000Y-40431000D02*
X58547000Y-40431000D01*
X59877000Y-39101000D02*
X59877000Y-40431000D01*
X59877000Y-32691000D02*
X57217000Y-32691000D01*
X59877000Y-37831000D02*
X59877000Y-32691000D01*
X59877000Y-37831000D02*
X57217000Y-37831000D01*
X57217000Y-37831000D02*
X57217000Y-32691000D01*
%TO.C,R3*%
X121989000Y-87328000D02*
X118549000Y-87328000D01*
X120269000Y-97258000D02*
X120269000Y-96568000D01*
X118549000Y-87328000D02*
X118549000Y-96568000D01*
X118549000Y-96568000D02*
X121989000Y-96568000D01*
X120269000Y-86638000D02*
X120269000Y-87328000D01*
X121989000Y-96568000D02*
X121989000Y-87328000D01*
%TD*%
M02*
