M48
; DRILL file {KiCad 6.0.10-86aedd382b~118~ubuntu22.10.1} date Wed 15 Feb 2023 12:29:11 PM CET
; FORMAT={-:-/ absolute / inch / decimal}
; #@! TF.CreationDate,2023-02-15T12:29:11+01:00
; #@! TF.GenerationSoftware,Kicad,Pcbnew,6.0.10-86aedd382b~118~ubuntu22.10.1
; #@! TF.FileFunction,Plated,1,2,PTH
FMAT,2
INCH
; #@! TA.AperFunction,Plated,PTH,ViaDrill
T1C0.0157
; #@! TA.AperFunction,Plated,PTH,ComponentDrill
T2C0.0197
; #@! TA.AperFunction,Plated,PTH,ComponentDrill
T3C0.0315
; #@! TA.AperFunction,Plated,PTH,ComponentDrill
T4C0.0394
; #@! TA.AperFunction,Plated,PTH,ComponentDrill
T5C0.0984
%
G90
G05
T1
X1.4Y-1.505
X1.4Y-1.69
X1.405Y-1.79
X1.405Y-2.33
X1.405Y-2.515
X1.41Y-2.615
X1.445Y-4.555
X1.445Y-4.6
X1.445Y-4.645
X1.445Y-4.69
X1.445Y-4.735
X1.605Y-1.455
X1.61Y-2.28
X1.62Y-1.795
X1.625Y-2.62
X1.635Y-1.33
X1.64Y-2.155
X1.705Y-4.8
X1.715Y-1.33
X1.72Y-2.155
X1.73Y-1.66
X1.735Y-2.485
X1.735Y-4.77
X1.765Y-4.74
X1.795Y-1.33
X1.8Y-2.155
X1.85Y-1.475
X1.855Y-2.3
X2.0Y-1.445
X2.005Y-2.27
X2.615Y-4.28
X2.625Y-3.83
X2.675Y-4.28
X2.68Y-3.83
X2.735Y-3.83
X2.74Y-4.28
X2.7403Y-1.5078
X2.7403Y-1.6928
X2.7453Y-1.7928
X2.7453Y-2.3328
X2.7453Y-2.5178
X2.7503Y-2.6178
X2.9453Y-1.4578
X2.9503Y-2.2828
X2.9603Y-1.7978
X2.9653Y-2.6228
X2.9753Y-1.3328
X2.9803Y-2.1578
X3.0553Y-1.3328
X3.0603Y-2.1578
X3.0703Y-1.6628
X3.0753Y-2.4878
X3.1353Y-1.3328
X3.1403Y-2.1578
X3.1903Y-1.4778
X3.1953Y-2.3028
X3.3403Y-1.4478
X3.3453Y-2.2728
X3.435Y-3.43
X3.435Y-3.475
X3.435Y-3.52
X3.435Y-3.565
X3.435Y-3.82
X3.435Y-3.86
X3.435Y-3.9
X3.435Y-4.21
X3.435Y-4.25
X3.435Y-4.29
X3.435Y-4.505
X3.435Y-4.55
X3.435Y-4.59
X3.4994Y-3.7606
X3.5394Y-3.7606
X3.5794Y-3.7606
X3.5919Y-4.84
X3.6194Y-3.7606
X3.6194Y-3.8056
X3.6194Y-3.8506
X3.6194Y-3.8956
X3.64Y-4.84
X3.69Y-4.84
X3.74Y-4.84
X3.785Y-4.06
X3.92Y-4.45
X4.08Y-4.955
X4.1022Y-1.5078
X4.1022Y-1.6928
X4.1072Y-1.7928
X4.1072Y-2.3328
X4.1072Y-2.5178
X4.1122Y-2.6178
X4.125Y-4.955
X4.17Y-4.955
X4.19Y-3.865
X4.19Y-3.91
X4.19Y-3.955
X4.22Y-4.955
X4.2525Y-4.9225
X4.3Y-4.485
X4.3Y-4.53
X4.3Y-4.58
X4.3072Y-1.4578
X4.3122Y-2.2828
X4.3222Y-1.7978
X4.325Y-3.445
X4.325Y-3.5
X4.325Y-3.55
X4.325Y-3.6
X4.325Y-3.65
X4.325Y-3.7
X4.3272Y-2.6228
X4.3372Y-1.3328
X4.3422Y-2.1578
X4.4172Y-1.3328
X4.4222Y-2.1578
X4.4322Y-1.6628
X4.4372Y-2.4878
X4.4588Y-4.6525
X4.4972Y-1.3328
X4.5022Y-2.1578
X4.5522Y-1.4778
X4.5572Y-2.3028
X4.7022Y-1.4478
X4.705Y-4.865
X4.7072Y-2.2728
X4.73Y-4.4
X4.815Y-3.605
X4.82Y-4.685
X4.88Y-4.515
X4.88Y-4.56
T2
X1.2412Y-1.37
X1.2434Y-4.9828
X1.2462Y-2.195
X1.2462Y-3.12
X1.2628Y-1.3178
X1.2628Y-1.4222
X1.265Y-4.9306
X1.265Y-5.035
X1.2678Y-2.1428
X1.2678Y-2.2472
X1.2678Y-3.0678
X1.2678Y-3.1722
X1.315Y-1.2962
X1.315Y-1.4438
X1.3172Y-4.909
X1.3172Y-5.0566
X1.32Y-2.1212
X1.32Y-2.2688
X1.32Y-3.0462
X1.32Y-3.1938
X1.3672Y-1.3178
X1.3672Y-1.4222
X1.3694Y-4.9306
X1.3694Y-5.035
X1.3722Y-2.1428
X1.3722Y-2.2472
X1.3722Y-3.0678
X1.3722Y-3.1722
X1.3888Y-1.37
X1.391Y-4.9828
X1.3938Y-2.195
X1.3938Y-3.12
X2.204Y-1.8172
X2.209Y-2.6422
X2.2256Y-1.765
X2.2256Y-1.8694
X2.2306Y-2.59
X2.2306Y-2.6944
X2.2778Y-1.7434
X2.2778Y-1.891
X2.2828Y-2.5684
X2.2828Y-2.716
X2.33Y-1.765
X2.33Y-1.8694
X2.335Y-2.59
X2.335Y-2.6944
X2.3516Y-1.8172
X2.3566Y-2.6422
X2.5815Y-1.3728
X2.5865Y-2.1978
X2.6031Y-1.3206
X2.6031Y-1.425
X2.6081Y-2.1456
X2.6081Y-2.25
X2.6553Y-1.299
X2.6553Y-1.4466
X2.6603Y-2.124
X2.6603Y-2.2716
X2.7075Y-1.3206
X2.7075Y-1.425
X2.7125Y-2.1456
X2.7125Y-2.25
X2.7291Y-1.3728
X2.7341Y-2.1978
X3.5443Y-1.82
X3.5493Y-2.645
X3.5659Y-1.7678
X3.5659Y-1.8722
X3.5709Y-2.5928
X3.5709Y-2.6972
X3.6181Y-1.7462
X3.6181Y-1.8938
X3.6231Y-2.5712
X3.6231Y-2.7188
X3.6703Y-1.7678
X3.6703Y-1.8722
X3.6753Y-2.5928
X3.6753Y-2.6972
X3.6919Y-1.82
X3.6969Y-2.645
X3.9434Y-1.3728
X3.9484Y-2.1978
X3.965Y-1.3206
X3.965Y-1.425
X3.97Y-2.1456
X3.97Y-2.25
X4.0172Y-1.299
X4.0172Y-1.4466
X4.0222Y-2.124
X4.0222Y-2.2716
X4.0694Y-1.3206
X4.0694Y-1.425
X4.0744Y-2.1456
X4.0744Y-2.25
X4.091Y-1.3728
X4.096Y-2.1978
X4.9062Y-1.82
X4.9062Y-3.12
X4.9062Y-4.975
X4.9112Y-2.645
X4.9278Y-1.7678
X4.9278Y-1.8722
X4.9278Y-3.0678
X4.9278Y-3.1722
X4.9278Y-4.9228
X4.9278Y-5.0272
X4.9328Y-2.5928
X4.9328Y-2.6972
X4.98Y-1.7462
X4.98Y-1.8938
X4.98Y-3.0462
X4.98Y-3.1938
X4.98Y-4.9012
X4.98Y-5.0488
X4.985Y-2.5712
X4.985Y-2.7188
X5.0322Y-1.7678
X5.0322Y-1.8722
X5.0322Y-3.0678
X5.0322Y-3.1722
X5.0322Y-4.9228
X5.0322Y-5.0272
X5.0372Y-2.5928
X5.0372Y-2.6972
X5.0538Y-1.82
X5.0538Y-3.12
X5.0538Y-4.975
X5.0588Y-2.645
T3
X1.505Y-1.335
X1.5066Y-1.49
X1.51Y-2.16
X1.5116Y-2.315
X1.7034Y-1.49
X1.7084Y-2.315
X1.82Y-1.6717
X1.82Y-1.8213
X1.825Y-2.4967
X1.825Y-2.6463
X2.005Y-1.335
X2.01Y-2.16
X2.8453Y-1.3378
X2.8469Y-1.4928
X2.8503Y-2.1628
X2.8519Y-2.3178
X3.0437Y-1.4928
X3.0487Y-2.3178
X3.1603Y-1.6745
X3.1603Y-1.8241
X3.1653Y-2.4995
X3.1653Y-2.6491
X3.3453Y-1.3378
X3.3503Y-2.1628
X4.2072Y-1.3378
X4.2088Y-1.4928
X4.2122Y-2.1628
X4.2138Y-2.3178
X4.23Y-3.2
X4.4056Y-1.4928
X4.4106Y-2.3178
X4.5222Y-1.6745
X4.5222Y-1.8241
X4.5272Y-2.4995
X4.5272Y-2.6491
X4.7072Y-1.3378
X4.7122Y-2.1628
X4.73Y-3.2
X4.7304Y-4.4904
X4.7304Y-4.5904
X4.7304Y-4.6904
X4.7304Y-4.7904
X4.735Y-3.37
X4.735Y-3.87
X4.735Y-4.015
X4.735Y-4.315
X4.885Y-3.505
X4.885Y-3.7019
X4.885Y-3.815
X4.885Y-4.315
X5.0304Y-4.4904
X5.0304Y-4.5904
X5.0304Y-4.6904
X5.0304Y-4.7904
T4
X1.265Y-3.335
X1.265Y-3.435
X1.265Y-3.535
X1.265Y-3.635
X1.265Y-3.735
X1.265Y-3.835
X1.265Y-3.935
X1.265Y-4.035
X1.265Y-4.135
X1.265Y-4.235
X1.265Y-4.335
X1.265Y-4.435
X1.265Y-4.535
X1.265Y-4.635
X1.265Y-4.735
X1.28Y-1.64
X1.28Y-1.74
X1.28Y-1.84
X1.285Y-2.465
X1.285Y-2.565
X1.285Y-2.665
X1.55Y-4.355
X1.55Y-4.455
X1.55Y-4.555
X1.55Y-4.655
X1.55Y-4.755
X1.55Y-4.855
X1.5517Y-3.2634
X1.5517Y-3.3634
X1.5517Y-3.4634
X1.5517Y-3.5634
X1.5517Y-3.6634
X1.5517Y-3.7634
X2.305Y-1.3394
X2.305Y-1.4394
X2.305Y-1.5394
X2.31Y-2.1644
X2.31Y-2.2644
X2.31Y-2.3644
X2.6203Y-1.6428
X2.6203Y-1.7428
X2.6203Y-1.8428
X2.6253Y-2.4678
X2.6253Y-2.5678
X2.6253Y-2.6678
X3.6453Y-1.3422
X3.6453Y-1.4422
X3.6453Y-1.5422
X3.6503Y-2.1672
X3.6503Y-2.2672
X3.6503Y-2.3672
X3.81Y-4.355
X3.81Y-4.455
X3.81Y-4.555
X3.81Y-4.655
X3.81Y-4.755
X3.81Y-4.855
X3.8117Y-3.2634
X3.8117Y-3.3634
X3.8117Y-3.4634
X3.8117Y-3.5634
X3.8117Y-3.6634
X3.8117Y-3.7634
X3.9822Y-1.6428
X3.9822Y-1.7428
X3.9822Y-1.8428
X3.9872Y-2.4678
X3.9872Y-2.5678
X3.9872Y-2.6678
X4.0004Y-3.445
X4.0004Y-3.545
X4.0004Y-3.645
X4.0004Y-3.745
X4.0004Y-3.845
X4.0004Y-3.945
X4.0004Y-4.045
X4.0004Y-4.145
X4.0004Y-4.245
X4.0004Y-4.345
X4.0004Y-4.445
X4.0004Y-4.545
X4.0004Y-4.645
X4.0004Y-4.745
X4.0004Y-4.845
X4.0756Y-3.03
X4.1756Y-3.03
X4.2756Y-3.03
X4.3756Y-3.03
X4.4756Y-3.03
X4.5756Y-3.03
X4.6004Y-3.445
X4.6004Y-3.545
X4.6004Y-3.645
X4.6004Y-3.745
X4.6004Y-3.845
X4.6004Y-3.945
X4.6004Y-4.045
X4.6004Y-4.145
X4.6004Y-4.245
X4.6004Y-4.345
X4.6004Y-4.445
X4.6004Y-4.545
X4.6004Y-4.645
X4.6004Y-4.745
X4.6004Y-4.845
X4.6756Y-3.03
X4.7756Y-3.03
X5.0072Y-1.3422
X5.0072Y-1.4422
X5.0072Y-1.5422
X5.0122Y-2.1672
X5.0122Y-2.2672
X5.0122Y-2.3672
X5.035Y-3.3852
X5.035Y-3.4852
X5.035Y-3.5852
X5.035Y-3.6852
X5.035Y-3.7852
X5.035Y-3.8852
X5.035Y-3.9852
X5.035Y-4.0852
X5.035Y-4.1852
X5.035Y-4.2852
T5
X1.315Y-1.37
X1.3172Y-4.9828
X1.32Y-2.195
X1.32Y-3.12
X2.2778Y-1.8172
X2.2828Y-2.6422
X2.6553Y-1.3728
X2.6603Y-2.1978
X3.6181Y-1.82
X3.6231Y-2.645
X4.0172Y-1.3728
X4.0222Y-2.1978
X4.98Y-1.82
X4.98Y-3.12
X4.98Y-4.975
X4.985Y-2.645
T0
M30
