%TF.GenerationSoftware,KiCad,Pcbnew,6.0.10-86aedd382b~118~ubuntu22.10.1*%
%TF.CreationDate,2023-02-15T12:29:17+01:00*%
%TF.ProjectId,railway,7261696c-7761-4792-9e6b-696361645f70,rev?*%
%TF.SameCoordinates,Original*%
%TF.FileFunction,Legend,Bot*%
%TF.FilePolarity,Positive*%
%FSLAX46Y46*%
G04 Gerber Fmt 4.6, Leading zero omitted, Abs format (unit mm)*
G04 Created by KiCad (PCBNEW 6.0.10-86aedd382b~118~ubuntu22.10.1) date 2023-02-15 12:29:17*
%MOMM*%
%LPD*%
G01*
G04 APERTURE LIST*
%ADD10C,0.150000*%
%ADD11C,0.120000*%
G04 APERTURE END LIST*
D10*
X97028000Y-30607000D02*
X97028000Y-73533000D01*
X62865000Y-30607000D02*
X62865000Y-73533000D01*
X30226000Y-50292000D02*
X129794000Y-50292000D01*
X107315000Y-75184000D02*
X102108000Y-75184000D01*
X102108000Y-75184000D02*
X102108000Y-78740000D01*
X102108000Y-78740000D02*
X107315000Y-78740000D01*
X107315000Y-78740000D02*
X107315000Y-75184000D01*
X129667000Y-105029000D02*
X125984000Y-105029000D01*
X125984000Y-105029000D02*
X125984000Y-110617000D01*
X125984000Y-110617000D02*
X129667000Y-110617000D01*
X129667000Y-110617000D02*
X129667000Y-105029000D01*
X122047000Y-78740000D02*
X123063000Y-81153000D01*
X30226000Y-73660000D02*
X129794000Y-73660000D01*
X123063000Y-75184000D02*
X120015000Y-75184000D01*
X120015000Y-75184000D02*
X120015000Y-78740000D01*
X120015000Y-78740000D02*
X123063000Y-78740000D01*
X123063000Y-78740000D02*
X123063000Y-75184000D01*
X105471261Y-79165380D02*
X105137928Y-80165380D01*
X104804595Y-79165380D01*
X104471261Y-79784428D02*
X103709357Y-79784428D01*
X104090309Y-80165380D02*
X104090309Y-79403476D01*
X104899833Y-80775380D02*
X105090309Y-80775380D01*
X105185547Y-80823000D01*
X105233166Y-80870619D01*
X105328404Y-81013476D01*
X105376023Y-81203952D01*
X105376023Y-81584904D01*
X105328404Y-81680142D01*
X105280785Y-81727761D01*
X105185547Y-81775380D01*
X104995071Y-81775380D01*
X104899833Y-81727761D01*
X104852214Y-81680142D01*
X104804595Y-81584904D01*
X104804595Y-81346809D01*
X104852214Y-81251571D01*
X104899833Y-81203952D01*
X104995071Y-81156333D01*
X105185547Y-81156333D01*
X105280785Y-81203952D01*
X105328404Y-81251571D01*
X105376023Y-81346809D01*
X104518880Y-80775380D02*
X104185547Y-81775380D01*
X103852214Y-80775380D01*
X102756976Y-81775380D02*
X102756976Y-80775380D01*
X102423642Y-81489666D01*
X102090309Y-80775380D01*
X102090309Y-81775380D01*
X101661738Y-81489666D02*
X101185547Y-81489666D01*
X101756976Y-81775380D02*
X101423642Y-80775380D01*
X101090309Y-81775380D01*
X100852214Y-80775380D02*
X100185547Y-81775380D01*
X100185547Y-80775380D02*
X100852214Y-81775380D01*
X114403095Y-79573380D02*
X114403095Y-78573380D01*
X114165000Y-78573380D01*
X114022142Y-78621000D01*
X113926904Y-78716238D01*
X113879285Y-78811476D01*
X113831666Y-79001952D01*
X113831666Y-79144809D01*
X113879285Y-79335285D01*
X113926904Y-79430523D01*
X114022142Y-79525761D01*
X114165000Y-79573380D01*
X114403095Y-79573380D01*
X112974523Y-78573380D02*
X113165000Y-78573380D01*
X113260238Y-78621000D01*
X113307857Y-78668619D01*
X113403095Y-78811476D01*
X113450714Y-79001952D01*
X113450714Y-79382904D01*
X113403095Y-79478142D01*
X113355476Y-79525761D01*
X113260238Y-79573380D01*
X113069761Y-79573380D01*
X112974523Y-79525761D01*
X112926904Y-79478142D01*
X112879285Y-79382904D01*
X112879285Y-79144809D01*
X112926904Y-79049571D01*
X112974523Y-79001952D01*
X113069761Y-78954333D01*
X113260238Y-78954333D01*
X113355476Y-79001952D01*
X113403095Y-79049571D01*
X113450714Y-79144809D01*
X125332904Y-82367428D02*
X124571000Y-82367428D01*
X124951952Y-82748380D02*
X124951952Y-81986476D01*
X123571000Y-82748380D02*
X124142428Y-82748380D01*
X123856714Y-82748380D02*
X123856714Y-81748380D01*
X123951952Y-81891238D01*
X124047190Y-81986476D01*
X124142428Y-82034095D01*
X123190047Y-81843619D02*
X123142428Y-81796000D01*
X123047190Y-81748380D01*
X122809095Y-81748380D01*
X122713857Y-81796000D01*
X122666238Y-81843619D01*
X122618619Y-81938857D01*
X122618619Y-82034095D01*
X122666238Y-82176952D01*
X123237666Y-82748380D01*
X122618619Y-82748380D01*
X122332904Y-81748380D02*
X121999571Y-82748380D01*
X121666238Y-81748380D01*
X119483095Y-79573380D02*
X119483095Y-78573380D01*
X119245000Y-78573380D01*
X119102142Y-78621000D01*
X119006904Y-78716238D01*
X118959285Y-78811476D01*
X118911666Y-79001952D01*
X118911666Y-79144809D01*
X118959285Y-79335285D01*
X119006904Y-79430523D01*
X119102142Y-79525761D01*
X119245000Y-79573380D01*
X119483095Y-79573380D01*
X118340238Y-79001952D02*
X118435476Y-78954333D01*
X118483095Y-78906714D01*
X118530714Y-78811476D01*
X118530714Y-78763857D01*
X118483095Y-78668619D01*
X118435476Y-78621000D01*
X118340238Y-78573380D01*
X118149761Y-78573380D01*
X118054523Y-78621000D01*
X118006904Y-78668619D01*
X117959285Y-78763857D01*
X117959285Y-78811476D01*
X118006904Y-78906714D01*
X118054523Y-78954333D01*
X118149761Y-79001952D01*
X118340238Y-79001952D01*
X118435476Y-79049571D01*
X118483095Y-79097190D01*
X118530714Y-79192428D01*
X118530714Y-79382904D01*
X118483095Y-79478142D01*
X118435476Y-79525761D01*
X118340238Y-79573380D01*
X118149761Y-79573380D01*
X118054523Y-79525761D01*
X118006904Y-79478142D01*
X117959285Y-79382904D01*
X117959285Y-79192428D01*
X118006904Y-79097190D01*
X118054523Y-79049571D01*
X118149761Y-79001952D01*
X35784214Y-84209000D02*
X35879452Y-84161380D01*
X36022309Y-84161380D01*
X36165166Y-84209000D01*
X36260404Y-84304238D01*
X36308023Y-84399476D01*
X36355642Y-84589952D01*
X36355642Y-84732809D01*
X36308023Y-84923285D01*
X36260404Y-85018523D01*
X36165166Y-85113761D01*
X36022309Y-85161380D01*
X35927071Y-85161380D01*
X35784214Y-85113761D01*
X35736595Y-85066142D01*
X35736595Y-84732809D01*
X35927071Y-84732809D01*
X35308023Y-85161380D02*
X35308023Y-84161380D01*
X34736595Y-85161380D01*
X34736595Y-84161380D01*
X34260404Y-85161380D02*
X34260404Y-84161380D01*
X34022309Y-84161380D01*
X33879452Y-84209000D01*
X33784214Y-84304238D01*
X33736595Y-84399476D01*
X33688976Y-84589952D01*
X33688976Y-84732809D01*
X33736595Y-84923285D01*
X33784214Y-85018523D01*
X33879452Y-85113761D01*
X34022309Y-85161380D01*
X34260404Y-85161380D01*
X75292976Y-124742380D02*
X75626309Y-124266190D01*
X75864404Y-124742380D02*
X75864404Y-123742380D01*
X75483452Y-123742380D01*
X75388214Y-123790000D01*
X75340595Y-123837619D01*
X75292976Y-123932857D01*
X75292976Y-124075714D01*
X75340595Y-124170952D01*
X75388214Y-124218571D01*
X75483452Y-124266190D01*
X75864404Y-124266190D01*
X74435833Y-124742380D02*
X74435833Y-124218571D01*
X74483452Y-124123333D01*
X74578690Y-124075714D01*
X74769166Y-124075714D01*
X74864404Y-124123333D01*
X74435833Y-124694761D02*
X74531071Y-124742380D01*
X74769166Y-124742380D01*
X74864404Y-124694761D01*
X74912023Y-124599523D01*
X74912023Y-124504285D01*
X74864404Y-124409047D01*
X74769166Y-124361428D01*
X74531071Y-124361428D01*
X74435833Y-124313809D01*
X73959642Y-124742380D02*
X73959642Y-124075714D01*
X73959642Y-123742380D02*
X74007261Y-123790000D01*
X73959642Y-123837619D01*
X73912023Y-123790000D01*
X73959642Y-123742380D01*
X73959642Y-123837619D01*
X73340595Y-124742380D02*
X73435833Y-124694761D01*
X73483452Y-124599523D01*
X73483452Y-123742380D01*
X73054880Y-124075714D02*
X72864404Y-124742380D01*
X72673928Y-124266190D01*
X72483452Y-124742380D01*
X72292976Y-124075714D01*
X71483452Y-124742380D02*
X71483452Y-124218571D01*
X71531071Y-124123333D01*
X71626309Y-124075714D01*
X71816785Y-124075714D01*
X71912023Y-124123333D01*
X71483452Y-124694761D02*
X71578690Y-124742380D01*
X71816785Y-124742380D01*
X71912023Y-124694761D01*
X71959642Y-124599523D01*
X71959642Y-124504285D01*
X71912023Y-124409047D01*
X71816785Y-124361428D01*
X71578690Y-124361428D01*
X71483452Y-124313809D01*
X71102500Y-124075714D02*
X70864404Y-124742380D01*
X70626309Y-124075714D02*
X70864404Y-124742380D01*
X70959642Y-124980476D01*
X71007261Y-125028095D01*
X71102500Y-125075714D01*
X69483452Y-124742380D02*
X69483452Y-123742380D01*
X69150119Y-124456666D01*
X68816785Y-123742380D01*
X68816785Y-124742380D01*
X68197738Y-124742380D02*
X68292976Y-124694761D01*
X68340595Y-124647142D01*
X68388214Y-124551904D01*
X68388214Y-124266190D01*
X68340595Y-124170952D01*
X68292976Y-124123333D01*
X68197738Y-124075714D01*
X68054880Y-124075714D01*
X67959642Y-124123333D01*
X67912023Y-124170952D01*
X67864404Y-124266190D01*
X67864404Y-124551904D01*
X67912023Y-124647142D01*
X67959642Y-124694761D01*
X68054880Y-124742380D01*
X68197738Y-124742380D01*
X67007261Y-124742380D02*
X67007261Y-123742380D01*
X67007261Y-124694761D02*
X67102500Y-124742380D01*
X67292976Y-124742380D01*
X67388214Y-124694761D01*
X67435833Y-124647142D01*
X67483452Y-124551904D01*
X67483452Y-124266190D01*
X67435833Y-124170952D01*
X67388214Y-124123333D01*
X67292976Y-124075714D01*
X67102500Y-124075714D01*
X67007261Y-124123333D01*
X66102500Y-124075714D02*
X66102500Y-124742380D01*
X66531071Y-124075714D02*
X66531071Y-124599523D01*
X66483452Y-124694761D01*
X66388214Y-124742380D01*
X66245357Y-124742380D01*
X66150119Y-124694761D01*
X66102500Y-124647142D01*
X65483452Y-124742380D02*
X65578690Y-124694761D01*
X65626309Y-124599523D01*
X65626309Y-123742380D01*
X64721547Y-124694761D02*
X64816785Y-124742380D01*
X65007261Y-124742380D01*
X65102500Y-124694761D01*
X65150119Y-124599523D01*
X65150119Y-124218571D01*
X65102500Y-124123333D01*
X65007261Y-124075714D01*
X64816785Y-124075714D01*
X64721547Y-124123333D01*
X64673928Y-124218571D01*
X64673928Y-124313809D01*
X65150119Y-124409047D01*
X63626309Y-123742380D02*
X63292976Y-124742380D01*
X62959642Y-123742380D01*
X62102500Y-124742380D02*
X62673928Y-124742380D01*
X62388214Y-124742380D02*
X62388214Y-123742380D01*
X62483452Y-123885238D01*
X62578690Y-123980476D01*
X62673928Y-124028095D01*
X61673928Y-124647142D02*
X61626309Y-124694761D01*
X61673928Y-124742380D01*
X61721547Y-124694761D01*
X61673928Y-124647142D01*
X61673928Y-124742380D01*
X61007261Y-123742380D02*
X60912023Y-123742380D01*
X60816785Y-123790000D01*
X60769166Y-123837619D01*
X60721547Y-123932857D01*
X60673928Y-124123333D01*
X60673928Y-124361428D01*
X60721547Y-124551904D01*
X60769166Y-124647142D01*
X60816785Y-124694761D01*
X60912023Y-124742380D01*
X61007261Y-124742380D01*
X61102500Y-124694761D01*
X61150119Y-124647142D01*
X61197738Y-124551904D01*
X61245357Y-124361428D01*
X61245357Y-124123333D01*
X61197738Y-123932857D01*
X61150119Y-123837619D01*
X61102500Y-123790000D01*
X61007261Y-123742380D01*
X75912023Y-125447619D02*
X75864404Y-125400000D01*
X75769166Y-125352380D01*
X75531071Y-125352380D01*
X75435833Y-125400000D01*
X75388214Y-125447619D01*
X75340595Y-125542857D01*
X75340595Y-125638095D01*
X75388214Y-125780952D01*
X75959642Y-126352380D01*
X75340595Y-126352380D01*
X74721547Y-125352380D02*
X74626309Y-125352380D01*
X74531071Y-125400000D01*
X74483452Y-125447619D01*
X74435833Y-125542857D01*
X74388214Y-125733333D01*
X74388214Y-125971428D01*
X74435833Y-126161904D01*
X74483452Y-126257142D01*
X74531071Y-126304761D01*
X74626309Y-126352380D01*
X74721547Y-126352380D01*
X74816785Y-126304761D01*
X74864404Y-126257142D01*
X74912023Y-126161904D01*
X74959642Y-125971428D01*
X74959642Y-125733333D01*
X74912023Y-125542857D01*
X74864404Y-125447619D01*
X74816785Y-125400000D01*
X74721547Y-125352380D01*
X74007261Y-125447619D02*
X73959642Y-125400000D01*
X73864404Y-125352380D01*
X73626309Y-125352380D01*
X73531071Y-125400000D01*
X73483452Y-125447619D01*
X73435833Y-125542857D01*
X73435833Y-125638095D01*
X73483452Y-125780952D01*
X74054880Y-126352380D01*
X73435833Y-126352380D01*
X73102500Y-125352380D02*
X72483452Y-125352380D01*
X72816785Y-125733333D01*
X72673928Y-125733333D01*
X72578690Y-125780952D01*
X72531071Y-125828571D01*
X72483452Y-125923809D01*
X72483452Y-126161904D01*
X72531071Y-126257142D01*
X72578690Y-126304761D01*
X72673928Y-126352380D01*
X72959642Y-126352380D01*
X73054880Y-126304761D01*
X73102500Y-126257142D01*
X36165166Y-120848380D02*
X36165166Y-119848380D01*
X35927071Y-119848380D01*
X35784214Y-119896000D01*
X35688976Y-119991238D01*
X35641357Y-120086476D01*
X35593738Y-120276952D01*
X35593738Y-120419809D01*
X35641357Y-120610285D01*
X35688976Y-120705523D01*
X35784214Y-120800761D01*
X35927071Y-120848380D01*
X36165166Y-120848380D01*
X34641357Y-120848380D02*
X35212785Y-120848380D01*
X34927071Y-120848380D02*
X34927071Y-119848380D01*
X35022309Y-119991238D01*
X35117547Y-120086476D01*
X35212785Y-120134095D01*
X34260404Y-119943619D02*
X34212785Y-119896000D01*
X34117547Y-119848380D01*
X33879452Y-119848380D01*
X33784214Y-119896000D01*
X33736595Y-119943619D01*
X33688976Y-120038857D01*
X33688976Y-120134095D01*
X33736595Y-120276952D01*
X34308023Y-120848380D01*
X33688976Y-120848380D01*
X36165166Y-118308380D02*
X36165166Y-117308380D01*
X35927071Y-117308380D01*
X35784214Y-117356000D01*
X35688976Y-117451238D01*
X35641357Y-117546476D01*
X35593738Y-117736952D01*
X35593738Y-117879809D01*
X35641357Y-118070285D01*
X35688976Y-118165523D01*
X35784214Y-118260761D01*
X35927071Y-118308380D01*
X36165166Y-118308380D01*
X34641357Y-118308380D02*
X35212785Y-118308380D01*
X34927071Y-118308380D02*
X34927071Y-117308380D01*
X35022309Y-117451238D01*
X35117547Y-117546476D01*
X35212785Y-117594095D01*
X33688976Y-118308380D02*
X34260404Y-118308380D01*
X33974690Y-118308380D02*
X33974690Y-117308380D01*
X34069928Y-117451238D01*
X34165166Y-117546476D01*
X34260404Y-117594095D01*
X35498500Y-101941380D02*
X35165166Y-102941380D01*
X34831833Y-101941380D01*
X34498500Y-102560428D02*
X33736595Y-102560428D01*
X34117547Y-102941380D02*
X34117547Y-102179476D01*
X126571285Y-86145666D02*
X126095095Y-86145666D01*
X126666523Y-86431380D02*
X126333190Y-85431380D01*
X125999857Y-86431380D01*
X125761761Y-85431380D02*
X125095095Y-85431380D01*
X125523666Y-86431380D01*
X35498500Y-109561380D02*
X35165166Y-110561380D01*
X34831833Y-109561380D01*
X34498500Y-110180428D02*
X33736595Y-110180428D01*
X34117547Y-110561380D02*
X34117547Y-109799476D01*
X35784214Y-86749000D02*
X35879452Y-86701380D01*
X36022309Y-86701380D01*
X36165166Y-86749000D01*
X36260404Y-86844238D01*
X36308023Y-86939476D01*
X36355642Y-87129952D01*
X36355642Y-87272809D01*
X36308023Y-87463285D01*
X36260404Y-87558523D01*
X36165166Y-87653761D01*
X36022309Y-87701380D01*
X35927071Y-87701380D01*
X35784214Y-87653761D01*
X35736595Y-87606142D01*
X35736595Y-87272809D01*
X35927071Y-87272809D01*
X35308023Y-87701380D02*
X35308023Y-86701380D01*
X34736595Y-87701380D01*
X34736595Y-86701380D01*
X34260404Y-87701380D02*
X34260404Y-86701380D01*
X34022309Y-86701380D01*
X33879452Y-86749000D01*
X33784214Y-86844238D01*
X33736595Y-86939476D01*
X33688976Y-87129952D01*
X33688976Y-87272809D01*
X33736595Y-87463285D01*
X33784214Y-87558523D01*
X33879452Y-87653761D01*
X34022309Y-87701380D01*
X34260404Y-87701380D01*
X35212785Y-113101380D02*
X35212785Y-112101380D01*
X34974690Y-112101380D01*
X34831833Y-112149000D01*
X34736595Y-112244238D01*
X34688976Y-112339476D01*
X34641357Y-112529952D01*
X34641357Y-112672809D01*
X34688976Y-112863285D01*
X34736595Y-112958523D01*
X34831833Y-113053761D01*
X34974690Y-113101380D01*
X35212785Y-113101380D01*
X34165166Y-113101380D02*
X33974690Y-113101380D01*
X33879452Y-113053761D01*
X33831833Y-113006142D01*
X33736595Y-112863285D01*
X33688976Y-112672809D01*
X33688976Y-112291857D01*
X33736595Y-112196619D01*
X33784214Y-112149000D01*
X33879452Y-112101380D01*
X34069928Y-112101380D01*
X34165166Y-112149000D01*
X34212785Y-112196619D01*
X34260404Y-112291857D01*
X34260404Y-112529952D01*
X34212785Y-112625190D01*
X34165166Y-112672809D01*
X34069928Y-112720428D01*
X33879452Y-112720428D01*
X33784214Y-112672809D01*
X33736595Y-112625190D01*
X33688976Y-112529952D01*
X111863095Y-79573380D02*
X111863095Y-78573380D01*
X111625000Y-78573380D01*
X111482142Y-78621000D01*
X111386904Y-78716238D01*
X111339285Y-78811476D01*
X111291666Y-79001952D01*
X111291666Y-79144809D01*
X111339285Y-79335285D01*
X111386904Y-79430523D01*
X111482142Y-79525761D01*
X111625000Y-79573380D01*
X111863095Y-79573380D01*
X110386904Y-78573380D02*
X110863095Y-78573380D01*
X110910714Y-79049571D01*
X110863095Y-79001952D01*
X110767857Y-78954333D01*
X110529761Y-78954333D01*
X110434523Y-79001952D01*
X110386904Y-79049571D01*
X110339285Y-79144809D01*
X110339285Y-79382904D01*
X110386904Y-79478142D01*
X110434523Y-79525761D01*
X110529761Y-79573380D01*
X110767857Y-79573380D01*
X110863095Y-79525761D01*
X110910714Y-79478142D01*
X35498500Y-104481380D02*
X35165166Y-105481380D01*
X34831833Y-104481380D01*
X34498500Y-105100428D02*
X33736595Y-105100428D01*
X34117547Y-105481380D02*
X34117547Y-104719476D01*
X36308023Y-92400428D02*
X35546119Y-92400428D01*
X35927071Y-92781380D02*
X35927071Y-92019476D01*
X34593738Y-91781380D02*
X35069928Y-91781380D01*
X35117547Y-92257571D01*
X35069928Y-92209952D01*
X34974690Y-92162333D01*
X34736595Y-92162333D01*
X34641357Y-92209952D01*
X34593738Y-92257571D01*
X34546119Y-92352809D01*
X34546119Y-92590904D01*
X34593738Y-92686142D01*
X34641357Y-92733761D01*
X34736595Y-92781380D01*
X34974690Y-92781380D01*
X35069928Y-92733761D01*
X35117547Y-92686142D01*
X34260404Y-91781380D02*
X33927071Y-92781380D01*
X33593738Y-91781380D01*
X35784214Y-97036000D02*
X35879452Y-96988380D01*
X36022309Y-96988380D01*
X36165166Y-97036000D01*
X36260404Y-97131238D01*
X36308023Y-97226476D01*
X36355642Y-97416952D01*
X36355642Y-97559809D01*
X36308023Y-97750285D01*
X36260404Y-97845523D01*
X36165166Y-97940761D01*
X36022309Y-97988380D01*
X35927071Y-97988380D01*
X35784214Y-97940761D01*
X35736595Y-97893142D01*
X35736595Y-97559809D01*
X35927071Y-97559809D01*
X35308023Y-97988380D02*
X35308023Y-96988380D01*
X34736595Y-97988380D01*
X34736595Y-96988380D01*
X34260404Y-97988380D02*
X34260404Y-96988380D01*
X34022309Y-96988380D01*
X33879452Y-97036000D01*
X33784214Y-97131238D01*
X33736595Y-97226476D01*
X33688976Y-97416952D01*
X33688976Y-97559809D01*
X33736595Y-97750285D01*
X33784214Y-97845523D01*
X33879452Y-97940761D01*
X34022309Y-97988380D01*
X34260404Y-97988380D01*
X35784214Y-89289000D02*
X35879452Y-89241380D01*
X36022309Y-89241380D01*
X36165166Y-89289000D01*
X36260404Y-89384238D01*
X36308023Y-89479476D01*
X36355642Y-89669952D01*
X36355642Y-89812809D01*
X36308023Y-90003285D01*
X36260404Y-90098523D01*
X36165166Y-90193761D01*
X36022309Y-90241380D01*
X35927071Y-90241380D01*
X35784214Y-90193761D01*
X35736595Y-90146142D01*
X35736595Y-89812809D01*
X35927071Y-89812809D01*
X35308023Y-90241380D02*
X35308023Y-89241380D01*
X34736595Y-90241380D01*
X34736595Y-89241380D01*
X34260404Y-90241380D02*
X34260404Y-89241380D01*
X34022309Y-89241380D01*
X33879452Y-89289000D01*
X33784214Y-89384238D01*
X33736595Y-89479476D01*
X33688976Y-89669952D01*
X33688976Y-89812809D01*
X33736595Y-90003285D01*
X33784214Y-90098523D01*
X33879452Y-90193761D01*
X34022309Y-90241380D01*
X34260404Y-90241380D01*
X126571285Y-93765666D02*
X126095095Y-93765666D01*
X126666523Y-94051380D02*
X126333190Y-93051380D01*
X125999857Y-94051380D01*
X125714142Y-93146619D02*
X125666523Y-93099000D01*
X125571285Y-93051380D01*
X125333190Y-93051380D01*
X125237952Y-93099000D01*
X125190333Y-93146619D01*
X125142714Y-93241857D01*
X125142714Y-93337095D01*
X125190333Y-93479952D01*
X125761761Y-94051380D01*
X125142714Y-94051380D01*
X36308023Y-95067428D02*
X35546119Y-95067428D01*
X35927071Y-95448380D02*
X35927071Y-94686476D01*
X34593738Y-94448380D02*
X35069928Y-94448380D01*
X35117547Y-94924571D01*
X35069928Y-94876952D01*
X34974690Y-94829333D01*
X34736595Y-94829333D01*
X34641357Y-94876952D01*
X34593738Y-94924571D01*
X34546119Y-95019809D01*
X34546119Y-95257904D01*
X34593738Y-95353142D01*
X34641357Y-95400761D01*
X34736595Y-95448380D01*
X34974690Y-95448380D01*
X35069928Y-95400761D01*
X35117547Y-95353142D01*
X34260404Y-94448380D02*
X33927071Y-95448380D01*
X33593738Y-94448380D01*
X126110904Y-103259000D02*
X126206142Y-103211380D01*
X126349000Y-103211380D01*
X126491857Y-103259000D01*
X126587095Y-103354238D01*
X126634714Y-103449476D01*
X126682333Y-103639952D01*
X126682333Y-103782809D01*
X126634714Y-103973285D01*
X126587095Y-104068523D01*
X126491857Y-104163761D01*
X126349000Y-104211380D01*
X126253761Y-104211380D01*
X126110904Y-104163761D01*
X126063285Y-104116142D01*
X126063285Y-103782809D01*
X126253761Y-103782809D01*
X125634714Y-104211380D02*
X125634714Y-103211380D01*
X125063285Y-104211380D01*
X125063285Y-103211380D01*
X124587095Y-104211380D02*
X124587095Y-103211380D01*
X124349000Y-103211380D01*
X124206142Y-103259000D01*
X124110904Y-103354238D01*
X124063285Y-103449476D01*
X124015666Y-103639952D01*
X124015666Y-103782809D01*
X124063285Y-103973285D01*
X124110904Y-104068523D01*
X124206142Y-104163761D01*
X124349000Y-104211380D01*
X124587095Y-104211380D01*
X126571285Y-98845666D02*
X126095095Y-98845666D01*
X126666523Y-99131380D02*
X126333190Y-98131380D01*
X125999857Y-99131380D01*
X125476047Y-98131380D02*
X125380809Y-98131380D01*
X125285571Y-98179000D01*
X125237952Y-98226619D01*
X125190333Y-98321857D01*
X125142714Y-98512333D01*
X125142714Y-98750428D01*
X125190333Y-98940904D01*
X125237952Y-99036142D01*
X125285571Y-99083761D01*
X125380809Y-99131380D01*
X125476047Y-99131380D01*
X125571285Y-99083761D01*
X125618904Y-99036142D01*
X125666523Y-98940904D01*
X125714142Y-98750428D01*
X125714142Y-98512333D01*
X125666523Y-98321857D01*
X125618904Y-98226619D01*
X125571285Y-98179000D01*
X125476047Y-98131380D01*
X109323095Y-79573380D02*
X109323095Y-78573380D01*
X109085000Y-78573380D01*
X108942142Y-78621000D01*
X108846904Y-78716238D01*
X108799285Y-78811476D01*
X108751666Y-79001952D01*
X108751666Y-79144809D01*
X108799285Y-79335285D01*
X108846904Y-79430523D01*
X108942142Y-79525761D01*
X109085000Y-79573380D01*
X109323095Y-79573380D01*
X107894523Y-78906714D02*
X107894523Y-79573380D01*
X108132619Y-78525761D02*
X108370714Y-79240047D01*
X107751666Y-79240047D01*
X126571285Y-88685666D02*
X126095095Y-88685666D01*
X126666523Y-88971380D02*
X126333190Y-87971380D01*
X125999857Y-88971380D01*
X125237952Y-87971380D02*
X125428428Y-87971380D01*
X125523666Y-88019000D01*
X125571285Y-88066619D01*
X125666523Y-88209476D01*
X125714142Y-88399952D01*
X125714142Y-88780904D01*
X125666523Y-88876142D01*
X125618904Y-88923761D01*
X125523666Y-88971380D01*
X125333190Y-88971380D01*
X125237952Y-88923761D01*
X125190333Y-88876142D01*
X125142714Y-88780904D01*
X125142714Y-88542809D01*
X125190333Y-88447571D01*
X125237952Y-88399952D01*
X125333190Y-88352333D01*
X125523666Y-88352333D01*
X125618904Y-88399952D01*
X125666523Y-88447571D01*
X125714142Y-88542809D01*
X126571285Y-96305666D02*
X126095095Y-96305666D01*
X126666523Y-96591380D02*
X126333190Y-95591380D01*
X125999857Y-96591380D01*
X125142714Y-96591380D02*
X125714142Y-96591380D01*
X125428428Y-96591380D02*
X125428428Y-95591380D01*
X125523666Y-95734238D01*
X125618904Y-95829476D01*
X125714142Y-95877095D01*
X126571285Y-91352666D02*
X126095095Y-91352666D01*
X126666523Y-91638380D02*
X126333190Y-90638380D01*
X125999857Y-91638380D01*
X125761761Y-90638380D02*
X125142714Y-90638380D01*
X125476047Y-91019333D01*
X125333190Y-91019333D01*
X125237952Y-91066952D01*
X125190333Y-91114571D01*
X125142714Y-91209809D01*
X125142714Y-91447904D01*
X125190333Y-91543142D01*
X125237952Y-91590761D01*
X125333190Y-91638380D01*
X125618904Y-91638380D01*
X125714142Y-91590761D01*
X125761761Y-91543142D01*
X125531285Y-107148380D02*
X124959857Y-107148380D01*
X125245571Y-108148380D02*
X125245571Y-107148380D01*
X124055095Y-108148380D02*
X124388428Y-107672190D01*
X124626523Y-108148380D02*
X124626523Y-107148380D01*
X124245571Y-107148380D01*
X124150333Y-107196000D01*
X124102714Y-107243619D01*
X124055095Y-107338857D01*
X124055095Y-107481714D01*
X124102714Y-107576952D01*
X124150333Y-107624571D01*
X124245571Y-107672190D01*
X124626523Y-107672190D01*
X123674142Y-107862666D02*
X123197952Y-107862666D01*
X123769380Y-108148380D02*
X123436047Y-107148380D01*
X123102714Y-108148380D01*
X122197952Y-108053142D02*
X122245571Y-108100761D01*
X122388428Y-108148380D01*
X122483666Y-108148380D01*
X122626523Y-108100761D01*
X122721761Y-108005523D01*
X122769380Y-107910285D01*
X122817000Y-107719809D01*
X122817000Y-107576952D01*
X122769380Y-107386476D01*
X122721761Y-107291238D01*
X122626523Y-107196000D01*
X122483666Y-107148380D01*
X122388428Y-107148380D01*
X122245571Y-107196000D01*
X122197952Y-107243619D01*
X121769380Y-108148380D02*
X121769380Y-107148380D01*
X121197952Y-108148380D02*
X121626523Y-107576952D01*
X121197952Y-107148380D02*
X121769380Y-107719809D01*
X35498500Y-107021380D02*
X35165166Y-108021380D01*
X34831833Y-107021380D01*
X34498500Y-107640428D02*
X33736595Y-107640428D01*
X34117547Y-108021380D02*
X34117547Y-107259476D01*
X35498500Y-99401380D02*
X35165166Y-100401380D01*
X34831833Y-99401380D01*
X34498500Y-100020428D02*
X33736595Y-100020428D01*
X34117547Y-100401380D02*
X34117547Y-99639476D01*
X116943095Y-79573380D02*
X116943095Y-78573380D01*
X116705000Y-78573380D01*
X116562142Y-78621000D01*
X116466904Y-78716238D01*
X116419285Y-78811476D01*
X116371666Y-79001952D01*
X116371666Y-79144809D01*
X116419285Y-79335285D01*
X116466904Y-79430523D01*
X116562142Y-79525761D01*
X116705000Y-79573380D01*
X116943095Y-79573380D01*
X116038333Y-78573380D02*
X115371666Y-78573380D01*
X115800238Y-79573380D01*
X36165166Y-115641380D02*
X36165166Y-114641380D01*
X35927071Y-114641380D01*
X35784214Y-114689000D01*
X35688976Y-114784238D01*
X35641357Y-114879476D01*
X35593738Y-115069952D01*
X35593738Y-115212809D01*
X35641357Y-115403285D01*
X35688976Y-115498523D01*
X35784214Y-115593761D01*
X35927071Y-115641380D01*
X36165166Y-115641380D01*
X34641357Y-115641380D02*
X35212785Y-115641380D01*
X34927071Y-115641380D02*
X34927071Y-114641380D01*
X35022309Y-114784238D01*
X35117547Y-114879476D01*
X35212785Y-114927095D01*
X34022309Y-114641380D02*
X33927071Y-114641380D01*
X33831833Y-114689000D01*
X33784214Y-114736619D01*
X33736595Y-114831857D01*
X33688976Y-115022333D01*
X33688976Y-115260428D01*
X33736595Y-115450904D01*
X33784214Y-115546142D01*
X33831833Y-115593761D01*
X33927071Y-115641380D01*
X34022309Y-115641380D01*
X34117547Y-115593761D01*
X34165166Y-115546142D01*
X34212785Y-115450904D01*
X34260404Y-115260428D01*
X34260404Y-115022333D01*
X34212785Y-114831857D01*
X34165166Y-114736619D01*
X34117547Y-114689000D01*
X34022309Y-114641380D01*
X126690285Y-101671380D02*
X126690285Y-100671380D01*
X126452190Y-100671380D01*
X126309333Y-100719000D01*
X126214095Y-100814238D01*
X126166476Y-100909476D01*
X126118857Y-101099952D01*
X126118857Y-101242809D01*
X126166476Y-101433285D01*
X126214095Y-101528523D01*
X126309333Y-101623761D01*
X126452190Y-101671380D01*
X126690285Y-101671380D01*
X125166476Y-101671380D02*
X125737904Y-101671380D01*
X125452190Y-101671380D02*
X125452190Y-100671380D01*
X125547428Y-100814238D01*
X125642666Y-100909476D01*
X125737904Y-100957095D01*
X124833142Y-100671380D02*
X124214095Y-100671380D01*
X124547428Y-101052333D01*
X124404571Y-101052333D01*
X124309333Y-101099952D01*
X124261714Y-101147571D01*
X124214095Y-101242809D01*
X124214095Y-101480904D01*
X124261714Y-101576142D01*
X124309333Y-101623761D01*
X124404571Y-101671380D01*
X124690285Y-101671380D01*
X124785523Y-101623761D01*
X124833142Y-101576142D01*
%TO.C,U2*%
X42991500Y-110323380D02*
X42658166Y-111323380D01*
X42324833Y-110323380D01*
X41991500Y-110942428D02*
X41229595Y-110942428D01*
X41610547Y-111323380D02*
X41610547Y-110561476D01*
X95216023Y-116355761D02*
X95073166Y-116403380D01*
X94835071Y-116403380D01*
X94739833Y-116355761D01*
X94692214Y-116308142D01*
X94644595Y-116212904D01*
X94644595Y-116117666D01*
X94692214Y-116022428D01*
X94739833Y-115974809D01*
X94835071Y-115927190D01*
X95025547Y-115879571D01*
X95120785Y-115831952D01*
X95168404Y-115784333D01*
X95216023Y-115689095D01*
X95216023Y-115593857D01*
X95168404Y-115498619D01*
X95120785Y-115451000D01*
X95025547Y-115403380D01*
X94787452Y-115403380D01*
X94644595Y-115451000D01*
X94216023Y-116403380D02*
X94216023Y-115403380D01*
X93977928Y-115403380D01*
X93835071Y-115451000D01*
X93739833Y-115546238D01*
X93692214Y-115641476D01*
X93644595Y-115831952D01*
X93644595Y-115974809D01*
X93692214Y-116165285D01*
X93739833Y-116260523D01*
X93835071Y-116355761D01*
X93977928Y-116403380D01*
X94216023Y-116403380D01*
X93263642Y-116117666D02*
X92787452Y-116117666D01*
X93358880Y-116403380D02*
X93025547Y-115403380D01*
X92692214Y-116403380D01*
X94977928Y-120483380D02*
X94787452Y-120483380D01*
X94692214Y-120531000D01*
X94596976Y-120626238D01*
X94549357Y-120816714D01*
X94549357Y-121150047D01*
X94596976Y-121340523D01*
X94692214Y-121435761D01*
X94787452Y-121483380D01*
X94977928Y-121483380D01*
X95073166Y-121435761D01*
X95168404Y-121340523D01*
X95216023Y-121150047D01*
X95216023Y-120816714D01*
X95168404Y-120626238D01*
X95073166Y-120531000D01*
X94977928Y-120483380D01*
X94120785Y-120959571D02*
X93787452Y-120959571D01*
X93644595Y-121483380D02*
X94120785Y-121483380D01*
X94120785Y-120483380D01*
X93644595Y-120483380D01*
X43562928Y-118895761D02*
X43420071Y-118943380D01*
X43181976Y-118943380D01*
X43086738Y-118895761D01*
X43039119Y-118848142D01*
X42991500Y-118752904D01*
X42991500Y-118657666D01*
X43039119Y-118562428D01*
X43086738Y-118514809D01*
X43181976Y-118467190D01*
X43372452Y-118419571D01*
X43467690Y-118371952D01*
X43515309Y-118324333D01*
X43562928Y-118229095D01*
X43562928Y-118133857D01*
X43515309Y-118038619D01*
X43467690Y-117991000D01*
X43372452Y-117943380D01*
X43134357Y-117943380D01*
X42991500Y-117991000D01*
X41991500Y-118848142D02*
X42039119Y-118895761D01*
X42181976Y-118943380D01*
X42277214Y-118943380D01*
X42420071Y-118895761D01*
X42515309Y-118800523D01*
X42562928Y-118705285D01*
X42610547Y-118514809D01*
X42610547Y-118371952D01*
X42562928Y-118181476D01*
X42515309Y-118086238D01*
X42420071Y-117991000D01*
X42277214Y-117943380D01*
X42181976Y-117943380D01*
X42039119Y-117991000D01*
X41991500Y-118038619D01*
X41086738Y-118943380D02*
X41562928Y-118943380D01*
X41562928Y-117943380D01*
X43277214Y-123071000D02*
X43372452Y-123023380D01*
X43515309Y-123023380D01*
X43658166Y-123071000D01*
X43753404Y-123166238D01*
X43801023Y-123261476D01*
X43848642Y-123451952D01*
X43848642Y-123594809D01*
X43801023Y-123785285D01*
X43753404Y-123880523D01*
X43658166Y-123975761D01*
X43515309Y-124023380D01*
X43420071Y-124023380D01*
X43277214Y-123975761D01*
X43229595Y-123928142D01*
X43229595Y-123594809D01*
X43420071Y-123594809D01*
X42801023Y-124023380D02*
X42801023Y-123023380D01*
X42229595Y-124023380D01*
X42229595Y-123023380D01*
X41753404Y-124023380D02*
X41753404Y-123023380D01*
X41515309Y-123023380D01*
X41372452Y-123071000D01*
X41277214Y-123166238D01*
X41229595Y-123261476D01*
X41181976Y-123451952D01*
X41181976Y-123594809D01*
X41229595Y-123785285D01*
X41277214Y-123880523D01*
X41372452Y-123975761D01*
X41515309Y-124023380D01*
X41753404Y-124023380D01*
X94644595Y-123071000D02*
X94739833Y-123023380D01*
X94882690Y-123023380D01*
X95025547Y-123071000D01*
X95120785Y-123166238D01*
X95168404Y-123261476D01*
X95216023Y-123451952D01*
X95216023Y-123594809D01*
X95168404Y-123785285D01*
X95120785Y-123880523D01*
X95025547Y-123975761D01*
X94882690Y-124023380D01*
X94787452Y-124023380D01*
X94644595Y-123975761D01*
X94596976Y-123928142D01*
X94596976Y-123594809D01*
X94787452Y-123594809D01*
X94168404Y-124023380D02*
X94168404Y-123023380D01*
X93596976Y-124023380D01*
X93596976Y-123023380D01*
X93120785Y-124023380D02*
X93120785Y-123023380D01*
X92882690Y-123023380D01*
X92739833Y-123071000D01*
X92644595Y-123166238D01*
X92596976Y-123261476D01*
X92549357Y-123451952D01*
X92549357Y-123594809D01*
X92596976Y-123785285D01*
X92644595Y-123880523D01*
X92739833Y-123975761D01*
X92882690Y-124023380D01*
X93120785Y-124023380D01*
X95216023Y-118895761D02*
X95073166Y-118943380D01*
X94835071Y-118943380D01*
X94739833Y-118895761D01*
X94692214Y-118848142D01*
X94644595Y-118752904D01*
X94644595Y-118657666D01*
X94692214Y-118562428D01*
X94739833Y-118514809D01*
X94835071Y-118467190D01*
X95025547Y-118419571D01*
X95120785Y-118371952D01*
X95168404Y-118324333D01*
X95216023Y-118229095D01*
X95216023Y-118133857D01*
X95168404Y-118038619D01*
X95120785Y-117991000D01*
X95025547Y-117943380D01*
X94787452Y-117943380D01*
X94644595Y-117991000D01*
X93644595Y-118848142D02*
X93692214Y-118895761D01*
X93835071Y-118943380D01*
X93930309Y-118943380D01*
X94073166Y-118895761D01*
X94168404Y-118800523D01*
X94216023Y-118705285D01*
X94263642Y-118514809D01*
X94263642Y-118371952D01*
X94216023Y-118181476D01*
X94168404Y-118086238D01*
X94073166Y-117991000D01*
X93930309Y-117943380D01*
X93835071Y-117943380D01*
X93692214Y-117991000D01*
X93644595Y-118038619D01*
X92739833Y-118943380D02*
X93216023Y-118943380D01*
X93216023Y-117943380D01*
X95311261Y-110323380D02*
X94977928Y-111323380D01*
X94644595Y-110323380D01*
X94311261Y-110942428D02*
X93549357Y-110942428D01*
X93930309Y-111323380D02*
X93930309Y-110561476D01*
X95311261Y-112863380D02*
X94977928Y-113863380D01*
X94644595Y-112863380D01*
X93739833Y-113768142D02*
X93787452Y-113815761D01*
X93930309Y-113863380D01*
X94025547Y-113863380D01*
X94168404Y-113815761D01*
X94263642Y-113720523D01*
X94311261Y-113625285D01*
X94358880Y-113434809D01*
X94358880Y-113291952D01*
X94311261Y-113101476D01*
X94263642Y-113006238D01*
X94168404Y-112911000D01*
X94025547Y-112863380D01*
X93930309Y-112863380D01*
X93787452Y-112911000D01*
X93739833Y-112958619D01*
X92739833Y-113768142D02*
X92787452Y-113815761D01*
X92930309Y-113863380D01*
X93025547Y-113863380D01*
X93168404Y-113815761D01*
X93263642Y-113720523D01*
X93311261Y-113625285D01*
X93358880Y-113434809D01*
X93358880Y-113291952D01*
X93311261Y-113101476D01*
X93263642Y-113006238D01*
X93168404Y-112911000D01*
X93025547Y-112863380D01*
X92930309Y-112863380D01*
X92787452Y-112911000D01*
X92739833Y-112958619D01*
X43753404Y-112863380D02*
X43420071Y-113863380D01*
X43086738Y-112863380D01*
X42181976Y-113768142D02*
X42229595Y-113815761D01*
X42372452Y-113863380D01*
X42467690Y-113863380D01*
X42610547Y-113815761D01*
X42705785Y-113720523D01*
X42753404Y-113625285D01*
X42801023Y-113434809D01*
X42801023Y-113291952D01*
X42753404Y-113101476D01*
X42705785Y-113006238D01*
X42610547Y-112911000D01*
X42467690Y-112863380D01*
X42372452Y-112863380D01*
X42229595Y-112911000D01*
X42181976Y-112958619D01*
X41181976Y-113768142D02*
X41229595Y-113815761D01*
X41372452Y-113863380D01*
X41467690Y-113863380D01*
X41610547Y-113815761D01*
X41705785Y-113720523D01*
X41753404Y-113625285D01*
X41801023Y-113434809D01*
X41801023Y-113291952D01*
X41753404Y-113101476D01*
X41705785Y-113006238D01*
X41610547Y-112911000D01*
X41467690Y-112863380D01*
X41372452Y-112863380D01*
X41229595Y-112911000D01*
X41181976Y-112958619D01*
X42515309Y-120483380D02*
X42324833Y-120483380D01*
X42229595Y-120531000D01*
X42134357Y-120626238D01*
X42086738Y-120816714D01*
X42086738Y-121150047D01*
X42134357Y-121340523D01*
X42229595Y-121435761D01*
X42324833Y-121483380D01*
X42515309Y-121483380D01*
X42610547Y-121435761D01*
X42705785Y-121340523D01*
X42753404Y-121150047D01*
X42753404Y-120816714D01*
X42705785Y-120626238D01*
X42610547Y-120531000D01*
X42515309Y-120483380D01*
X41658166Y-120959571D02*
X41324833Y-120959571D01*
X41181976Y-121483380D02*
X41658166Y-121483380D01*
X41658166Y-120483380D01*
X41181976Y-120483380D01*
X43610547Y-116355761D02*
X43467690Y-116403380D01*
X43229595Y-116403380D01*
X43134357Y-116355761D01*
X43086738Y-116308142D01*
X43039119Y-116212904D01*
X43039119Y-116117666D01*
X43086738Y-116022428D01*
X43134357Y-115974809D01*
X43229595Y-115927190D01*
X43420071Y-115879571D01*
X43515309Y-115831952D01*
X43562928Y-115784333D01*
X43610547Y-115689095D01*
X43610547Y-115593857D01*
X43562928Y-115498619D01*
X43515309Y-115451000D01*
X43420071Y-115403380D01*
X43181976Y-115403380D01*
X43039119Y-115451000D01*
X42610547Y-116403380D02*
X42610547Y-115403380D01*
X42372452Y-115403380D01*
X42229595Y-115451000D01*
X42134357Y-115546238D01*
X42086738Y-115641476D01*
X42039119Y-115831952D01*
X42039119Y-115974809D01*
X42086738Y-116165285D01*
X42134357Y-116260523D01*
X42229595Y-116355761D01*
X42372452Y-116403380D01*
X42610547Y-116403380D01*
X41658166Y-116117666D02*
X41181976Y-116117666D01*
X41753404Y-116403380D02*
X41420071Y-115403380D01*
X41086738Y-116403380D01*
%TO.C,A1*%
X114545976Y-93035380D02*
X114879309Y-92559190D01*
X115117404Y-93035380D02*
X115117404Y-92035380D01*
X114736452Y-92035380D01*
X114641214Y-92083000D01*
X114593595Y-92130619D01*
X114545976Y-92225857D01*
X114545976Y-92368714D01*
X114593595Y-92463952D01*
X114641214Y-92511571D01*
X114736452Y-92559190D01*
X115117404Y-92559190D01*
X114165023Y-92987761D02*
X114022166Y-93035380D01*
X113784071Y-93035380D01*
X113688833Y-92987761D01*
X113641214Y-92940142D01*
X113593595Y-92844904D01*
X113593595Y-92749666D01*
X113641214Y-92654428D01*
X113688833Y-92606809D01*
X113784071Y-92559190D01*
X113974547Y-92511571D01*
X114069785Y-92463952D01*
X114117404Y-92416333D01*
X114165023Y-92321095D01*
X114165023Y-92225857D01*
X114117404Y-92130619D01*
X114069785Y-92083000D01*
X113974547Y-92035380D01*
X113736452Y-92035380D01*
X113593595Y-92083000D01*
X113307880Y-92035380D02*
X112736452Y-92035380D01*
X113022166Y-93035380D02*
X113022166Y-92035380D01*
X115212642Y-119975380D02*
X114593595Y-119975380D01*
X114926928Y-120356333D01*
X114784071Y-120356333D01*
X114688833Y-120403952D01*
X114641214Y-120451571D01*
X114593595Y-120546809D01*
X114593595Y-120784904D01*
X114641214Y-120880142D01*
X114688833Y-120927761D01*
X114784071Y-120975380D01*
X115069785Y-120975380D01*
X115165023Y-120927761D01*
X115212642Y-120880142D01*
X114307880Y-119975380D02*
X113974547Y-120975380D01*
X113641214Y-119975380D01*
X113403119Y-119975380D02*
X112784071Y-119975380D01*
X113117404Y-120356333D01*
X112974547Y-120356333D01*
X112879309Y-120403952D01*
X112831690Y-120451571D01*
X112784071Y-120546809D01*
X112784071Y-120784904D01*
X112831690Y-120880142D01*
X112879309Y-120927761D01*
X112974547Y-120975380D01*
X113260261Y-120975380D01*
X113355500Y-120927761D01*
X113403119Y-120880142D01*
X115165023Y-115609666D02*
X114688833Y-115609666D01*
X115260261Y-115895380D02*
X114926928Y-114895380D01*
X114593595Y-115895380D01*
X114069785Y-114895380D02*
X113974547Y-114895380D01*
X113879309Y-114943000D01*
X113831690Y-114990619D01*
X113784071Y-115085857D01*
X113736452Y-115276333D01*
X113736452Y-115514428D01*
X113784071Y-115704904D01*
X113831690Y-115800142D01*
X113879309Y-115847761D01*
X113974547Y-115895380D01*
X114069785Y-115895380D01*
X114165023Y-115847761D01*
X114212642Y-115800142D01*
X114260261Y-115704904D01*
X114307880Y-115514428D01*
X114307880Y-115276333D01*
X114260261Y-115085857D01*
X114212642Y-114990619D01*
X114165023Y-114943000D01*
X114069785Y-114895380D01*
X115165023Y-97829666D02*
X114688833Y-97829666D01*
X115260261Y-98115380D02*
X114926928Y-97115380D01*
X114593595Y-98115380D01*
X114355500Y-97115380D02*
X113688833Y-97115380D01*
X114117404Y-98115380D01*
X105719404Y-123515380D02*
X105719404Y-122515380D01*
X105481309Y-122515380D01*
X105338452Y-122563000D01*
X105243214Y-122658238D01*
X105195595Y-122753476D01*
X105147976Y-122943952D01*
X105147976Y-123086809D01*
X105195595Y-123277285D01*
X105243214Y-123372523D01*
X105338452Y-123467761D01*
X105481309Y-123515380D01*
X105719404Y-123515380D01*
X104195595Y-123515380D02*
X104767023Y-123515380D01*
X104481309Y-123515380D02*
X104481309Y-122515380D01*
X104576547Y-122658238D01*
X104671785Y-122753476D01*
X104767023Y-122801095D01*
X103814642Y-122610619D02*
X103767023Y-122563000D01*
X103671785Y-122515380D01*
X103433690Y-122515380D01*
X103338452Y-122563000D01*
X103290833Y-122610619D01*
X103243214Y-122705857D01*
X103243214Y-122801095D01*
X103290833Y-122943952D01*
X103862261Y-123515380D01*
X103243214Y-123515380D01*
X106608404Y-118435380D02*
X106608404Y-117435380D01*
X106370309Y-117435380D01*
X106227452Y-117483000D01*
X106132214Y-117578238D01*
X106084595Y-117673476D01*
X106036976Y-117863952D01*
X106036976Y-118006809D01*
X106084595Y-118197285D01*
X106132214Y-118292523D01*
X106227452Y-118387761D01*
X106370309Y-118435380D01*
X106608404Y-118435380D01*
X105084595Y-118435380D02*
X105656023Y-118435380D01*
X105370309Y-118435380D02*
X105370309Y-117435380D01*
X105465547Y-117578238D01*
X105560785Y-117673476D01*
X105656023Y-117721095D01*
X104465547Y-117435380D02*
X104370309Y-117435380D01*
X104275071Y-117483000D01*
X104227452Y-117530619D01*
X104179833Y-117625857D01*
X104132214Y-117816333D01*
X104132214Y-118054428D01*
X104179833Y-118244904D01*
X104227452Y-118340142D01*
X104275071Y-118387761D01*
X104370309Y-118435380D01*
X104465547Y-118435380D01*
X104560785Y-118387761D01*
X104608404Y-118340142D01*
X104656023Y-118244904D01*
X104703642Y-118054428D01*
X104703642Y-117816333D01*
X104656023Y-117625857D01*
X104608404Y-117530619D01*
X104560785Y-117483000D01*
X104465547Y-117435380D01*
X103846500Y-118054428D02*
X103798880Y-118006809D01*
X103703642Y-117959190D01*
X103513166Y-118054428D01*
X103417928Y-118006809D01*
X103370309Y-117959190D01*
X115165023Y-105449666D02*
X114688833Y-105449666D01*
X115260261Y-105735380D02*
X114926928Y-104735380D01*
X114593595Y-105735380D01*
X113831690Y-105068714D02*
X113831690Y-105735380D01*
X114069785Y-104687761D02*
X114307880Y-105402047D01*
X113688833Y-105402047D01*
X112593595Y-104687761D02*
X113450738Y-105973476D01*
X112307880Y-105687761D02*
X112165023Y-105735380D01*
X111926928Y-105735380D01*
X111831690Y-105687761D01*
X111784071Y-105640142D01*
X111736452Y-105544904D01*
X111736452Y-105449666D01*
X111784071Y-105354428D01*
X111831690Y-105306809D01*
X111926928Y-105259190D01*
X112117404Y-105211571D01*
X112212642Y-105163952D01*
X112260261Y-105116333D01*
X112307880Y-105021095D01*
X112307880Y-104925857D01*
X112260261Y-104830619D01*
X112212642Y-104783000D01*
X112117404Y-104735380D01*
X111879309Y-104735380D01*
X111736452Y-104783000D01*
X111307880Y-105735380D02*
X111307880Y-104735380D01*
X111069785Y-104735380D01*
X110926928Y-104783000D01*
X110831690Y-104878238D01*
X110784071Y-104973476D01*
X110736452Y-105163952D01*
X110736452Y-105306809D01*
X110784071Y-105497285D01*
X110831690Y-105592523D01*
X110926928Y-105687761D01*
X111069785Y-105735380D01*
X111307880Y-105735380D01*
X110355500Y-105449666D02*
X109879309Y-105449666D01*
X110450738Y-105735380D02*
X110117404Y-104735380D01*
X109784071Y-105735380D01*
X115165023Y-102909666D02*
X114688833Y-102909666D01*
X115260261Y-103195380D02*
X114926928Y-102195380D01*
X114593595Y-103195380D01*
X113784071Y-102195380D02*
X114260261Y-102195380D01*
X114307880Y-102671571D01*
X114260261Y-102623952D01*
X114165023Y-102576333D01*
X113926928Y-102576333D01*
X113831690Y-102623952D01*
X113784071Y-102671571D01*
X113736452Y-102766809D01*
X113736452Y-103004904D01*
X113784071Y-103100142D01*
X113831690Y-103147761D01*
X113926928Y-103195380D01*
X114165023Y-103195380D01*
X114260261Y-103147761D01*
X114307880Y-103100142D01*
X112593595Y-102147761D02*
X113450738Y-103433476D01*
X112307880Y-103147761D02*
X112165023Y-103195380D01*
X111926928Y-103195380D01*
X111831690Y-103147761D01*
X111784071Y-103100142D01*
X111736452Y-103004904D01*
X111736452Y-102909666D01*
X111784071Y-102814428D01*
X111831690Y-102766809D01*
X111926928Y-102719190D01*
X112117404Y-102671571D01*
X112212642Y-102623952D01*
X112260261Y-102576333D01*
X112307880Y-102481095D01*
X112307880Y-102385857D01*
X112260261Y-102290619D01*
X112212642Y-102243000D01*
X112117404Y-102195380D01*
X111879309Y-102195380D01*
X111736452Y-102243000D01*
X110736452Y-103100142D02*
X110784071Y-103147761D01*
X110926928Y-103195380D01*
X111022166Y-103195380D01*
X111165023Y-103147761D01*
X111260261Y-103052523D01*
X111307880Y-102957285D01*
X111355500Y-102766809D01*
X111355500Y-102623952D01*
X111307880Y-102433476D01*
X111260261Y-102338238D01*
X111165023Y-102243000D01*
X111022166Y-102195380D01*
X110926928Y-102195380D01*
X110784071Y-102243000D01*
X110736452Y-102290619D01*
X109831690Y-103195380D02*
X110307880Y-103195380D01*
X110307880Y-102195380D01*
X105719404Y-108275380D02*
X105719404Y-107275380D01*
X105481309Y-107275380D01*
X105338452Y-107323000D01*
X105243214Y-107418238D01*
X105195595Y-107513476D01*
X105147976Y-107703952D01*
X105147976Y-107846809D01*
X105195595Y-108037285D01*
X105243214Y-108132523D01*
X105338452Y-108227761D01*
X105481309Y-108275380D01*
X105719404Y-108275380D01*
X104290833Y-107275380D02*
X104481309Y-107275380D01*
X104576547Y-107323000D01*
X104624166Y-107370619D01*
X104719404Y-107513476D01*
X104767023Y-107703952D01*
X104767023Y-108084904D01*
X104719404Y-108180142D01*
X104671785Y-108227761D01*
X104576547Y-108275380D01*
X104386071Y-108275380D01*
X104290833Y-108227761D01*
X104243214Y-108180142D01*
X104195595Y-108084904D01*
X104195595Y-107846809D01*
X104243214Y-107751571D01*
X104290833Y-107703952D01*
X104386071Y-107656333D01*
X104576547Y-107656333D01*
X104671785Y-107703952D01*
X104719404Y-107751571D01*
X104767023Y-107846809D01*
X103909880Y-107894428D02*
X103862261Y-107846809D01*
X103767023Y-107799190D01*
X103576547Y-107894428D01*
X103481309Y-107846809D01*
X103433690Y-107799190D01*
X105719404Y-115895380D02*
X105719404Y-114895380D01*
X105481309Y-114895380D01*
X105338452Y-114943000D01*
X105243214Y-115038238D01*
X105195595Y-115133476D01*
X105147976Y-115323952D01*
X105147976Y-115466809D01*
X105195595Y-115657285D01*
X105243214Y-115752523D01*
X105338452Y-115847761D01*
X105481309Y-115895380D01*
X105719404Y-115895380D01*
X104671785Y-115895380D02*
X104481309Y-115895380D01*
X104386071Y-115847761D01*
X104338452Y-115800142D01*
X104243214Y-115657285D01*
X104195595Y-115466809D01*
X104195595Y-115085857D01*
X104243214Y-114990619D01*
X104290833Y-114943000D01*
X104386071Y-114895380D01*
X104576547Y-114895380D01*
X104671785Y-114943000D01*
X104719404Y-114990619D01*
X104767023Y-115085857D01*
X104767023Y-115323952D01*
X104719404Y-115419190D01*
X104671785Y-115466809D01*
X104576547Y-115514428D01*
X104386071Y-115514428D01*
X104290833Y-115466809D01*
X104243214Y-115419190D01*
X104195595Y-115323952D01*
X103909880Y-115514428D02*
X103862261Y-115466809D01*
X103767023Y-115419190D01*
X103576547Y-115514428D01*
X103481309Y-115466809D01*
X103433690Y-115419190D01*
X105608261Y-86955380D02*
X105036833Y-86955380D01*
X105322547Y-87955380D02*
X105322547Y-86955380D01*
X104798738Y-86955380D02*
X104132071Y-87955380D01*
X104132071Y-86955380D02*
X104798738Y-87955380D01*
X103227309Y-87955380D02*
X103798738Y-87955380D01*
X103513023Y-87955380D02*
X103513023Y-86955380D01*
X103608261Y-87098238D01*
X103703500Y-87193476D01*
X103798738Y-87241095D01*
X105147976Y-90495380D02*
X105481309Y-90019190D01*
X105719404Y-90495380D02*
X105719404Y-89495380D01*
X105338452Y-89495380D01*
X105243214Y-89543000D01*
X105195595Y-89590619D01*
X105147976Y-89685857D01*
X105147976Y-89828714D01*
X105195595Y-89923952D01*
X105243214Y-89971571D01*
X105338452Y-90019190D01*
X105719404Y-90019190D01*
X104814642Y-89495380D02*
X104147976Y-90495380D01*
X104147976Y-89495380D02*
X104814642Y-90495380D01*
X103243214Y-90495380D02*
X103814642Y-90495380D01*
X103528928Y-90495380D02*
X103528928Y-89495380D01*
X103624166Y-89638238D01*
X103719404Y-89733476D01*
X103814642Y-89781095D01*
X114641214Y-94575380D02*
X115117404Y-94575380D01*
X115165023Y-95051571D01*
X115117404Y-95003952D01*
X115022166Y-94956333D01*
X114784071Y-94956333D01*
X114688833Y-95003952D01*
X114641214Y-95051571D01*
X114593595Y-95146809D01*
X114593595Y-95384904D01*
X114641214Y-95480142D01*
X114688833Y-95527761D01*
X114784071Y-95575380D01*
X115022166Y-95575380D01*
X115117404Y-95527761D01*
X115165023Y-95480142D01*
X114307880Y-94575380D02*
X113974547Y-95575380D01*
X113641214Y-94575380D01*
X115117404Y-123515380D02*
X115117404Y-122515380D01*
X114879309Y-122515380D01*
X114736452Y-122563000D01*
X114641214Y-122658238D01*
X114593595Y-122753476D01*
X114545976Y-122943952D01*
X114545976Y-123086809D01*
X114593595Y-123277285D01*
X114641214Y-123372523D01*
X114736452Y-123467761D01*
X114879309Y-123515380D01*
X115117404Y-123515380D01*
X113593595Y-123515380D02*
X114165023Y-123515380D01*
X113879309Y-123515380D02*
X113879309Y-122515380D01*
X113974547Y-122658238D01*
X114069785Y-122753476D01*
X114165023Y-122801095D01*
X113260261Y-122515380D02*
X112641214Y-122515380D01*
X112974547Y-122896333D01*
X112831690Y-122896333D01*
X112736452Y-122943952D01*
X112688833Y-122991571D01*
X112641214Y-123086809D01*
X112641214Y-123324904D01*
X112688833Y-123420142D01*
X112736452Y-123467761D01*
X112831690Y-123515380D01*
X113117404Y-123515380D01*
X113212642Y-123467761D01*
X113260261Y-123420142D01*
X115165023Y-100369666D02*
X114688833Y-100369666D01*
X115260261Y-100655380D02*
X114926928Y-99655380D01*
X114593595Y-100655380D01*
X113831690Y-99655380D02*
X114022166Y-99655380D01*
X114117404Y-99703000D01*
X114165023Y-99750619D01*
X114260261Y-99893476D01*
X114307880Y-100083952D01*
X114307880Y-100464904D01*
X114260261Y-100560142D01*
X114212642Y-100607761D01*
X114117404Y-100655380D01*
X113926928Y-100655380D01*
X113831690Y-100607761D01*
X113784071Y-100560142D01*
X113736452Y-100464904D01*
X113736452Y-100226809D01*
X113784071Y-100131571D01*
X113831690Y-100083952D01*
X113926928Y-100036333D01*
X114117404Y-100036333D01*
X114212642Y-100083952D01*
X114260261Y-100131571D01*
X114307880Y-100226809D01*
X105719404Y-100655380D02*
X105719404Y-99655380D01*
X105481309Y-99655380D01*
X105338452Y-99703000D01*
X105243214Y-99798238D01*
X105195595Y-99893476D01*
X105147976Y-100083952D01*
X105147976Y-100226809D01*
X105195595Y-100417285D01*
X105243214Y-100512523D01*
X105338452Y-100607761D01*
X105481309Y-100655380D01*
X105719404Y-100655380D01*
X104814642Y-99655380D02*
X104195595Y-99655380D01*
X104528928Y-100036333D01*
X104386071Y-100036333D01*
X104290833Y-100083952D01*
X104243214Y-100131571D01*
X104195595Y-100226809D01*
X104195595Y-100464904D01*
X104243214Y-100560142D01*
X104290833Y-100607761D01*
X104386071Y-100655380D01*
X104671785Y-100655380D01*
X104767023Y-100607761D01*
X104814642Y-100560142D01*
X103909880Y-100274428D02*
X103862261Y-100226809D01*
X103767023Y-100179190D01*
X103576547Y-100274428D01*
X103481309Y-100226809D01*
X103433690Y-100179190D01*
X115165023Y-110529666D02*
X114688833Y-110529666D01*
X115260261Y-110815380D02*
X114926928Y-109815380D01*
X114593595Y-110815380D01*
X114307880Y-109910619D02*
X114260261Y-109863000D01*
X114165023Y-109815380D01*
X113926928Y-109815380D01*
X113831690Y-109863000D01*
X113784071Y-109910619D01*
X113736452Y-110005857D01*
X113736452Y-110101095D01*
X113784071Y-110243952D01*
X114355500Y-110815380D01*
X113736452Y-110815380D01*
X105719404Y-103195380D02*
X105719404Y-102195380D01*
X105481309Y-102195380D01*
X105338452Y-102243000D01*
X105243214Y-102338238D01*
X105195595Y-102433476D01*
X105147976Y-102623952D01*
X105147976Y-102766809D01*
X105195595Y-102957285D01*
X105243214Y-103052523D01*
X105338452Y-103147761D01*
X105481309Y-103195380D01*
X105719404Y-103195380D01*
X104290833Y-102528714D02*
X104290833Y-103195380D01*
X104528928Y-102147761D02*
X104767023Y-102862047D01*
X104147976Y-102862047D01*
X115165023Y-113069666D02*
X114688833Y-113069666D01*
X115260261Y-113355380D02*
X114926928Y-112355380D01*
X114593595Y-113355380D01*
X113736452Y-113355380D02*
X114307880Y-113355380D01*
X114022166Y-113355380D02*
X114022166Y-112355380D01*
X114117404Y-112498238D01*
X114212642Y-112593476D01*
X114307880Y-112641095D01*
X115165023Y-107989666D02*
X114688833Y-107989666D01*
X115260261Y-108275380D02*
X114926928Y-107275380D01*
X114593595Y-108275380D01*
X114355500Y-107275380D02*
X113736452Y-107275380D01*
X114069785Y-107656333D01*
X113926928Y-107656333D01*
X113831690Y-107703952D01*
X113784071Y-107751571D01*
X113736452Y-107846809D01*
X113736452Y-108084904D01*
X113784071Y-108180142D01*
X113831690Y-108227761D01*
X113926928Y-108275380D01*
X114212642Y-108275380D01*
X114307880Y-108227761D01*
X114355500Y-108180142D01*
X105719404Y-120975380D02*
X105719404Y-119975380D01*
X105481309Y-119975380D01*
X105338452Y-120023000D01*
X105243214Y-120118238D01*
X105195595Y-120213476D01*
X105147976Y-120403952D01*
X105147976Y-120546809D01*
X105195595Y-120737285D01*
X105243214Y-120832523D01*
X105338452Y-120927761D01*
X105481309Y-120975380D01*
X105719404Y-120975380D01*
X104195595Y-120975380D02*
X104767023Y-120975380D01*
X104481309Y-120975380D02*
X104481309Y-119975380D01*
X104576547Y-120118238D01*
X104671785Y-120213476D01*
X104767023Y-120261095D01*
X103243214Y-120975380D02*
X103814642Y-120975380D01*
X103528928Y-120975380D02*
X103528928Y-119975380D01*
X103624166Y-120118238D01*
X103719404Y-120213476D01*
X103814642Y-120261095D01*
X114593595Y-89543000D02*
X114688833Y-89495380D01*
X114831690Y-89495380D01*
X114974547Y-89543000D01*
X115069785Y-89638238D01*
X115117404Y-89733476D01*
X115165023Y-89923952D01*
X115165023Y-90066809D01*
X115117404Y-90257285D01*
X115069785Y-90352523D01*
X114974547Y-90447761D01*
X114831690Y-90495380D01*
X114736452Y-90495380D01*
X114593595Y-90447761D01*
X114545976Y-90400142D01*
X114545976Y-90066809D01*
X114736452Y-90066809D01*
X114117404Y-90495380D02*
X114117404Y-89495380D01*
X113545976Y-90495380D01*
X113545976Y-89495380D01*
X113069785Y-90495380D02*
X113069785Y-89495380D01*
X112831690Y-89495380D01*
X112688833Y-89543000D01*
X112593595Y-89638238D01*
X112545976Y-89733476D01*
X112498357Y-89923952D01*
X112498357Y-90066809D01*
X112545976Y-90257285D01*
X112593595Y-90352523D01*
X112688833Y-90447761D01*
X112831690Y-90495380D01*
X113069785Y-90495380D01*
X105719404Y-105735380D02*
X105719404Y-104735380D01*
X105481309Y-104735380D01*
X105338452Y-104783000D01*
X105243214Y-104878238D01*
X105195595Y-104973476D01*
X105147976Y-105163952D01*
X105147976Y-105306809D01*
X105195595Y-105497285D01*
X105243214Y-105592523D01*
X105338452Y-105687761D01*
X105481309Y-105735380D01*
X105719404Y-105735380D01*
X104243214Y-104735380D02*
X104719404Y-104735380D01*
X104767023Y-105211571D01*
X104719404Y-105163952D01*
X104624166Y-105116333D01*
X104386071Y-105116333D01*
X104290833Y-105163952D01*
X104243214Y-105211571D01*
X104195595Y-105306809D01*
X104195595Y-105544904D01*
X104243214Y-105640142D01*
X104290833Y-105687761D01*
X104386071Y-105735380D01*
X104624166Y-105735380D01*
X104719404Y-105687761D01*
X104767023Y-105640142D01*
X103909880Y-105354428D02*
X103862261Y-105306809D01*
X103767023Y-105259190D01*
X103576547Y-105354428D01*
X103481309Y-105306809D01*
X103433690Y-105259190D01*
X105719404Y-113355380D02*
X105719404Y-112355380D01*
X105481309Y-112355380D01*
X105338452Y-112403000D01*
X105243214Y-112498238D01*
X105195595Y-112593476D01*
X105147976Y-112783952D01*
X105147976Y-112926809D01*
X105195595Y-113117285D01*
X105243214Y-113212523D01*
X105338452Y-113307761D01*
X105481309Y-113355380D01*
X105719404Y-113355380D01*
X104576547Y-112783952D02*
X104671785Y-112736333D01*
X104719404Y-112688714D01*
X104767023Y-112593476D01*
X104767023Y-112545857D01*
X104719404Y-112450619D01*
X104671785Y-112403000D01*
X104576547Y-112355380D01*
X104386071Y-112355380D01*
X104290833Y-112403000D01*
X104243214Y-112450619D01*
X104195595Y-112545857D01*
X104195595Y-112593476D01*
X104243214Y-112688714D01*
X104290833Y-112736333D01*
X104386071Y-112783952D01*
X104576547Y-112783952D01*
X104671785Y-112831571D01*
X104719404Y-112879190D01*
X104767023Y-112974428D01*
X104767023Y-113164904D01*
X104719404Y-113260142D01*
X104671785Y-113307761D01*
X104576547Y-113355380D01*
X104386071Y-113355380D01*
X104290833Y-113307761D01*
X104243214Y-113260142D01*
X104195595Y-113164904D01*
X104195595Y-112974428D01*
X104243214Y-112879190D01*
X104290833Y-112831571D01*
X104386071Y-112783952D01*
X105719404Y-110815380D02*
X105719404Y-109815380D01*
X105481309Y-109815380D01*
X105338452Y-109863000D01*
X105243214Y-109958238D01*
X105195595Y-110053476D01*
X105147976Y-110243952D01*
X105147976Y-110386809D01*
X105195595Y-110577285D01*
X105243214Y-110672523D01*
X105338452Y-110767761D01*
X105481309Y-110815380D01*
X105719404Y-110815380D01*
X104814642Y-109815380D02*
X104147976Y-109815380D01*
X104576547Y-110815380D01*
X105719404Y-98115380D02*
X105719404Y-97115380D01*
X105481309Y-97115380D01*
X105338452Y-97163000D01*
X105243214Y-97258238D01*
X105195595Y-97353476D01*
X105147976Y-97543952D01*
X105147976Y-97686809D01*
X105195595Y-97877285D01*
X105243214Y-97972523D01*
X105338452Y-98067761D01*
X105481309Y-98115380D01*
X105719404Y-98115380D01*
X104767023Y-97210619D02*
X104719404Y-97163000D01*
X104624166Y-97115380D01*
X104386071Y-97115380D01*
X104290833Y-97163000D01*
X104243214Y-97210619D01*
X104195595Y-97305857D01*
X104195595Y-97401095D01*
X104243214Y-97543952D01*
X104814642Y-98115380D01*
X104195595Y-98115380D01*
X115165023Y-118149666D02*
X114688833Y-118149666D01*
X115260261Y-118435380D02*
X114926928Y-117435380D01*
X114593595Y-118435380D01*
X113688833Y-118435380D02*
X114022166Y-117959190D01*
X114260261Y-118435380D02*
X114260261Y-117435380D01*
X113879309Y-117435380D01*
X113784071Y-117483000D01*
X113736452Y-117530619D01*
X113688833Y-117625857D01*
X113688833Y-117768714D01*
X113736452Y-117863952D01*
X113784071Y-117911571D01*
X113879309Y-117959190D01*
X114260261Y-117959190D01*
X113260261Y-117911571D02*
X112926928Y-117911571D01*
X112784071Y-118435380D02*
X113260261Y-118435380D01*
X113260261Y-117435380D01*
X112784071Y-117435380D01*
X112022166Y-117911571D02*
X112355500Y-117911571D01*
X112355500Y-118435380D02*
X112355500Y-117435380D01*
X111879309Y-117435380D01*
X105195595Y-94623000D02*
X105290833Y-94575380D01*
X105433690Y-94575380D01*
X105576547Y-94623000D01*
X105671785Y-94718238D01*
X105719404Y-94813476D01*
X105767023Y-95003952D01*
X105767023Y-95146809D01*
X105719404Y-95337285D01*
X105671785Y-95432523D01*
X105576547Y-95527761D01*
X105433690Y-95575380D01*
X105338452Y-95575380D01*
X105195595Y-95527761D01*
X105147976Y-95480142D01*
X105147976Y-95146809D01*
X105338452Y-95146809D01*
X104719404Y-95575380D02*
X104719404Y-94575380D01*
X104147976Y-95575380D01*
X104147976Y-94575380D01*
X103671785Y-95575380D02*
X103671785Y-94575380D01*
X103433690Y-94575380D01*
X103290833Y-94623000D01*
X103195595Y-94718238D01*
X103147976Y-94813476D01*
X103100357Y-95003952D01*
X103100357Y-95146809D01*
X103147976Y-95337285D01*
X103195595Y-95432523D01*
X103290833Y-95527761D01*
X103433690Y-95575380D01*
X103671785Y-95575380D01*
X105147976Y-93035380D02*
X105481309Y-92559190D01*
X105719404Y-93035380D02*
X105719404Y-92035380D01*
X105338452Y-92035380D01*
X105243214Y-92083000D01*
X105195595Y-92130619D01*
X105147976Y-92225857D01*
X105147976Y-92368714D01*
X105195595Y-92463952D01*
X105243214Y-92511571D01*
X105338452Y-92559190D01*
X105719404Y-92559190D01*
X104767023Y-92987761D02*
X104624166Y-93035380D01*
X104386071Y-93035380D01*
X104290833Y-92987761D01*
X104243214Y-92940142D01*
X104195595Y-92844904D01*
X104195595Y-92749666D01*
X104243214Y-92654428D01*
X104290833Y-92606809D01*
X104386071Y-92559190D01*
X104576547Y-92511571D01*
X104671785Y-92463952D01*
X104719404Y-92416333D01*
X104767023Y-92321095D01*
X104767023Y-92225857D01*
X104719404Y-92130619D01*
X104671785Y-92083000D01*
X104576547Y-92035380D01*
X104338452Y-92035380D01*
X104195595Y-92083000D01*
X103909880Y-92035380D02*
X103338452Y-92035380D01*
X103624166Y-93035380D02*
X103624166Y-92035380D01*
X115260261Y-86955380D02*
X114926928Y-87955380D01*
X114593595Y-86955380D01*
X114260261Y-87955380D02*
X114260261Y-86955380D01*
X113784071Y-87955380D02*
X113784071Y-86955380D01*
X113212642Y-87955380D01*
X113212642Y-86955380D01*
%TO.C,U1*%
X93672690Y-85723619D02*
X93863166Y-85723619D01*
X93958404Y-85676000D01*
X94053642Y-85580761D01*
X94101261Y-85390285D01*
X94101261Y-85056952D01*
X94053642Y-84866476D01*
X93958404Y-84771238D01*
X93863166Y-84723619D01*
X93672690Y-84723619D01*
X93577452Y-84771238D01*
X93482214Y-84866476D01*
X93434595Y-85056952D01*
X93434595Y-85390285D01*
X93482214Y-85580761D01*
X93577452Y-85676000D01*
X93672690Y-85723619D01*
X94529833Y-85247428D02*
X94863166Y-85247428D01*
X95006023Y-84723619D02*
X94529833Y-84723619D01*
X94529833Y-85723619D01*
X95006023Y-85723619D01*
X92910785Y-83136000D02*
X92815547Y-83183619D01*
X92672690Y-83183619D01*
X92529833Y-83136000D01*
X92434595Y-83040761D01*
X92386976Y-82945523D01*
X92339357Y-82755047D01*
X92339357Y-82612190D01*
X92386976Y-82421714D01*
X92434595Y-82326476D01*
X92529833Y-82231238D01*
X92672690Y-82183619D01*
X92767928Y-82183619D01*
X92910785Y-82231238D01*
X92958404Y-82278857D01*
X92958404Y-82612190D01*
X92767928Y-82612190D01*
X93386976Y-82183619D02*
X93386976Y-83183619D01*
X93958404Y-82183619D01*
X93958404Y-83183619D01*
X94434595Y-82183619D02*
X94434595Y-83183619D01*
X94672690Y-83183619D01*
X94815547Y-83136000D01*
X94910785Y-83040761D01*
X94958404Y-82945523D01*
X95006023Y-82755047D01*
X95006023Y-82612190D01*
X94958404Y-82421714D01*
X94910785Y-82326476D01*
X94815547Y-82231238D01*
X94672690Y-82183619D01*
X94434595Y-82183619D01*
X40971976Y-87311238D02*
X41114833Y-87263619D01*
X41352928Y-87263619D01*
X41448166Y-87311238D01*
X41495785Y-87358857D01*
X41543404Y-87454095D01*
X41543404Y-87549333D01*
X41495785Y-87644571D01*
X41448166Y-87692190D01*
X41352928Y-87739809D01*
X41162452Y-87787428D01*
X41067214Y-87835047D01*
X41019595Y-87882666D01*
X40971976Y-87977904D01*
X40971976Y-88073142D01*
X41019595Y-88168380D01*
X41067214Y-88216000D01*
X41162452Y-88263619D01*
X41400547Y-88263619D01*
X41543404Y-88216000D01*
X42543404Y-87358857D02*
X42495785Y-87311238D01*
X42352928Y-87263619D01*
X42257690Y-87263619D01*
X42114833Y-87311238D01*
X42019595Y-87406476D01*
X41971976Y-87501714D01*
X41924357Y-87692190D01*
X41924357Y-87835047D01*
X41971976Y-88025523D01*
X42019595Y-88120761D01*
X42114833Y-88216000D01*
X42257690Y-88263619D01*
X42352928Y-88263619D01*
X42495785Y-88216000D01*
X42543404Y-88168380D01*
X43448166Y-87263619D02*
X42971976Y-87263619D01*
X42971976Y-88263619D01*
X41543404Y-83136000D02*
X41448166Y-83183619D01*
X41305309Y-83183619D01*
X41162452Y-83136000D01*
X41067214Y-83040761D01*
X41019595Y-82945523D01*
X40971976Y-82755047D01*
X40971976Y-82612190D01*
X41019595Y-82421714D01*
X41067214Y-82326476D01*
X41162452Y-82231238D01*
X41305309Y-82183619D01*
X41400547Y-82183619D01*
X41543404Y-82231238D01*
X41591023Y-82278857D01*
X41591023Y-82612190D01*
X41400547Y-82612190D01*
X42019595Y-82183619D02*
X42019595Y-83183619D01*
X42591023Y-82183619D01*
X42591023Y-83183619D01*
X43067214Y-82183619D02*
X43067214Y-83183619D01*
X43305309Y-83183619D01*
X43448166Y-83136000D01*
X43543404Y-83040761D01*
X43591023Y-82945523D01*
X43638642Y-82755047D01*
X43638642Y-82612190D01*
X43591023Y-82421714D01*
X43543404Y-82326476D01*
X43448166Y-82231238D01*
X43305309Y-82183619D01*
X43067214Y-82183619D01*
X92625071Y-87311238D02*
X92767928Y-87263619D01*
X93006023Y-87263619D01*
X93101261Y-87311238D01*
X93148880Y-87358857D01*
X93196500Y-87454095D01*
X93196500Y-87549333D01*
X93148880Y-87644571D01*
X93101261Y-87692190D01*
X93006023Y-87739809D01*
X92815547Y-87787428D01*
X92720309Y-87835047D01*
X92672690Y-87882666D01*
X92625071Y-87977904D01*
X92625071Y-88073142D01*
X92672690Y-88168380D01*
X92720309Y-88216000D01*
X92815547Y-88263619D01*
X93053642Y-88263619D01*
X93196500Y-88216000D01*
X94196500Y-87358857D02*
X94148880Y-87311238D01*
X94006023Y-87263619D01*
X93910785Y-87263619D01*
X93767928Y-87311238D01*
X93672690Y-87406476D01*
X93625071Y-87501714D01*
X93577452Y-87692190D01*
X93577452Y-87835047D01*
X93625071Y-88025523D01*
X93672690Y-88120761D01*
X93767928Y-88216000D01*
X93910785Y-88263619D01*
X94006023Y-88263619D01*
X94148880Y-88216000D01*
X94196500Y-88168380D01*
X95101261Y-87263619D02*
X94625071Y-87263619D01*
X94625071Y-88263619D01*
X92577452Y-89851238D02*
X92720309Y-89803619D01*
X92958404Y-89803619D01*
X93053642Y-89851238D01*
X93101261Y-89898857D01*
X93148880Y-89994095D01*
X93148880Y-90089333D01*
X93101261Y-90184571D01*
X93053642Y-90232190D01*
X92958404Y-90279809D01*
X92767928Y-90327428D01*
X92672690Y-90375047D01*
X92625071Y-90422666D01*
X92577452Y-90517904D01*
X92577452Y-90613142D01*
X92625071Y-90708380D01*
X92672690Y-90756000D01*
X92767928Y-90803619D01*
X93006023Y-90803619D01*
X93148880Y-90756000D01*
X93577452Y-89803619D02*
X93577452Y-90803619D01*
X93815547Y-90803619D01*
X93958404Y-90756000D01*
X94053642Y-90660761D01*
X94101261Y-90565523D01*
X94148880Y-90375047D01*
X94148880Y-90232190D01*
X94101261Y-90041714D01*
X94053642Y-89946476D01*
X93958404Y-89851238D01*
X93815547Y-89803619D01*
X93577452Y-89803619D01*
X94529833Y-90089333D02*
X95006023Y-90089333D01*
X94434595Y-89803619D02*
X94767928Y-90803619D01*
X95101261Y-89803619D01*
X92434595Y-93343619D02*
X92767928Y-92343619D01*
X93101261Y-93343619D01*
X94006023Y-92438857D02*
X93958404Y-92391238D01*
X93815547Y-92343619D01*
X93720309Y-92343619D01*
X93577452Y-92391238D01*
X93482214Y-92486476D01*
X93434595Y-92581714D01*
X93386976Y-92772190D01*
X93386976Y-92915047D01*
X93434595Y-93105523D01*
X93482214Y-93200761D01*
X93577452Y-93296000D01*
X93720309Y-93343619D01*
X93815547Y-93343619D01*
X93958404Y-93296000D01*
X94006023Y-93248380D01*
X95006023Y-92438857D02*
X94958404Y-92391238D01*
X94815547Y-92343619D01*
X94720309Y-92343619D01*
X94577452Y-92391238D01*
X94482214Y-92486476D01*
X94434595Y-92581714D01*
X94386976Y-92772190D01*
X94386976Y-92915047D01*
X94434595Y-93105523D01*
X94482214Y-93200761D01*
X94577452Y-93296000D01*
X94720309Y-93343619D01*
X94815547Y-93343619D01*
X94958404Y-93296000D01*
X95006023Y-93248380D01*
X40971976Y-89851238D02*
X41114833Y-89803619D01*
X41352928Y-89803619D01*
X41448166Y-89851238D01*
X41495785Y-89898857D01*
X41543404Y-89994095D01*
X41543404Y-90089333D01*
X41495785Y-90184571D01*
X41448166Y-90232190D01*
X41352928Y-90279809D01*
X41162452Y-90327428D01*
X41067214Y-90375047D01*
X41019595Y-90422666D01*
X40971976Y-90517904D01*
X40971976Y-90613142D01*
X41019595Y-90708380D01*
X41067214Y-90756000D01*
X41162452Y-90803619D01*
X41400547Y-90803619D01*
X41543404Y-90756000D01*
X41971976Y-89803619D02*
X41971976Y-90803619D01*
X42210071Y-90803619D01*
X42352928Y-90756000D01*
X42448166Y-90660761D01*
X42495785Y-90565523D01*
X42543404Y-90375047D01*
X42543404Y-90232190D01*
X42495785Y-90041714D01*
X42448166Y-89946476D01*
X42352928Y-89851238D01*
X42210071Y-89803619D01*
X41971976Y-89803619D01*
X42924357Y-90089333D02*
X43400547Y-90089333D01*
X42829119Y-89803619D02*
X43162452Y-90803619D01*
X43495785Y-89803619D01*
X93196500Y-95883619D02*
X93529833Y-94883619D01*
X93863166Y-95883619D01*
X94196500Y-95264571D02*
X94958404Y-95264571D01*
X94577452Y-94883619D02*
X94577452Y-95645523D01*
X41210071Y-85723619D02*
X41400547Y-85723619D01*
X41495785Y-85676000D01*
X41591023Y-85580761D01*
X41638642Y-85390285D01*
X41638642Y-85056952D01*
X41591023Y-84866476D01*
X41495785Y-84771238D01*
X41400547Y-84723619D01*
X41210071Y-84723619D01*
X41114833Y-84771238D01*
X41019595Y-84866476D01*
X40971976Y-85056952D01*
X40971976Y-85390285D01*
X41019595Y-85580761D01*
X41114833Y-85676000D01*
X41210071Y-85723619D01*
X42067214Y-85247428D02*
X42400547Y-85247428D01*
X42543404Y-84723619D02*
X42067214Y-84723619D01*
X42067214Y-85723619D01*
X42543404Y-85723619D01*
X40876738Y-93343619D02*
X41210071Y-92343619D01*
X41543404Y-93343619D01*
X42448166Y-92438857D02*
X42400547Y-92391238D01*
X42257690Y-92343619D01*
X42162452Y-92343619D01*
X42019595Y-92391238D01*
X41924357Y-92486476D01*
X41876738Y-92581714D01*
X41829119Y-92772190D01*
X41829119Y-92915047D01*
X41876738Y-93105523D01*
X41924357Y-93200761D01*
X42019595Y-93296000D01*
X42162452Y-93343619D01*
X42257690Y-93343619D01*
X42400547Y-93296000D01*
X42448166Y-93248380D01*
X43448166Y-92438857D02*
X43400547Y-92391238D01*
X43257690Y-92343619D01*
X43162452Y-92343619D01*
X43019595Y-92391238D01*
X42924357Y-92486476D01*
X42876738Y-92581714D01*
X42829119Y-92772190D01*
X42829119Y-92915047D01*
X42876738Y-93105523D01*
X42924357Y-93200761D01*
X43019595Y-93296000D01*
X43162452Y-93343619D01*
X43257690Y-93343619D01*
X43400547Y-93296000D01*
X43448166Y-93248380D01*
X40876738Y-95883619D02*
X41210071Y-94883619D01*
X41543404Y-95883619D01*
X41876738Y-95264571D02*
X42638642Y-95264571D01*
X42257690Y-94883619D02*
X42257690Y-95645523D01*
D11*
%TO.C,U2*%
X37084000Y-104521000D02*
X99084000Y-104521000D01*
X99084000Y-104521000D02*
X99084000Y-129521000D01*
X99084000Y-129521000D02*
X37084000Y-129521000D01*
X37084000Y-129521000D02*
X37084000Y-104521000D01*
%TO.C,U1*%
X99104000Y-101686000D02*
X37104000Y-101686000D01*
X37104000Y-101686000D02*
X37104000Y-76686000D01*
X37104000Y-76686000D02*
X99104000Y-76686000D01*
X99104000Y-76686000D02*
X99104000Y-101686000D01*
%TO.C,G\u002A\u002A\u002A*%
G36*
X71458688Y-115353243D02*
G01*
X71392644Y-115590274D01*
X71290100Y-115814539D01*
X71151298Y-116020561D01*
X70976475Y-116202863D01*
X70803550Y-116329818D01*
X70598138Y-116438523D01*
X70379118Y-116519014D01*
X70161728Y-116564529D01*
X70027420Y-116575266D01*
X69767089Y-116564500D01*
X69515097Y-116513408D01*
X69277651Y-116424039D01*
X69060959Y-116298441D01*
X68871231Y-116138664D01*
X68747022Y-116001553D01*
X68608776Y-115804405D01*
X68510977Y-115596205D01*
X68450292Y-115369343D01*
X68423385Y-115116209D01*
X68423702Y-115027364D01*
X69191909Y-115027364D01*
X69192855Y-115136098D01*
X69197356Y-115223231D01*
X69207530Y-115289504D01*
X69225487Y-115348152D01*
X69253341Y-115412408D01*
X69276513Y-115458130D01*
X69374638Y-115603191D01*
X69495148Y-115724878D01*
X69627369Y-115811793D01*
X69678013Y-115833619D01*
X69828964Y-115873099D01*
X69986652Y-115883318D01*
X70131635Y-115862328D01*
X70282272Y-115799146D01*
X70428621Y-115696138D01*
X70555470Y-115563132D01*
X70653352Y-115408364D01*
X70677834Y-115355636D01*
X70697941Y-115298004D01*
X70709456Y-115235000D01*
X70714679Y-115153031D01*
X70715909Y-115038505D01*
X70715898Y-115020224D01*
X70714542Y-114913306D01*
X70709006Y-114836255D01*
X70696561Y-114774781D01*
X70674474Y-114714593D01*
X70640015Y-114641402D01*
X70634289Y-114629989D01*
X70530607Y-114472714D01*
X70396936Y-114341754D01*
X70242546Y-114246322D01*
X70230955Y-114241134D01*
X70154448Y-114215627D01*
X70063450Y-114201946D01*
X69942364Y-114197556D01*
X69939264Y-114197544D01*
X69834834Y-114199389D01*
X69759465Y-114207932D01*
X69696575Y-114226374D01*
X69629583Y-114257913D01*
X69492393Y-114349085D01*
X69357768Y-114484407D01*
X69256132Y-114642585D01*
X69254387Y-114646146D01*
X69226082Y-114708424D01*
X69207862Y-114764625D01*
X69197546Y-114827809D01*
X69192955Y-114911035D01*
X69191909Y-115027364D01*
X68423702Y-115027364D01*
X68424157Y-114899618D01*
X68449074Y-114699661D01*
X68501586Y-114511174D01*
X68584721Y-114319196D01*
X68660530Y-114185955D01*
X68816577Y-113984221D01*
X69005902Y-113811759D01*
X69224659Y-113671838D01*
X69469000Y-113567728D01*
X69629869Y-113527722D01*
X69834834Y-113503904D01*
X70048977Y-113502632D01*
X70255803Y-113523906D01*
X70438818Y-113567728D01*
X70463683Y-113576182D01*
X70691974Y-113674529D01*
X70891864Y-113803082D01*
X71074058Y-113968594D01*
X71075090Y-113969682D01*
X71233061Y-114168292D01*
X71353097Y-114386998D01*
X71435439Y-114620323D01*
X71480325Y-114862790D01*
X71485801Y-115038505D01*
X71487995Y-115108923D01*
X71458688Y-115353243D01*
G37*
G36*
X81371410Y-115702577D02*
G01*
X81370225Y-115920623D01*
X81368493Y-116101366D01*
X81366158Y-116247621D01*
X81363164Y-116362205D01*
X81359458Y-116447934D01*
X81354982Y-116507627D01*
X81349681Y-116544098D01*
X81343500Y-116560166D01*
X81326903Y-116566210D01*
X81267926Y-116573434D01*
X81173585Y-116578711D01*
X81050302Y-116582134D01*
X80904500Y-116583797D01*
X80742601Y-116583794D01*
X80571029Y-116582221D01*
X80396204Y-116579171D01*
X80224551Y-116574738D01*
X80062491Y-116569017D01*
X79916446Y-116562102D01*
X79792840Y-116554087D01*
X79698096Y-116545067D01*
X79638634Y-116535137D01*
X79540299Y-116505128D01*
X79354646Y-116420496D01*
X79199004Y-116309004D01*
X79077774Y-116174181D01*
X78995361Y-116019557D01*
X78970267Y-115944898D01*
X78955076Y-115870882D01*
X78949802Y-115785839D01*
X78952283Y-115672360D01*
X78953039Y-115660127D01*
X79663187Y-115660127D01*
X79672448Y-115757602D01*
X79718053Y-115848430D01*
X79800374Y-115922703D01*
X79812475Y-115930014D01*
X79847070Y-115947299D01*
X79887575Y-115959770D01*
X79942043Y-115968443D01*
X80018529Y-115974331D01*
X80125088Y-115978448D01*
X80269773Y-115981810D01*
X80656546Y-115989529D01*
X80656546Y-115381299D01*
X80281318Y-115389167D01*
X80207738Y-115390875D01*
X80077663Y-115395368D01*
X79981858Y-115401668D01*
X79912164Y-115410679D01*
X79860425Y-115423305D01*
X79818483Y-115440449D01*
X79752208Y-115484872D01*
X79689897Y-115565914D01*
X79663187Y-115660127D01*
X78953039Y-115660127D01*
X78958770Y-115567418D01*
X78971292Y-115480821D01*
X78993163Y-115407551D01*
X79028197Y-115330435D01*
X79052022Y-115286468D01*
X79160174Y-115142318D01*
X79297509Y-115033668D01*
X79466067Y-114958784D01*
X79491485Y-114947308D01*
X79485632Y-114931665D01*
X79442976Y-114903220D01*
X79390740Y-114866664D01*
X79285745Y-114756217D01*
X79209599Y-114619516D01*
X79167015Y-114466583D01*
X79166150Y-114434638D01*
X79898974Y-114434638D01*
X79913875Y-114522904D01*
X79958493Y-114599679D01*
X80028424Y-114650122D01*
X80073311Y-114660441D01*
X80153988Y-114671007D01*
X80257985Y-114680234D01*
X80373682Y-114686884D01*
X80656546Y-114698780D01*
X80656546Y-114207636D01*
X80390259Y-114207636D01*
X80244871Y-114210775D01*
X80126366Y-114222283D01*
X80039578Y-114244044D01*
X79977268Y-114277924D01*
X79932200Y-114325790D01*
X79918195Y-114349726D01*
X79898974Y-114434638D01*
X79166150Y-114434638D01*
X79162707Y-114307435D01*
X79169858Y-114255618D01*
X79222297Y-114082621D01*
X79314532Y-113929399D01*
X79443276Y-113800460D01*
X79605242Y-113700314D01*
X79655370Y-113677640D01*
X79726414Y-113650479D01*
X79801875Y-113629029D01*
X79887719Y-113612644D01*
X79989908Y-113600681D01*
X80114408Y-113592497D01*
X80267181Y-113587449D01*
X80454193Y-113584891D01*
X80681407Y-113584182D01*
X80697396Y-113584183D01*
X80888576Y-113584470D01*
X81038874Y-113585447D01*
X81153223Y-113587381D01*
X81236555Y-113590537D01*
X81293801Y-113595181D01*
X81329894Y-113601580D01*
X81349766Y-113610000D01*
X81358348Y-113620707D01*
X81358699Y-113622067D01*
X81361155Y-113657172D01*
X81363467Y-113733843D01*
X81365596Y-113848027D01*
X81367504Y-113995669D01*
X81369150Y-114172717D01*
X81370499Y-114375118D01*
X81371509Y-114598819D01*
X81371772Y-114698780D01*
X81372144Y-114839766D01*
X81372364Y-115093907D01*
X81372360Y-115143302D01*
X81372157Y-115381299D01*
X81372103Y-115444408D01*
X81371410Y-115702577D01*
G37*
G36*
X63696273Y-113595727D02*
G01*
X63702218Y-115072076D01*
X63702841Y-115238024D01*
X63703628Y-115525161D01*
X63703831Y-115770436D01*
X63703405Y-115976692D01*
X63702306Y-116146773D01*
X63700490Y-116283523D01*
X63697915Y-116389787D01*
X63694534Y-116468408D01*
X63690306Y-116522231D01*
X63685185Y-116554100D01*
X63679127Y-116566859D01*
X63667413Y-116571342D01*
X63613410Y-116579290D01*
X63530168Y-116584221D01*
X63428456Y-116586276D01*
X63319040Y-116585593D01*
X63212690Y-116582313D01*
X63120173Y-116576576D01*
X63052257Y-116568522D01*
X63019709Y-116558291D01*
X63018415Y-116556701D01*
X63010801Y-116531802D01*
X63004635Y-116479549D01*
X62999817Y-116396803D01*
X62996246Y-116280428D01*
X62993820Y-116127289D01*
X62992438Y-115934248D01*
X62992000Y-115698169D01*
X62992000Y-114865756D01*
X62804023Y-115154378D01*
X62751262Y-115235525D01*
X62670048Y-115360708D01*
X62574399Y-115508359D01*
X62470072Y-115669584D01*
X62362825Y-115835490D01*
X62258415Y-115997182D01*
X62241284Y-116023701D01*
X62149309Y-116165168D01*
X62065148Y-116293132D01*
X61992214Y-116402511D01*
X61933919Y-116488225D01*
X61893674Y-116545191D01*
X61874892Y-116568328D01*
X61868759Y-116571141D01*
X61821404Y-116579320D01*
X61743181Y-116584353D01*
X61645093Y-116586417D01*
X61538141Y-116585686D01*
X61433325Y-116582333D01*
X61341646Y-116576533D01*
X61274108Y-116568461D01*
X61241709Y-116558291D01*
X61237007Y-116546823D01*
X61231672Y-116511275D01*
X61227153Y-116450011D01*
X61223402Y-116360473D01*
X61220371Y-116240103D01*
X61218012Y-116086343D01*
X61216279Y-115896635D01*
X61215123Y-115668422D01*
X61214497Y-115399144D01*
X61214354Y-115086245D01*
X61214373Y-115042613D01*
X61214823Y-114790003D01*
X61215812Y-114551445D01*
X61217288Y-114330958D01*
X61219197Y-114132555D01*
X61221489Y-113960254D01*
X61224112Y-113818071D01*
X61227013Y-113710022D01*
X61230140Y-113640121D01*
X61233442Y-113612387D01*
X61243352Y-113604269D01*
X61279155Y-113594813D01*
X61344361Y-113589409D01*
X61444530Y-113587691D01*
X61585225Y-113589296D01*
X61918273Y-113595727D01*
X61929818Y-114445219D01*
X61941364Y-115294712D01*
X62494442Y-114438841D01*
X63047519Y-113582971D01*
X63696273Y-113595727D01*
G37*
G36*
X87198154Y-111984278D02*
G01*
X87230009Y-112036911D01*
X87281619Y-112123714D01*
X87351199Y-112241620D01*
X87436966Y-112387561D01*
X87537139Y-112558469D01*
X87649933Y-112751278D01*
X87773566Y-112962921D01*
X87906254Y-113190330D01*
X88046215Y-113430438D01*
X88191667Y-113680177D01*
X88340825Y-113936481D01*
X88491906Y-114196282D01*
X88643129Y-114456513D01*
X88792710Y-114714107D01*
X88938865Y-114965997D01*
X89079813Y-115209114D01*
X89213770Y-115440393D01*
X89338952Y-115656765D01*
X89453578Y-115855164D01*
X89555863Y-116032522D01*
X89644026Y-116185773D01*
X89716283Y-116311848D01*
X89770851Y-116407681D01*
X89805947Y-116470203D01*
X89819788Y-116496350D01*
X89819691Y-116497270D01*
X89794259Y-116503429D01*
X89730040Y-116508629D01*
X89633519Y-116512592D01*
X89511183Y-116515039D01*
X89369515Y-116515691D01*
X88911546Y-116514655D01*
X88058409Y-115036426D01*
X87922830Y-114801718D01*
X87790866Y-114573683D01*
X87667271Y-114360528D01*
X87553880Y-114165395D01*
X87452528Y-113991429D01*
X87365047Y-113841770D01*
X87293272Y-113719563D01*
X87239037Y-113627951D01*
X87204175Y-113570076D01*
X87190521Y-113549081D01*
X87189214Y-113550044D01*
X87170129Y-113578059D01*
X87130003Y-113642625D01*
X87070457Y-113740994D01*
X86993112Y-113870417D01*
X86899588Y-114028147D01*
X86791508Y-114211438D01*
X86670492Y-114417540D01*
X86538161Y-114643707D01*
X86396138Y-114887191D01*
X86246042Y-115145244D01*
X86089495Y-115415118D01*
X85003220Y-117290273D01*
X87649552Y-117301818D01*
X90295884Y-117313364D01*
X90499334Y-117659727D01*
X90553160Y-117751403D01*
X90616224Y-117858922D01*
X90668923Y-117948892D01*
X90706910Y-118013892D01*
X90725841Y-118046500D01*
X90726897Y-118048765D01*
X90726577Y-118053946D01*
X90720429Y-118058636D01*
X90706331Y-118062860D01*
X90682158Y-118066642D01*
X90645786Y-118070007D01*
X90595092Y-118072979D01*
X90527951Y-118075582D01*
X90442239Y-118077841D01*
X90335833Y-118079779D01*
X90206609Y-118081421D01*
X90052442Y-118082792D01*
X89871209Y-118083915D01*
X89660786Y-118084815D01*
X89419049Y-118085516D01*
X89143873Y-118086043D01*
X88833136Y-118086420D01*
X88484712Y-118086670D01*
X88096478Y-118086819D01*
X87666311Y-118086891D01*
X87192085Y-118086909D01*
X87021936Y-118086898D01*
X86625566Y-118086789D01*
X86242995Y-118086568D01*
X85876716Y-118086240D01*
X85529220Y-118085814D01*
X85202997Y-118085294D01*
X84900537Y-118084688D01*
X84624333Y-118084003D01*
X84376875Y-118083244D01*
X84160653Y-118082419D01*
X83978158Y-118081534D01*
X83831882Y-118080596D01*
X83724316Y-118079611D01*
X83657949Y-118078586D01*
X83635273Y-118077527D01*
X83635920Y-118076198D01*
X83652535Y-118046645D01*
X83690518Y-117980257D01*
X83748409Y-117879552D01*
X83824752Y-117747048D01*
X83918089Y-117585263D01*
X84026961Y-117396716D01*
X84149913Y-117183923D01*
X84285485Y-116949403D01*
X84432221Y-116695675D01*
X84588662Y-116425255D01*
X84753352Y-116140661D01*
X84924831Y-115844413D01*
X85101644Y-115539027D01*
X85282332Y-115227022D01*
X85465437Y-114910916D01*
X85649502Y-114593227D01*
X85833069Y-114276472D01*
X86014681Y-113963169D01*
X86192880Y-113655837D01*
X86366208Y-113356994D01*
X86533208Y-113069157D01*
X86692422Y-112794844D01*
X86842393Y-112536574D01*
X86981662Y-112296864D01*
X87028014Y-112217889D01*
X87087787Y-112118538D01*
X87137119Y-112039479D01*
X87171859Y-111987317D01*
X87187857Y-111968657D01*
X87198154Y-111984278D01*
G37*
G36*
X58581491Y-113588500D02*
G01*
X58658250Y-113592576D01*
X58703869Y-113600428D01*
X58723843Y-113612405D01*
X58724408Y-113613951D01*
X58727682Y-113649064D01*
X58730773Y-113725666D01*
X58733629Y-113839742D01*
X58736198Y-113987275D01*
X58738428Y-114164250D01*
X58740268Y-114366650D01*
X58741664Y-114590460D01*
X58742565Y-114831664D01*
X58742919Y-115086245D01*
X58742850Y-115331589D01*
X58742338Y-115610608D01*
X58741308Y-115847978D01*
X58739711Y-116046258D01*
X58737499Y-116208006D01*
X58734626Y-116335780D01*
X58731043Y-116432137D01*
X58726704Y-116499636D01*
X58721560Y-116540835D01*
X58715564Y-116558291D01*
X58688270Y-116565361D01*
X58620276Y-116571802D01*
X58518131Y-116577175D01*
X58388012Y-116581479D01*
X58236098Y-116584715D01*
X58068568Y-116586882D01*
X57891600Y-116587980D01*
X57711373Y-116588009D01*
X57534065Y-116586970D01*
X57365855Y-116584862D01*
X57212922Y-116581685D01*
X57081445Y-116577440D01*
X56977600Y-116572125D01*
X56907569Y-116565743D01*
X56877528Y-116558291D01*
X56874593Y-116553719D01*
X56864807Y-116510744D01*
X56857294Y-116435521D01*
X56852207Y-116339043D01*
X56849702Y-116232301D01*
X56849933Y-116126290D01*
X56853055Y-116032001D01*
X56859221Y-115960429D01*
X56868588Y-115922565D01*
X56881590Y-115914780D01*
X56923144Y-115906411D01*
X56996023Y-115899767D01*
X57103939Y-115894622D01*
X57250606Y-115890751D01*
X57439734Y-115887929D01*
X57992818Y-115881727D01*
X58004364Y-114738727D01*
X58015909Y-113595727D01*
X58360515Y-113589314D01*
X58468096Y-113587852D01*
X58581491Y-113588500D01*
G37*
G36*
X76735219Y-113565461D02*
G01*
X77010828Y-113566631D01*
X78081909Y-113572636D01*
X78087851Y-115067999D01*
X78093792Y-116563361D01*
X77002578Y-116557363D01*
X75911364Y-116551364D01*
X75911364Y-115904818D01*
X76632955Y-115898716D01*
X77354546Y-115892615D01*
X77354546Y-115386229D01*
X76419364Y-115373727D01*
X76412893Y-115063794D01*
X76411796Y-115001006D01*
X76411702Y-114883287D01*
X76415436Y-114803526D01*
X76423397Y-114756029D01*
X76435984Y-114735102D01*
X76436646Y-114734735D01*
X76470625Y-114728905D01*
X76542638Y-114723806D01*
X76645002Y-114719747D01*
X76770032Y-114717038D01*
X76910046Y-114715990D01*
X77354546Y-114715636D01*
X77354546Y-114230727D01*
X76643346Y-114230727D01*
X76526385Y-114230589D01*
X76330541Y-114229469D01*
X76175929Y-114227122D01*
X76059282Y-114223426D01*
X75977330Y-114218259D01*
X75926804Y-114211497D01*
X75904437Y-114203018D01*
X75902727Y-114200994D01*
X75889883Y-114160388D01*
X75881044Y-114086895D01*
X75876142Y-113991790D01*
X75875106Y-113886351D01*
X75877867Y-113781854D01*
X75884356Y-113689574D01*
X75894502Y-113620790D01*
X75908238Y-113586776D01*
X75923290Y-113581618D01*
X75969823Y-113575958D01*
X76048827Y-113571540D01*
X76162585Y-113568324D01*
X76313381Y-113566266D01*
X76503498Y-113565326D01*
X76735219Y-113565461D01*
G37*
G36*
X73545982Y-113505930D02*
G01*
X73798936Y-113526797D01*
X74023349Y-113577992D01*
X74226431Y-113662317D01*
X74415392Y-113782578D01*
X74597445Y-113941579D01*
X74622182Y-113966529D01*
X74786417Y-114162364D01*
X74908804Y-114371160D01*
X74990884Y-114597006D01*
X75034199Y-114843993D01*
X75040290Y-115116209D01*
X75024631Y-115293341D01*
X74968571Y-115546470D01*
X74872852Y-115777108D01*
X74736393Y-115987641D01*
X74558116Y-116180453D01*
X74448896Y-116273139D01*
X74235869Y-116410319D01*
X74003678Y-116506170D01*
X73748755Y-116562374D01*
X73721095Y-116565846D01*
X73504875Y-116573044D01*
X73272220Y-116550491D01*
X73035195Y-116501256D01*
X72805858Y-116428404D01*
X72596273Y-116335004D01*
X72418501Y-116224120D01*
X72343093Y-116167460D01*
X72349229Y-115528139D01*
X72355364Y-114888818D01*
X72868586Y-114882605D01*
X73381809Y-114876392D01*
X73394833Y-114928787D01*
X73398936Y-114963572D01*
X73401927Y-115037319D01*
X73402745Y-115135591D01*
X73401156Y-115246727D01*
X73394455Y-115512273D01*
X73203955Y-115518979D01*
X73013455Y-115525686D01*
X73013455Y-115639737D01*
X73014208Y-115687758D01*
X73022640Y-115737090D01*
X73048140Y-115767941D01*
X73100046Y-115797305D01*
X73275248Y-115862753D01*
X73463426Y-115886895D01*
X73652498Y-115865849D01*
X73837986Y-115799602D01*
X73983121Y-115707781D01*
X74109797Y-115576813D01*
X74211287Y-115408364D01*
X74236680Y-115351257D01*
X74255210Y-115293806D01*
X74265873Y-115229380D01*
X74270747Y-115144919D01*
X74271909Y-115027364D01*
X74271908Y-115021910D01*
X74270754Y-114907084D01*
X74265962Y-114824861D01*
X74255365Y-114762205D01*
X74236794Y-114706078D01*
X74208083Y-114643445D01*
X74147613Y-114544243D01*
X74045359Y-114424359D01*
X73926414Y-114321374D01*
X73804975Y-114249176D01*
X73714049Y-114216724D01*
X73539346Y-114189605D01*
X73355474Y-114200377D01*
X73170782Y-114247375D01*
X72993618Y-114328930D01*
X72832329Y-114443378D01*
X72810631Y-114460997D01*
X72760736Y-114492972D01*
X72728420Y-114501680D01*
X72715828Y-114492369D01*
X72677650Y-114452417D01*
X72623084Y-114388979D01*
X72558737Y-114310441D01*
X72491215Y-114225195D01*
X72427122Y-114141627D01*
X72373065Y-114068128D01*
X72335650Y-114013087D01*
X72321483Y-113984892D01*
X72321483Y-113983268D01*
X72342627Y-113940168D01*
X72399356Y-113884871D01*
X72484576Y-113821809D01*
X72591195Y-113755414D01*
X72712121Y-113690118D01*
X72840262Y-113630353D01*
X72968525Y-113580551D01*
X73009564Y-113566585D01*
X73098279Y-113538797D01*
X73174557Y-113520938D01*
X73253048Y-113510826D01*
X73348403Y-113506282D01*
X73475273Y-113505125D01*
X73545982Y-113505930D01*
G37*
G36*
X67603265Y-115293158D02*
G01*
X67578779Y-115431455D01*
X67571455Y-115458992D01*
X67482800Y-115697122D01*
X67356365Y-115915388D01*
X67196841Y-116109573D01*
X67008923Y-116275459D01*
X66797303Y-116408830D01*
X66566674Y-116505467D01*
X66321728Y-116561154D01*
X66179378Y-116571952D01*
X66002052Y-116569646D01*
X65825027Y-116553612D01*
X65670546Y-116525083D01*
X65565757Y-116494453D01*
X65366733Y-116408825D01*
X65181372Y-116288014D01*
X65000610Y-116126630D01*
X64986151Y-116111887D01*
X64821435Y-115919829D01*
X64698936Y-115722952D01*
X64615563Y-115513650D01*
X64568226Y-115284322D01*
X64553835Y-115027364D01*
X64554106Y-115020244D01*
X65304895Y-115020244D01*
X65320522Y-115206741D01*
X65372312Y-115382627D01*
X65457050Y-115541709D01*
X65571518Y-115677790D01*
X65712501Y-115784674D01*
X65876782Y-115856167D01*
X65976240Y-115879302D01*
X66137619Y-115886042D01*
X66296262Y-115850791D01*
X66460111Y-115772410D01*
X66526979Y-115728120D01*
X66659040Y-115605347D01*
X66757955Y-115460381D01*
X66824015Y-115299538D01*
X66857508Y-115129133D01*
X66858725Y-114955481D01*
X66827954Y-114784895D01*
X66765485Y-114623692D01*
X66671607Y-114478185D01*
X66546610Y-114354691D01*
X66390783Y-114259522D01*
X66265706Y-114214056D01*
X66092486Y-114188806D01*
X65923919Y-114204858D01*
X65765221Y-114259499D01*
X65621610Y-114350014D01*
X65498302Y-114473688D01*
X65400514Y-114627807D01*
X65333464Y-114809658D01*
X65328650Y-114829335D01*
X65304895Y-115020244D01*
X64554106Y-115020244D01*
X64560369Y-114855574D01*
X64589134Y-114654264D01*
X64644803Y-114469958D01*
X64731713Y-114289245D01*
X64854202Y-114098715D01*
X64950074Y-113981127D01*
X65120560Y-113826023D01*
X65319671Y-113694969D01*
X65538392Y-113593601D01*
X65767709Y-113527556D01*
X65829642Y-113516311D01*
X66094307Y-113494952D01*
X66350726Y-113516075D01*
X66594909Y-113577216D01*
X66822862Y-113675909D01*
X67030593Y-113809689D01*
X67214109Y-113976090D01*
X67369418Y-114172646D01*
X67492528Y-114396892D01*
X67579446Y-114646364D01*
X67580953Y-114652311D01*
X67604599Y-114790696D01*
X67616189Y-114955291D01*
X67616189Y-114955481D01*
X67615739Y-115128607D01*
X67603265Y-115293158D01*
G37*
G36*
X55740951Y-115791190D02*
G01*
X55821163Y-116004921D01*
X55887960Y-116186024D01*
X55940588Y-116332450D01*
X55978295Y-116442153D01*
X56000326Y-116513083D01*
X56005928Y-116543195D01*
X56005481Y-116544564D01*
X55996203Y-116560782D01*
X55976356Y-116572137D01*
X55938818Y-116579483D01*
X55876469Y-116583673D01*
X55782185Y-116585560D01*
X55648845Y-116586000D01*
X55570479Y-116586208D01*
X55454481Y-116585768D01*
X55371741Y-116580052D01*
X55313868Y-116564089D01*
X55272472Y-116532911D01*
X55239163Y-116481548D01*
X55205551Y-116405031D01*
X55163246Y-116298391D01*
X55083834Y-116100281D01*
X54542587Y-116106459D01*
X54001341Y-116112636D01*
X53912964Y-116330737D01*
X53886486Y-116393875D01*
X53848118Y-116477870D01*
X53816247Y-116538972D01*
X53795885Y-116567065D01*
X53787933Y-116569763D01*
X53739576Y-116575926D01*
X53657689Y-116580933D01*
X53551295Y-116584326D01*
X53429419Y-116585646D01*
X53321637Y-116585189D01*
X53210041Y-116582422D01*
X53134153Y-116576710D01*
X53087952Y-116567537D01*
X53065416Y-116554384D01*
X53063546Y-116549436D01*
X53065284Y-116525332D01*
X53075811Y-116480989D01*
X53096023Y-116413880D01*
X53126821Y-116321476D01*
X53169101Y-116201251D01*
X53223762Y-116050676D01*
X53291702Y-115867223D01*
X53373820Y-115648364D01*
X53429699Y-115500727D01*
X54196096Y-115500727D01*
X54541594Y-115500727D01*
X54602887Y-115500628D01*
X54715238Y-115499877D01*
X54805384Y-115498507D01*
X54865332Y-115496664D01*
X54887091Y-115494492D01*
X54885011Y-115487493D01*
X54870654Y-115444185D01*
X54844450Y-115366778D01*
X54808521Y-115261501D01*
X54764992Y-115134586D01*
X54715984Y-114992265D01*
X54667678Y-114852664D01*
X54623827Y-114728009D01*
X54590940Y-114638718D01*
X54566935Y-114580298D01*
X54549728Y-114548261D01*
X54537238Y-114538117D01*
X54527382Y-114545375D01*
X54518078Y-114565545D01*
X54517361Y-114567415D01*
X54500671Y-114613495D01*
X54472161Y-114694629D01*
X54434628Y-114802759D01*
X54390871Y-114929826D01*
X54343688Y-115067773D01*
X54196096Y-115500727D01*
X53429699Y-115500727D01*
X53471013Y-115391572D01*
X53584179Y-115094317D01*
X53624199Y-114989469D01*
X53716198Y-114748790D01*
X53803162Y-114521753D01*
X53883668Y-114312049D01*
X53956292Y-114123367D01*
X54019610Y-113959398D01*
X54072199Y-113823831D01*
X54112635Y-113720356D01*
X54139493Y-113652664D01*
X54151350Y-113624444D01*
X54152760Y-113621915D01*
X54165921Y-113606902D01*
X54189672Y-113596597D01*
X54231128Y-113590346D01*
X54297401Y-113587494D01*
X54395605Y-113587388D01*
X54532856Y-113589374D01*
X54892192Y-113595727D01*
X55455853Y-115048059D01*
X55543293Y-115274030D01*
X55627958Y-115494492D01*
X55648076Y-115546877D01*
X55740951Y-115791190D01*
G37*
G36*
X52296786Y-115838341D02*
G01*
X52296454Y-116037208D01*
X52295782Y-116209818D01*
X52294783Y-116352187D01*
X52293472Y-116460330D01*
X52291863Y-116530262D01*
X52289970Y-116557998D01*
X52289054Y-116559278D01*
X52257631Y-116567814D01*
X52187342Y-116574761D01*
X52084606Y-116580139D01*
X51955839Y-116583972D01*
X51807461Y-116586282D01*
X51645888Y-116587089D01*
X51477539Y-116586416D01*
X51308832Y-116584285D01*
X51146184Y-116580717D01*
X50996014Y-116575735D01*
X50864739Y-116569361D01*
X50758777Y-116561615D01*
X50684546Y-116552521D01*
X50479345Y-116499902D01*
X50292978Y-116415184D01*
X50138159Y-116303498D01*
X50017244Y-116168213D01*
X49932589Y-116012702D01*
X49886552Y-115840335D01*
X49881873Y-115668599D01*
X50599976Y-115668599D01*
X50602641Y-115725126D01*
X50629612Y-115792238D01*
X50636337Y-115804799D01*
X50689758Y-115874441D01*
X50753818Y-115927266D01*
X50754489Y-115927654D01*
X50790099Y-115945284D01*
X50831939Y-115958230D01*
X50888000Y-115967423D01*
X50966272Y-115973796D01*
X51074745Y-115978281D01*
X51221409Y-115981810D01*
X51608182Y-115989529D01*
X51608182Y-115385273D01*
X51256046Y-115386286D01*
X51107151Y-115388552D01*
X50953380Y-115397747D01*
X50835546Y-115415869D01*
X50748074Y-115444921D01*
X50685391Y-115486906D01*
X50641923Y-115543826D01*
X50612094Y-115617686D01*
X50599976Y-115668599D01*
X49881873Y-115668599D01*
X49881488Y-115654483D01*
X49919755Y-115458518D01*
X49968598Y-115337582D01*
X50061989Y-115193951D01*
X50181035Y-115076158D01*
X50317407Y-114993933D01*
X50366558Y-114970297D01*
X50408005Y-114943245D01*
X50416008Y-114926115D01*
X50405744Y-114917980D01*
X50363797Y-114886221D01*
X50306834Y-114844065D01*
X50296580Y-114836244D01*
X50210205Y-114740625D01*
X50147755Y-114615102D01*
X50111855Y-114469829D01*
X50110664Y-114442396D01*
X50846182Y-114442396D01*
X50848167Y-114474719D01*
X50880842Y-114565567D01*
X50950872Y-114632174D01*
X51054673Y-114670617D01*
X51118915Y-114679290D01*
X51208128Y-114685947D01*
X51308509Y-114689984D01*
X51408612Y-114691262D01*
X51496990Y-114689641D01*
X51562197Y-114684984D01*
X51592788Y-114677151D01*
X51596955Y-114664478D01*
X51602737Y-114613070D01*
X51606707Y-114532887D01*
X51608182Y-114434697D01*
X51608182Y-114207636D01*
X51348409Y-114207765D01*
X51298143Y-114208063D01*
X51140039Y-114214480D01*
X51021447Y-114230961D01*
X50937567Y-114259750D01*
X50883597Y-114303090D01*
X50854736Y-114363225D01*
X50846182Y-114442396D01*
X50110664Y-114442396D01*
X50105130Y-114314962D01*
X50130204Y-114160657D01*
X50145573Y-114113330D01*
X50223332Y-113966817D01*
X50338966Y-113836867D01*
X50486874Y-113728883D01*
X50661455Y-113648269D01*
X50677487Y-113642714D01*
X50719658Y-113629240D01*
X50762163Y-113618619D01*
X50810733Y-113610513D01*
X50871099Y-113604584D01*
X50948992Y-113600492D01*
X51050144Y-113597900D01*
X51180284Y-113596467D01*
X51345144Y-113595856D01*
X51550455Y-113595727D01*
X52289364Y-113595727D01*
X52291862Y-114207636D01*
X52295349Y-115062000D01*
X52295592Y-115124051D01*
X52296369Y-115377777D01*
X52296381Y-115385273D01*
X52296762Y-115617202D01*
X52296786Y-115838341D01*
G37*
%TD*%
M02*
