%TF.GenerationSoftware,KiCad,Pcbnew,6.0.10-86aedd382b~118~ubuntu22.10.1*%
%TF.CreationDate,2023-02-15T12:29:08+01:00*%
%TF.ProjectId,railway,7261696c-7761-4792-9e6b-696361645f70,rev?*%
%TF.SameCoordinates,Original*%
%TF.FileFunction,Drillmap*%
%TF.FilePolarity,Positive*%
%FSLAX45Y45*%
G04 Gerber Fmt 4.5, Leading zero omitted, Abs format (unit mm)*
G04 Created by KiCad (PCBNEW 6.0.10-86aedd382b~118~ubuntu22.10.1) date 2023-02-15 12:29:08*
%MOMM*%
%LPD*%
G01*
G04 APERTURE LIST*
%ADD10C,0.100000*%
%ADD11C,0.200000*%
%ADD12C,0.040000*%
%ADD13C,0.050000*%
%ADD14C,0.080000*%
%ADD15C,0.250000*%
G04 APERTURE END LIST*
D10*
X3000000Y-3000000D02*
X13000000Y-3000000D01*
X13000000Y-3000000D02*
X13000000Y-13000000D01*
X13000000Y-13000000D02*
X3000000Y-13000000D01*
X3000000Y-13000000D02*
X3000000Y-3000000D01*
D11*
D12*
X3536000Y-3802700D02*
X3576000Y-3842700D01*
X3576000Y-3802700D02*
X3536000Y-3842700D01*
X3536000Y-4272600D02*
X3576000Y-4312600D01*
X3576000Y-4272600D02*
X3536000Y-4312600D01*
X3548700Y-4526600D02*
X3588700Y-4566600D01*
X3588700Y-4526600D02*
X3548700Y-4566600D01*
X3548700Y-5898200D02*
X3588700Y-5938200D01*
X3588700Y-5898200D02*
X3548700Y-5938200D01*
X3548700Y-6368100D02*
X3588700Y-6408100D01*
X3588700Y-6368100D02*
X3548700Y-6408100D01*
X3561400Y-6622100D02*
X3601400Y-6662100D01*
X3601400Y-6622100D02*
X3561400Y-6662100D01*
X3650300Y-11549700D02*
X3690300Y-11589700D01*
X3690300Y-11549700D02*
X3650300Y-11589700D01*
X3650300Y-11664000D02*
X3690300Y-11704000D01*
X3690300Y-11664000D02*
X3650300Y-11704000D01*
X3650300Y-11778300D02*
X3690300Y-11818300D01*
X3690300Y-11778300D02*
X3650300Y-11818300D01*
X3650300Y-11892600D02*
X3690300Y-11932600D01*
X3690300Y-11892600D02*
X3650300Y-11932600D01*
X3650300Y-12006900D02*
X3690300Y-12046900D01*
X3690300Y-12006900D02*
X3650300Y-12046900D01*
X4056700Y-3675700D02*
X4096700Y-3715700D01*
X4096700Y-3675700D02*
X4056700Y-3715700D01*
X4069400Y-5771200D02*
X4109400Y-5811200D01*
X4109400Y-5771200D02*
X4069400Y-5811200D01*
X4094800Y-4539300D02*
X4134800Y-4579300D01*
X4134800Y-4539300D02*
X4094800Y-4579300D01*
X4107500Y-6634800D02*
X4147500Y-6674800D01*
X4147500Y-6634800D02*
X4107500Y-6674800D01*
X4132900Y-3358200D02*
X4172900Y-3398200D01*
X4172900Y-3358200D02*
X4132900Y-3398200D01*
X4145600Y-5453700D02*
X4185600Y-5493700D01*
X4185600Y-5453700D02*
X4145600Y-5493700D01*
X4310700Y-12172000D02*
X4350700Y-12212000D01*
X4350700Y-12172000D02*
X4310700Y-12212000D01*
X4336100Y-3358200D02*
X4376100Y-3398200D01*
X4376100Y-3358200D02*
X4336100Y-3398200D01*
X4348800Y-5453700D02*
X4388800Y-5493700D01*
X4388800Y-5453700D02*
X4348800Y-5493700D01*
X4374200Y-4196400D02*
X4414200Y-4236400D01*
X4414200Y-4196400D02*
X4374200Y-4236400D01*
X4386900Y-6291900D02*
X4426900Y-6331900D01*
X4426900Y-6291900D02*
X4386900Y-6331900D01*
X4386900Y-12095800D02*
X4426900Y-12135800D01*
X4426900Y-12095800D02*
X4386900Y-12135800D01*
X4463100Y-12019600D02*
X4503100Y-12059600D01*
X4503100Y-12019600D02*
X4463100Y-12059600D01*
X4539300Y-3358200D02*
X4579300Y-3398200D01*
X4579300Y-3358200D02*
X4539300Y-3398200D01*
X4552000Y-5453700D02*
X4592000Y-5493700D01*
X4592000Y-5453700D02*
X4552000Y-5493700D01*
X4679000Y-3726500D02*
X4719000Y-3766500D01*
X4719000Y-3726500D02*
X4679000Y-3766500D01*
X4691700Y-5822000D02*
X4731700Y-5862000D01*
X4731700Y-5822000D02*
X4691700Y-5862000D01*
X5060000Y-3650300D02*
X5100000Y-3690300D01*
X5100000Y-3650300D02*
X5060000Y-3690300D01*
X5072700Y-5745800D02*
X5112700Y-5785800D01*
X5112700Y-5745800D02*
X5072700Y-5785800D01*
X6622100Y-10851200D02*
X6662100Y-10891200D01*
X6662100Y-10851200D02*
X6622100Y-10891200D01*
X6647500Y-9708200D02*
X6687500Y-9748200D01*
X6687500Y-9708200D02*
X6647500Y-9748200D01*
X6774500Y-10851200D02*
X6814500Y-10891200D01*
X6814500Y-10851200D02*
X6774500Y-10891200D01*
X6787200Y-9708200D02*
X6827200Y-9748200D01*
X6827200Y-9708200D02*
X6787200Y-9748200D01*
X6926900Y-9708200D02*
X6966900Y-9748200D01*
X6966900Y-9708200D02*
X6926900Y-9748200D01*
X6939600Y-10851200D02*
X6979600Y-10891200D01*
X6979600Y-10851200D02*
X6939600Y-10891200D01*
X6940350Y-3809817D02*
X6980350Y-3849817D01*
X6980350Y-3809817D02*
X6940350Y-3849817D01*
X6940350Y-4279718D02*
X6980350Y-4319718D01*
X6980350Y-4279718D02*
X6940350Y-4319718D01*
X6953050Y-4533718D02*
X6993050Y-4573718D01*
X6993050Y-4533718D02*
X6953050Y-4573718D01*
X6953050Y-5905317D02*
X6993050Y-5945317D01*
X6993050Y-5905317D02*
X6953050Y-5945317D01*
X6953050Y-6375217D02*
X6993050Y-6415217D01*
X6993050Y-6375217D02*
X6953050Y-6415217D01*
X6965750Y-6629217D02*
X7005750Y-6669217D01*
X7005750Y-6629217D02*
X6965750Y-6669217D01*
X7461050Y-3682817D02*
X7501050Y-3722817D01*
X7501050Y-3682817D02*
X7461050Y-3722817D01*
X7473750Y-5778317D02*
X7513750Y-5818317D01*
X7513750Y-5778317D02*
X7473750Y-5818317D01*
X7499150Y-4546418D02*
X7539150Y-4586418D01*
X7539150Y-4546418D02*
X7499150Y-4586418D01*
X7511850Y-6641917D02*
X7551850Y-6681917D01*
X7551850Y-6641917D02*
X7511850Y-6681917D01*
X7537250Y-3365317D02*
X7577250Y-3405317D01*
X7577250Y-3365317D02*
X7537250Y-3405317D01*
X7549950Y-5460818D02*
X7589950Y-5500818D01*
X7589950Y-5460818D02*
X7549950Y-5500818D01*
X7740450Y-3365317D02*
X7780450Y-3405317D01*
X7780450Y-3365317D02*
X7740450Y-3405317D01*
X7753150Y-5460818D02*
X7793150Y-5500818D01*
X7793150Y-5460818D02*
X7753150Y-5500818D01*
X7778550Y-4203518D02*
X7818550Y-4243518D01*
X7818550Y-4203518D02*
X7778550Y-4243518D01*
X7791250Y-6299017D02*
X7831250Y-6339017D01*
X7831250Y-6299017D02*
X7791250Y-6339017D01*
X7943650Y-3365317D02*
X7983650Y-3405317D01*
X7983650Y-3365317D02*
X7943650Y-3405317D01*
X7956350Y-5460818D02*
X7996350Y-5500818D01*
X7996350Y-5460818D02*
X7956350Y-5500818D01*
X8083350Y-3733617D02*
X8123350Y-3773617D01*
X8123350Y-3733617D02*
X8083350Y-3773617D01*
X8096050Y-5829117D02*
X8136050Y-5869117D01*
X8136050Y-5829117D02*
X8096050Y-5869117D01*
X8464350Y-3657417D02*
X8504350Y-3697417D01*
X8504350Y-3657417D02*
X8464350Y-3697417D01*
X8477050Y-5752917D02*
X8517050Y-5792917D01*
X8517050Y-5752917D02*
X8477050Y-5792917D01*
X8704900Y-8692200D02*
X8744900Y-8732200D01*
X8744900Y-8692200D02*
X8704900Y-8732200D01*
X8704900Y-8806500D02*
X8744900Y-8846500D01*
X8744900Y-8806500D02*
X8704900Y-8846500D01*
X8704900Y-8920800D02*
X8744900Y-8960800D01*
X8744900Y-8920800D02*
X8704900Y-8960800D01*
X8704900Y-9035100D02*
X8744900Y-9075100D01*
X8744900Y-9035100D02*
X8704900Y-9075100D01*
X8704900Y-9682800D02*
X8744900Y-9722800D01*
X8744900Y-9682800D02*
X8704900Y-9722800D01*
X8704900Y-9784400D02*
X8744900Y-9824400D01*
X8744900Y-9784400D02*
X8704900Y-9824400D01*
X8704900Y-9886000D02*
X8744900Y-9926000D01*
X8744900Y-9886000D02*
X8704900Y-9926000D01*
X8704900Y-10673400D02*
X8744900Y-10713400D01*
X8744900Y-10673400D02*
X8704900Y-10713400D01*
X8704900Y-10775000D02*
X8744900Y-10815000D01*
X8744900Y-10775000D02*
X8704900Y-10815000D01*
X8704900Y-10876600D02*
X8744900Y-10916600D01*
X8744900Y-10876600D02*
X8704900Y-10916600D01*
X8704900Y-11422700D02*
X8744900Y-11462700D01*
X8744900Y-11422700D02*
X8704900Y-11462700D01*
X8704900Y-11537000D02*
X8744900Y-11577000D01*
X8744900Y-11537000D02*
X8704900Y-11577000D01*
X8704900Y-11638600D02*
X8744900Y-11678600D01*
X8744900Y-11638600D02*
X8704900Y-11678600D01*
X8868400Y-9532000D02*
X8908400Y-9572000D01*
X8908400Y-9532000D02*
X8868400Y-9572000D01*
X8970000Y-9532000D02*
X9010000Y-9572000D01*
X9010000Y-9532000D02*
X8970000Y-9572000D01*
X9071600Y-9532000D02*
X9111600Y-9572000D01*
X9111600Y-9532000D02*
X9071600Y-9572000D01*
X9103350Y-12273600D02*
X9143350Y-12313600D01*
X9143350Y-12273600D02*
X9103350Y-12313600D01*
X9173200Y-9532000D02*
X9213200Y-9572000D01*
X9213200Y-9532000D02*
X9173200Y-9572000D01*
X9173200Y-9646300D02*
X9213200Y-9686300D01*
X9213200Y-9646300D02*
X9173200Y-9686300D01*
X9173200Y-9760600D02*
X9213200Y-9800600D01*
X9213200Y-9760600D02*
X9173200Y-9800600D01*
X9173200Y-9874900D02*
X9213200Y-9914900D01*
X9213200Y-9874900D02*
X9173200Y-9914900D01*
X9225600Y-12273600D02*
X9265600Y-12313600D01*
X9265600Y-12273600D02*
X9225600Y-12313600D01*
X9352600Y-12273600D02*
X9392600Y-12313600D01*
X9392600Y-12273600D02*
X9352600Y-12313600D01*
X9479600Y-12273600D02*
X9519600Y-12313600D01*
X9519600Y-12273600D02*
X9479600Y-12313600D01*
X9593900Y-10292400D02*
X9633900Y-10332400D01*
X9633900Y-10292400D02*
X9593900Y-10332400D01*
X9936800Y-11283000D02*
X9976800Y-11323000D01*
X9976800Y-11283000D02*
X9936800Y-11323000D01*
X10343200Y-12565700D02*
X10383200Y-12605700D01*
X10383200Y-12565700D02*
X10343200Y-12605700D01*
X10399583Y-3809817D02*
X10439583Y-3849817D01*
X10439583Y-3809817D02*
X10399583Y-3849817D01*
X10399583Y-4279718D02*
X10439583Y-4319718D01*
X10439583Y-4279718D02*
X10399583Y-4319718D01*
X10412283Y-4533718D02*
X10452283Y-4573718D01*
X10452283Y-4533718D02*
X10412283Y-4573718D01*
X10412283Y-5905317D02*
X10452283Y-5945317D01*
X10452283Y-5905317D02*
X10412283Y-5945317D01*
X10412283Y-6375217D02*
X10452283Y-6415217D01*
X10452283Y-6375217D02*
X10412283Y-6415217D01*
X10424983Y-6629217D02*
X10464983Y-6669217D01*
X10464983Y-6629217D02*
X10424983Y-6669217D01*
X10457500Y-12565700D02*
X10497500Y-12605700D01*
X10497500Y-12565700D02*
X10457500Y-12605700D01*
X10571800Y-12565700D02*
X10611800Y-12605700D01*
X10611800Y-12565700D02*
X10571800Y-12605700D01*
X10622600Y-9797100D02*
X10662600Y-9837100D01*
X10662600Y-9797100D02*
X10622600Y-9837100D01*
X10622600Y-9911400D02*
X10662600Y-9951400D01*
X10662600Y-9911400D02*
X10622600Y-9951400D01*
X10622600Y-10025700D02*
X10662600Y-10065700D01*
X10662600Y-10025700D02*
X10622600Y-10065700D01*
X10698800Y-12565700D02*
X10738800Y-12605700D01*
X10738800Y-12565700D02*
X10698800Y-12605700D01*
X10781350Y-12483150D02*
X10821350Y-12523150D01*
X10821350Y-12483150D02*
X10781350Y-12523150D01*
X10902000Y-11371900D02*
X10942000Y-11411900D01*
X10942000Y-11371900D02*
X10902000Y-11411900D01*
X10902000Y-11486200D02*
X10942000Y-11526200D01*
X10942000Y-11486200D02*
X10902000Y-11526200D01*
X10902000Y-11613200D02*
X10942000Y-11653200D01*
X10942000Y-11613200D02*
X10902000Y-11653200D01*
X10920283Y-3682817D02*
X10960283Y-3722817D01*
X10960283Y-3682817D02*
X10920283Y-3722817D01*
X10932983Y-5778317D02*
X10972983Y-5818317D01*
X10972983Y-5778317D02*
X10932983Y-5818317D01*
X10958383Y-4546418D02*
X10998383Y-4586418D01*
X10998383Y-4546418D02*
X10958383Y-4586418D01*
X10965500Y-8730300D02*
X11005500Y-8770300D01*
X11005500Y-8730300D02*
X10965500Y-8770300D01*
X10965500Y-8870000D02*
X11005500Y-8910000D01*
X11005500Y-8870000D02*
X10965500Y-8910000D01*
X10965500Y-8997000D02*
X11005500Y-9037000D01*
X11005500Y-8997000D02*
X10965500Y-9037000D01*
X10965500Y-9124000D02*
X11005500Y-9164000D01*
X11005500Y-9124000D02*
X10965500Y-9164000D01*
X10965500Y-9251000D02*
X11005500Y-9291000D01*
X11005500Y-9251000D02*
X10965500Y-9291000D01*
X10965500Y-9378000D02*
X11005500Y-9418000D01*
X11005500Y-9378000D02*
X10965500Y-9418000D01*
X10971083Y-6641917D02*
X11011083Y-6681917D01*
X11011083Y-6641917D02*
X10971083Y-6681917D01*
X10996483Y-3365317D02*
X11036483Y-3405317D01*
X11036483Y-3365317D02*
X10996483Y-3405317D01*
X11009183Y-5460818D02*
X11049183Y-5500818D01*
X11049183Y-5460818D02*
X11009183Y-5500818D01*
X11199682Y-3365317D02*
X11239682Y-3405317D01*
X11239682Y-3365317D02*
X11199682Y-3405317D01*
X11212382Y-5460818D02*
X11252382Y-5500818D01*
X11252382Y-5460818D02*
X11212382Y-5500818D01*
X11237782Y-4203518D02*
X11277782Y-4243518D01*
X11277782Y-4203518D02*
X11237782Y-4243518D01*
X11250482Y-6299017D02*
X11290482Y-6339017D01*
X11290482Y-6299017D02*
X11250482Y-6339017D01*
X11305250Y-11797350D02*
X11345250Y-11837350D01*
X11345250Y-11797350D02*
X11305250Y-11837350D01*
X11402882Y-3365317D02*
X11442882Y-3405317D01*
X11442882Y-3365317D02*
X11402882Y-3405317D01*
X11415582Y-5460818D02*
X11455582Y-5500818D01*
X11455582Y-5460818D02*
X11415582Y-5500818D01*
X11542582Y-3733617D02*
X11582582Y-3773617D01*
X11582582Y-3733617D02*
X11542582Y-3773617D01*
X11555282Y-5829117D02*
X11595282Y-5869117D01*
X11595282Y-5829117D02*
X11555282Y-5869117D01*
X11923582Y-3657417D02*
X11963582Y-3697417D01*
X11963582Y-3657417D02*
X11923582Y-3697417D01*
X11930700Y-12337100D02*
X11970700Y-12377100D01*
X11970700Y-12337100D02*
X11930700Y-12377100D01*
X11936282Y-5752917D02*
X11976282Y-5792917D01*
X11976282Y-5752917D02*
X11936282Y-5792917D01*
X11994200Y-11156000D02*
X12034200Y-11196000D01*
X12034200Y-11156000D02*
X11994200Y-11196000D01*
X12210100Y-9136700D02*
X12250100Y-9176700D01*
X12250100Y-9136700D02*
X12210100Y-9176700D01*
X12222800Y-11879900D02*
X12262800Y-11919900D01*
X12262800Y-11879900D02*
X12222800Y-11919900D01*
X12375200Y-11448100D02*
X12415200Y-11488100D01*
X12415200Y-11448100D02*
X12375200Y-11488100D01*
X12375200Y-11562400D02*
X12415200Y-11602400D01*
X12415200Y-11562400D02*
X12375200Y-11602400D01*
D13*
X3177600Y-3479800D02*
G75*
G03*
X3177600Y-3479800I-25000J0D01*
G01*
X3183182Y-12656317D02*
G75*
G03*
X3183182Y-12656317I-25000J0D01*
G01*
X3190300Y-5575300D02*
G75*
G03*
X3190300Y-5575300I-25000J0D01*
G01*
X3190300Y-7924800D02*
G75*
G03*
X3190300Y-7924800I-25000J0D01*
G01*
X3232517Y-3347217D02*
G75*
G03*
X3232517Y-3347217I-25000J0D01*
G01*
X3232517Y-3612382D02*
G75*
G03*
X3232517Y-3612382I-25000J0D01*
G01*
X3238100Y-12523735D02*
G75*
G03*
X3238100Y-12523735I-25000J0D01*
G01*
X3238100Y-12788900D02*
G75*
G03*
X3238100Y-12788900I-25000J0D01*
G01*
X3245217Y-5442718D02*
G75*
G03*
X3245217Y-5442718I-25000J0D01*
G01*
X3245217Y-5707882D02*
G75*
G03*
X3245217Y-5707882I-25000J0D01*
G01*
X3245217Y-7792217D02*
G75*
G03*
X3245217Y-7792217I-25000J0D01*
G01*
X3245217Y-8057382D02*
G75*
G03*
X3245217Y-8057382I-25000J0D01*
G01*
X3365100Y-3292300D02*
G75*
G03*
X3365100Y-3292300I-25000J0D01*
G01*
X3365100Y-3667300D02*
G75*
G03*
X3365100Y-3667300I-25000J0D01*
G01*
X3370682Y-12468817D02*
G75*
G03*
X3370682Y-12468817I-25000J0D01*
G01*
X3370682Y-12843817D02*
G75*
G03*
X3370682Y-12843817I-25000J0D01*
G01*
X3377800Y-5387800D02*
G75*
G03*
X3377800Y-5387800I-25000J0D01*
G01*
X3377800Y-5762800D02*
G75*
G03*
X3377800Y-5762800I-25000J0D01*
G01*
X3377800Y-7737300D02*
G75*
G03*
X3377800Y-7737300I-25000J0D01*
G01*
X3377800Y-8112300D02*
G75*
G03*
X3377800Y-8112300I-25000J0D01*
G01*
X3497682Y-3347217D02*
G75*
G03*
X3497682Y-3347217I-25000J0D01*
G01*
X3497682Y-3612382D02*
G75*
G03*
X3497682Y-3612382I-25000J0D01*
G01*
X3503265Y-12523735D02*
G75*
G03*
X3503265Y-12523735I-25000J0D01*
G01*
X3503265Y-12788900D02*
G75*
G03*
X3503265Y-12788900I-25000J0D01*
G01*
X3510382Y-5442718D02*
G75*
G03*
X3510382Y-5442718I-25000J0D01*
G01*
X3510382Y-5707882D02*
G75*
G03*
X3510382Y-5707882I-25000J0D01*
G01*
X3510382Y-7792217D02*
G75*
G03*
X3510382Y-7792217I-25000J0D01*
G01*
X3510382Y-8057382D02*
G75*
G03*
X3510382Y-8057382I-25000J0D01*
G01*
X3552600Y-3479800D02*
G75*
G03*
X3552600Y-3479800I-25000J0D01*
G01*
X3558182Y-12656317D02*
G75*
G03*
X3558182Y-12656317I-25000J0D01*
G01*
X3565300Y-5575300D02*
G75*
G03*
X3565300Y-5575300I-25000J0D01*
G01*
X3565300Y-7924800D02*
G75*
G03*
X3565300Y-7924800I-25000J0D01*
G01*
X5623117Y-4615683D02*
G75*
G03*
X5623117Y-4615683I-25000J0D01*
G01*
X5635817Y-6711182D02*
G75*
G03*
X5635817Y-6711182I-25000J0D01*
G01*
X5678035Y-4483100D02*
G75*
G03*
X5678035Y-4483100I-25000J0D01*
G01*
X5678035Y-4748265D02*
G75*
G03*
X5678035Y-4748265I-25000J0D01*
G01*
X5690735Y-6578600D02*
G75*
G03*
X5690735Y-6578600I-25000J0D01*
G01*
X5690735Y-6843765D02*
G75*
G03*
X5690735Y-6843765I-25000J0D01*
G01*
X5810617Y-4428183D02*
G75*
G03*
X5810617Y-4428183I-25000J0D01*
G01*
X5810617Y-4803183D02*
G75*
G03*
X5810617Y-4803183I-25000J0D01*
G01*
X5823317Y-6523682D02*
G75*
G03*
X5823317Y-6523682I-25000J0D01*
G01*
X5823317Y-6898682D02*
G75*
G03*
X5823317Y-6898682I-25000J0D01*
G01*
X5943200Y-4483100D02*
G75*
G03*
X5943200Y-4483100I-25000J0D01*
G01*
X5943200Y-4748265D02*
G75*
G03*
X5943200Y-4748265I-25000J0D01*
G01*
X5955900Y-6578600D02*
G75*
G03*
X5955900Y-6578600I-25000J0D01*
G01*
X5955900Y-6843765D02*
G75*
G03*
X5955900Y-6843765I-25000J0D01*
G01*
X5998117Y-4615683D02*
G75*
G03*
X5998117Y-4615683I-25000J0D01*
G01*
X6010817Y-6711182D02*
G75*
G03*
X6010817Y-6711182I-25000J0D01*
G01*
X6581950Y-3486917D02*
G75*
G03*
X6581950Y-3486917I-25000J0D01*
G01*
X6594650Y-5582418D02*
G75*
G03*
X6594650Y-5582418I-25000J0D01*
G01*
X6636867Y-3354335D02*
G75*
G03*
X6636867Y-3354335I-25000J0D01*
G01*
X6636867Y-3619500D02*
G75*
G03*
X6636867Y-3619500I-25000J0D01*
G01*
X6649567Y-5449835D02*
G75*
G03*
X6649567Y-5449835I-25000J0D01*
G01*
X6649567Y-5715000D02*
G75*
G03*
X6649567Y-5715000I-25000J0D01*
G01*
X6769450Y-3299417D02*
G75*
G03*
X6769450Y-3299417I-25000J0D01*
G01*
X6769450Y-3674417D02*
G75*
G03*
X6769450Y-3674417I-25000J0D01*
G01*
X6782150Y-5394918D02*
G75*
G03*
X6782150Y-5394918I-25000J0D01*
G01*
X6782150Y-5769917D02*
G75*
G03*
X6782150Y-5769917I-25000J0D01*
G01*
X6902032Y-3354335D02*
G75*
G03*
X6902032Y-3354335I-25000J0D01*
G01*
X6902032Y-3619500D02*
G75*
G03*
X6902032Y-3619500I-25000J0D01*
G01*
X6914732Y-5449835D02*
G75*
G03*
X6914732Y-5449835I-25000J0D01*
G01*
X6914732Y-5715000D02*
G75*
G03*
X6914732Y-5715000I-25000J0D01*
G01*
X6956950Y-3486917D02*
G75*
G03*
X6956950Y-3486917I-25000J0D01*
G01*
X6969650Y-5582418D02*
G75*
G03*
X6969650Y-5582418I-25000J0D01*
G01*
X9027468Y-4622800D02*
G75*
G03*
X9027468Y-4622800I-25000J0D01*
G01*
X9040168Y-6718300D02*
G75*
G03*
X9040168Y-6718300I-25000J0D01*
G01*
X9082385Y-4490218D02*
G75*
G03*
X9082385Y-4490218I-25000J0D01*
G01*
X9082385Y-4755383D02*
G75*
G03*
X9082385Y-4755383I-25000J0D01*
G01*
X9095085Y-6585717D02*
G75*
G03*
X9095085Y-6585717I-25000J0D01*
G01*
X9095085Y-6850882D02*
G75*
G03*
X9095085Y-6850882I-25000J0D01*
G01*
X9214968Y-4435300D02*
G75*
G03*
X9214968Y-4435300I-25000J0D01*
G01*
X9214968Y-4810300D02*
G75*
G03*
X9214968Y-4810300I-25000J0D01*
G01*
X9227668Y-6530800D02*
G75*
G03*
X9227668Y-6530800I-25000J0D01*
G01*
X9227668Y-6905800D02*
G75*
G03*
X9227668Y-6905800I-25000J0D01*
G01*
X9347550Y-4490218D02*
G75*
G03*
X9347550Y-4490218I-25000J0D01*
G01*
X9347550Y-4755383D02*
G75*
G03*
X9347550Y-4755383I-25000J0D01*
G01*
X9360250Y-6585717D02*
G75*
G03*
X9360250Y-6585717I-25000J0D01*
G01*
X9360250Y-6850882D02*
G75*
G03*
X9360250Y-6850882I-25000J0D01*
G01*
X9402468Y-4622800D02*
G75*
G03*
X9402468Y-4622800I-25000J0D01*
G01*
X9415168Y-6718300D02*
G75*
G03*
X9415168Y-6718300I-25000J0D01*
G01*
X10041183Y-3486917D02*
G75*
G03*
X10041183Y-3486917I-25000J0D01*
G01*
X10053883Y-5582418D02*
G75*
G03*
X10053883Y-5582418I-25000J0D01*
G01*
X10096100Y-3354335D02*
G75*
G03*
X10096100Y-3354335I-25000J0D01*
G01*
X10096100Y-3619500D02*
G75*
G03*
X10096100Y-3619500I-25000J0D01*
G01*
X10108800Y-5449835D02*
G75*
G03*
X10108800Y-5449835I-25000J0D01*
G01*
X10108800Y-5715000D02*
G75*
G03*
X10108800Y-5715000I-25000J0D01*
G01*
X10228683Y-3299417D02*
G75*
G03*
X10228683Y-3299417I-25000J0D01*
G01*
X10228683Y-3674417D02*
G75*
G03*
X10228683Y-3674417I-25000J0D01*
G01*
X10241383Y-5394918D02*
G75*
G03*
X10241383Y-5394918I-25000J0D01*
G01*
X10241383Y-5769917D02*
G75*
G03*
X10241383Y-5769917I-25000J0D01*
G01*
X10361265Y-3354335D02*
G75*
G03*
X10361265Y-3354335I-25000J0D01*
G01*
X10361265Y-3619500D02*
G75*
G03*
X10361265Y-3619500I-25000J0D01*
G01*
X10373965Y-5449835D02*
G75*
G03*
X10373965Y-5449835I-25000J0D01*
G01*
X10373965Y-5715000D02*
G75*
G03*
X10373965Y-5715000I-25000J0D01*
G01*
X10416183Y-3486917D02*
G75*
G03*
X10416183Y-3486917I-25000J0D01*
G01*
X10428883Y-5582418D02*
G75*
G03*
X10428883Y-5582418I-25000J0D01*
G01*
X12486700Y-4622800D02*
G75*
G03*
X12486700Y-4622800I-25000J0D01*
G01*
X12486700Y-7924800D02*
G75*
G03*
X12486700Y-7924800I-25000J0D01*
G01*
X12486700Y-12636500D02*
G75*
G03*
X12486700Y-12636500I-25000J0D01*
G01*
X12499400Y-6718300D02*
G75*
G03*
X12499400Y-6718300I-25000J0D01*
G01*
X12541617Y-4490218D02*
G75*
G03*
X12541617Y-4490218I-25000J0D01*
G01*
X12541617Y-4755383D02*
G75*
G03*
X12541617Y-4755383I-25000J0D01*
G01*
X12541617Y-7792217D02*
G75*
G03*
X12541617Y-7792217I-25000J0D01*
G01*
X12541617Y-8057382D02*
G75*
G03*
X12541617Y-8057382I-25000J0D01*
G01*
X12541617Y-12503917D02*
G75*
G03*
X12541617Y-12503917I-25000J0D01*
G01*
X12541617Y-12769082D02*
G75*
G03*
X12541617Y-12769082I-25000J0D01*
G01*
X12554317Y-6585717D02*
G75*
G03*
X12554317Y-6585717I-25000J0D01*
G01*
X12554317Y-6850882D02*
G75*
G03*
X12554317Y-6850882I-25000J0D01*
G01*
X12674200Y-4435300D02*
G75*
G03*
X12674200Y-4435300I-25000J0D01*
G01*
X12674200Y-4810300D02*
G75*
G03*
X12674200Y-4810300I-25000J0D01*
G01*
X12674200Y-7737300D02*
G75*
G03*
X12674200Y-7737300I-25000J0D01*
G01*
X12674200Y-8112300D02*
G75*
G03*
X12674200Y-8112300I-25000J0D01*
G01*
X12674200Y-12449000D02*
G75*
G03*
X12674200Y-12449000I-25000J0D01*
G01*
X12674200Y-12824000D02*
G75*
G03*
X12674200Y-12824000I-25000J0D01*
G01*
X12686900Y-6530800D02*
G75*
G03*
X12686900Y-6530800I-25000J0D01*
G01*
X12686900Y-6905800D02*
G75*
G03*
X12686900Y-6905800I-25000J0D01*
G01*
X12806782Y-4490218D02*
G75*
G03*
X12806782Y-4490218I-25000J0D01*
G01*
X12806782Y-4755383D02*
G75*
G03*
X12806782Y-4755383I-25000J0D01*
G01*
X12806782Y-7792217D02*
G75*
G03*
X12806782Y-7792217I-25000J0D01*
G01*
X12806782Y-8057382D02*
G75*
G03*
X12806782Y-8057382I-25000J0D01*
G01*
X12806782Y-12503917D02*
G75*
G03*
X12806782Y-12503917I-25000J0D01*
G01*
X12806782Y-12769082D02*
G75*
G03*
X12806782Y-12769082I-25000J0D01*
G01*
X12819482Y-6585717D02*
G75*
G03*
X12819482Y-6585717I-25000J0D01*
G01*
X12819482Y-6850882D02*
G75*
G03*
X12819482Y-6850882I-25000J0D01*
G01*
X12861700Y-4622800D02*
G75*
G03*
X12861700Y-4622800I-25000J0D01*
G01*
X12861700Y-7924800D02*
G75*
G03*
X12861700Y-7924800I-25000J0D01*
G01*
X12861700Y-12636500D02*
G75*
G03*
X12861700Y-12636500I-25000J0D01*
G01*
X12874400Y-6718300D02*
G75*
G03*
X12874400Y-6718300I-25000J0D01*
G01*
D14*
X3822700Y-3350900D02*
X3822700Y-3430900D01*
X3782700Y-3390900D02*
X3862700Y-3390900D01*
X3826700Y-3744600D02*
X3826700Y-3824600D01*
X3786700Y-3784600D02*
X3866700Y-3784600D01*
X3835400Y-5446400D02*
X3835400Y-5526400D01*
X3795400Y-5486400D02*
X3875400Y-5486400D01*
X3839400Y-5840100D02*
X3839400Y-5920100D01*
X3799400Y-5880100D02*
X3879400Y-5880100D01*
X4326700Y-3744600D02*
X4326700Y-3824600D01*
X4286700Y-3784600D02*
X4366700Y-3784600D01*
X4339400Y-5840100D02*
X4339400Y-5920100D01*
X4299400Y-5880100D02*
X4379400Y-5880100D01*
X4622800Y-4206105D02*
X4622800Y-4286105D01*
X4582800Y-4246105D02*
X4662800Y-4246105D01*
X4622800Y-4586105D02*
X4622800Y-4666105D01*
X4582800Y-4626105D02*
X4662800Y-4626105D01*
X4635500Y-6301605D02*
X4635500Y-6381605D01*
X4595500Y-6341605D02*
X4675500Y-6341605D01*
X4635500Y-6681605D02*
X4635500Y-6761605D01*
X4595500Y-6721605D02*
X4675500Y-6721605D01*
X5092700Y-3350900D02*
X5092700Y-3430900D01*
X5052700Y-3390900D02*
X5132700Y-3390900D01*
X5105400Y-5446400D02*
X5105400Y-5526400D01*
X5065400Y-5486400D02*
X5145400Y-5486400D01*
X7227050Y-3358017D02*
X7227050Y-3438017D01*
X7187050Y-3398017D02*
X7267050Y-3398017D01*
X7231050Y-3751717D02*
X7231050Y-3831717D01*
X7191050Y-3791717D02*
X7271050Y-3791717D01*
X7239750Y-5453518D02*
X7239750Y-5533518D01*
X7199750Y-5493518D02*
X7279750Y-5493518D01*
X7243750Y-5847217D02*
X7243750Y-5927217D01*
X7203750Y-5887217D02*
X7283750Y-5887217D01*
X7731050Y-3751717D02*
X7731050Y-3831717D01*
X7691050Y-3791717D02*
X7771050Y-3791717D01*
X7743750Y-5847217D02*
X7743750Y-5927217D01*
X7703750Y-5887217D02*
X7783750Y-5887217D01*
X8027150Y-4213222D02*
X8027150Y-4293222D01*
X7987150Y-4253222D02*
X8067150Y-4253222D01*
X8027150Y-4593222D02*
X8027150Y-4673222D01*
X7987150Y-4633222D02*
X8067150Y-4633222D01*
X8039850Y-6308722D02*
X8039850Y-6388722D01*
X7999850Y-6348722D02*
X8079850Y-6348722D01*
X8039850Y-6688722D02*
X8039850Y-6768722D01*
X7999850Y-6728722D02*
X8079850Y-6728722D01*
X8497050Y-3358017D02*
X8497050Y-3438017D01*
X8457050Y-3398017D02*
X8537050Y-3398017D01*
X8509750Y-5453518D02*
X8509750Y-5533518D01*
X8469750Y-5493518D02*
X8549750Y-5493518D01*
X10686283Y-3358017D02*
X10686283Y-3438017D01*
X10646283Y-3398017D02*
X10726283Y-3398017D01*
X10690283Y-3751717D02*
X10690283Y-3831717D01*
X10650283Y-3791717D02*
X10730283Y-3791717D01*
X10698983Y-5453518D02*
X10698983Y-5533518D01*
X10658983Y-5493518D02*
X10738983Y-5493518D01*
X10702983Y-5847217D02*
X10702983Y-5927217D01*
X10662983Y-5887217D02*
X10742983Y-5887217D01*
X10744200Y-8088000D02*
X10744200Y-8168000D01*
X10704200Y-8128000D02*
X10784200Y-8128000D01*
X11190282Y-3751717D02*
X11190282Y-3831717D01*
X11150283Y-3791717D02*
X11230282Y-3791717D01*
X11202982Y-5847217D02*
X11202982Y-5927217D01*
X11162983Y-5887217D02*
X11242982Y-5887217D01*
X11486382Y-4213222D02*
X11486382Y-4293222D01*
X11446382Y-4253222D02*
X11526382Y-4253222D01*
X11486382Y-4593222D02*
X11486382Y-4673222D01*
X11446382Y-4633222D02*
X11526382Y-4633222D01*
X11499082Y-6308722D02*
X11499082Y-6388722D01*
X11459082Y-6348722D02*
X11539082Y-6348722D01*
X11499082Y-6688722D02*
X11499082Y-6768722D01*
X11459082Y-6728722D02*
X11539082Y-6728722D01*
X11956282Y-3358017D02*
X11956282Y-3438017D01*
X11916282Y-3398017D02*
X11996282Y-3398017D01*
X11968982Y-5453518D02*
X11968982Y-5533518D01*
X11928982Y-5493518D02*
X12008982Y-5493518D01*
X12014200Y-8088000D02*
X12014200Y-8168000D01*
X11974200Y-8128000D02*
X12054200Y-8128000D01*
X12015200Y-11365600D02*
X12015200Y-11445600D01*
X11975200Y-11405600D02*
X12055200Y-11405600D01*
X12015200Y-11619600D02*
X12015200Y-11699600D01*
X11975200Y-11659600D02*
X12055200Y-11659600D01*
X12015200Y-11873600D02*
X12015200Y-11953600D01*
X11975200Y-11913600D02*
X12055200Y-11913600D01*
X12015200Y-12127600D02*
X12015200Y-12207600D01*
X11975200Y-12167600D02*
X12055200Y-12167600D01*
X12026900Y-8519800D02*
X12026900Y-8599800D01*
X11986900Y-8559800D02*
X12066900Y-8559800D01*
X12026900Y-9789800D02*
X12026900Y-9869800D01*
X11986900Y-9829800D02*
X12066900Y-9829800D01*
X12026900Y-10158100D02*
X12026900Y-10238100D01*
X11986900Y-10198100D02*
X12066900Y-10198100D01*
X12026900Y-10920100D02*
X12026900Y-11000100D01*
X11986900Y-10960100D02*
X12066900Y-10960100D01*
X12407900Y-8862700D02*
X12407900Y-8942700D01*
X12367900Y-8902700D02*
X12447900Y-8902700D01*
X12407900Y-9362700D02*
X12407900Y-9442700D01*
X12367900Y-9402700D02*
X12447900Y-9402700D01*
X12407900Y-9650100D02*
X12407900Y-9730100D01*
X12367900Y-9690100D02*
X12447900Y-9690100D01*
X12407900Y-10920100D02*
X12407900Y-11000100D01*
X12367900Y-10960100D02*
X12447900Y-10960100D01*
X12777200Y-11365600D02*
X12777200Y-11445600D01*
X12737200Y-11405600D02*
X12817200Y-11405600D01*
X12777200Y-11619600D02*
X12777200Y-11699600D01*
X12737200Y-11659600D02*
X12817200Y-11659600D01*
X12777200Y-11873600D02*
X12777200Y-11953600D01*
X12737200Y-11913600D02*
X12817200Y-11913600D01*
X12777200Y-12127600D02*
X12777200Y-12207600D01*
X12737200Y-12167600D02*
X12817200Y-12167600D01*
D10*
X3248456Y-8506256D02*
X3248456Y-8435544D01*
X3177744Y-8435544D01*
X3177744Y-8506256D01*
X3248456Y-8506256D01*
X3248456Y-8760256D02*
X3248456Y-8689544D01*
X3177744Y-8689544D01*
X3177744Y-8760256D01*
X3248456Y-8760256D01*
X3248456Y-9014256D02*
X3248456Y-8943544D01*
X3177744Y-8943544D01*
X3177744Y-9014256D01*
X3248456Y-9014256D01*
X3248456Y-9268256D02*
X3248456Y-9197544D01*
X3177744Y-9197544D01*
X3177744Y-9268256D01*
X3248456Y-9268256D01*
X3248456Y-9522256D02*
X3248456Y-9451544D01*
X3177744Y-9451544D01*
X3177744Y-9522256D01*
X3248456Y-9522256D01*
X3248456Y-9776256D02*
X3248456Y-9705544D01*
X3177744Y-9705544D01*
X3177744Y-9776256D01*
X3248456Y-9776256D01*
X3248456Y-10030256D02*
X3248456Y-9959544D01*
X3177744Y-9959544D01*
X3177744Y-10030256D01*
X3248456Y-10030256D01*
X3248456Y-10284256D02*
X3248456Y-10213544D01*
X3177744Y-10213544D01*
X3177744Y-10284256D01*
X3248456Y-10284256D01*
X3248456Y-10538256D02*
X3248456Y-10467544D01*
X3177744Y-10467544D01*
X3177744Y-10538256D01*
X3248456Y-10538256D01*
X3248456Y-10792256D02*
X3248456Y-10721544D01*
X3177744Y-10721544D01*
X3177744Y-10792256D01*
X3248456Y-10792256D01*
X3248456Y-11046256D02*
X3248456Y-10975544D01*
X3177744Y-10975544D01*
X3177744Y-11046256D01*
X3248456Y-11046256D01*
X3248456Y-11300256D02*
X3248456Y-11229544D01*
X3177744Y-11229544D01*
X3177744Y-11300256D01*
X3248456Y-11300256D01*
X3248456Y-11554256D02*
X3248456Y-11483544D01*
X3177744Y-11483544D01*
X3177744Y-11554256D01*
X3248456Y-11554256D01*
X3248456Y-11808256D02*
X3248456Y-11737544D01*
X3177744Y-11737544D01*
X3177744Y-11808256D01*
X3248456Y-11808256D01*
X3248456Y-12062256D02*
X3248456Y-11991544D01*
X3177744Y-11991544D01*
X3177744Y-12062256D01*
X3248456Y-12062256D01*
X3286556Y-4200956D02*
X3286556Y-4130244D01*
X3215844Y-4130244D01*
X3215844Y-4200956D01*
X3286556Y-4200956D01*
X3286556Y-4454956D02*
X3286556Y-4384244D01*
X3215844Y-4384244D01*
X3215844Y-4454956D01*
X3286556Y-4454956D01*
X3286556Y-4708956D02*
X3286556Y-4638244D01*
X3215844Y-4638244D01*
X3215844Y-4708956D01*
X3286556Y-4708956D01*
X3299256Y-6296456D02*
X3299256Y-6225744D01*
X3228544Y-6225744D01*
X3228544Y-6296456D01*
X3299256Y-6296456D01*
X3299256Y-6550456D02*
X3299256Y-6479744D01*
X3228544Y-6479744D01*
X3228544Y-6550456D01*
X3299256Y-6550456D01*
X3299256Y-6804456D02*
X3299256Y-6733744D01*
X3228544Y-6733744D01*
X3228544Y-6804456D01*
X3299256Y-6804456D01*
X3972356Y-11097056D02*
X3972356Y-11026344D01*
X3901644Y-11026344D01*
X3901644Y-11097056D01*
X3972356Y-11097056D01*
X3972356Y-11351056D02*
X3972356Y-11280344D01*
X3901644Y-11280344D01*
X3901644Y-11351056D01*
X3972356Y-11351056D01*
X3972356Y-11605056D02*
X3972356Y-11534344D01*
X3901644Y-11534344D01*
X3901644Y-11605056D01*
X3972356Y-11605056D01*
X3972356Y-11859056D02*
X3972356Y-11788344D01*
X3901644Y-11788344D01*
X3901644Y-11859056D01*
X3972356Y-11859056D01*
X3972356Y-12113056D02*
X3972356Y-12042344D01*
X3901644Y-12042344D01*
X3901644Y-12113056D01*
X3972356Y-12113056D01*
X3972356Y-12367056D02*
X3972356Y-12296344D01*
X3901644Y-12296344D01*
X3901644Y-12367056D01*
X3972356Y-12367056D01*
X3976756Y-8324356D02*
X3976756Y-8253644D01*
X3906044Y-8253644D01*
X3906044Y-8324356D01*
X3976756Y-8324356D01*
X3976756Y-8578356D02*
X3976756Y-8507644D01*
X3906044Y-8507644D01*
X3906044Y-8578356D01*
X3976756Y-8578356D01*
X3976756Y-8832356D02*
X3976756Y-8761644D01*
X3906044Y-8761644D01*
X3906044Y-8832356D01*
X3976756Y-8832356D01*
X3976756Y-9086356D02*
X3976756Y-9015644D01*
X3906044Y-9015644D01*
X3906044Y-9086356D01*
X3976756Y-9086356D01*
X3976756Y-9340356D02*
X3976756Y-9269644D01*
X3906044Y-9269644D01*
X3906044Y-9340356D01*
X3976756Y-9340356D01*
X3976756Y-9594356D02*
X3976756Y-9523644D01*
X3906044Y-9523644D01*
X3906044Y-9594356D01*
X3976756Y-9594356D01*
X5890056Y-3437456D02*
X5890056Y-3366744D01*
X5819344Y-3366744D01*
X5819344Y-3437456D01*
X5890056Y-3437456D01*
X5890056Y-3691456D02*
X5890056Y-3620744D01*
X5819344Y-3620744D01*
X5819344Y-3691456D01*
X5890056Y-3691456D01*
X5890056Y-3945456D02*
X5890056Y-3874744D01*
X5819344Y-3874744D01*
X5819344Y-3945456D01*
X5890056Y-3945456D01*
X5902756Y-5532956D02*
X5902756Y-5462244D01*
X5832044Y-5462244D01*
X5832044Y-5532956D01*
X5902756Y-5532956D01*
X5902756Y-5786956D02*
X5902756Y-5716244D01*
X5832044Y-5716244D01*
X5832044Y-5786956D01*
X5902756Y-5786956D01*
X5902756Y-6040956D02*
X5902756Y-5970244D01*
X5832044Y-5970244D01*
X5832044Y-6040956D01*
X5902756Y-6040956D01*
X6690906Y-4208073D02*
X6690906Y-4137362D01*
X6620194Y-4137362D01*
X6620194Y-4208073D01*
X6690906Y-4208073D01*
X6690906Y-4462073D02*
X6690906Y-4391362D01*
X6620194Y-4391362D01*
X6620194Y-4462073D01*
X6690906Y-4462073D01*
X6690906Y-4716073D02*
X6690906Y-4645362D01*
X6620194Y-4645362D01*
X6620194Y-4716073D01*
X6690906Y-4716073D01*
X6703606Y-6303573D02*
X6703606Y-6232862D01*
X6632894Y-6232862D01*
X6632894Y-6303573D01*
X6703606Y-6303573D01*
X6703606Y-6557573D02*
X6703606Y-6486862D01*
X6632894Y-6486862D01*
X6632894Y-6557573D01*
X6703606Y-6557573D01*
X6703606Y-6811573D02*
X6703606Y-6740862D01*
X6632894Y-6740862D01*
X6632894Y-6811573D01*
X6703606Y-6811573D01*
X9294406Y-3444573D02*
X9294406Y-3373862D01*
X9223694Y-3373862D01*
X9223694Y-3444573D01*
X9294406Y-3444573D01*
X9294406Y-3698573D02*
X9294406Y-3627862D01*
X9223694Y-3627862D01*
X9223694Y-3698573D01*
X9294406Y-3698573D01*
X9294406Y-3952573D02*
X9294406Y-3881862D01*
X9223694Y-3881862D01*
X9223694Y-3952573D01*
X9294406Y-3952573D01*
X9307106Y-5540073D02*
X9307106Y-5469362D01*
X9236394Y-5469362D01*
X9236394Y-5540073D01*
X9307106Y-5540073D01*
X9307106Y-5794073D02*
X9307106Y-5723362D01*
X9236394Y-5723362D01*
X9236394Y-5794073D01*
X9307106Y-5794073D01*
X9307106Y-6048073D02*
X9307106Y-5977362D01*
X9236394Y-5977362D01*
X9236394Y-6048073D01*
X9307106Y-6048073D01*
X9712756Y-11097056D02*
X9712756Y-11026344D01*
X9642044Y-11026344D01*
X9642044Y-11097056D01*
X9712756Y-11097056D01*
X9712756Y-11351056D02*
X9712756Y-11280344D01*
X9642044Y-11280344D01*
X9642044Y-11351056D01*
X9712756Y-11351056D01*
X9712756Y-11605056D02*
X9712756Y-11534344D01*
X9642044Y-11534344D01*
X9642044Y-11605056D01*
X9712756Y-11605056D01*
X9712756Y-11859056D02*
X9712756Y-11788344D01*
X9642044Y-11788344D01*
X9642044Y-11859056D01*
X9712756Y-11859056D01*
X9712756Y-12113056D02*
X9712756Y-12042344D01*
X9642044Y-12042344D01*
X9642044Y-12113056D01*
X9712756Y-12113056D01*
X9712756Y-12367056D02*
X9712756Y-12296344D01*
X9642044Y-12296344D01*
X9642044Y-12367056D01*
X9712756Y-12367056D01*
X9717156Y-8324356D02*
X9717156Y-8253644D01*
X9646444Y-8253644D01*
X9646444Y-8324356D01*
X9717156Y-8324356D01*
X9717156Y-8578356D02*
X9717156Y-8507644D01*
X9646444Y-8507644D01*
X9646444Y-8578356D01*
X9717156Y-8578356D01*
X9717156Y-8832356D02*
X9717156Y-8761644D01*
X9646444Y-8761644D01*
X9646444Y-8832356D01*
X9717156Y-8832356D01*
X9717156Y-9086356D02*
X9717156Y-9015644D01*
X9646444Y-9015644D01*
X9646444Y-9086356D01*
X9717156Y-9086356D01*
X9717156Y-9340356D02*
X9717156Y-9269644D01*
X9646444Y-9269644D01*
X9646444Y-9340356D01*
X9717156Y-9340356D01*
X9717156Y-9594356D02*
X9717156Y-9523644D01*
X9646444Y-9523644D01*
X9646444Y-9594356D01*
X9717156Y-9594356D01*
X10150138Y-4208073D02*
X10150138Y-4137362D01*
X10079427Y-4137362D01*
X10079427Y-4208073D01*
X10150138Y-4208073D01*
X10150138Y-4462073D02*
X10150138Y-4391362D01*
X10079427Y-4391362D01*
X10079427Y-4462073D01*
X10150138Y-4462073D01*
X10150138Y-4716073D02*
X10150138Y-4645362D01*
X10079427Y-4645362D01*
X10079427Y-4716073D01*
X10150138Y-4716073D01*
X10162838Y-6303573D02*
X10162838Y-6232862D01*
X10092127Y-6232862D01*
X10092127Y-6303573D01*
X10162838Y-6303573D01*
X10162838Y-6557573D02*
X10162838Y-6486862D01*
X10092127Y-6486862D01*
X10092127Y-6557573D01*
X10162838Y-6557573D01*
X10162838Y-6811573D02*
X10162838Y-6740862D01*
X10092127Y-6740862D01*
X10092127Y-6811573D01*
X10162838Y-6811573D01*
X10196356Y-8785656D02*
X10196356Y-8714944D01*
X10125644Y-8714944D01*
X10125644Y-8785656D01*
X10196356Y-8785656D01*
X10196356Y-9039656D02*
X10196356Y-8968944D01*
X10125644Y-8968944D01*
X10125644Y-9039656D01*
X10196356Y-9039656D01*
X10196356Y-9293656D02*
X10196356Y-9222944D01*
X10125644Y-9222944D01*
X10125644Y-9293656D01*
X10196356Y-9293656D01*
X10196356Y-9547656D02*
X10196356Y-9476944D01*
X10125644Y-9476944D01*
X10125644Y-9547656D01*
X10196356Y-9547656D01*
X10196356Y-9801656D02*
X10196356Y-9730944D01*
X10125644Y-9730944D01*
X10125644Y-9801656D01*
X10196356Y-9801656D01*
X10196356Y-10055656D02*
X10196356Y-9984944D01*
X10125644Y-9984944D01*
X10125644Y-10055656D01*
X10196356Y-10055656D01*
X10196356Y-10309656D02*
X10196356Y-10238944D01*
X10125644Y-10238944D01*
X10125644Y-10309656D01*
X10196356Y-10309656D01*
X10196356Y-10563656D02*
X10196356Y-10492944D01*
X10125644Y-10492944D01*
X10125644Y-10563656D01*
X10196356Y-10563656D01*
X10196356Y-10817656D02*
X10196356Y-10746944D01*
X10125644Y-10746944D01*
X10125644Y-10817656D01*
X10196356Y-10817656D01*
X10196356Y-11071656D02*
X10196356Y-11000944D01*
X10125644Y-11000944D01*
X10125644Y-11071656D01*
X10196356Y-11071656D01*
X10196356Y-11325656D02*
X10196356Y-11254944D01*
X10125644Y-11254944D01*
X10125644Y-11325656D01*
X10196356Y-11325656D01*
X10196356Y-11579656D02*
X10196356Y-11508944D01*
X10125644Y-11508944D01*
X10125644Y-11579656D01*
X10196356Y-11579656D01*
X10196356Y-11833656D02*
X10196356Y-11762944D01*
X10125644Y-11762944D01*
X10125644Y-11833656D01*
X10196356Y-11833656D01*
X10196356Y-12087656D02*
X10196356Y-12016944D01*
X10125644Y-12016944D01*
X10125644Y-12087656D01*
X10196356Y-12087656D01*
X10196356Y-12341656D02*
X10196356Y-12270944D01*
X10125644Y-12270944D01*
X10125644Y-12341656D01*
X10196356Y-12341656D01*
X10387356Y-7731556D02*
X10387356Y-7660844D01*
X10316644Y-7660844D01*
X10316644Y-7731556D01*
X10387356Y-7731556D01*
X10641356Y-7731556D02*
X10641356Y-7660844D01*
X10570644Y-7660844D01*
X10570644Y-7731556D01*
X10641356Y-7731556D01*
X10895356Y-7731556D02*
X10895356Y-7660844D01*
X10824644Y-7660844D01*
X10824644Y-7731556D01*
X10895356Y-7731556D01*
X11149356Y-7731556D02*
X11149356Y-7660844D01*
X11078644Y-7660844D01*
X11078644Y-7731556D01*
X11149356Y-7731556D01*
X11403356Y-7731556D02*
X11403356Y-7660844D01*
X11332644Y-7660844D01*
X11332644Y-7731556D01*
X11403356Y-7731556D01*
X11657356Y-7731556D02*
X11657356Y-7660844D01*
X11586644Y-7660844D01*
X11586644Y-7731556D01*
X11657356Y-7731556D01*
X11720356Y-8785656D02*
X11720356Y-8714944D01*
X11649644Y-8714944D01*
X11649644Y-8785656D01*
X11720356Y-8785656D01*
X11720356Y-9039656D02*
X11720356Y-8968944D01*
X11649644Y-8968944D01*
X11649644Y-9039656D01*
X11720356Y-9039656D01*
X11720356Y-9293656D02*
X11720356Y-9222944D01*
X11649644Y-9222944D01*
X11649644Y-9293656D01*
X11720356Y-9293656D01*
X11720356Y-9547656D02*
X11720356Y-9476944D01*
X11649644Y-9476944D01*
X11649644Y-9547656D01*
X11720356Y-9547656D01*
X11720356Y-9801656D02*
X11720356Y-9730944D01*
X11649644Y-9730944D01*
X11649644Y-9801656D01*
X11720356Y-9801656D01*
X11720356Y-10055656D02*
X11720356Y-9984944D01*
X11649644Y-9984944D01*
X11649644Y-10055656D01*
X11720356Y-10055656D01*
X11720356Y-10309656D02*
X11720356Y-10238944D01*
X11649644Y-10238944D01*
X11649644Y-10309656D01*
X11720356Y-10309656D01*
X11720356Y-10563656D02*
X11720356Y-10492944D01*
X11649644Y-10492944D01*
X11649644Y-10563656D01*
X11720356Y-10563656D01*
X11720356Y-10817656D02*
X11720356Y-10746944D01*
X11649644Y-10746944D01*
X11649644Y-10817656D01*
X11720356Y-10817656D01*
X11720356Y-11071656D02*
X11720356Y-11000944D01*
X11649644Y-11000944D01*
X11649644Y-11071656D01*
X11720356Y-11071656D01*
X11720356Y-11325656D02*
X11720356Y-11254944D01*
X11649644Y-11254944D01*
X11649644Y-11325656D01*
X11720356Y-11325656D01*
X11720356Y-11579656D02*
X11720356Y-11508944D01*
X11649644Y-11508944D01*
X11649644Y-11579656D01*
X11720356Y-11579656D01*
X11720356Y-11833656D02*
X11720356Y-11762944D01*
X11649644Y-11762944D01*
X11649644Y-11833656D01*
X11720356Y-11833656D01*
X11720356Y-12087656D02*
X11720356Y-12016944D01*
X11649644Y-12016944D01*
X11649644Y-12087656D01*
X11720356Y-12087656D01*
X11720356Y-12341656D02*
X11720356Y-12270944D01*
X11649644Y-12270944D01*
X11649644Y-12341656D01*
X11720356Y-12341656D01*
X11911356Y-7731556D02*
X11911356Y-7660844D01*
X11840644Y-7660844D01*
X11840644Y-7731556D01*
X11911356Y-7731556D01*
X12165356Y-7731556D02*
X12165356Y-7660844D01*
X12094644Y-7660844D01*
X12094644Y-7731556D01*
X12165356Y-7731556D01*
X12753638Y-3444573D02*
X12753638Y-3373862D01*
X12682927Y-3373862D01*
X12682927Y-3444573D01*
X12753638Y-3444573D01*
X12753638Y-3698573D02*
X12753638Y-3627862D01*
X12682927Y-3627862D01*
X12682927Y-3698573D01*
X12753638Y-3698573D01*
X12753638Y-3952573D02*
X12753638Y-3881862D01*
X12682927Y-3881862D01*
X12682927Y-3952573D01*
X12753638Y-3952573D01*
X12766338Y-5540073D02*
X12766338Y-5469362D01*
X12695627Y-5469362D01*
X12695627Y-5540073D01*
X12766338Y-5540073D01*
X12766338Y-5794073D02*
X12766338Y-5723362D01*
X12695627Y-5723362D01*
X12695627Y-5794073D01*
X12766338Y-5794073D01*
X12766338Y-6048073D02*
X12766338Y-5977362D01*
X12695627Y-5977362D01*
X12695627Y-6048073D01*
X12766338Y-6048073D01*
X12824256Y-8633756D02*
X12824256Y-8563044D01*
X12753544Y-8563044D01*
X12753544Y-8633756D01*
X12824256Y-8633756D01*
X12824256Y-8887756D02*
X12824256Y-8817044D01*
X12753544Y-8817044D01*
X12753544Y-8887756D01*
X12824256Y-8887756D01*
X12824256Y-9141756D02*
X12824256Y-9071044D01*
X12753544Y-9071044D01*
X12753544Y-9141756D01*
X12824256Y-9141756D01*
X12824256Y-9395756D02*
X12824256Y-9325044D01*
X12753544Y-9325044D01*
X12753544Y-9395756D01*
X12824256Y-9395756D01*
X12824256Y-9649756D02*
X12824256Y-9579044D01*
X12753544Y-9579044D01*
X12753544Y-9649756D01*
X12824256Y-9649756D01*
X12824256Y-9903756D02*
X12824256Y-9833044D01*
X12753544Y-9833044D01*
X12753544Y-9903756D01*
X12824256Y-9903756D01*
X12824256Y-10157756D02*
X12824256Y-10087044D01*
X12753544Y-10087044D01*
X12753544Y-10157756D01*
X12824256Y-10157756D01*
X12824256Y-10411756D02*
X12824256Y-10341044D01*
X12753544Y-10341044D01*
X12753544Y-10411756D01*
X12824256Y-10411756D01*
X12824256Y-10665756D02*
X12824256Y-10595044D01*
X12753544Y-10595044D01*
X12753544Y-10665756D01*
X12824256Y-10665756D01*
X12824256Y-10919756D02*
X12824256Y-10849044D01*
X12753544Y-10849044D01*
X12753544Y-10919756D01*
X12824256Y-10919756D01*
D15*
X3340100Y-3604800D02*
X3465100Y-3479800D01*
X3340100Y-3354800D01*
X3215100Y-3479800D01*
X3340100Y-3604800D01*
X3345682Y-12781317D02*
X3470682Y-12656317D01*
X3345682Y-12531317D01*
X3220682Y-12656317D01*
X3345682Y-12781317D01*
X3352800Y-5700300D02*
X3477800Y-5575300D01*
X3352800Y-5450300D01*
X3227800Y-5575300D01*
X3352800Y-5700300D01*
X3352800Y-8049800D02*
X3477800Y-7924800D01*
X3352800Y-7799800D01*
X3227800Y-7924800D01*
X3352800Y-8049800D01*
X5785617Y-4740683D02*
X5910617Y-4615683D01*
X5785617Y-4490683D01*
X5660617Y-4615683D01*
X5785617Y-4740683D01*
X5798317Y-6836182D02*
X5923317Y-6711182D01*
X5798317Y-6586182D01*
X5673317Y-6711182D01*
X5798317Y-6836182D01*
X6744450Y-3611917D02*
X6869450Y-3486917D01*
X6744450Y-3361917D01*
X6619450Y-3486917D01*
X6744450Y-3611917D01*
X6757150Y-5707417D02*
X6882150Y-5582418D01*
X6757150Y-5457418D01*
X6632150Y-5582418D01*
X6757150Y-5707417D01*
X9189968Y-4747800D02*
X9314968Y-4622800D01*
X9189968Y-4497800D01*
X9064968Y-4622800D01*
X9189968Y-4747800D01*
X9202668Y-6843300D02*
X9327668Y-6718300D01*
X9202668Y-6593300D01*
X9077668Y-6718300D01*
X9202668Y-6843300D01*
X10203683Y-3611917D02*
X10328683Y-3486917D01*
X10203683Y-3361917D01*
X10078683Y-3486917D01*
X10203683Y-3611917D01*
X10216383Y-5707417D02*
X10341383Y-5582418D01*
X10216383Y-5457418D01*
X10091383Y-5582418D01*
X10216383Y-5707417D01*
X12649200Y-4747800D02*
X12774200Y-4622800D01*
X12649200Y-4497800D01*
X12524200Y-4622800D01*
X12649200Y-4747800D01*
X12649200Y-8049800D02*
X12774200Y-7924800D01*
X12649200Y-7799800D01*
X12524200Y-7924800D01*
X12649200Y-8049800D01*
X12649200Y-12761500D02*
X12774200Y-12636500D01*
X12649200Y-12511500D01*
X12524200Y-12636500D01*
X12649200Y-12761500D01*
X12661900Y-6843300D02*
X12786900Y-6718300D01*
X12661900Y-6593300D01*
X12536900Y-6718300D01*
X12661900Y-6843300D01*
D11*
X3252619Y-13315476D02*
X3252619Y-13115476D01*
X3300238Y-13115476D01*
X3328809Y-13125000D01*
X3347857Y-13144048D01*
X3357381Y-13163095D01*
X3366905Y-13201190D01*
X3366905Y-13229762D01*
X3357381Y-13267857D01*
X3347857Y-13286905D01*
X3328809Y-13305952D01*
X3300238Y-13315476D01*
X3252619Y-13315476D01*
X3452619Y-13315476D02*
X3452619Y-13182143D01*
X3452619Y-13220238D02*
X3462143Y-13201190D01*
X3471667Y-13191667D01*
X3490714Y-13182143D01*
X3509762Y-13182143D01*
X3576428Y-13315476D02*
X3576428Y-13182143D01*
X3576428Y-13115476D02*
X3566905Y-13125000D01*
X3576428Y-13134524D01*
X3585952Y-13125000D01*
X3576428Y-13115476D01*
X3576428Y-13134524D01*
X3700238Y-13315476D02*
X3681190Y-13305952D01*
X3671667Y-13286905D01*
X3671667Y-13115476D01*
X3805000Y-13315476D02*
X3785952Y-13305952D01*
X3776428Y-13286905D01*
X3776428Y-13115476D01*
X4033571Y-13315476D02*
X4033571Y-13115476D01*
X4100238Y-13258333D01*
X4166905Y-13115476D01*
X4166905Y-13315476D01*
X4347857Y-13315476D02*
X4347857Y-13210714D01*
X4338333Y-13191667D01*
X4319286Y-13182143D01*
X4281190Y-13182143D01*
X4262143Y-13191667D01*
X4347857Y-13305952D02*
X4328810Y-13315476D01*
X4281190Y-13315476D01*
X4262143Y-13305952D01*
X4252619Y-13286905D01*
X4252619Y-13267857D01*
X4262143Y-13248809D01*
X4281190Y-13239286D01*
X4328810Y-13239286D01*
X4347857Y-13229762D01*
X4443095Y-13182143D02*
X4443095Y-13382143D01*
X4443095Y-13191667D02*
X4462143Y-13182143D01*
X4500238Y-13182143D01*
X4519286Y-13191667D01*
X4528810Y-13201190D01*
X4538333Y-13220238D01*
X4538333Y-13277381D01*
X4528810Y-13296428D01*
X4519286Y-13305952D01*
X4500238Y-13315476D01*
X4462143Y-13315476D01*
X4443095Y-13305952D01*
X4624048Y-13296428D02*
X4633571Y-13305952D01*
X4624048Y-13315476D01*
X4614524Y-13305952D01*
X4624048Y-13296428D01*
X4624048Y-13315476D01*
X4624048Y-13191667D02*
X4633571Y-13201190D01*
X4624048Y-13210714D01*
X4614524Y-13201190D01*
X4624048Y-13191667D01*
X4624048Y-13210714D01*
D12*
X2955000Y-13625000D02*
X2995000Y-13665000D01*
X2995000Y-13625000D02*
X2955000Y-13665000D01*
D11*
X3290714Y-13535476D02*
X3309762Y-13535476D01*
X3328809Y-13545000D01*
X3338333Y-13554524D01*
X3347857Y-13573571D01*
X3357381Y-13611667D01*
X3357381Y-13659286D01*
X3347857Y-13697381D01*
X3338333Y-13716428D01*
X3328809Y-13725952D01*
X3309762Y-13735476D01*
X3290714Y-13735476D01*
X3271667Y-13725952D01*
X3262143Y-13716428D01*
X3252619Y-13697381D01*
X3243095Y-13659286D01*
X3243095Y-13611667D01*
X3252619Y-13573571D01*
X3262143Y-13554524D01*
X3271667Y-13545000D01*
X3290714Y-13535476D01*
X3443095Y-13716428D02*
X3452619Y-13725952D01*
X3443095Y-13735476D01*
X3433571Y-13725952D01*
X3443095Y-13716428D01*
X3443095Y-13735476D01*
X3624048Y-13602143D02*
X3624048Y-13735476D01*
X3576428Y-13525952D02*
X3528809Y-13668809D01*
X3652619Y-13668809D01*
X3766905Y-13535476D02*
X3785952Y-13535476D01*
X3805000Y-13545000D01*
X3814524Y-13554524D01*
X3824048Y-13573571D01*
X3833571Y-13611667D01*
X3833571Y-13659286D01*
X3824048Y-13697381D01*
X3814524Y-13716428D01*
X3805000Y-13725952D01*
X3785952Y-13735476D01*
X3766905Y-13735476D01*
X3747857Y-13725952D01*
X3738333Y-13716428D01*
X3728809Y-13697381D01*
X3719286Y-13659286D01*
X3719286Y-13611667D01*
X3728809Y-13573571D01*
X3738333Y-13554524D01*
X3747857Y-13545000D01*
X3766905Y-13535476D01*
X3957381Y-13535476D02*
X3976428Y-13535476D01*
X3995476Y-13545000D01*
X4005000Y-13554524D01*
X4014524Y-13573571D01*
X4024048Y-13611667D01*
X4024048Y-13659286D01*
X4014524Y-13697381D01*
X4005000Y-13716428D01*
X3995476Y-13725952D01*
X3976428Y-13735476D01*
X3957381Y-13735476D01*
X3938333Y-13725952D01*
X3928809Y-13716428D01*
X3919286Y-13697381D01*
X3909762Y-13659286D01*
X3909762Y-13611667D01*
X3919286Y-13573571D01*
X3928809Y-13554524D01*
X3938333Y-13545000D01*
X3957381Y-13535476D01*
X4109762Y-13735476D02*
X4109762Y-13602143D01*
X4109762Y-13621190D02*
X4119286Y-13611667D01*
X4138333Y-13602143D01*
X4166905Y-13602143D01*
X4185952Y-13611667D01*
X4195476Y-13630714D01*
X4195476Y-13735476D01*
X4195476Y-13630714D02*
X4205000Y-13611667D01*
X4224048Y-13602143D01*
X4252619Y-13602143D01*
X4271667Y-13611667D01*
X4281190Y-13630714D01*
X4281190Y-13735476D01*
X4376429Y-13735476D02*
X4376429Y-13602143D01*
X4376429Y-13621190D02*
X4385952Y-13611667D01*
X4405000Y-13602143D01*
X4433571Y-13602143D01*
X4452619Y-13611667D01*
X4462143Y-13630714D01*
X4462143Y-13735476D01*
X4462143Y-13630714D02*
X4471667Y-13611667D01*
X4490714Y-13602143D01*
X4519286Y-13602143D01*
X4538333Y-13611667D01*
X4547857Y-13630714D01*
X4547857Y-13735476D01*
X4938333Y-13525952D02*
X4766905Y-13783095D01*
X5195476Y-13535476D02*
X5214524Y-13535476D01*
X5233571Y-13545000D01*
X5243095Y-13554524D01*
X5252619Y-13573571D01*
X5262143Y-13611667D01*
X5262143Y-13659286D01*
X5252619Y-13697381D01*
X5243095Y-13716428D01*
X5233571Y-13725952D01*
X5214524Y-13735476D01*
X5195476Y-13735476D01*
X5176429Y-13725952D01*
X5166905Y-13716428D01*
X5157381Y-13697381D01*
X5147857Y-13659286D01*
X5147857Y-13611667D01*
X5157381Y-13573571D01*
X5166905Y-13554524D01*
X5176429Y-13545000D01*
X5195476Y-13535476D01*
X5347857Y-13716428D02*
X5357381Y-13725952D01*
X5347857Y-13735476D01*
X5338333Y-13725952D01*
X5347857Y-13716428D01*
X5347857Y-13735476D01*
X5481190Y-13535476D02*
X5500238Y-13535476D01*
X5519286Y-13545000D01*
X5528810Y-13554524D01*
X5538333Y-13573571D01*
X5547857Y-13611667D01*
X5547857Y-13659286D01*
X5538333Y-13697381D01*
X5528810Y-13716428D01*
X5519286Y-13725952D01*
X5500238Y-13735476D01*
X5481190Y-13735476D01*
X5462143Y-13725952D01*
X5452619Y-13716428D01*
X5443095Y-13697381D01*
X5433571Y-13659286D01*
X5433571Y-13611667D01*
X5443095Y-13573571D01*
X5452619Y-13554524D01*
X5462143Y-13545000D01*
X5481190Y-13535476D01*
X5738333Y-13735476D02*
X5624048Y-13735476D01*
X5681190Y-13735476D02*
X5681190Y-13535476D01*
X5662143Y-13564048D01*
X5643095Y-13583095D01*
X5624048Y-13592619D01*
X5919286Y-13535476D02*
X5824048Y-13535476D01*
X5814524Y-13630714D01*
X5824048Y-13621190D01*
X5843095Y-13611667D01*
X5890714Y-13611667D01*
X5909762Y-13621190D01*
X5919286Y-13630714D01*
X5928809Y-13649762D01*
X5928809Y-13697381D01*
X5919286Y-13716428D01*
X5909762Y-13725952D01*
X5890714Y-13735476D01*
X5843095Y-13735476D01*
X5824048Y-13725952D01*
X5814524Y-13716428D01*
X5995476Y-13535476D02*
X6128809Y-13535476D01*
X6043095Y-13735476D01*
X6195476Y-13535476D02*
X6195476Y-13573571D01*
X6271667Y-13535476D02*
X6271667Y-13573571D01*
X6566905Y-13811667D02*
X6557381Y-13802143D01*
X6538333Y-13773571D01*
X6528809Y-13754524D01*
X6519286Y-13725952D01*
X6509762Y-13678333D01*
X6509762Y-13640238D01*
X6519286Y-13592619D01*
X6528809Y-13564048D01*
X6538333Y-13545000D01*
X6557381Y-13516428D01*
X6566905Y-13506905D01*
X6747857Y-13735476D02*
X6633571Y-13735476D01*
X6690714Y-13735476D02*
X6690714Y-13535476D01*
X6671667Y-13564048D01*
X6652619Y-13583095D01*
X6633571Y-13592619D01*
X6814524Y-13535476D02*
X6938333Y-13535476D01*
X6871667Y-13611667D01*
X6900238Y-13611667D01*
X6919286Y-13621190D01*
X6928809Y-13630714D01*
X6938333Y-13649762D01*
X6938333Y-13697381D01*
X6928809Y-13716428D01*
X6919286Y-13725952D01*
X6900238Y-13735476D01*
X6843095Y-13735476D01*
X6824048Y-13725952D01*
X6814524Y-13716428D01*
X7062143Y-13535476D02*
X7081190Y-13535476D01*
X7100238Y-13545000D01*
X7109762Y-13554524D01*
X7119286Y-13573571D01*
X7128809Y-13611667D01*
X7128809Y-13659286D01*
X7119286Y-13697381D01*
X7109762Y-13716428D01*
X7100238Y-13725952D01*
X7081190Y-13735476D01*
X7062143Y-13735476D01*
X7043095Y-13725952D01*
X7033571Y-13716428D01*
X7024048Y-13697381D01*
X7014524Y-13659286D01*
X7014524Y-13611667D01*
X7024048Y-13573571D01*
X7033571Y-13554524D01*
X7043095Y-13545000D01*
X7062143Y-13535476D01*
X7366905Y-13735476D02*
X7366905Y-13535476D01*
X7452619Y-13735476D02*
X7452619Y-13630714D01*
X7443095Y-13611667D01*
X7424048Y-13602143D01*
X7395476Y-13602143D01*
X7376428Y-13611667D01*
X7366905Y-13621190D01*
X7576428Y-13735476D02*
X7557381Y-13725952D01*
X7547857Y-13716428D01*
X7538333Y-13697381D01*
X7538333Y-13640238D01*
X7547857Y-13621190D01*
X7557381Y-13611667D01*
X7576428Y-13602143D01*
X7605000Y-13602143D01*
X7624048Y-13611667D01*
X7633571Y-13621190D01*
X7643095Y-13640238D01*
X7643095Y-13697381D01*
X7633571Y-13716428D01*
X7624048Y-13725952D01*
X7605000Y-13735476D01*
X7576428Y-13735476D01*
X7757381Y-13735476D02*
X7738333Y-13725952D01*
X7728809Y-13706905D01*
X7728809Y-13535476D01*
X7909762Y-13725952D02*
X7890714Y-13735476D01*
X7852619Y-13735476D01*
X7833571Y-13725952D01*
X7824048Y-13706905D01*
X7824048Y-13630714D01*
X7833571Y-13611667D01*
X7852619Y-13602143D01*
X7890714Y-13602143D01*
X7909762Y-13611667D01*
X7919286Y-13630714D01*
X7919286Y-13649762D01*
X7824048Y-13668809D01*
X7995476Y-13725952D02*
X8014524Y-13735476D01*
X8052619Y-13735476D01*
X8071667Y-13725952D01*
X8081190Y-13706905D01*
X8081190Y-13697381D01*
X8071667Y-13678333D01*
X8052619Y-13668809D01*
X8024048Y-13668809D01*
X8005000Y-13659286D01*
X7995476Y-13640238D01*
X7995476Y-13630714D01*
X8005000Y-13611667D01*
X8024048Y-13602143D01*
X8052619Y-13602143D01*
X8071667Y-13611667D01*
X8147857Y-13811667D02*
X8157381Y-13802143D01*
X8176428Y-13773571D01*
X8185952Y-13754524D01*
X8195476Y-13725952D01*
X8205000Y-13678333D01*
X8205000Y-13640238D01*
X8195476Y-13592619D01*
X8185952Y-13564048D01*
X8176428Y-13545000D01*
X8157381Y-13516428D01*
X8147857Y-13506905D01*
D13*
X2995000Y-13909000D02*
G75*
G03*
X2995000Y-13909000I-25000J0D01*
G01*
D11*
X3290714Y-13799476D02*
X3309762Y-13799476D01*
X3328809Y-13809000D01*
X3338333Y-13818524D01*
X3347857Y-13837571D01*
X3357381Y-13875667D01*
X3357381Y-13923286D01*
X3347857Y-13961381D01*
X3338333Y-13980428D01*
X3328809Y-13989952D01*
X3309762Y-13999476D01*
X3290714Y-13999476D01*
X3271667Y-13989952D01*
X3262143Y-13980428D01*
X3252619Y-13961381D01*
X3243095Y-13923286D01*
X3243095Y-13875667D01*
X3252619Y-13837571D01*
X3262143Y-13818524D01*
X3271667Y-13809000D01*
X3290714Y-13799476D01*
X3443095Y-13980428D02*
X3452619Y-13989952D01*
X3443095Y-13999476D01*
X3433571Y-13989952D01*
X3443095Y-13980428D01*
X3443095Y-13999476D01*
X3633571Y-13799476D02*
X3538333Y-13799476D01*
X3528809Y-13894714D01*
X3538333Y-13885190D01*
X3557381Y-13875667D01*
X3605000Y-13875667D01*
X3624048Y-13885190D01*
X3633571Y-13894714D01*
X3643095Y-13913762D01*
X3643095Y-13961381D01*
X3633571Y-13980428D01*
X3624048Y-13989952D01*
X3605000Y-13999476D01*
X3557381Y-13999476D01*
X3538333Y-13989952D01*
X3528809Y-13980428D01*
X3766905Y-13799476D02*
X3785952Y-13799476D01*
X3805000Y-13809000D01*
X3814524Y-13818524D01*
X3824048Y-13837571D01*
X3833571Y-13875667D01*
X3833571Y-13923286D01*
X3824048Y-13961381D01*
X3814524Y-13980428D01*
X3805000Y-13989952D01*
X3785952Y-13999476D01*
X3766905Y-13999476D01*
X3747857Y-13989952D01*
X3738333Y-13980428D01*
X3728809Y-13961381D01*
X3719286Y-13923286D01*
X3719286Y-13875667D01*
X3728809Y-13837571D01*
X3738333Y-13818524D01*
X3747857Y-13809000D01*
X3766905Y-13799476D01*
X3957381Y-13799476D02*
X3976428Y-13799476D01*
X3995476Y-13809000D01*
X4005000Y-13818524D01*
X4014524Y-13837571D01*
X4024048Y-13875667D01*
X4024048Y-13923286D01*
X4014524Y-13961381D01*
X4005000Y-13980428D01*
X3995476Y-13989952D01*
X3976428Y-13999476D01*
X3957381Y-13999476D01*
X3938333Y-13989952D01*
X3928809Y-13980428D01*
X3919286Y-13961381D01*
X3909762Y-13923286D01*
X3909762Y-13875667D01*
X3919286Y-13837571D01*
X3928809Y-13818524D01*
X3938333Y-13809000D01*
X3957381Y-13799476D01*
X4109762Y-13999476D02*
X4109762Y-13866143D01*
X4109762Y-13885190D02*
X4119286Y-13875667D01*
X4138333Y-13866143D01*
X4166905Y-13866143D01*
X4185952Y-13875667D01*
X4195476Y-13894714D01*
X4195476Y-13999476D01*
X4195476Y-13894714D02*
X4205000Y-13875667D01*
X4224048Y-13866143D01*
X4252619Y-13866143D01*
X4271667Y-13875667D01*
X4281190Y-13894714D01*
X4281190Y-13999476D01*
X4376429Y-13999476D02*
X4376429Y-13866143D01*
X4376429Y-13885190D02*
X4385952Y-13875667D01*
X4405000Y-13866143D01*
X4433571Y-13866143D01*
X4452619Y-13875667D01*
X4462143Y-13894714D01*
X4462143Y-13999476D01*
X4462143Y-13894714D02*
X4471667Y-13875667D01*
X4490714Y-13866143D01*
X4519286Y-13866143D01*
X4538333Y-13875667D01*
X4547857Y-13894714D01*
X4547857Y-13999476D01*
X4938333Y-13789952D02*
X4766905Y-14047095D01*
X5195476Y-13799476D02*
X5214524Y-13799476D01*
X5233571Y-13809000D01*
X5243095Y-13818524D01*
X5252619Y-13837571D01*
X5262143Y-13875667D01*
X5262143Y-13923286D01*
X5252619Y-13961381D01*
X5243095Y-13980428D01*
X5233571Y-13989952D01*
X5214524Y-13999476D01*
X5195476Y-13999476D01*
X5176429Y-13989952D01*
X5166905Y-13980428D01*
X5157381Y-13961381D01*
X5147857Y-13923286D01*
X5147857Y-13875667D01*
X5157381Y-13837571D01*
X5166905Y-13818524D01*
X5176429Y-13809000D01*
X5195476Y-13799476D01*
X5347857Y-13980428D02*
X5357381Y-13989952D01*
X5347857Y-13999476D01*
X5338333Y-13989952D01*
X5347857Y-13980428D01*
X5347857Y-13999476D01*
X5481190Y-13799476D02*
X5500238Y-13799476D01*
X5519286Y-13809000D01*
X5528810Y-13818524D01*
X5538333Y-13837571D01*
X5547857Y-13875667D01*
X5547857Y-13923286D01*
X5538333Y-13961381D01*
X5528810Y-13980428D01*
X5519286Y-13989952D01*
X5500238Y-13999476D01*
X5481190Y-13999476D01*
X5462143Y-13989952D01*
X5452619Y-13980428D01*
X5443095Y-13961381D01*
X5433571Y-13923286D01*
X5433571Y-13875667D01*
X5443095Y-13837571D01*
X5452619Y-13818524D01*
X5462143Y-13809000D01*
X5481190Y-13799476D01*
X5738333Y-13999476D02*
X5624048Y-13999476D01*
X5681190Y-13999476D02*
X5681190Y-13799476D01*
X5662143Y-13828048D01*
X5643095Y-13847095D01*
X5624048Y-13856619D01*
X5833571Y-13999476D02*
X5871667Y-13999476D01*
X5890714Y-13989952D01*
X5900238Y-13980428D01*
X5919286Y-13951857D01*
X5928809Y-13913762D01*
X5928809Y-13837571D01*
X5919286Y-13818524D01*
X5909762Y-13809000D01*
X5890714Y-13799476D01*
X5852619Y-13799476D01*
X5833571Y-13809000D01*
X5824048Y-13818524D01*
X5814524Y-13837571D01*
X5814524Y-13885190D01*
X5824048Y-13904238D01*
X5833571Y-13913762D01*
X5852619Y-13923286D01*
X5890714Y-13923286D01*
X5909762Y-13913762D01*
X5919286Y-13904238D01*
X5928809Y-13885190D01*
X5995476Y-13799476D02*
X6128809Y-13799476D01*
X6043095Y-13999476D01*
X6195476Y-13799476D02*
X6195476Y-13837571D01*
X6271667Y-13799476D02*
X6271667Y-13837571D01*
X6566905Y-14075667D02*
X6557381Y-14066143D01*
X6538333Y-14037571D01*
X6528809Y-14018524D01*
X6519286Y-13989952D01*
X6509762Y-13942333D01*
X6509762Y-13904238D01*
X6519286Y-13856619D01*
X6528809Y-13828048D01*
X6538333Y-13809000D01*
X6557381Y-13780428D01*
X6566905Y-13770905D01*
X6747857Y-13999476D02*
X6633571Y-13999476D01*
X6690714Y-13999476D02*
X6690714Y-13799476D01*
X6671667Y-13828048D01*
X6652619Y-13847095D01*
X6633571Y-13856619D01*
X6824048Y-13818524D02*
X6833571Y-13809000D01*
X6852619Y-13799476D01*
X6900238Y-13799476D01*
X6919286Y-13809000D01*
X6928809Y-13818524D01*
X6938333Y-13837571D01*
X6938333Y-13856619D01*
X6928809Y-13885190D01*
X6814524Y-13999476D01*
X6938333Y-13999476D01*
X7052619Y-13885190D02*
X7033571Y-13875667D01*
X7024048Y-13866143D01*
X7014524Y-13847095D01*
X7014524Y-13837571D01*
X7024048Y-13818524D01*
X7033571Y-13809000D01*
X7052619Y-13799476D01*
X7090714Y-13799476D01*
X7109762Y-13809000D01*
X7119286Y-13818524D01*
X7128809Y-13837571D01*
X7128809Y-13847095D01*
X7119286Y-13866143D01*
X7109762Y-13875667D01*
X7090714Y-13885190D01*
X7052619Y-13885190D01*
X7033571Y-13894714D01*
X7024048Y-13904238D01*
X7014524Y-13923286D01*
X7014524Y-13961381D01*
X7024048Y-13980428D01*
X7033571Y-13989952D01*
X7052619Y-13999476D01*
X7090714Y-13999476D01*
X7109762Y-13989952D01*
X7119286Y-13980428D01*
X7128809Y-13961381D01*
X7128809Y-13923286D01*
X7119286Y-13904238D01*
X7109762Y-13894714D01*
X7090714Y-13885190D01*
X7366905Y-13999476D02*
X7366905Y-13799476D01*
X7452619Y-13999476D02*
X7452619Y-13894714D01*
X7443095Y-13875667D01*
X7424048Y-13866143D01*
X7395476Y-13866143D01*
X7376428Y-13875667D01*
X7366905Y-13885190D01*
X7576428Y-13999476D02*
X7557381Y-13989952D01*
X7547857Y-13980428D01*
X7538333Y-13961381D01*
X7538333Y-13904238D01*
X7547857Y-13885190D01*
X7557381Y-13875667D01*
X7576428Y-13866143D01*
X7605000Y-13866143D01*
X7624048Y-13875667D01*
X7633571Y-13885190D01*
X7643095Y-13904238D01*
X7643095Y-13961381D01*
X7633571Y-13980428D01*
X7624048Y-13989952D01*
X7605000Y-13999476D01*
X7576428Y-13999476D01*
X7757381Y-13999476D02*
X7738333Y-13989952D01*
X7728809Y-13970905D01*
X7728809Y-13799476D01*
X7909762Y-13989952D02*
X7890714Y-13999476D01*
X7852619Y-13999476D01*
X7833571Y-13989952D01*
X7824048Y-13970905D01*
X7824048Y-13894714D01*
X7833571Y-13875667D01*
X7852619Y-13866143D01*
X7890714Y-13866143D01*
X7909762Y-13875667D01*
X7919286Y-13894714D01*
X7919286Y-13913762D01*
X7824048Y-13932809D01*
X7995476Y-13989952D02*
X8014524Y-13999476D01*
X8052619Y-13999476D01*
X8071667Y-13989952D01*
X8081190Y-13970905D01*
X8081190Y-13961381D01*
X8071667Y-13942333D01*
X8052619Y-13932809D01*
X8024048Y-13932809D01*
X8005000Y-13923286D01*
X7995476Y-13904238D01*
X7995476Y-13894714D01*
X8005000Y-13875667D01*
X8024048Y-13866143D01*
X8052619Y-13866143D01*
X8071667Y-13875667D01*
X8147857Y-14075667D02*
X8157381Y-14066143D01*
X8176428Y-14037571D01*
X8185952Y-14018524D01*
X8195476Y-13989952D01*
X8205000Y-13942333D01*
X8205000Y-13904238D01*
X8195476Y-13856619D01*
X8185952Y-13828048D01*
X8176428Y-13809000D01*
X8157381Y-13780428D01*
X8147857Y-13770905D01*
D14*
X2955000Y-14133000D02*
X2955000Y-14213000D01*
X2915000Y-14173000D02*
X2995000Y-14173000D01*
D11*
X3290714Y-14063476D02*
X3309762Y-14063476D01*
X3328809Y-14073000D01*
X3338333Y-14082524D01*
X3347857Y-14101571D01*
X3357381Y-14139667D01*
X3357381Y-14187286D01*
X3347857Y-14225381D01*
X3338333Y-14244428D01*
X3328809Y-14253952D01*
X3309762Y-14263476D01*
X3290714Y-14263476D01*
X3271667Y-14253952D01*
X3262143Y-14244428D01*
X3252619Y-14225381D01*
X3243095Y-14187286D01*
X3243095Y-14139667D01*
X3252619Y-14101571D01*
X3262143Y-14082524D01*
X3271667Y-14073000D01*
X3290714Y-14063476D01*
X3443095Y-14244428D02*
X3452619Y-14253952D01*
X3443095Y-14263476D01*
X3433571Y-14253952D01*
X3443095Y-14244428D01*
X3443095Y-14263476D01*
X3566905Y-14149190D02*
X3547857Y-14139667D01*
X3538333Y-14130143D01*
X3528809Y-14111095D01*
X3528809Y-14101571D01*
X3538333Y-14082524D01*
X3547857Y-14073000D01*
X3566905Y-14063476D01*
X3605000Y-14063476D01*
X3624048Y-14073000D01*
X3633571Y-14082524D01*
X3643095Y-14101571D01*
X3643095Y-14111095D01*
X3633571Y-14130143D01*
X3624048Y-14139667D01*
X3605000Y-14149190D01*
X3566905Y-14149190D01*
X3547857Y-14158714D01*
X3538333Y-14168238D01*
X3528809Y-14187286D01*
X3528809Y-14225381D01*
X3538333Y-14244428D01*
X3547857Y-14253952D01*
X3566905Y-14263476D01*
X3605000Y-14263476D01*
X3624048Y-14253952D01*
X3633571Y-14244428D01*
X3643095Y-14225381D01*
X3643095Y-14187286D01*
X3633571Y-14168238D01*
X3624048Y-14158714D01*
X3605000Y-14149190D01*
X3766905Y-14063476D02*
X3785952Y-14063476D01*
X3805000Y-14073000D01*
X3814524Y-14082524D01*
X3824048Y-14101571D01*
X3833571Y-14139667D01*
X3833571Y-14187286D01*
X3824048Y-14225381D01*
X3814524Y-14244428D01*
X3805000Y-14253952D01*
X3785952Y-14263476D01*
X3766905Y-14263476D01*
X3747857Y-14253952D01*
X3738333Y-14244428D01*
X3728809Y-14225381D01*
X3719286Y-14187286D01*
X3719286Y-14139667D01*
X3728809Y-14101571D01*
X3738333Y-14082524D01*
X3747857Y-14073000D01*
X3766905Y-14063476D01*
X3957381Y-14063476D02*
X3976428Y-14063476D01*
X3995476Y-14073000D01*
X4005000Y-14082524D01*
X4014524Y-14101571D01*
X4024048Y-14139667D01*
X4024048Y-14187286D01*
X4014524Y-14225381D01*
X4005000Y-14244428D01*
X3995476Y-14253952D01*
X3976428Y-14263476D01*
X3957381Y-14263476D01*
X3938333Y-14253952D01*
X3928809Y-14244428D01*
X3919286Y-14225381D01*
X3909762Y-14187286D01*
X3909762Y-14139667D01*
X3919286Y-14101571D01*
X3928809Y-14082524D01*
X3938333Y-14073000D01*
X3957381Y-14063476D01*
X4109762Y-14263476D02*
X4109762Y-14130143D01*
X4109762Y-14149190D02*
X4119286Y-14139667D01*
X4138333Y-14130143D01*
X4166905Y-14130143D01*
X4185952Y-14139667D01*
X4195476Y-14158714D01*
X4195476Y-14263476D01*
X4195476Y-14158714D02*
X4205000Y-14139667D01*
X4224048Y-14130143D01*
X4252619Y-14130143D01*
X4271667Y-14139667D01*
X4281190Y-14158714D01*
X4281190Y-14263476D01*
X4376429Y-14263476D02*
X4376429Y-14130143D01*
X4376429Y-14149190D02*
X4385952Y-14139667D01*
X4405000Y-14130143D01*
X4433571Y-14130143D01*
X4452619Y-14139667D01*
X4462143Y-14158714D01*
X4462143Y-14263476D01*
X4462143Y-14158714D02*
X4471667Y-14139667D01*
X4490714Y-14130143D01*
X4519286Y-14130143D01*
X4538333Y-14139667D01*
X4547857Y-14158714D01*
X4547857Y-14263476D01*
X4938333Y-14053952D02*
X4766905Y-14311095D01*
X5195476Y-14063476D02*
X5214524Y-14063476D01*
X5233571Y-14073000D01*
X5243095Y-14082524D01*
X5252619Y-14101571D01*
X5262143Y-14139667D01*
X5262143Y-14187286D01*
X5252619Y-14225381D01*
X5243095Y-14244428D01*
X5233571Y-14253952D01*
X5214524Y-14263476D01*
X5195476Y-14263476D01*
X5176429Y-14253952D01*
X5166905Y-14244428D01*
X5157381Y-14225381D01*
X5147857Y-14187286D01*
X5147857Y-14139667D01*
X5157381Y-14101571D01*
X5166905Y-14082524D01*
X5176429Y-14073000D01*
X5195476Y-14063476D01*
X5347857Y-14244428D02*
X5357381Y-14253952D01*
X5347857Y-14263476D01*
X5338333Y-14253952D01*
X5347857Y-14244428D01*
X5347857Y-14263476D01*
X5481190Y-14063476D02*
X5500238Y-14063476D01*
X5519286Y-14073000D01*
X5528810Y-14082524D01*
X5538333Y-14101571D01*
X5547857Y-14139667D01*
X5547857Y-14187286D01*
X5538333Y-14225381D01*
X5528810Y-14244428D01*
X5519286Y-14253952D01*
X5500238Y-14263476D01*
X5481190Y-14263476D01*
X5462143Y-14253952D01*
X5452619Y-14244428D01*
X5443095Y-14225381D01*
X5433571Y-14187286D01*
X5433571Y-14139667D01*
X5443095Y-14101571D01*
X5452619Y-14082524D01*
X5462143Y-14073000D01*
X5481190Y-14063476D01*
X5614524Y-14063476D02*
X5738333Y-14063476D01*
X5671667Y-14139667D01*
X5700238Y-14139667D01*
X5719286Y-14149190D01*
X5728809Y-14158714D01*
X5738333Y-14177762D01*
X5738333Y-14225381D01*
X5728809Y-14244428D01*
X5719286Y-14253952D01*
X5700238Y-14263476D01*
X5643095Y-14263476D01*
X5624048Y-14253952D01*
X5614524Y-14244428D01*
X5928809Y-14263476D02*
X5814524Y-14263476D01*
X5871667Y-14263476D02*
X5871667Y-14063476D01*
X5852619Y-14092048D01*
X5833571Y-14111095D01*
X5814524Y-14120619D01*
X6109762Y-14063476D02*
X6014524Y-14063476D01*
X6005000Y-14158714D01*
X6014524Y-14149190D01*
X6033571Y-14139667D01*
X6081190Y-14139667D01*
X6100238Y-14149190D01*
X6109762Y-14158714D01*
X6119286Y-14177762D01*
X6119286Y-14225381D01*
X6109762Y-14244428D01*
X6100238Y-14253952D01*
X6081190Y-14263476D01*
X6033571Y-14263476D01*
X6014524Y-14253952D01*
X6005000Y-14244428D01*
X6195476Y-14063476D02*
X6195476Y-14101571D01*
X6271667Y-14063476D02*
X6271667Y-14101571D01*
X6566905Y-14339667D02*
X6557381Y-14330143D01*
X6538333Y-14301571D01*
X6528809Y-14282524D01*
X6519286Y-14253952D01*
X6509762Y-14206333D01*
X6509762Y-14168238D01*
X6519286Y-14120619D01*
X6528809Y-14092048D01*
X6538333Y-14073000D01*
X6557381Y-14044428D01*
X6566905Y-14034905D01*
X6738333Y-14063476D02*
X6643095Y-14063476D01*
X6633571Y-14158714D01*
X6643095Y-14149190D01*
X6662143Y-14139667D01*
X6709762Y-14139667D01*
X6728809Y-14149190D01*
X6738333Y-14158714D01*
X6747857Y-14177762D01*
X6747857Y-14225381D01*
X6738333Y-14244428D01*
X6728809Y-14253952D01*
X6709762Y-14263476D01*
X6662143Y-14263476D01*
X6643095Y-14253952D01*
X6633571Y-14244428D01*
X6919286Y-14130143D02*
X6919286Y-14263476D01*
X6871667Y-14053952D02*
X6824048Y-14196809D01*
X6947857Y-14196809D01*
X7176428Y-14263476D02*
X7176428Y-14063476D01*
X7262143Y-14263476D02*
X7262143Y-14158714D01*
X7252619Y-14139667D01*
X7233571Y-14130143D01*
X7205000Y-14130143D01*
X7185952Y-14139667D01*
X7176428Y-14149190D01*
X7385952Y-14263476D02*
X7366905Y-14253952D01*
X7357381Y-14244428D01*
X7347857Y-14225381D01*
X7347857Y-14168238D01*
X7357381Y-14149190D01*
X7366905Y-14139667D01*
X7385952Y-14130143D01*
X7414524Y-14130143D01*
X7433571Y-14139667D01*
X7443095Y-14149190D01*
X7452619Y-14168238D01*
X7452619Y-14225381D01*
X7443095Y-14244428D01*
X7433571Y-14253952D01*
X7414524Y-14263476D01*
X7385952Y-14263476D01*
X7566905Y-14263476D02*
X7547857Y-14253952D01*
X7538333Y-14234905D01*
X7538333Y-14063476D01*
X7719286Y-14253952D02*
X7700238Y-14263476D01*
X7662143Y-14263476D01*
X7643095Y-14253952D01*
X7633571Y-14234905D01*
X7633571Y-14158714D01*
X7643095Y-14139667D01*
X7662143Y-14130143D01*
X7700238Y-14130143D01*
X7719286Y-14139667D01*
X7728809Y-14158714D01*
X7728809Y-14177762D01*
X7633571Y-14196809D01*
X7805000Y-14253952D02*
X7824048Y-14263476D01*
X7862143Y-14263476D01*
X7881190Y-14253952D01*
X7890714Y-14234905D01*
X7890714Y-14225381D01*
X7881190Y-14206333D01*
X7862143Y-14196809D01*
X7833571Y-14196809D01*
X7814524Y-14187286D01*
X7805000Y-14168238D01*
X7805000Y-14158714D01*
X7814524Y-14139667D01*
X7833571Y-14130143D01*
X7862143Y-14130143D01*
X7881190Y-14139667D01*
X7957381Y-14339667D02*
X7966905Y-14330143D01*
X7985952Y-14301571D01*
X7995476Y-14282524D01*
X8005000Y-14253952D01*
X8014524Y-14206333D01*
X8014524Y-14168238D01*
X8005000Y-14120619D01*
X7995476Y-14092048D01*
X7985952Y-14073000D01*
X7966905Y-14044428D01*
X7957381Y-14034905D01*
D10*
X2980356Y-14472356D02*
X2980356Y-14401644D01*
X2909644Y-14401644D01*
X2909644Y-14472356D01*
X2980356Y-14472356D01*
D11*
X3357381Y-14527476D02*
X3243095Y-14527476D01*
X3300238Y-14527476D02*
X3300238Y-14327476D01*
X3281190Y-14356048D01*
X3262143Y-14375095D01*
X3243095Y-14384619D01*
X3443095Y-14508428D02*
X3452619Y-14517952D01*
X3443095Y-14527476D01*
X3433571Y-14517952D01*
X3443095Y-14508428D01*
X3443095Y-14527476D01*
X3576428Y-14327476D02*
X3595476Y-14327476D01*
X3614524Y-14337000D01*
X3624048Y-14346524D01*
X3633571Y-14365571D01*
X3643095Y-14403667D01*
X3643095Y-14451286D01*
X3633571Y-14489381D01*
X3624048Y-14508428D01*
X3614524Y-14517952D01*
X3595476Y-14527476D01*
X3576428Y-14527476D01*
X3557381Y-14517952D01*
X3547857Y-14508428D01*
X3538333Y-14489381D01*
X3528809Y-14451286D01*
X3528809Y-14403667D01*
X3538333Y-14365571D01*
X3547857Y-14346524D01*
X3557381Y-14337000D01*
X3576428Y-14327476D01*
X3766905Y-14327476D02*
X3785952Y-14327476D01*
X3805000Y-14337000D01*
X3814524Y-14346524D01*
X3824048Y-14365571D01*
X3833571Y-14403667D01*
X3833571Y-14451286D01*
X3824048Y-14489381D01*
X3814524Y-14508428D01*
X3805000Y-14517952D01*
X3785952Y-14527476D01*
X3766905Y-14527476D01*
X3747857Y-14517952D01*
X3738333Y-14508428D01*
X3728809Y-14489381D01*
X3719286Y-14451286D01*
X3719286Y-14403667D01*
X3728809Y-14365571D01*
X3738333Y-14346524D01*
X3747857Y-14337000D01*
X3766905Y-14327476D01*
X3957381Y-14327476D02*
X3976428Y-14327476D01*
X3995476Y-14337000D01*
X4005000Y-14346524D01*
X4014524Y-14365571D01*
X4024048Y-14403667D01*
X4024048Y-14451286D01*
X4014524Y-14489381D01*
X4005000Y-14508428D01*
X3995476Y-14517952D01*
X3976428Y-14527476D01*
X3957381Y-14527476D01*
X3938333Y-14517952D01*
X3928809Y-14508428D01*
X3919286Y-14489381D01*
X3909762Y-14451286D01*
X3909762Y-14403667D01*
X3919286Y-14365571D01*
X3928809Y-14346524D01*
X3938333Y-14337000D01*
X3957381Y-14327476D01*
X4109762Y-14527476D02*
X4109762Y-14394143D01*
X4109762Y-14413190D02*
X4119286Y-14403667D01*
X4138333Y-14394143D01*
X4166905Y-14394143D01*
X4185952Y-14403667D01*
X4195476Y-14422714D01*
X4195476Y-14527476D01*
X4195476Y-14422714D02*
X4205000Y-14403667D01*
X4224048Y-14394143D01*
X4252619Y-14394143D01*
X4271667Y-14403667D01*
X4281190Y-14422714D01*
X4281190Y-14527476D01*
X4376429Y-14527476D02*
X4376429Y-14394143D01*
X4376429Y-14413190D02*
X4385952Y-14403667D01*
X4405000Y-14394143D01*
X4433571Y-14394143D01*
X4452619Y-14403667D01*
X4462143Y-14422714D01*
X4462143Y-14527476D01*
X4462143Y-14422714D02*
X4471667Y-14403667D01*
X4490714Y-14394143D01*
X4519286Y-14394143D01*
X4538333Y-14403667D01*
X4547857Y-14422714D01*
X4547857Y-14527476D01*
X4938333Y-14317952D02*
X4766905Y-14575095D01*
X5195476Y-14327476D02*
X5214524Y-14327476D01*
X5233571Y-14337000D01*
X5243095Y-14346524D01*
X5252619Y-14365571D01*
X5262143Y-14403667D01*
X5262143Y-14451286D01*
X5252619Y-14489381D01*
X5243095Y-14508428D01*
X5233571Y-14517952D01*
X5214524Y-14527476D01*
X5195476Y-14527476D01*
X5176429Y-14517952D01*
X5166905Y-14508428D01*
X5157381Y-14489381D01*
X5147857Y-14451286D01*
X5147857Y-14403667D01*
X5157381Y-14365571D01*
X5166905Y-14346524D01*
X5176429Y-14337000D01*
X5195476Y-14327476D01*
X5347857Y-14508428D02*
X5357381Y-14517952D01*
X5347857Y-14527476D01*
X5338333Y-14517952D01*
X5347857Y-14508428D01*
X5347857Y-14527476D01*
X5481190Y-14327476D02*
X5500238Y-14327476D01*
X5519286Y-14337000D01*
X5528810Y-14346524D01*
X5538333Y-14365571D01*
X5547857Y-14403667D01*
X5547857Y-14451286D01*
X5538333Y-14489381D01*
X5528810Y-14508428D01*
X5519286Y-14517952D01*
X5500238Y-14527476D01*
X5481190Y-14527476D01*
X5462143Y-14517952D01*
X5452619Y-14508428D01*
X5443095Y-14489381D01*
X5433571Y-14451286D01*
X5433571Y-14403667D01*
X5443095Y-14365571D01*
X5452619Y-14346524D01*
X5462143Y-14337000D01*
X5481190Y-14327476D01*
X5614524Y-14327476D02*
X5738333Y-14327476D01*
X5671667Y-14403667D01*
X5700238Y-14403667D01*
X5719286Y-14413190D01*
X5728809Y-14422714D01*
X5738333Y-14441762D01*
X5738333Y-14489381D01*
X5728809Y-14508428D01*
X5719286Y-14517952D01*
X5700238Y-14527476D01*
X5643095Y-14527476D01*
X5624048Y-14517952D01*
X5614524Y-14508428D01*
X5833571Y-14527476D02*
X5871667Y-14527476D01*
X5890714Y-14517952D01*
X5900238Y-14508428D01*
X5919286Y-14479857D01*
X5928809Y-14441762D01*
X5928809Y-14365571D01*
X5919286Y-14346524D01*
X5909762Y-14337000D01*
X5890714Y-14327476D01*
X5852619Y-14327476D01*
X5833571Y-14337000D01*
X5824048Y-14346524D01*
X5814524Y-14365571D01*
X5814524Y-14413190D01*
X5824048Y-14432238D01*
X5833571Y-14441762D01*
X5852619Y-14451286D01*
X5890714Y-14451286D01*
X5909762Y-14441762D01*
X5919286Y-14432238D01*
X5928809Y-14413190D01*
X6100238Y-14394143D02*
X6100238Y-14527476D01*
X6052619Y-14317952D02*
X6005000Y-14460809D01*
X6128809Y-14460809D01*
X6195476Y-14327476D02*
X6195476Y-14365571D01*
X6271667Y-14327476D02*
X6271667Y-14365571D01*
X6566905Y-14603667D02*
X6557381Y-14594143D01*
X6538333Y-14565571D01*
X6528809Y-14546524D01*
X6519286Y-14517952D01*
X6509762Y-14470333D01*
X6509762Y-14432238D01*
X6519286Y-14384619D01*
X6528809Y-14356048D01*
X6538333Y-14337000D01*
X6557381Y-14308428D01*
X6566905Y-14298905D01*
X6747857Y-14527476D02*
X6633571Y-14527476D01*
X6690714Y-14527476D02*
X6690714Y-14327476D01*
X6671667Y-14356048D01*
X6652619Y-14375095D01*
X6633571Y-14384619D01*
X6824048Y-14346524D02*
X6833571Y-14337000D01*
X6852619Y-14327476D01*
X6900238Y-14327476D01*
X6919286Y-14337000D01*
X6928809Y-14346524D01*
X6938333Y-14365571D01*
X6938333Y-14384619D01*
X6928809Y-14413190D01*
X6814524Y-14527476D01*
X6938333Y-14527476D01*
X7005000Y-14327476D02*
X7128809Y-14327476D01*
X7062143Y-14403667D01*
X7090714Y-14403667D01*
X7109762Y-14413190D01*
X7119286Y-14422714D01*
X7128809Y-14441762D01*
X7128809Y-14489381D01*
X7119286Y-14508428D01*
X7109762Y-14517952D01*
X7090714Y-14527476D01*
X7033571Y-14527476D01*
X7014524Y-14517952D01*
X7005000Y-14508428D01*
X7366905Y-14527476D02*
X7366905Y-14327476D01*
X7452619Y-14527476D02*
X7452619Y-14422714D01*
X7443095Y-14403667D01*
X7424048Y-14394143D01*
X7395476Y-14394143D01*
X7376428Y-14403667D01*
X7366905Y-14413190D01*
X7576428Y-14527476D02*
X7557381Y-14517952D01*
X7547857Y-14508428D01*
X7538333Y-14489381D01*
X7538333Y-14432238D01*
X7547857Y-14413190D01*
X7557381Y-14403667D01*
X7576428Y-14394143D01*
X7605000Y-14394143D01*
X7624048Y-14403667D01*
X7633571Y-14413190D01*
X7643095Y-14432238D01*
X7643095Y-14489381D01*
X7633571Y-14508428D01*
X7624048Y-14517952D01*
X7605000Y-14527476D01*
X7576428Y-14527476D01*
X7757381Y-14527476D02*
X7738333Y-14517952D01*
X7728809Y-14498905D01*
X7728809Y-14327476D01*
X7909762Y-14517952D02*
X7890714Y-14527476D01*
X7852619Y-14527476D01*
X7833571Y-14517952D01*
X7824048Y-14498905D01*
X7824048Y-14422714D01*
X7833571Y-14403667D01*
X7852619Y-14394143D01*
X7890714Y-14394143D01*
X7909762Y-14403667D01*
X7919286Y-14422714D01*
X7919286Y-14441762D01*
X7824048Y-14460809D01*
X7995476Y-14517952D02*
X8014524Y-14527476D01*
X8052619Y-14527476D01*
X8071667Y-14517952D01*
X8081190Y-14498905D01*
X8081190Y-14489381D01*
X8071667Y-14470333D01*
X8052619Y-14460809D01*
X8024048Y-14460809D01*
X8005000Y-14451286D01*
X7995476Y-14432238D01*
X7995476Y-14422714D01*
X8005000Y-14403667D01*
X8024048Y-14394143D01*
X8052619Y-14394143D01*
X8071667Y-14403667D01*
X8147857Y-14603667D02*
X8157381Y-14594143D01*
X8176428Y-14565571D01*
X8185952Y-14546524D01*
X8195476Y-14517952D01*
X8205000Y-14470333D01*
X8205000Y-14432238D01*
X8195476Y-14384619D01*
X8185952Y-14356048D01*
X8176428Y-14337000D01*
X8157381Y-14308428D01*
X8147857Y-14298905D01*
X2895000Y-14801000D02*
X2995000Y-14701000D01*
X2895000Y-14601000D01*
X2795000Y-14701000D01*
X2895000Y-14801000D01*
X3243095Y-14610524D02*
X3252619Y-14601000D01*
X3271667Y-14591476D01*
X3319286Y-14591476D01*
X3338333Y-14601000D01*
X3347857Y-14610524D01*
X3357381Y-14629571D01*
X3357381Y-14648619D01*
X3347857Y-14677190D01*
X3233571Y-14791476D01*
X3357381Y-14791476D01*
X3443095Y-14772428D02*
X3452619Y-14781952D01*
X3443095Y-14791476D01*
X3433571Y-14781952D01*
X3443095Y-14772428D01*
X3443095Y-14791476D01*
X3633571Y-14591476D02*
X3538333Y-14591476D01*
X3528809Y-14686714D01*
X3538333Y-14677190D01*
X3557381Y-14667667D01*
X3605000Y-14667667D01*
X3624048Y-14677190D01*
X3633571Y-14686714D01*
X3643095Y-14705762D01*
X3643095Y-14753381D01*
X3633571Y-14772428D01*
X3624048Y-14781952D01*
X3605000Y-14791476D01*
X3557381Y-14791476D01*
X3538333Y-14781952D01*
X3528809Y-14772428D01*
X3766905Y-14591476D02*
X3785952Y-14591476D01*
X3805000Y-14601000D01*
X3814524Y-14610524D01*
X3824048Y-14629571D01*
X3833571Y-14667667D01*
X3833571Y-14715286D01*
X3824048Y-14753381D01*
X3814524Y-14772428D01*
X3805000Y-14781952D01*
X3785952Y-14791476D01*
X3766905Y-14791476D01*
X3747857Y-14781952D01*
X3738333Y-14772428D01*
X3728809Y-14753381D01*
X3719286Y-14715286D01*
X3719286Y-14667667D01*
X3728809Y-14629571D01*
X3738333Y-14610524D01*
X3747857Y-14601000D01*
X3766905Y-14591476D01*
X3957381Y-14591476D02*
X3976428Y-14591476D01*
X3995476Y-14601000D01*
X4005000Y-14610524D01*
X4014524Y-14629571D01*
X4024048Y-14667667D01*
X4024048Y-14715286D01*
X4014524Y-14753381D01*
X4005000Y-14772428D01*
X3995476Y-14781952D01*
X3976428Y-14791476D01*
X3957381Y-14791476D01*
X3938333Y-14781952D01*
X3928809Y-14772428D01*
X3919286Y-14753381D01*
X3909762Y-14715286D01*
X3909762Y-14667667D01*
X3919286Y-14629571D01*
X3928809Y-14610524D01*
X3938333Y-14601000D01*
X3957381Y-14591476D01*
X4109762Y-14791476D02*
X4109762Y-14658143D01*
X4109762Y-14677190D02*
X4119286Y-14667667D01*
X4138333Y-14658143D01*
X4166905Y-14658143D01*
X4185952Y-14667667D01*
X4195476Y-14686714D01*
X4195476Y-14791476D01*
X4195476Y-14686714D02*
X4205000Y-14667667D01*
X4224048Y-14658143D01*
X4252619Y-14658143D01*
X4271667Y-14667667D01*
X4281190Y-14686714D01*
X4281190Y-14791476D01*
X4376429Y-14791476D02*
X4376429Y-14658143D01*
X4376429Y-14677190D02*
X4385952Y-14667667D01*
X4405000Y-14658143D01*
X4433571Y-14658143D01*
X4452619Y-14667667D01*
X4462143Y-14686714D01*
X4462143Y-14791476D01*
X4462143Y-14686714D02*
X4471667Y-14667667D01*
X4490714Y-14658143D01*
X4519286Y-14658143D01*
X4538333Y-14667667D01*
X4547857Y-14686714D01*
X4547857Y-14791476D01*
X4938333Y-14581952D02*
X4766905Y-14839095D01*
X5195476Y-14591476D02*
X5214524Y-14591476D01*
X5233571Y-14601000D01*
X5243095Y-14610524D01*
X5252619Y-14629571D01*
X5262143Y-14667667D01*
X5262143Y-14715286D01*
X5252619Y-14753381D01*
X5243095Y-14772428D01*
X5233571Y-14781952D01*
X5214524Y-14791476D01*
X5195476Y-14791476D01*
X5176429Y-14781952D01*
X5166905Y-14772428D01*
X5157381Y-14753381D01*
X5147857Y-14715286D01*
X5147857Y-14667667D01*
X5157381Y-14629571D01*
X5166905Y-14610524D01*
X5176429Y-14601000D01*
X5195476Y-14591476D01*
X5347857Y-14772428D02*
X5357381Y-14781952D01*
X5347857Y-14791476D01*
X5338333Y-14781952D01*
X5347857Y-14772428D01*
X5347857Y-14791476D01*
X5481190Y-14591476D02*
X5500238Y-14591476D01*
X5519286Y-14601000D01*
X5528810Y-14610524D01*
X5538333Y-14629571D01*
X5547857Y-14667667D01*
X5547857Y-14715286D01*
X5538333Y-14753381D01*
X5528810Y-14772428D01*
X5519286Y-14781952D01*
X5500238Y-14791476D01*
X5481190Y-14791476D01*
X5462143Y-14781952D01*
X5452619Y-14772428D01*
X5443095Y-14753381D01*
X5433571Y-14715286D01*
X5433571Y-14667667D01*
X5443095Y-14629571D01*
X5452619Y-14610524D01*
X5462143Y-14601000D01*
X5481190Y-14591476D01*
X5643095Y-14791476D02*
X5681190Y-14791476D01*
X5700238Y-14781952D01*
X5709762Y-14772428D01*
X5728809Y-14743857D01*
X5738333Y-14705762D01*
X5738333Y-14629571D01*
X5728809Y-14610524D01*
X5719286Y-14601000D01*
X5700238Y-14591476D01*
X5662143Y-14591476D01*
X5643095Y-14601000D01*
X5633571Y-14610524D01*
X5624048Y-14629571D01*
X5624048Y-14677190D01*
X5633571Y-14696238D01*
X5643095Y-14705762D01*
X5662143Y-14715286D01*
X5700238Y-14715286D01*
X5719286Y-14705762D01*
X5728809Y-14696238D01*
X5738333Y-14677190D01*
X5852619Y-14677190D02*
X5833571Y-14667667D01*
X5824048Y-14658143D01*
X5814524Y-14639095D01*
X5814524Y-14629571D01*
X5824048Y-14610524D01*
X5833571Y-14601000D01*
X5852619Y-14591476D01*
X5890714Y-14591476D01*
X5909762Y-14601000D01*
X5919286Y-14610524D01*
X5928809Y-14629571D01*
X5928809Y-14639095D01*
X5919286Y-14658143D01*
X5909762Y-14667667D01*
X5890714Y-14677190D01*
X5852619Y-14677190D01*
X5833571Y-14686714D01*
X5824048Y-14696238D01*
X5814524Y-14715286D01*
X5814524Y-14753381D01*
X5824048Y-14772428D01*
X5833571Y-14781952D01*
X5852619Y-14791476D01*
X5890714Y-14791476D01*
X5909762Y-14781952D01*
X5919286Y-14772428D01*
X5928809Y-14753381D01*
X5928809Y-14715286D01*
X5919286Y-14696238D01*
X5909762Y-14686714D01*
X5890714Y-14677190D01*
X6100238Y-14658143D02*
X6100238Y-14791476D01*
X6052619Y-14581952D02*
X6005000Y-14724809D01*
X6128809Y-14724809D01*
X6195476Y-14591476D02*
X6195476Y-14629571D01*
X6271667Y-14591476D02*
X6271667Y-14629571D01*
X6566905Y-14867667D02*
X6557381Y-14858143D01*
X6538333Y-14829571D01*
X6528809Y-14810524D01*
X6519286Y-14781952D01*
X6509762Y-14734333D01*
X6509762Y-14696238D01*
X6519286Y-14648619D01*
X6528809Y-14620048D01*
X6538333Y-14601000D01*
X6557381Y-14572428D01*
X6566905Y-14562905D01*
X6747857Y-14791476D02*
X6633571Y-14791476D01*
X6690714Y-14791476D02*
X6690714Y-14591476D01*
X6671667Y-14620048D01*
X6652619Y-14639095D01*
X6633571Y-14648619D01*
X6919286Y-14591476D02*
X6881190Y-14591476D01*
X6862143Y-14601000D01*
X6852619Y-14610524D01*
X6833571Y-14639095D01*
X6824048Y-14677190D01*
X6824048Y-14753381D01*
X6833571Y-14772428D01*
X6843095Y-14781952D01*
X6862143Y-14791476D01*
X6900238Y-14791476D01*
X6919286Y-14781952D01*
X6928809Y-14772428D01*
X6938333Y-14753381D01*
X6938333Y-14705762D01*
X6928809Y-14686714D01*
X6919286Y-14677190D01*
X6900238Y-14667667D01*
X6862143Y-14667667D01*
X6843095Y-14677190D01*
X6833571Y-14686714D01*
X6824048Y-14705762D01*
X7176428Y-14791476D02*
X7176428Y-14591476D01*
X7262143Y-14791476D02*
X7262143Y-14686714D01*
X7252619Y-14667667D01*
X7233571Y-14658143D01*
X7205000Y-14658143D01*
X7185952Y-14667667D01*
X7176428Y-14677190D01*
X7385952Y-14791476D02*
X7366905Y-14781952D01*
X7357381Y-14772428D01*
X7347857Y-14753381D01*
X7347857Y-14696238D01*
X7357381Y-14677190D01*
X7366905Y-14667667D01*
X7385952Y-14658143D01*
X7414524Y-14658143D01*
X7433571Y-14667667D01*
X7443095Y-14677190D01*
X7452619Y-14696238D01*
X7452619Y-14753381D01*
X7443095Y-14772428D01*
X7433571Y-14781952D01*
X7414524Y-14791476D01*
X7385952Y-14791476D01*
X7566905Y-14791476D02*
X7547857Y-14781952D01*
X7538333Y-14762905D01*
X7538333Y-14591476D01*
X7719286Y-14781952D02*
X7700238Y-14791476D01*
X7662143Y-14791476D01*
X7643095Y-14781952D01*
X7633571Y-14762905D01*
X7633571Y-14686714D01*
X7643095Y-14667667D01*
X7662143Y-14658143D01*
X7700238Y-14658143D01*
X7719286Y-14667667D01*
X7728809Y-14686714D01*
X7728809Y-14705762D01*
X7633571Y-14724809D01*
X7805000Y-14781952D02*
X7824048Y-14791476D01*
X7862143Y-14791476D01*
X7881190Y-14781952D01*
X7890714Y-14762905D01*
X7890714Y-14753381D01*
X7881190Y-14734333D01*
X7862143Y-14724809D01*
X7833571Y-14724809D01*
X7814524Y-14715286D01*
X7805000Y-14696238D01*
X7805000Y-14686714D01*
X7814524Y-14667667D01*
X7833571Y-14658143D01*
X7862143Y-14658143D01*
X7881190Y-14667667D01*
X7957381Y-14867667D02*
X7966905Y-14858143D01*
X7985952Y-14829571D01*
X7995476Y-14810524D01*
X8005000Y-14781952D01*
X8014524Y-14734333D01*
X8014524Y-14696238D01*
X8005000Y-14648619D01*
X7995476Y-14620048D01*
X7985952Y-14601000D01*
X7966905Y-14572428D01*
X7957381Y-14562905D01*
M02*
