M48
; DRILL file {KiCad (5.1.10)-1} date 11/01/21 20:38:26
; FORMAT={-:-/ absolute / metric / decimal}
; #@! TF.CreationDate,2021-11-01T20:38:26+03:00
; #@! TF.GenerationSoftware,Kicad,Pcbnew,(5.1.10)-1
; #@! TF.FileFunction,Plated,1,2,PTH
FMAT,2
METRIC
T1C0.700
T2C0.800
T3C1.000
T4C1.300
T5C2.000
%
G90
G05
T1
X109.606Y-152.146
X111.506Y-152.146
X124.206Y-152.146
X126.106Y-152.146
T2
X104.14Y-146.558
X104.14Y-149.058
X116.84Y-152.146
X119.34Y-152.146
X129.286Y-146.598
X129.286Y-149.098
T3
X108.204Y-149.098
X109.22Y-156.972
X109.904Y-144.018
X111.604Y-149.098
X111.76Y-156.972
X113.304Y-144.018
X114.3Y-156.972
X115.004Y-149.098
X116.704Y-144.018
X116.84Y-156.972
X118.404Y-149.098
X119.38Y-156.972
X120.104Y-144.018
X121.804Y-149.098
X123.504Y-144.018
X125.204Y-149.098
T4
X97.79Y-136.652
X97.79Y-141.652
X135.128Y-136.478
X135.128Y-141.478
T5
X97.696Y-116.84
X107.696Y-116.84
X124.968Y-116.84
X134.968Y-116.84
T0
M30
